#N canvas 0 23 450 300 10;
#X obj 140 121 im.sensor 1;
#X obj 236 121 im.sensor 2;
#X obj 47 218 im.looper;
#X obj 47 239 im.speaker;
#X obj 46 79 im.microphone;
#X text 139 102 record;
#X text 236 102 playback;
#X connect 0 0 2 1;
#X connect 1 0 2 2;
#X connect 2 0 3 0;
#X connect 4 0 2 0;
