#N canvas 219 101 808 551 12;
#X obj 40 28 im.keypress q;
#X obj 44 202 im.step 8 random;
#X obj 44 228 im.sequence 0 1 2 3 4 5 6 7;
#X obj 44 255 im.scale C major 6;
#X obj 44 281 im.tunedperc;
#X obj 43 458 im.speaker;
#X obj 283 256 im.envelope 1000 1000;
#X obj 63 417 im.echo 250 60%;
#X text 419 225 << delay the onset of the envelope;
#X text 418 194 << clear pending events on key release;
#X text 415 309 << smooth the output to avoid zipper noise;
#X text 415 286 << multiply output to useful range for echo;
#X obj 283 226 im.echo 1000;
#X obj 361 193 im.flip;
#X obj 283 283 im.multiply 1000;
#X obj 283 307 im.smooth 100 100;
#X connect 0 0 1 0;
#X connect 0 0 12 0;
#X connect 0 0 13 0;
#X connect 1 0 2 0;
#X connect 2 0 3 0;
#X connect 3 0 4 0;
#X connect 4 0 5 0;
#X connect 4 0 7 0;
#X connect 6 0 14 0;
#X connect 7 0 5 0;
#X connect 12 0 6 0;
#X connect 13 0 12 3;
#X connect 14 0 15 0;
#X connect 15 0 7 1;
