#N canvas 527 71 932 446 10;
#X obj 125 137 im.scale C major 2;
#X obj 125 158 im.sawtooth;
#X obj 125 179 im.volume;
#X obj 126 255 im.output;
#X obj 268 116 im.input 2;
#X obj 126 217 im.volume 400%;
#X obj 125 116 im.input 1 octaves 2;
#X obj 430 118 im.sawtooth;
#X obj 431 183 im.volume;
#X obj 432 259 im.output;
#X obj 432 221 im.volume 400%;
#X obj 430 92 im.set C 4;
#X obj 574 120 im.input 3;
#X obj 667 109 im.sawtooth;
#X obj 668 174 im.volume;
#X obj 669 250 im.output;
#X obj 669 212 im.volume 400%;
#X obj 667 83 im.set C 4;
#X obj 811 111 im.input 4;
#X connect 0 0 1 0;
#X connect 1 0 2 0;
#X connect 2 0 5 0;
#X connect 4 0 2 1;
#X connect 5 0 3 0;
#X connect 6 0 0 0;
#X connect 7 0 8 0;
#X connect 8 0 10 0;
#X connect 10 0 9 0;
#X connect 11 0 7 0;
#X connect 12 0 8 1;
#X connect 13 0 14 0;
#X connect 14 0 16 0;
#X connect 16 0 15 0;
#X connect 17 0 13 0;
#X connect 18 0 14 1;
