#N canvas 0 22 450 300 10;
#X obj 74 87 spigot;
#X obj 106 45 loadbang;
#X msg 75 135 0;
#X obj 75 112 sel 0;
#X msg 106 66 1;
#X obj 71 28 inlet;
#X obj 16 120 outlet;
#X connect 0 0 3 0;
#X connect 0 0 6 0;
#X connect 1 0 4 0;
#X connect 2 0 0 1;
#X connect 3 0 2 0;
#X connect 4 0 0 1;
#X connect 5 0 0 0;
#X coords 0 -1 1 1 15 15 1 0 800;
