#N canvas 0 23 495 656 12;
#X obj 21 375 outlet~;
#X obj 81 36 inlet~ fwd velocity;
#X obj 81 96 snapshot~;
#X obj 103 69 bang~;
#X obj 81 120 change;
#X obj 81 213 > 0;
#X obj 109 145 loadbang;
#X msg 109 169 1;
#X obj 81 237 sel 1;
#X obj 21 303 noise~;
#X obj 21 339 *~, f 9;
#X obj 81 285 line~;
#X msg 81 261 0.2 \, 0 1;
#X connect 1 0 2 0;
#X connect 2 0 4 0;
#X connect 3 0 2 0;
#X connect 4 0 5 0;
#X connect 5 0 8 0;
#X connect 6 0 7 0;
#X connect 7 0 5 0;
#X connect 8 0 12 0;
#X connect 9 0 10 0;
#X connect 10 0 0 0;
#X connect 11 0 10 1;
#X connect 12 0 11 0;
