#N canvas 830 90 450 300;
#X obj 21 194 phasor~ \$1;
#X obj 128 34 bng 15 250 50 0 empty empty empty 17 7 0 10 -262144 -1
-1;
#X obj 128 9 loadbang;
#X obj 278 127 im.degrees;
#X obj 215 80 list store \$2;
#X floatatom 278 150 5 0 0 0 - - -;
#X obj 21 222 outlet~;
#X obj 78 172 f, f 9;
#X obj 78 80 r im.1s;
#X obj 78 124 spigot;
#X msg 126 122 0;
#X obj 128 57 t b b, f 15;
#X msg 128 79 1;
#X obj 78 144 t b b;
#X obj 215 105 route float;
#X obj 22 61 inlet~;
#X obj 22 140 +~;
#X obj 37 104 sig~ \$1;
#X connect 0 0 6 0;
#X connect 1 0 11 0;
#X connect 2 0 1 0;
#X connect 3 0 5 0;
#X connect 4 0 14 0;
#X connect 5 0 7 1;
#X connect 7 0 0 1;
#X connect 8 0 9 0;
#X connect 9 0 13 0;
#X connect 10 0 9 1;
#X connect 11 0 12 0;
#X connect 11 1 4 0;
#X connect 12 0 9 1;
#X connect 13 0 7 0;
#X connect 13 1 10 0;
#X connect 14 0 7 1;
#X connect 14 1 3 0;
#X connect 15 0 16 0;
#X connect 16 0 0 0;
#X connect 17 0 16 1;
#X coords 0 -1 1 1 15 15 1 0 800;
