#N canvas 0 23 450 300;
#X obj 169 88 list store \$1;
#X obj 169 109 sel im-board;
#X obj 169 222 s im-range;
#X obj 169 64 loadbang;
#X msg 169 133 1;
#X obj 170 157 metro 1000;
#X msg 169 181 77;
#X text 119 42 ignore this for now;
#X connect 0 0 1 0;
#X connect 1 0 4 0;
#X connect 3 0 0 0;
#X connect 4 0 5 0;
#X connect 5 0 6 0;
#X connect 6 0 2 0;
#X coords 0 -1 1 1 15 15 1 0 800;
