#N canvas 589 66 450 300;
#X floatatom 88 150 5 0 0 0 - - -;
#X floatatom 150 148 5 0 0 0 - - -;
#X floatatom 222 147 5 0 0 0 - - -;
#X floatatom 281 146 5 0 0 0 - - -;
#X obj 88 120 \$1;
#X obj 150 119 \$2;
#X obj 223 117 \$3;
#X obj 281 118 \$4;
#X obj 87 82 inlet;
#X obj 150 83 inlet;
#X obj 223 81 inlet;
#X obj 286 82 inlet;
#X obj 283 14 loadbang;
#X obj 283 36 t b b b b;
#X text 35 209 borrowed from jamoma;
#X obj 21 126 inlet~;
#X obj 22 191 expr~ ($v1-$v2)*($v4-$v5)/($v2-$v3)+$v4;
#X obj 22 249 outlet~;
#X obj 79 167 sig~;
#X obj 143 168 sig~;
#X obj 196 170 sig~;
#X obj 260 171 sig~;
#X connect 0 0 18 0;
#X connect 1 0 19 0;
#X connect 2 0 20 0;
#X connect 3 0 21 0;
#X connect 4 0 0 0;
#X connect 5 0 1 0;
#X connect 6 0 2 0;
#X connect 7 0 3 0;
#X connect 8 0 4 0;
#X connect 9 0 5 0;
#X connect 10 0 6 0;
#X connect 11 0 7 0;
#X connect 12 0 13 0;
#X connect 13 0 4 0;
#X connect 13 1 5 0;
#X connect 13 2 6 0;
#X connect 13 3 7 0;
#X connect 15 0 16 0;
#X connect 16 0 17 0;
#X connect 18 0 16 1;
#X connect 19 0 16 2;
#X connect 20 0 16 3;
#X connect 21 0 16 4;
#X coords 0 -1 1 1 15 15 1 0 800;
