#N canvas 409 83 701 472;
#X obj 26 93 dac~;
#X obj 26 20 inlet~;
#X obj 128 26 loadbang;
#X msg 127 51 \; pd dsp 1;
#X obj 26 57 clip~ -1 1;
#X text 126 84 no harm in doing this whenever an output is created
\, right?;
#X connect 1 0 4 0;
#X connect 2 0 3 0;
#X connect 4 0 0 0;
#X connect 4 0 0 1;
#X coords 0 -1 1 1 15 15 1 0 800;
