#N canvas 600 79 1115 851 12;
#X obj 60 137 samphold~;
#X obj 743 10 inlet~;
#X obj 54 55 inlet~;
#X obj 133 232 samphold~;
#X obj 227 352 samphold~;
#X obj 246 455 samphold~;
#X obj 448 468 samphold~;
#X obj 638 552 samphold~;
#X obj 806 615 samphold~;
#X obj 985 686 samphold~;
#X obj 95 822 outlet~;
#X obj 163 823 outlet~;
#X obj 240 824 outlet~;
#X obj 308 825 outlet~;
#X obj 473 808 outlet~;
#X obj 645 827 outlet~;
#X obj 806 825 outlet~;
#X obj 986 827 outlet~;
#X obj 132 202 delread~ \$0-1;
#X obj 75 170 delwrite~ \$0-1 1;
#X obj 152 273 delwrite~ \$0-2 1;
#X obj 203 306 delread~ \$0-2;
#X obj 241 384 delwrite~ \$0-3 1;
#X obj 237 417 delread~ \$0-3;
#X obj 289 499 delwrite~ \$0-4 1;
#X obj 429 412 delread~ \$0-4;
#X obj 486 506 delwrite~ \$0-5 1;
#X obj 634 519 delread~ \$0-5;
#X obj 657 585 delwrite~ \$0-6 1;
#X obj 807 581 delread~ \$0-6;
#X obj 834 689 delwrite~ \$0-7 1;
#X obj 974 602 delread~ \$0-7;
#X connect 0 0 10 0;
#X connect 0 0 19 0;
#X connect 1 0 0 1;
#X connect 1 0 3 1;
#X connect 1 0 4 1;
#X connect 1 0 5 1;
#X connect 1 0 6 1;
#X connect 1 0 7 1;
#X connect 1 0 8 1;
#X connect 1 0 9 1;
#X connect 2 0 0 0;
#X connect 3 0 11 0;
#X connect 3 0 20 0;
#X connect 4 0 12 0;
#X connect 4 0 22 0;
#X connect 5 0 13 0;
#X connect 5 0 24 0;
#X connect 6 0 14 0;
#X connect 6 0 26 0;
#X connect 7 0 15 0;
#X connect 7 0 28 0;
#X connect 8 0 16 0;
#X connect 8 0 30 0;
#X connect 9 0 17 0;
#X connect 18 0 3 0;
#X connect 21 0 4 0;
#X connect 23 0 5 0;
#X connect 25 0 6 0;
#X connect 27 0 7 0;
#X connect 29 0 8 0;
#X connect 31 0 9 0;
