#N canvas 0 23 749 487;
#X obj 129 22 inlet~;
#X obj 129 43 im.snapshot change;
#X obj 138 166 f;
#X obj 129 81 t f f, f 19;
#X text 177 166 buckets;
#X obj 247 168 f;
#X obj 235 210 tgl 15 0 empty empty empty 17 7 0 10 -262144 -1 -1 0
1;
#X obj 123 341 line~;
#X obj 128 133 t f f b f;
#X obj 237 135 t f f b f;
#X obj 124 210 sel 1;
#X obj 124 231 f;
#X obj 234 239 sel 1;
#X obj 234 260 f;
#X obj 124 287 pack f \$1;
#X obj 233 284 pack f \$2;
#X obj 125 185 <;
#X obj 234 187 >;
#X obj 123 365 outlet~;
#X text 309 281 add inlets;
#X connect 0 0 1 0;
#X connect 1 0 3 0;
#X connect 2 0 16 1;
#X connect 3 0 8 0;
#X connect 3 1 9 0;
#X connect 5 0 17 1;
#X connect 6 0 12 0;
#X connect 7 0 18 0;
#X connect 8 0 16 0;
#X connect 8 1 2 1;
#X connect 8 2 2 0;
#X connect 8 3 11 1;
#X connect 9 0 17 0;
#X connect 9 1 5 1;
#X connect 9 2 5 0;
#X connect 9 3 13 1;
#X connect 10 0 11 0;
#X connect 11 0 14 0;
#X connect 12 0 13 0;
#X connect 13 0 15 0;
#X connect 14 0 7 0;
#X connect 15 0 7 0;
#X connect 16 0 10 0;
#X connect 17 0 6 0;
#X coords 0 -1 1 1 15 15 1 0 800;
