#N canvas 669 440 325 328 10;
#X floatatom 26 83 5 0 0 0 - - -;
#X obj 88 102 list;
#X obj 86 79 bng 15 250 50 0 empty empty empty 17 7 0 10 -262144 -1
-1;
#X obj 24 17 inlet;
#X obj 145 304 outlet;
#X obj 88 257 list store;
#X obj 24 40 route clear zlclear bang;
#X obj 118 78 bng 15 250 50 0 empty empty empty 17 7 0 10 -262144 -1
-1;
#X obj 86 157 list length;
#X obj 167 114 inlet;
#X obj 86 182 ==;
#X obj 86 209 sel 1;
#X obj 207 114 loadbang;
#X obj 167 157 \$1;
#X obj 26 128 list prepend;
#X obj 86 234 t b b b;
#X obj 88 282 route bang;
#X connect 0 0 14 0;
#X connect 1 0 14 1;
#X connect 2 0 1 0;
#X connect 3 0 6 0;
#X connect 5 0 16 0;
#X connect 6 0 2 0;
#X connect 6 1 2 0;
#X connect 6 2 7 0;
#X connect 6 3 0 0;
#X connect 7 0 15 0;
#X connect 8 0 10 0;
#X connect 9 0 13 0;
#X connect 10 0 11 0;
#X connect 11 0 15 0;
#X connect 12 0 13 0;
#X connect 13 0 10 1;
#X connect 14 0 1 0;
#X connect 14 0 5 1;
#X connect 14 0 8 0;
#X connect 15 0 5 1;
#X connect 15 1 5 0;
#X connect 15 2 2 0;
#X connect 16 1 4 0;
