#N canvas 540 167 740 611 12;
#X obj 196 188 list fromsymbol;
#X obj 123 68 inlet value to check and strip;
#X obj 123 118 route float;
#X obj 123 93 symbol;
#X msg 196 212 \$1;
#X obj 196 239 expr ($f1 >= 65) && ($f1 <= 122);
#X text 230 214 first char is letter?;
#X obj 197 152 t a a, f 36;
#X obj 219 405 v, f 5;
#X obj 196 283 sel 1;
#X obj 196 309 symbol, f 36;
#X obj 219 432 outlet;
#X obj 196 337 t b b s, f 8;
#X obj 136 339 bang~;
#X msg 196 362 1;
#X obj 135 416 switch~;
#X obj 215 483 loadbang;
#X msg 215 507 0;
#X connect 0 0 4 0;
#X connect 1 0 3 0;
#X connect 2 1 7 0;
#X connect 3 0 2 0;
#X connect 4 0 5 0;
#X connect 5 0 9 0;
#X connect 7 0 0 0;
#X connect 7 1 10 1;
#X connect 8 0 11 0;
#X connect 9 0 10 0;
#X connect 10 0 12 0;
#X connect 12 0 14 0;
#X connect 12 1 8 0;
#X connect 12 2 8 1;
#X connect 13 0 8 0;
#X connect 14 0 15 0;
#X connect 16 0 17 0;
#X connect 17 0 15 0;
