#N canvas 0 23 450 309 12;
#X obj 193 93 im.speaker;
#X obj 6 57 im.fader;
#X obj 193 55 im.fader;
#X obj 6 14 im.pulsewave A 3;
#X obj 193 12 im.pulsewave B 3;
#X obj 13 192 im.speaker;
#X obj 182 193 im.speaker;
#X text 11 122 Some quick sample players using im.player:;
#X obj 13 171 im.player sounds/sn.wav;
#X obj 182 171 im.player sounds/string.aif;
#X obj 51 35 im.keyhold a 500;
#X obj 238 32 im.keyhold b 500;
#X obj 13 150 im.keyhold Up 1000;
#X obj 182 149 im.keyhold Space 1000;
#X connect 1 0 0 0;
#X connect 2 0 0 0;
#X connect 3 0 1 0;
#X connect 4 0 2 0;
#X connect 8 0 5 0;
#X connect 9 0 6 0;
#X connect 10 0 1 1;
#X connect 11 0 2 1;
#X connect 12 0 8 0;
#X connect 13 0 9 0;
