#N canvas 0 23 450 300 12;
#X obj 147 50 im.sensor 1;
#X obj 26 49 im.keypress Space;
#X obj 25 77 im.step 8;
#X obj 23 106 im.sequence 0 1 2 3 4 3 2 7;
#X obj 20 254 noteout;
#X obj 21 157 im.midinote;
#X floatatom 21 178 5 0 0 0 - - -;
#X obj 148 313 im.sensor 1;
#X obj 17 346 im.step 8;
#X obj 17 368 im.sequence 0 1 2 3 4 3 2 7;
#X obj 16 392 im.scale C dorian 6;
#X obj 14 505 noteout;
#X floatatom 15 471 5 0 0 0 - - -;
#X obj 21 130 im.scale C phrygian 6;
#X obj 97 419 im.keypress m;
#X obj 18 314 im.keypress m;
#X floatatom 67 471 5 0 0 0 - - -;
#X floatatom 39 227 5 0 0 0 - - -;
#X obj 20 201 makenote 127 500;
#X obj 15 450 im.midinote 127;
#X obj 219 420 im.sensor 1;
#X text 16 275 Version 2: take on/off from the same sensor triggering
the sequence., f 34;
#X text 24 -2 Version 1: use makenote to generate a velocity/note off.
Useful if generating a scale from a continuous sensor., f 50;
#X connect 0 0 2 0;
#X connect 1 0 2 0;
#X connect 2 0 3 0;
#X connect 3 0 13 0;
#X connect 5 0 6 0;
#X connect 6 0 18 0;
#X connect 7 0 8 0;
#X connect 8 0 9 0;
#X connect 9 0 10 0;
#X connect 10 0 19 0;
#X connect 12 0 11 0;
#X connect 13 0 5 0;
#X connect 14 0 19 1;
#X connect 15 0 8 0;
#X connect 16 0 11 1;
#X connect 17 0 4 1;
#X connect 18 0 4 0;
#X connect 18 1 17 0;
#X connect 19 0 12 0;
#X connect 19 1 16 0;
#X connect 20 0 19 1;
