#N canvas 396 87 525 493 10;
#X obj 127 24 im.sensor 1;
#X obj 256 24 im.keypress Space;
#X obj 7 119 im.output;
#X obj 8 24 im.noise;
#X obj 8 82 im.fader;
#X obj 7 250 im.output 1;
#X obj 180 252 im.output 2;
#X obj 51 197 im.keypress l;
#X obj 224 197 im.keypress r;
#X obj 7 225 im.fader;
#X obj 180 226 im.fader;
#X obj 5 169 im.sinewave C 4;
#X obj 179 170 im.sinewave D 5;
#X text 6 270 left;
#X text 178 271 right;
#X text 3 149 Optional argument chooses speaker:;
#X connect 0 0 4 1;
#X connect 1 0 4 1;
#X connect 3 0 4 0;
#X connect 4 0 2 0;
#X connect 7 0 9 1;
#X connect 8 0 10 1;
#X connect 9 0 5 0;
#X connect 10 0 6 0;
#X connect 11 0 9 0;
#X connect 12 0 10 0;
