#N canvas 0 23 821 736 12;
#X obj 28 342 im.fizzy;
#X obj 28 365 im.speaker;
#X obj 27 260 im.sensor input:5 range:10;
#X obj 26 171 im.speaker;
#X obj 26 148 im.tunedperc;
#X obj 28 319 im.scale G minor 4;
#X obj 26 67 im.sensor input:6 range:10;
#X obj 28 296 im.pentatonic shape:minor;
#X obj 26 102 im.pentatonic shape:major;
#X text 25 212 > Pentatonic (minor);
#X text 24 23 > Pentatonic (major);
#X obj 26 125 im.scale c major 6;
#X connect 0 0 1 0;
#X connect 2 0 7 0;
#X connect 4 0 3 0;
#X connect 5 0 0 0;
#X connect 6 0 8 0;
#X connect 7 0 5 0;
#X connect 8 0 11 0;
#X connect 11 0 4 0;
