#N canvas 0 23 574 401 10;
#X obj 140 121 im.sensor 1;
#X obj 236 121 im.sensor 2;
#X obj 47 218 im.looper;
#X obj 47 239 im.speaker;
#X obj 46 79 im.microphone;
#X text 139 102 record;
#X text 236 102 playback;
#X text 322 80 pitch control;
#X obj 321 97 im.sensor 3;
#X obj 321 124 im.fader;
#X obj 400 97 im.sensor 4 4;
#X connect 0 0 2 1;
#X connect 1 0 2 2;
#X connect 2 0 3 0;
#X connect 4 0 2 0;
#X connect 8 0 9 0;
#X connect 9 0 2 3;
#X connect 10 0 9 1;
