#N canvas 0 23 450 300 10;
#X obj 116 107 im.microphone;
#X obj 116 197 im.speaker;
#X text 206 107 watch your volume!;
#X obj 116 157 im.fader;
#X obj 161 132 im.sensor 1;
#X connect 0 0 3 0;
#X connect 3 0 1 0;
#X connect 4 0 3 1;
