#N canvas 0 23 716 491 10;
#X obj 116 107 im.microphone;
#X obj 116 336 im.speaker;
#X obj 117 163 im.pitchtracker;
#X obj 117 184 im.sinewave;
#X obj 161 236 im.keypress Up;
#X obj 117 274 im.fader;
#X text 186 260 Use the Up key on your keyboard to gate the sine wave
(turn the volume up and down by pressing and letting go);
#X connect 0 0 2 0;
#X connect 2 0 3 0;
#X connect 3 0 5 0;
#X connect 4 0 5 1;
#X connect 5 0 1 0;
