#N canvas 0 23 716 491 10;
#X obj 178 48 im.microphone;
#X obj 102 338 im.speaker;
#X obj 177 198 im.envelopefollower;
#X obj 102 306 im.fader, f 13;
#X obj 40 225 im.sawtooth;
#X obj 46 108 im.envelopefollower;
#X obj 40 196 im.scale D dorian 4;
#X obj 43 132 im.multiply 12;
#X connect 0 0 2 0;
#X connect 0 0 5 0;
#X connect 2 0 3 1;
#X connect 3 0 1 0;
#X connect 4 0 3 0;
#X connect 5 0 7 0;
#X connect 6 0 4 0;
#X connect 7 0 6 0;
