#N canvas 758 52 450 300 10;
#X obj 135 55 im.sensor 1;
#X obj 76 58 im.noise;
#X obj 76 175 im.fader;
#X obj 76 196 im.speaker;
#X obj 218 57 im.keypress Up;
#X obj 124 128 im.envelope 0 1000;
#X text 195 150 attack;
#X text 263 152 release;
#X connect 0 0 5 0;
#X connect 1 0 2 0;
#X connect 2 0 3 0;
#X connect 4 0 5 0;
#X connect 5 0 2 1;
