#N canvas 0 23 931 612 10;
#X obj 105 79 im.sensor 1 12;
#X text 203 78 the sensor input number and number of notes;
#X obj 105 100 im.scale C minor 3;
#X text 220 101 choose major \, minor \, or the name of a mode;
#X obj 104 121 im.sawtooth;
#X obj 104 141 im.speaker;
#X connect 0 0 2 0;
#X connect 2 0 4 0;
#X connect 4 0 5 0;
