#N canvas 346 69 1150 591 10;
#X obj 525 41 sig~ 1;
#X obj 525 71 -~, f 8;
#X obj 515 165 dac~;
#X floatatom 1212 474 5 0 0 0 - - -;
#X floatatom 1209 415 5 0 0 0 - - -;
#X obj 1222 369 change;
#X obj 1222 348 * 100;
#X obj 509 17 noise~;
#X obj 511 96 *~;
#X obj 512 131 *~ 0.3;
#X obj 821 146 sig~ 1;
#X obj 821 176 -~, f 8;
#X obj 749 199 *~;
#X obj 747 232 *~ 0.3;
#X obj 866 147 adc~ 5;
#X obj 778 -28 adc~ 4;
#X obj 734 -29 sig~ 1;
#X obj 735 -7 -~, f 8;
#X obj 744 268 dac~;
#X obj 872 242 sig~;
#X obj 873 205 tgl 15 0 empty empty empty 17 7 0 10 -262144 -1 -1 0
1;
#X text 427 178 sound follower (playlist: what's next?);
#X text 432 160 sound switcher;
#X obj 537 318 im.input 1;
#X obj 739 44 im.sample 1;
#X obj 570 38 adc~ 5;
#X obj 864 76 +~ 100;
#X obj 867 43 *~ 5000;
#X obj 744 108 cyclone/svf~ 1000 0.7;
#X obj 867 3 im.input 3;
#X obj 951 164 snapshot~;
#X obj 959 125 metro 100;
#X obj 957 43 loadbang;
#X obj 930 104 adc~ 3;
#X obj 957 221 print tester;
#X text 574 510 im.tuning tester 1000 selisir6.scl;
#X obj 526 29;
#X obj 118 457 im.output;
#X obj 119 395 im.key bonang;
#X obj 118 425 im.tunedperc main;
#X obj 116 354 im.tuning main 250 selisir6.scl;
#X obj 190 455 im.reverb short;
#X obj 213 157 im.triads 4 I IV V VI, f 24;
#X obj 111 191 im.acid;
#X obj 213 187 im.fizzy;
#X obj 111 94 im.scale C dorian 5, f 41;
#X obj 111 62 im.input 1 octaves 2;
#X obj 111 228 im.output;
#X obj 213 130 im.input 2 divisions 4;
#X connect 0 0 1 0;
#X connect 1 0 8 1;
#X connect 5 0 3 0;
#X connect 6 0 5 0;
#X connect 7 0 8 0;
#X connect 9 0 2 0;
#X connect 9 0 2 1;
#X connect 10 0 11 0;
#X connect 11 0 12 1;
#X connect 12 0 13 0;
#X connect 13 0 18 0;
#X connect 13 0 18 1;
#X connect 14 0 11 1;
#X connect 15 0 17 1;
#X connect 16 0 17 0;
#X connect 17 0 24 0;
#X connect 20 0 19 0;
#X connect 24 0 28 0;
#X connect 25 0 1 1;
#X connect 26 0 28 1;
#X connect 27 0 26 0;
#X connect 28 1 12 0;
#X connect 29 0 27 0;
#X connect 31 0 30 0;
#X connect 32 0 31 0;
#X connect 33 0 30 0;
#X connect 38 0 39 0;
#X connect 39 0 37 0;
#X connect 39 0 41 0;
#X connect 42 0 44 0;
#X connect 43 0 47 0;
#X connect 44 0 47 0;
#X connect 45 0 43 0;
#X connect 45 2 42 3;
#X connect 46 0 45 0;
#X connect 48 0 42 0;
