#N canvas 0 11 1280 778 10;
#X obj 116 253 im.warm;
#X obj 280 317 im.output;
#X obj 279 258 im.warm;
#X obj 459 250 im.warm;
#X obj 357 112 im.scale C major 3;
#X obj 366 11 im.mobile;
#X obj 8 112 im.input /mySlider divisions 4;
#X obj 154 227 im.input /myButton;
#X obj 318 222 im.input /myButton2;
#X obj 498 223 im.input /myButton3;
#X obj 8 137 im.triads 4 II V I I, f 76;
#X obj 115 174 im.set;
#X obj 278 178 im.set;
#X obj 458 170 im.set;
#X connect 0 0 1 0;
#X connect 2 0 1 0;
#X connect 3 0 1 0;
#X connect 4 2 10 3;
#X connect 6 0 10 0;
#X connect 7 0 0 1;
#X connect 8 0 2 1;
#X connect 9 0 3 1;
#X connect 10 1 11 0;
#X connect 10 2 12 0;
#X connect 10 3 13 0;
#X connect 11 0 0 0;
#X connect 12 0 2 0;
#X connect 13 0 3 0;
