#N canvas 0 129 662 533 10;
#X obj 116 253 im.warm;
#X obj 280 317 im.output;
#X obj 279 258 im.warm;
#X obj 459 250 im.warm;
#X obj 115 174 im.set C 4;
#X obj 278 178 im.set Eb 4;
#X obj 458 170 im.set G 4;
#X obj 357 112 im.scale C major 3;
#X obj 366 11 im.mobile;
#X obj 8 112 im.input /mySlider divisions 4;
#X obj 154 227 im.input /myButton;
#X obj 318 222 im.input /myButton2;
#X obj 498 223 im.input /myButton3;
#X obj 8 137 im.triads 4 II V I I, f 76;
#X connect 0 0 1 0;
#X connect 2 0 1 0;
#X connect 3 0 1 0;
#X connect 4 0 0 0;
#X connect 5 0 2 0;
#X connect 6 0 3 0;
#X connect 7 2 13 3;
#X connect 9 0 13 0;
#X connect 10 0 0 1;
#X connect 11 0 2 1;
#X connect 12 0 3 1;
#X connect 13 1 4 0;
#X connect 13 2 5 0;
#X connect 13 3 6 0;
