#N canvas 213 66 906 712 10;
#X obj 162 118 bng 15 250 50 0 empty empty empty 17 7 0 10 -262144
-1 -1;
#X obj 326 557 cyclone/counter @compatmode 1;
#X obj 162 140 t b 1, f 34;
#X obj 235 491 cyclone/zl iter 1;
#X obj 237 529 t f b, f 15;
#X obj 424 294 + 1, f 4;
#X obj 243 428 cyclone/zl lookup;
#X obj 241 315 cyclone/counter @compatmode 1;
#X obj 395 375 sel, f 12;
#X obj 242 351 t f f, f 26;
#X msg 396 396 0;
#X obj 242 294 metro 100;
#X floatatom 242 392 5 0 0 0 - - -;
#X obj 239 268 t 1 a b, f 20;
#X msg 356 293 0;
#X floatatom 412 579 5 0 0 0 - - -;
#X floatatom 464 352 5 0 0 0 - - -;
#X text 454 646 middle note;
#X obj 424 268 *;
#X obj 412 649 outlet;
#X obj 185 119 array define \$1;
#X obj 162 216 im.scala \$2 \$3, f 59;
#X obj 238 465 im.scala2 \$2 \$3;
#X obj 239 595 tabwrite \$1;
#X obj 424 315 array size \$1;
#X floatatom 536 624 5 0 0 0 - - -;
#X obj 536 647 outlet;
#X text 580 645 highest note (size);
#X text 237 682 should start at 1 not 0 for interpolation \, fine for
now.;
#X text 170 189 could automatically determine as cents if over single/double
digit?;
#X obj 260 647 outlet;
#X text 306 650 how many notes;
#X floatatom 259 623 5 0 0 0 - - -;
#X obj 452 611 s \$1-middle;
#X connect 0 0 2 0;
#X connect 1 0 23 1;
#X connect 2 0 21 0;
#X connect 2 1 1 2;
#X connect 3 0 4 0;
#X connect 4 0 23 0;
#X connect 4 1 1 0;
#X connect 5 0 24 0;
#X connect 5 0 25 0;
#X connect 6 0 22 0;
#X connect 7 0 9 0;
#X connect 8 0 10 0;
#X connect 9 0 12 0;
#X connect 9 1 8 0;
#X connect 10 0 11 0;
#X connect 11 0 7 0;
#X connect 12 0 6 0;
#X connect 13 0 11 0;
#X connect 13 1 6 1;
#X connect 13 2 14 0;
#X connect 14 0 7 2;
#X connect 15 0 19 0;
#X connect 15 0 33 0;
#X connect 16 0 8 1;
#X connect 18 0 5 0;
#X connect 21 1 32 0;
#X connect 21 2 13 0;
#X connect 21 3 18 0;
#X connect 21 4 16 0;
#X connect 21 4 18 1;
#X connect 21 5 15 0;
#X connect 22 0 3 0;
#X connect 25 0 26 0;
#X connect 32 0 30 0;
