#N canvas 92 217 400 503 10;
#X obj 48 92 inlet;
#X obj 94 143 list length;
#X obj 48 236 until;
#X obj 48 172 t f f, f 8;
#X floatatom 93 218 5 0 0 0 - - -;
#X obj 48 288 f, f 8;
#X obj 171 88 sel ++ --, f 25;
#X obj 171 118 bng 15 250 50 0 empty empty empty 17 7 0 10 -262144
-1 -1;
#X obj 282 125 bng 15 250 50 0 empty empty empty 17 7 0 10 -262144
-1 -1;
#X obj 48 118 route float list;
#X msg 207 167 1;
#X msg 171 166 0;
#X msg 282 166 1;
#X msg 315 166 -1;
#X obj 48 434 outlet;
#X obj 93 239 * 0;
#X obj 48 408 + 1;
#X obj 171 56 list store \$1;
#X obj 171 13 loadbang;
#X obj 171 35 bng 15 250 50 0 empty empty empty 17 7 0 10 -262144 -1
-1;
#X obj 93 266 +;
#X msg 348 165 0;
#X obj 282 146 t b b b, f 12;
#X obj 171 139 t b b b, f 13;
#X msg 246 166 -1;
#X connect 0 0 9 0;
#X connect 1 0 3 0;
#X connect 2 0 5 0;
#X connect 3 0 2 0;
#X connect 3 1 4 0;
#X connect 4 0 15 0;
#X connect 5 0 16 0;
#X connect 6 0 7 0;
#X connect 6 1 8 0;
#X connect 7 0 23 0;
#X connect 8 0 22 0;
#X connect 9 0 3 0;
#X connect 9 1 1 0;
#X connect 10 0 16 1;
#X connect 11 0 15 1;
#X connect 12 0 15 1;
#X connect 13 0 16 1;
#X connect 15 0 20 0;
#X connect 16 0 5 1;
#X connect 16 0 14 0;
#X connect 17 0 6 0;
#X connect 18 0 19 0;
#X connect 19 0 17 0;
#X connect 20 0 5 1;
#X connect 22 0 12 0;
#X connect 22 1 13 0;
#X connect 22 2 21 0;
#X connect 23 0 11 0;
#X connect 23 1 10 0;
#X connect 23 2 24 0;
#X connect 24 0 20 1;
