#N canvas 620 212 660 386 10;
#X obj 152 255 spigot;
#X obj 232 259 spigot;
#X obj 185 232 tgl 15 0 empty empty empty 17 7 0 10 -262144 -1 -1 0
1;
#X obj 265 236 tgl 15 0 empty empty empty 17 7 0 10 -262144 -1 -1 0
1;
#X obj 184 198 expr $f1 == 1 \; $f1 == 2;
#X obj 249 173 inlet;
#X obj 184 102 inlet;
#X obj 152 280 outlet;
#X text 22 29 retained inlet order from max/cyclone for now;
#X obj 194 148 loadbang;
#X obj 232 281 outlet;
#X obj 184 174 \$1;
#X connect 0 0 7 0;
#X connect 1 0 10 0;
#X connect 2 0 0 1;
#X connect 3 0 1 1;
#X connect 4 0 2 0;
#X connect 4 1 3 0;
#X connect 5 0 0 0;
#X connect 5 0 1 0;
#X connect 6 0 11 0;
#X connect 9 0 11 0;
#X connect 11 0 4 0;
