#N canvas 39 132 525 493 10;
#X obj 11 10 cnv 15 500 120 empty empty instrument_maker 10 22 0 40
-4032 -66577 0;
#X obj 22 60 cnv 15 478 40 empty empty im.audiotrigger 20 22 0 30 -1
-196864 0;
#X obj 88 415 im.speaker;
#X text 22 110 Charles Matthews 2020;
#X obj 11 192 cnv 15 500 20 empty empty Arguments: 10 10 0 13 -203904
-66577 0;
#X obj 11 215 cnv 15 500 20 empty empty Inlets: 34 10 0 13 -204800
-66577 0;
#X obj 11 239 cnv 15 500 20 empty empty Outlets: 25 10 0 13 -204786
-66577 0;
#X text 21 171 comment, f 81;
#X obj 11 135 cnv 15 500 50 empty empty empty 25 10 0 13 -262130 -66577
0;
#X text 15 437, f 81;
#X text 16 142 Sends out a very brief trigger based on audio input.
Currently set to a high threshold to respond. Experimental!, f 81
;
#X text 105 217 1 audio monitored to create trigger;
#X text 105 195 none, f 64;
#X text 106 241 1 trigger output (1 to 0 over 10ms);
#X obj 91 271 im.microphone;
#X obj 91 292 im.audiotrigger;
#X obj 92 316 im.step 8;
#X obj 88 390 im.tunedperc;
#X obj 88 369 im.scale C dorian 6;
#X obj 90 345 im.sequence 7 6 5 2 3 4 5 6 random;
#X connect 14 0 15 0;
#X connect 15 0 16 0;
#X connect 16 0 19 0;
#X connect 17 0 2 0;
#X connect 18 0 17 0;
#X connect 19 0 18 0;
