#N canvas 74 73 740 652 10;
#X floatatom 146 102 5 0 0 0 - - -;
#X obj 146 76 tabread \$1;
#X obj 146 48 + 29;
#X obj 245 6 r \$1-middle;
#X floatatom 245 27 5 0 0 0 - - -;
#X obj 111 132 makenote 1 10;
#X obj 46 49 spigot;
#X obj 70 4 tgl 15 0 empty empty empty 17 7 0 10 -262144 -1 -1 1 1
;
#X obj 96 47 spigot;
#X obj 50 -76 loadbang;
#X obj 50 -55 \$1;
#X obj 50 -33 select 0;
#X text 79 -57 switch between mtof and table-based scale;
#X obj 46 74 mtof;
#X obj 154 -28 inlet~;
#X obj 154 -5 snapshot~;
#X obj 199 -28 bang~;
#X obj 154 16 change;
#X floatatom 50 111 5 0 0 0 - - -;
#X obj 127 4 tgl 15 0 empty empty empty 17 7 0 10 -262144 -1 -1 0 1
;
#X obj 111 588 outlet~;
#X obj 110 242 phasor~;
#X obj 134 291 expr~ $v1 > $v2;
#X obj 109 346 *~ 0.2;
#X obj 109 398 *~;
#X obj 227 312 t b b;
#X msg 255 378 0 1000;
#X obj 255 357 delay 100;
#X obj 158 371 vline~;
#X obj 112 531 bob~;
#X obj 329 313 t b b;
#X obj 329 385 vline~;
#X obj 158 423 noise~;
#X obj 383 386 delay 300;
#X msg 157 345 1 1 \, 0.3 50 1;
#X obj 157 442 *~ 0.01;
#X obj 110 452 *~ 3;
#X obj 110 479 clip~ -1 1;
#X msg 383 407 0.1 200;
#X obj 328 408 *~;
#X obj 385 220 inlet~ cutoff;
#X obj 248 71 abs;
#X obj 308 497 +~ 0.1;
#X obj 383 250 abs~;
#X msg 328 359 1 10 \, 0.18 300 10;
#X obj 308 518 *~ 4999;
#X obj 509 183 inlet~ resonance;
#X obj 509 358 *~ 3;
#X obj 580 644 *;
#X obj 374 157 +~ 0.5;
#X obj 375 135 *~ 0.49;
#X obj 553 121 inlet~ pulsewidth;
#X connect 0 0 5 0;
#X connect 1 0 0 0;
#X connect 2 0 1 0;
#X connect 3 0 4 0;
#X connect 4 0 2 1;
#X connect 6 0 13 0;
#X connect 7 0 6 1;
#X connect 8 0 1 0;
#X connect 9 0 10 0;
#X connect 10 0 11 0;
#X connect 11 0 7 0;
#X connect 13 0 5 0;
#X connect 13 0 18 0;
#X connect 14 0 15 0;
#X connect 15 0 17 0;
#X connect 16 0 15 0;
#X connect 17 0 8 0;
#X connect 17 0 41 0;
#X connect 18 0 21 0;
#X connect 18 0 25 0;
#X connect 18 0 30 0;
#X connect 19 0 8 1;
#X connect 21 0 22 0;
#X connect 21 0 23 0;
#X connect 22 0 23 0;
#X connect 23 0 24 0;
#X connect 24 0 36 0;
#X connect 25 0 34 0;
#X connect 25 1 27 0;
#X connect 26 0 28 0;
#X connect 27 0 26 0;
#X connect 28 0 24 1;
#X connect 29 0 20 0;
#X connect 30 0 44 0;
#X connect 30 1 33 0;
#X connect 31 0 39 0;
#X connect 32 0 35 0;
#X connect 33 0 38 0;
#X connect 34 0 28 0;
#X connect 35 0 24 0;
#X connect 36 0 37 0;
#X connect 37 0 29 0;
#X connect 38 0 31 0;
#X connect 39 0 42 0;
#X connect 40 0 43 0;
#X connect 41 0 6 0;
#X connect 42 0 45 0;
#X connect 43 0 39 1;
#X connect 44 0 31 0;
#X connect 45 0 29 1;
#X connect 46 0 47 0;
#X connect 47 0 29 2;
#X connect 49 0 22 1;
#X connect 50 0 49 0;
#X connect 51 0 50 0;
