#N canvas 517 69 763 565 10;
#X obj 86 22 r arduino;
#X msg 170 225 0;
#X msg 201 226 1;
#X msg 233 226 0;
#X msg 264 227 1;
#X obj 172 254 tgl 15 0 empty empty empty 17 7 0 10 -262144 -1 -1 0
1;
#X obj 234 257 tgl 15 0 empty empty empty 17 7 0 10 -262144 -1 -1 0
1;
#X obj 236 309 line~;
#X msg 235 286 \$1 10;
#X obj 175 306 line~;
#X msg 174 283 \$1 10;
#X obj 169 202 route 1 2 3 4, f 23;
#X msg 339 222 0;
#X msg 370 223 1;
#X msg 402 223 0;
#X msg 433 224 1;
#X obj 338 199 route 10 20 30 40, f 23;
#X obj 190 386 outlet~;
#X obj 259 385 outlet~;
#X obj 287 308 print;
#X connect 0 0 11 0;
#X connect 0 0 16 0;
#X connect 0 0 19 0;
#X connect 1 0 5 0;
#X connect 2 0 5 0;
#X connect 3 0 6 0;
#X connect 4 0 6 0;
#X connect 5 0 10 0;
#X connect 6 0 8 0;
#X connect 7 0 18 0;
#X connect 8 0 7 0;
#X connect 9 0 17 0;
#X connect 10 0 9 0;
#X connect 11 0 1 0;
#X connect 11 1 2 0;
#X connect 11 2 3 0;
#X connect 11 3 4 0;
#X connect 12 0 5 0;
#X connect 13 0 5 0;
#X connect 14 0 6 0;
#X connect 15 0 6 0;
#X connect 16 0 12 0;
#X connect 16 1 13 0;
#X connect 16 2 14 0;
#X connect 16 3 15 0;
