#N canvas 0 22 450 300 10;
#X obj 135 55 ctlin \$1;
#X obj 136 163 line~;
#X msg 136 135 \$1 10;
#X obj 136 193 outlet~;
#X obj 137 97 / 127;
#X connect 0 0 4 0;
#X connect 1 0 3 0;
#X connect 2 0 1 0;
#X connect 4 0 2 0;
