#N canvas 19 119 1261 560 10;
#X obj 237 122 snapshot~;
#X obj 283 82 bang~;
#X obj 237 83 inlet~;
#X obj 237 143 change;
#X obj 237 165 != 0;
#X msg 276 161 1;
#X obj 167 359 outlet~;
#X obj 168 313 *~, f 12;
#X obj 234 287 vline~;
#X obj 234 240 bng 15 250 50 0 empty empty empty 17 7 0 10 -262144
-1 -1;
#X obj 234 215 sel 1;
#X obj 168 288 noise~;
#X obj 168 336 lop~ 1000;
#X msg 234 261 1 10 \, 0.2 10 10 \, 0 300 20;
#X obj 237 190 change;
#X obj 63 262 osc~;
#X obj 65 208 vline~;
#X obj 63 236 *~ 900;
#X msg 65 182 1 0 \, 0.9 10 10 \, 0 30 10;
#X connect 0 0 3 0;
#X connect 1 0 0 0;
#X connect 2 0 0 0;
#X connect 3 0 4 0;
#X connect 4 0 14 0;
#X connect 5 0 10 0;
#X connect 7 0 12 0;
#X connect 8 0 7 1;
#X connect 9 0 13 0;
#X connect 9 0 18 0;
#X connect 10 0 9 0;
#X connect 11 0 7 0;
#X connect 12 0 6 0;
#X connect 13 0 8 0;
#X connect 14 0 10 0;
#X connect 15 0 7 0;
#X connect 16 0 17 0;
#X connect 17 0 15 0;
#X connect 18 0 16 0;
