#N canvas 487 59 522 586 10;
#X obj 11 10 cnv 15 500 120 empty empty instrument_maker 10 22 0 40
-4032 -66577 0;
#X obj 22 60 cnv 15 478 40 empty empty im.envelopefollower 20 22 0
30 -1 -196864 0;
#X text 22 110 Charles Matthews 2020;
#X obj 11 192 cnv 15 500 20 empty empty Arguments: 10 10 0 13 -203904
-66577 0;
#X obj 11 215 cnv 15 500 20 empty empty Inlets: 34 10 0 13 -204800
-66577 0;
#X obj 11 239 cnv 15 500 20 empty empty Outlets: 25 10 0 13 -204786
-66577 0;
#X text 21 171 comment, f 81;
#X obj 11 135 cnv 15 500 50 empty empty empty 25 10 0 13 -262130 -66577
0;
#X text 16 142 Track the volume of the microphone input to create an
envelope, f 81;
#X text 105 195 none, f 64;
#X text 105 217 1 microphone input;
#X text 106 241 1 pitches to send to an oscillator;
#X obj 20 392 im.speaker;
#X obj 112 276 im.microphone;
#X obj 19 357 im.fader, f 25;
#X obj 166 333 im.keypress Space;
#X obj 112 304 im.envelopefollower;
#X text 254 273 Hold down the space bar and blow into the microphone
to change the volume of white noise., f 36;
#X obj 19 306 im.whitenoise;
#X obj 19 327 im.fader, f 16;
#X obj 187 560 im.speaker;
#X obj 186 399 im.microphone;
#X obj 186 525 im.fader, f 25;
#X obj 186 430 im.envelopefollower;
#X obj 333 502 im.keypress Up;
#X obj 186 454 im.multiply 16;
#X obj 186 476 im.scale C dorian 5;
#X obj 186 499 im.pulsewave;
#X text 283 386 Hold down the 'up' key and blow into the microphone
to hear pitches change., f 31;
#X connect 13 0 16 0;
#X connect 14 0 12 0;
#X connect 15 0 14 1;
#X connect 16 0 19 1;
#X connect 18 0 19 0;
#X connect 19 0 14 0;
#X connect 21 0 23 0;
#X connect 22 0 20 0;
#X connect 23 0 25 0;
#X connect 24 0 22 1;
#X connect 25 0 26 0;
#X connect 26 0 27 0;
#X connect 27 0 22 0;
