#N canvas 395 137 450 427 10;
#X obj 78 323 osc~;
#X obj 80 202 +~, f 26;
#X obj 76 114 mtof~;
#X obj 168 324 delwrite~ \$0-fb0;
#X obj 233 152 delread~ \$0-fb0;
#X obj 77 140 *~ 1;
#X obj 79 245 +~;
#X obj 148 110 osc~;
#X obj 77 356 outlet~;
#X obj 76 19 inlet~;
#X obj 148 131 *~ \$1;
#X text 81 10 some cheap and cheerful fm synthesis for a bit of variation
;
#X obj 137 52 *~ \$2;
#X obj 234 175 *~ \$3;
#X connect 0 0 3 0;
#X connect 0 0 8 0;
#X connect 1 0 6 0;
#X connect 2 0 5 0;
#X connect 2 0 12 0;
#X connect 4 0 13 0;
#X connect 5 0 1 0;
#X connect 6 0 0 0;
#X connect 7 0 10 0;
#X connect 9 0 2 0;
#X connect 10 0 6 1;
#X connect 12 0 7 0;
#X connect 13 0 1 1;
