#N canvas 29 133 883 505 10;
#X obj 150 261 osc~;
#X obj 150 40 mtof~;
#X obj 150 314 outlet~;
#X obj 150 15 inlet~;
#X obj 150 286 *~ 0.2;
#X obj 575 111 inlet;
#X obj 576 164 * 12;
#X obj 346 89 list store \$1, f 15;
#X obj 576 140 list store \$2;
#X obj 346 114 route float, f 17;
#X obj 444 223 +, f 22;
#X obj 445 141 text search \$0-notes;
#X obj 346 4 loadbang;
#X obj 444 244 sig~;
#X text 441 273 But let's just add for now.;
#X msg 672 115 read im.nToI.txt;
#X obj 672 141 text define \$0-notes;
#X text 669 158 Come on \, do we need to define one of these each time
\, though?;
#X obj 345 201 print result;
#X obj 345 35 t b b b, f 53;
#X text 7 11 must add Hz control;
#X text 793 20 attributes:;
#X text 873 19 note;
#X text 873 38 octave;
#X text 871 54 frequency;
#X text 872 70 amp;
#X msg 470 113 symbol D;
#X obj 449 169 text get \$0-notes 1;
#X obj 227 38 inlet~;
#X obj 163 159 *~;
#X obj 149 225 +~;
#X obj 160 100 osc~;
#X obj 159 74 *~ 1.5;
#X obj 195 128 *~ 1000;
#X connect 0 0 4 0;
#X connect 1 0 30 0;
#X connect 1 0 32 0;
#X connect 3 0 1 0;
#X connect 4 0 2 0;
#X connect 5 0 8 0;
#X connect 6 0 10 1;
#X connect 7 0 9 0;
#X connect 8 0 6 0;
#X connect 9 1 11 0;
#X connect 10 0 13 0;
#X connect 11 0 18 0;
#X connect 11 0 27 0;
#X connect 12 0 19 0;
#X connect 13 0 1 0;
#X connect 15 0 16 0;
#X connect 19 0 7 0;
#X connect 19 1 8 0;
#X connect 19 2 15 0;
#X connect 26 0 11 0;
#X connect 27 0 10 0;
#X connect 28 0 33 0;
#X connect 29 0 30 1;
#X connect 30 0 0 0;
#X connect 31 0 29 0;
#X connect 32 0 31 0;
#X connect 33 0 29 1;
