#N canvas 55 69 1147 709 10;
#X obj 73 57 sig~ 1;
#X obj 73 355 -~, f 8;
#X obj 117 58 adc~ \$1;
#X obj 70 658 outlet~;
#X obj 216 14 receive im.source;
#X obj 216 44 route bela firmata osc, f 46;
#X obj 420 92 bng 15 250 50 0 empty empty empty 17 7 0 10 -262144 -1
-1;
#X msg 420 142 1;
#X obj 451 142 delay 1500;
#X obj 420 115 t b b, f 6;
#X msg 451 179 0;
#X obj 429 200 tgl 15 0 empty empty empty 17 7 0 10 -262144 -1 -1 1
1;
#X obj 520 142 loadbang;
#X text 540 12 yeah this is a slightly unusual way of doing it \, but
checks connection for now. use some internal sends?;
#X obj 269 198 expr $f1 == 0 && $f2 == 0;
#X text 540 40 need to check initialisation routine;
#X obj 260 87 bng 15 250 50 0 empty empty empty 17 7 0 10 -262144 -1
-1;
#X msg 260 137 1;
#X obj 291 137 delay 1500;
#X obj 260 110 t b b, f 6;
#X msg 291 174 0;
#X obj 251 200 tgl 15 0 empty empty empty 17 7 0 10 -262144 -1 -1 0
1;
#X obj 360 137 loadbang;
#X text 293 216 default to bela;
#X obj 215 247 tgl 15 0 empty empty empty 17 7 0 10 -262144 -1 -1 0
1;
#X text 240 235 (using expr here will make more sense with more options)
;
#X obj 429 221 t b f f;
#X obj 73 412 *~;
#X text 195 296 insert firmata receive here;
#X obj 388 504 *~, f 5;
#X obj 134 355 line~;
#X msg 134 333 \$1 10;
#X text 540 57 other sources: keys? midi? how messy will it get converting
all these things to audio?;
#X obj 531 383 line~;
#X msg 531 361 \$1 10;
#X obj 531 298 expr 1 - $f1;
#X text 366 272 let's convert all our control rate stuff here in one
go;
#X obj 531 327 tgl 15 0 empty empty empty 17 7 0 10 -262144 -1 -1 1
1;
#X obj 233 319 r arduino;
#X obj 385 302 r fromGUI;
#X text 540 94 of course \, we could just check for symbol arguments
to signify OSC but that wouldn't help us with arduino;
#N canvas 474 355 450 300 route-set-optional-slash 0;
#X obj 32 80 list store \$1;
#X obj 32 102 route symbol;
#X obj 131 165 list fromsymbol;
#X obj 131 140 route symbol;
#X obj 132 85 bng 15 250 50 0 empty empty empty 17 7 0 10 -262144 -1
-1;
#X msg 204 216 \$1;
#X obj 204 238 == 47;
#X obj 134 312 list prepend;
#X msg 223 287 47;
#X obj 131 190 t a a, f 13;
#X obj 134 337 list tosymbol;
#X obj 204 263 sel 1 0;
#X obj 131 118 list store halp;
#X obj 131 408 route;
#X obj 32 55 loadbang;
#X floatatom 130 433 5 0 0 0 - - -;
#X obj 159 360 route symbol;
#X text -38 382 bollocks. route only takes float in right inlet;
#X connect 0 0 1 0;
#X connect 1 0 2 0;
#X connect 2 0 9 0;
#X connect 3 0 2 0;
#X connect 4 0 12 0;
#X connect 5 0 6 0;
#X connect 6 0 11 0;
#X connect 7 0 10 0;
#X connect 8 0 7 1;
#X connect 9 0 7 0;
#X connect 9 1 5 0;
#X connect 10 0 16 0;
#X connect 11 0 7 1;
#X connect 11 1 8 0;
#X connect 12 0 3 0;
#X connect 13 0 15 0;
#X connect 14 0 0 0;
#X restore 701 615 pd route-set-optional-slash;
#X obj 385 348 route \$1;
#X text 429 454 unnecessary?;
#X obj 385 324 list trim;
#X obj 752 137 loadbang;
#X obj 852 314 bng 15 250 50 0 empty empty empty 17 7 0 10 -262144
-1 -1;
#X obj 790 216 bng 15 250 50 0 empty empty empty 17 7 0 10 -262144
-1 -1;
#X obj 789 269 route float;
#X obj 752 158 t b b b;
#X obj 903 375 \$3;
#X obj 789 295 t f b;
#X obj 790 241 list store \$2;
#X obj 852 291 sel octaves divisions;
#X obj 940 323 bng 15 250 50 0 empty empty empty 17 7 0 10 -262144
-1 -1;
#X obj 940 406 \$3;
#X obj 941 432 - 1;
#X obj 72 615 *~;
#X obj 780 533 +~;
#X obj 291 524 sig~;
#X obj 742 368 1;
#X obj 850 361 0;
#X obj 290 586 +~, f 30;
#X obj 851 341 t b b, f 9;
#X obj 903 401 * 8;
#X obj 387 469 line~;
#X msg 387 447 \$1 10;
#X text 734 398 this is potentially tricky;
#X text 662 416 unless we take the number of intervals;
#X text 770 432 from the main tuning;
#X obj 272 502 +~;
#X floatatom 980 463 5 0 0 0 - - -;
#X floatatom 976 392 5 0 0 0 - - -;
#X obj 979 432 expr 0.5 / $f1;
#X obj 385 394 - 0.1;
#X obj 385 415 clip 0 1;
#X text 216 371 bit rough about the edges;
#X text 220 390 (not quite hitting them);
#X obj 385 373 * 1.2;
#X connect 0 0 1 0;
#X connect 1 0 27 0;
#X connect 2 0 1 1;
#X connect 4 0 5 0;
#X connect 5 1 16 0;
#X connect 5 2 6 0;
#X connect 6 0 9 0;
#X connect 7 0 11 0;
#X connect 8 0 10 0;
#X connect 9 0 7 0;
#X connect 9 1 8 0;
#X connect 10 0 11 0;
#X connect 11 0 26 0;
#X connect 12 0 10 0;
#X connect 14 0 24 0;
#X connect 14 0 35 0;
#X connect 16 0 19 0;
#X connect 17 0 21 0;
#X connect 18 0 20 0;
#X connect 19 0 17 0;
#X connect 19 1 18 0;
#X connect 20 0 21 0;
#X connect 21 0 14 0;
#X connect 22 0 20 0;
#X connect 24 0 31 0;
#X connect 26 0 14 0;
#X connect 26 1 14 1;
#X connect 27 0 57 0;
#X connect 29 0 70 0;
#X connect 30 0 27 1;
#X connect 31 0 30 0;
#X connect 33 0 29 1;
#X connect 34 0 33 0;
#X connect 35 0 37 0;
#X connect 37 0 34 0;
#X connect 39 0 44 0;
#X connect 42 0 78 0;
#X connect 44 0 42 0;
#X connect 45 0 49 0;
#X connect 46 0 63 0;
#X connect 47 0 52 0;
#X connect 48 0 51 0;
#X connect 48 1 53 0;
#X connect 49 2 47 0;
#X connect 50 0 64 0;
#X connect 51 1 60 0;
#X connect 52 0 48 0;
#X connect 53 0 46 0;
#X connect 53 1 54 0;
#X connect 54 0 55 0;
#X connect 55 0 56 0;
#X connect 55 0 72 0;
#X connect 55 0 73 0;
#X connect 56 0 62 1;
#X connect 57 0 3 0;
#X connect 59 0 62 0;
#X connect 60 0 59 0;
#X connect 61 0 59 0;
#X connect 62 0 57 1;
#X connect 63 0 61 0;
#X connect 63 1 50 0;
#X connect 64 0 62 1;
#X connect 65 0 29 0;
#X connect 66 0 65 0;
#X connect 70 0 57 0;
#X connect 73 0 71 0;
#X connect 74 0 75 0;
#X connect 75 0 66 0;
#X connect 78 0 74 0;
