#N canvas 300 348 1280 549 10;
#X obj 23 354 sig~ 1;
#X obj 23 377 -~, f 8;
#X obj 72 634 outlet~;
#X obj 25 486 *~, f 15;
#X text 179 290 insert firmata receive here;
#X obj 173 520 *~, f 5;
#X obj 112 426 line~;
#X msg 112 404 \$1 10;
#X obj 471 433 line~;
#X msg 471 411 \$1 10;
#X obj 471 369 expr 1 - $f1;
#X text 163 265 let's convert all our control rate stuff here in one
go;
#X obj 471 391 tgl 15 0 empty empty empty 17 7 0 10 -262144 -1 -1 1
1;
#X obj 390 337 r fromGUI;
#N canvas 474 355 450 300 route-set-optional-slash 0;
#X obj 32 80 list store \$1;
#X obj 32 102 route symbol;
#X obj 131 165 list fromsymbol;
#X obj 131 140 route symbol;
#X obj 132 85 bng 15 250 50 0 empty empty empty 17 7 0 10 -262144 -1
-1;
#X msg 204 216 \$1;
#X obj 204 238 == 47;
#X obj 134 312 list prepend;
#X msg 223 287 47;
#X obj 131 190 t a a, f 13;
#X obj 134 337 list tosymbol;
#X obj 204 263 sel 1 0;
#X obj 131 118 list store halp;
#X obj 131 408 route;
#X obj 32 55 loadbang;
#X floatatom 130 433 5 0 0 0 - - -;
#X obj 159 360 route symbol;
#X text -38 382 bollocks. route only takes float in right inlet;
#X connect 0 0 1 0;
#X connect 1 0 2 0;
#X connect 2 0 9 0;
#X connect 3 0 2 0;
#X connect 4 0 12 0;
#X connect 5 0 6 0;
#X connect 6 0 11 0;
#X connect 7 0 10 0;
#X connect 8 0 7 1;
#X connect 9 0 7 0;
#X connect 9 1 5 0;
#X connect 10 0 16 0;
#X connect 11 0 7 1;
#X connect 11 1 8 0;
#X connect 12 0 3 0;
#X connect 13 0 15 0;
#X connect 14 0 0 0;
#X restore 869 615 pd route-set-optional-slash;
#X obj 390 414 route \$1;
#X obj 390 390 list trim;
#X obj 747 -56 loadbang;
#X obj 852 309 bng 15 250 50 0 empty empty empty 17 7 0 10 -262144
-1 -1;
#X obj 790 211 bng 15 250 50 0 empty empty empty 17 7 0 10 -262144
-1 -1;
#X obj 789 264 route float;
#X obj 903 370 \$3;
#X obj 789 290 t f b;
#X obj 790 236 list store \$2;
#X obj 852 286 sel octaves divisions, f 30;
#X obj 940 318 bng 15 250 50 0 empty empty empty 17 7 0 10 -262144
-1 -1;
#X obj 940 342 \$3;
#X obj 941 368 - 1;
#X obj 72 610 *~, f 37;
#X obj 815 311 1;
#X obj 850 356 0;
#X obj 290 565 +~, f 30;
#X obj 851 336 t b b, f 9;
#X obj 903 396 * 8;
#X text 734 393 this is potentially tricky;
#X text 662 411 unless we take the number of intervals;
#X text 770 427 from the main tuning;
#X obj 173 541 +~;
#X text 445 465 bit rough about the edges;
#X text 444 482 (not quite hitting them);
#X text 433 497 ..how to offset divisions for centre rather than edge??
;
#X text 369 528 how about (max* numdivisions + 1) - 0.5;
#X text 869 635 won't work \, but keeping just in case.;
#N canvas 0 22 199 247 tweak 0;
#X text 65 115 unnecessary?;
#X obj 23 130 line~;
#X msg 23 108 \$1 10;
#X obj 23 65 - 0.1;
#X obj 23 86 clip 0 1;
#X obj 23 44 * 1.2;
#X obj 23 21 inlet;
#X obj 23 153 outlet~;
#X connect 1 0 7 0;
#X connect 2 0 1 0;
#X connect 3 0 4 0;
#X connect 4 0 2 0;
#X connect 5 0 3 0;
#X connect 6 0 5 0;
#X restore 390 439 pd tweak;
#X obj 174 352 r \$0-arduino-out;
#X text 177 306 (this localised receive won't work - placeholder from
pduino help file);
#X text 179 327 note comment on grounding unused inputs;
#X obj 174 420 route analog;
#X obj 174 441 route \$1;
#X obj 174 399 spigot;
#X text 182 457 osc-style addresses could be nice;
#X obj 390 367 spigot, f 11;
#N canvas 615 297 665 481 bela_firmata_osc 0;
#X obj 34 432 outlet;
#X obj 160 440 outlet;
#X obj 375 394 outlet;
#X obj 11 139 receive im.source;
#X obj 326 209 bng 15 250 50 0 empty empty empty 17 7 0 10 -262144
-1 -1;
#X msg 326 259 1;
#X obj 357 259 delay 1500;
#X obj 326 232 t b b, f 6;
#X msg 356 278 0;
#X obj 329 294 tgl 15 0 empty empty empty 17 7 0 10 -262144 -1 -1 1
1;
#X obj 426 259 loadbang;
#X obj 70 200 bng 15 250 50 0 empty empty empty 17 7 0 10 -262144 -1
-1;
#X msg 70 250 1;
#X obj 101 250 delay 1500;
#X obj 70 223 t b b, f 6;
#X msg 101 287 0;
#X obj 73 356 tgl 15 0 empty empty empty 17 7 0 10 -262144 -1 -1 0
1;
#X obj 170 250 loadbang;
#X text 103 329 default to bela;
#X obj 38 382 tgl 15 0 empty empty empty 17 7 0 10 -262144 -1 -1 0
1;
#X text 101 345 (using expr here will make more sense with more options)
;
#X obj 332 316 t b f f;
#X text 253 28 yeah this is a slightly unusual way of doing it \, but
checks connection for now. use some internal sends?;
#X text 253 56 need to check initialisation routine;
#X text 253 73 other sources: keys? midi? how messy will it get converting
all these things to audio?;
#X text 253 111 of course \, we could just check for symbol arguments
to signify OSC but that wouldn't help us with arduino;
#X obj 240 366 expr $f1 == 0 && $f2 == 0 && $f3 == 0;
#X obj 550 398 outlet;
#X obj 501 213 bng 15 250 50 0 empty empty empty 17 7 0 10 -262144
-1 -1;
#X msg 501 263 1;
#X obj 532 263 delay 1500;
#X obj 501 236 t b b, f 6;
#X msg 531 282 0;
#X obj 504 298 tgl 15 0 empty empty empty 17 7 0 10 -262144 -1 -1 0
1;
#X obj 601 263 loadbang;
#X obj 507 320 t b f f;
#X obj 130 138 inlet;
#X obj 11 169 route bela firmata osc, f 103;
#X obj 501 190 sel midinote;
#X connect 3 0 37 0;
#X connect 4 0 7 0;
#X connect 5 0 9 0;
#X connect 6 0 8 0;
#X connect 7 0 5 0;
#X connect 7 1 6 0;
#X connect 8 0 9 0;
#X connect 9 0 21 0;
#X connect 10 0 8 0;
#X connect 11 0 14 0;
#X connect 12 0 16 0;
#X connect 13 0 15 0;
#X connect 14 0 12 0;
#X connect 14 1 13 0;
#X connect 15 0 16 0;
#X connect 16 0 1 0;
#X connect 16 0 26 0;
#X connect 17 0 15 0;
#X connect 19 0 0 0;
#X connect 21 0 26 0;
#X connect 21 1 26 1;
#X connect 21 2 2 0;
#X connect 26 0 19 0;
#X connect 28 0 31 0;
#X connect 29 0 33 0;
#X connect 30 0 32 0;
#X connect 31 0 29 0;
#X connect 31 1 30 0;
#X connect 32 0 33 0;
#X connect 33 0 35 0;
#X connect 34 0 32 0;
#X connect 35 0 26 0;
#X connect 35 1 26 2;
#X connect 35 2 27 0;
#X connect 36 0 37 0;
#X connect 37 1 11 0;
#X connect 37 2 4 0;
#X connect 37 3 38 0;
#X connect 38 0 28 0;
#X restore 242 205 pd bela_firmata_osc;
#X f 54;
#X obj 242 234 t f f;
#X obj 453 337 tgl 15 0 empty empty empty 17 7 0 10 -262144 -1 -1 1
1;
#X obj 207 377 tgl 15 0 empty empty empty 17 7 0 10 -262144 -1 -1 0
1;
#X obj 611 361 spigot, f 9;
#X obj 662 330 tgl 15 0 empty empty empty 17 7 0 10 -262144 -1 -1 0
1;
#X obj 611 330 notein;
#X obj 612 383 im.map 0 127 0 1;
#X text 605 313 ignores velocity;
#X msg 173 475 \$1 10;
#X obj 288 544 sig~;
#X obj 173 496 line~;
#X text 245 184 add a receiver here as well;
#X obj 242 158 list store \$1;
#X obj 747 -35 t b b b b;
#X obj 242 112 bng 15 250 50 0 empty empty empty 17 7 0 10 -262144
-1 -1;
#X obj 242 80 metro 1000;
#X obj 216 11 loadbang;
#X obj 242 59 tgl 15 0 empty empty empty 17 7 0 10 -262144 -1 -1 1
1;
#X text 270 113 quick hack here..;
#X obj 597 84 bng 15 250 50 0 empty empty empty 17 7 0 10 -262144 -1
-1;
#X msg 262 133 symbol left;
#X obj 596 31 list trim;
#X obj 639 83 bng 15 250 50 0 empty empty empty 17 7 0 10 -262144 -1
-1;
#X msg 595 102 1;
#X msg 637 102 2;
#X obj 596 57 route left right float;
#X obj 641 142 list prepend set;
#X obj 80 337 adc~ \$1;
#X obj 217 33 t b b;
#X obj 645 165 list trim;
#X obj 646 190 print ts;
#X obj 596 6 list store \$1;
#X obj 682 91 + 2;
#X obj 25 427 clip~ 0 1;
#X obj 24 401 -~ \$4;
#X text 336 130 leave this out for now;
#X obj 71 2 inlet~ testInlet;
#X floatatom 362 488 5 0 0 0 - - -;
#X obj 973 518 number~;
#X connect 0 0 1 0;
#X connect 1 0 87 0;
#X connect 3 0 28 0;
#X connect 5 0 37 0;
#X connect 6 0 3 1;
#X connect 7 0 6 0;
#X connect 8 0 5 1;
#X connect 9 0 8 0;
#X connect 10 0 12 0;
#X connect 12 0 9 0;
#X connect 13 0 51 0;
#X connect 15 0 43 0;
#X connect 15 0 90 0;
#X connect 16 0 15 0;
#X connect 17 0 66 0;
#X connect 18 0 32 0;
#X connect 19 0 23 0;
#X connect 20 0 22 0;
#X connect 20 1 24 0;
#X connect 21 0 33 0;
#X connect 22 1 29 0;
#X connect 23 0 20 0;
#X connect 24 0 18 0;
#X connect 24 1 25 0;
#X connect 25 0 26 0;
#X connect 26 0 27 0;
#X connect 27 0 31 1;
#X connect 28 0 2 0;
#X connect 29 0 62 0;
#X connect 30 0 62 0;
#X connect 31 0 28 1;
#X connect 32 0 30 0;
#X connect 32 1 21 0;
#X connect 33 0 31 1;
#X connect 37 0 28 0;
#X connect 43 0 5 0;
#X connect 44 0 49 0;
#X connect 47 0 48 0;
#X connect 48 0 61 0;
#X connect 49 0 47 0;
#X connect 51 0 16 0;
#X connect 52 0 53 0;
#X connect 52 1 55 0;
#X connect 52 2 54 0;
#X connect 52 3 57 0;
#X connect 53 0 7 0;
#X connect 53 1 10 0;
#X connect 54 0 51 1;
#X connect 55 0 49 1;
#X connect 56 0 59 0;
#X connect 57 0 56 1;
#X connect 58 0 56 0;
#X connect 59 0 61 0;
#X connect 61 0 63 0;
#X connect 62 0 31 0;
#X connect 63 0 5 0;
#X connect 65 0 52 0;
#X connect 66 2 19 0;
#X connect 66 3 67 0;
#X connect 67 0 65 0;
#X connect 68 0 67 0;
#X connect 69 0 81 0;
#X connect 70 0 68 0;
#X connect 72 0 76 0;
#X connect 73 0 65 0;
#X connect 74 0 78 0;
#X connect 75 0 77 0;
#X connect 76 0 79 0;
#X connect 77 0 79 0;
#X connect 78 0 72 0;
#X connect 78 1 75 0;
#X connect 78 2 85 0;
#X connect 79 0 82 0;
#X connect 80 0 1 1;
#X connect 81 0 84 0;
#X connect 81 1 70 0;
#X connect 82 0 80 0;
#X connect 82 0 83 0;
#X connect 84 0 74 0;
#X connect 85 0 79 0;
#X connect 86 0 3 0;
#X connect 87 0 86 0;
#X connect 89 0 87 0;
#X coords 0 549 1 548 89 39 0;
