#N canvas 0 23 450 300 10;
#X obj 141 76 key;
#X floatatom 94 120 5 0 0 0 - - -;
#X msg 238 197 2;
#X msg 269 198 3;
#X msg 302 199 4;
#X msg 334 200 5;
#X obj 213 173 sel 97 115 100 102 103 104;
#X obj 211 82 sel 113 119 101 114 116 121;
#X msg 368 200 1;
#X msg 209 196 6;
#X msg 304 105 7;
#X msg 275 105 8;
#X msg 246 104 9;
#X msg 211 107 10;
#X msg 342 108 11;
#X obj 133 236 sig~;
#X obj 133 257 outlet~;
#X connect 0 0 1 0;
#X connect 0 0 7 0;
#X connect 0 0 6 0;
#X connect 2 0 15 0;
#X connect 3 0 15 0;
#X connect 4 0 15 0;
#X connect 5 0 15 0;
#X connect 6 0 9 0;
#X connect 6 1 2 0;
#X connect 6 2 3 0;
#X connect 6 3 4 0;
#X connect 6 4 5 0;
#X connect 6 5 8 0;
#X connect 7 0 13 0;
#X connect 7 1 12 0;
#X connect 7 2 11 0;
#X connect 7 3 10 0;
#X connect 7 4 14 0;
#X connect 8 0 15 0;
#X connect 9 0 15 0;
#X connect 10 0 15 0;
#X connect 11 0 15 0;
#X connect 12 0 15 0;
#X connect 13 0 15 0;
#X connect 14 0 15 0;
#X connect 15 0 16 0;
