#N canvas 1552 -267 450 300 10;
#X obj 85 94 key;
#X obj 143 96 keyup;
#X obj 85 128 sel \$1;
#X obj 143 128 sel \$1;
#X obj 59 182 sig~;
#X msg 65 158 1;
#X msg 146 155 0;
#X obj 69 212 outlet~;
#X connect 0 0 2 0;
#X connect 1 0 3 0;
#X connect 2 0 5 0;
#X connect 3 0 6 0;
#X connect 4 0 7 0;
#X connect 5 0 4 0;
#X connect 6 0 4 0;
