#N canvas 16 48 558 342 10;
#X obj 258 88 list store \$1;
#X obj 127 237 outlet~;
#X obj 126 93 change;
#X obj 126 73 snapshot~;
#X obj 221 16 bang~;
#X obj 126 120 sel 1;
#X obj 127 19 inlet~;
#X obj 126 40 expr~ $v1 > 0.1;
#X obj 258 44 loadbang;
#X obj 220 246 print;
#X obj 256 175 soundfiler;
#X msg 361 19 symbol 1.aif;
#X obj 350 88 list store \$0-sf;
#X obj 258 66 t b b;
#X obj 393 145 array define \$0-sf;
#X msg 258 146 read -resize \$1 \$2;
#X obj 371 61 bng 15 250 50 0 empty empty empty 17 7 0 10 -262144 -1
-1;
#X obj 126 170 tabplay~ \$0-sf;
#X msg 207 197 1;
#X text -3 91 we could toggle this;
#X obj 258 116 list append;
#X obj 377 180 print myfile;
#X obj 252 216 loadbang;
#X connect 0 0 20 0;
#X connect 2 0 5 0;
#X connect 3 0 2 0;
#X connect 4 0 3 0;
#X connect 5 0 17 0;
#X connect 6 0 7 0;
#X connect 7 0 3 0;
#X connect 8 0 13 0;
#X connect 11 0 20 0;
#X connect 12 0 20 1;
#X connect 13 0 0 0;
#X connect 13 1 12 0;
#X connect 15 0 10 0;
#X connect 16 0 12 0;
#X connect 17 0 1 0;
#X connect 17 1 18 0;
#X connect 18 0 5 0;
#X connect 20 0 15 0;
#X connect 20 0 21 0;
#X connect 22 0 18 0;
