#N canvas 10 89 525 493 10;
#X obj 11 10 cnv 15 500 120 empty empty instrument_maker 10 22 0 40
-4032 -66577 0;
#X obj 22 60 cnv 15 478 40 empty empty im.lfo 20 22 0 30 -1 -196864
0;
#X obj 66 370 im.keypress Space;
#X obj 21 417 im.speaker;
#X text 22 110 Charles Matthews 2020;
#X obj 11 192 cnv 15 500 20 empty empty Arguments: 10 10 0 13 -203904
-66577 0;
#X obj 11 215 cnv 15 500 20 empty empty Inlets: 34 10 0 13 -204800
-66577 0;
#X obj 11 239 cnv 15 500 20 empty empty Outlets: 25 10 0 13 -204786
-66577 0;
#X text 21 171 comment, f 81;
#X obj 11 135 cnv 15 500 50 empty empty empty 25 10 0 13 -262130 -66577
0;
#X text 16 142 Generate a low frequency oscillator to modulate other
signals. The LFO is usually not connected directly to the speaker \,
but should be used to change volume \, filter \, pitch \, etc., f
81;
#X obj 21 310 im.sawtooth C 4;
#X obj 21 339 im.filter, f 28;
#X text 15 461 Still quite experimental...;
#X obj 21 392 im.fader;
#X obj 317 425 im.speaker;
#X obj 317 400 im.fader, f 20;
#X obj 280 344 im.sawtooth C 4;
#X obj 431 264 im.keypress m;
#X obj 279 289 im.lfo fast sine;
#X obj 123 311 im.lfo slow sawtooth;
#X text 106 241 1) lfo output (0-1 by default);
#X text 378 316 adjust this value for vibrato amount, f 18;
#X text 315 449 better example coming soon!;
#X obj 279 318 im.fader 75%;
#X text 105 217 1) rate 2) intensity 3) reset phase;
#X text 384 290 resets the lfo;
#X text 105 195 1) speed (slow \, medium \, fast) 2) wave (sawtooth
\, square \, sine), f 64;
#X connect 2 0 14 1;
#X connect 11 0 12 0;
#X connect 12 0 14 0;
#X connect 14 0 3 0;
#X connect 16 0 15 0;
#X connect 17 0 16 0;
#X connect 18 0 16 1;
#X connect 18 0 19 2;
#X connect 19 0 24 0;
#X connect 20 0 12 1;
#X connect 24 0 17 0;
