#N canvas 132 69 525 493 10;
#X obj 11 10 cnv 15 500 120 empty empty instrument_maker 10 22 0 40
-4032 -66577 0;
#X obj 22 60 cnv 15 478 40 empty empty im.linein 20 22 0 30 -1 -196864
0;
#X text 22 110 Charles Matthews 2020;
#X obj 11 192 cnv 15 500 20 empty empty Arguments: 10 10 0 13 -203904
-66577 0;
#X obj 11 215 cnv 15 500 20 empty empty Inlets: 34 10 0 13 -204800
-66577 0;
#X obj 11 239 cnv 15 500 20 empty empty Outlets: 25 10 0 13 -204786
-66577 0;
#X text 21 171 comment, f 81;
#X obj 11 135 cnv 15 500 50 empty empty empty 25 10 0 13 -262130 -66577
0;
#X text 22 140 Access a microphone or line input.;
#X text 22 154 Note: unlike im.microphone \, this object requires an
argument!, f 75;
#X text 105 195 1) number of the input to access (e.g. 1 = left \,
2 = right), f 64;
#X text 105 217 none;
#X text 106 241 1) audio signal from the line in;
#X obj 30 370 im.speaker;
#X obj 30 349 im.fader;
#X text 115 365 Beware of feedback!;
#X obj 75 321 im.keypress Space;
#X obj 30 283 im.linein 1;
#X text 105 285 left channel;
#X obj 220 284 im.linein 2;
#X text 295 286 right channel;
#X text 116 346 Hold down the space bar on your computer to hear the
input.;
#X connect 14 0 13 0;
#X connect 16 0 14 1;
#X connect 17 0 14 0;
