#N canvas 409 83 701 472 10;
#X obj 26 93 dac~;
#X obj 26 20 inlet~;
#X obj 193 18 loadbang;
#X msg 192 107 \; pd dsp 1;
#X obj 26 57 clip~ -1 1;
#X text 191 140 no harm in doing this whenever an output is created
\, right?;
#X obj 193 76 spigot;
#X obj 193 39 t b 1;
#X obj 56 92 throw~ l;
#X obj 113 92 throw~ r;
#X text 49 110 !!ready for a recorder;
#X connect 1 0 4 0;
#X connect 2 0 7 0;
#X connect 4 0 0 0;
#X connect 4 0 0 1;
#X connect 4 0 8 0;
#X connect 4 0 9 0;
#X connect 6 0 3 0;
#X connect 7 0 6 0;
#X connect 7 1 6 1;
