#N canvas 426 81 752 367 10;
#X obj 99 81 mtof~;
#X obj 99 182 outlet~;
#X obj 99 34 inlet~;
#X obj 101 112 phasor~;
#X obj 99 56 abs~;
#X obj 504 100 inlet;
#X obj 505 153 * 12;
#X obj 275 78 list store \$1, f 15;
#X obj 505 129 list store \$2;
#X obj 275 103 route float, f 17;
#X obj 373 184 +, f 22;
#X obj 374 130 text search \$0-notes;
#X obj 275 -7 loadbang;
#X obj 373 205 sig~;
#X text 371 225 But let's just add for now.;
#X msg 601 104 read im.nToI.txt;
#X obj 601 130 text define \$0-notes;
#X text 598 147 Come on \, do we need to define one of these each time
\, though?;
#X obj 274 190 print result;
#X obj 274 24 t b b b, f 53;
#X text 722 9 attributes:;
#X text 802 8 note;
#X text 802 27 octave;
#X text 800 43 frequency;
#X text 801 59 amp;
#X obj 101 145 expr~ $v1 > $v2;
#X obj 187 105 sig~ 0.1;
#X obj 758 205 inlet~ pwm;
#X connect 0 0 3 0;
#X connect 2 0 4 0;
#X connect 3 0 25 0;
#X connect 4 0 0 0;
#X connect 5 0 8 0;
#X connect 6 0 10 1;
#X connect 7 0 9 0;
#X connect 8 0 6 0;
#X connect 9 1 11 0;
#X connect 10 0 13 0;
#X connect 11 0 10 0;
#X connect 11 0 18 0;
#X connect 12 0 19 0;
#X connect 13 0 0 0;
#X connect 15 0 16 0;
#X connect 19 0 7 0;
#X connect 19 1 8 0;
#X connect 19 2 15 0;
#X connect 25 0 1 0;
#X connect 26 0 25 1;
#X connect 27 0 25 1;
