#N canvas 230 62 450 300 10;
#X obj 123 229 readsf~;
#X msg 123 202 open \$1 \, 1;
#X obj 123 260 outlet~;
#X obj 126 93 change;
#X obj 126 73 snapshot~;
#X obj 221 16 bang~;
#X obj 126 119 sel 1;
#X obj 127 19 inlet~;
#X msg 218 204 open string.aif;
#X obj 227 235 tgl 15 0 empty empty empty 17 7 0 10 -262144 -1 -1 0
1;
#X obj 126 40 expr~ $v1 > 0.1;
#X obj 285 139 text define \$0-plist;
#X obj 124 169 text get \$0-plist;
#X obj 192 258 im.output;
#X text 262 14 random & round robin modes?;
#X obj 125 142 random;
#X obj 256 51 loadbang;
#X obj 285 97 list store \$1;
#X msg 285 118 read \$1;
#X obj 257 74 t b b;
#X obj 257 161 text size \$0-plist;
#X connect 0 0 2 0;
#X connect 0 0 13 0;
#X connect 1 0 0 0;
#X connect 3 0 6 0;
#X connect 4 0 3 0;
#X connect 5 0 4 0;
#X connect 6 0 15 0;
#X connect 7 0 10 0;
#X connect 8 0 0 0;
#X connect 9 0 0 0;
#X connect 10 0 4 0;
#X connect 12 0 1 0;
#X connect 15 0 12 0;
#X connect 16 0 19 0;
#X connect 17 0 18 0;
#X connect 18 0 11 0;
#X connect 19 0 20 0;
#X connect 19 1 17 0;
#X connect 20 0 15 1;
