#N canvas 0 22 450 300 10;
#X obj 124 211 readsf~;
#X obj 123 160 list store \$1;
#X msg 124 184 open \$1 \, 1;
#X obj 124 242 outlet~;
#X obj 126 93 change;
#X obj 126 73 snapshot~;
#X obj 221 16 bang~;
#X obj 126 119 sel 1;
#X obj 127 19 inlet~;
#X msg 219 186 open string.aif;
#X obj 228 217 tgl 15 0 empty empty empty 17 7 0 10 -262144 -1 -1 0
1;
#X obj 126 40 expr~ $v1 > 0.1;
#X connect 0 0 3 0;
#X connect 1 0 2 0;
#X connect 2 0 0 0;
#X connect 4 0 7 0;
#X connect 5 0 4 0;
#X connect 6 0 5 0;
#X connect 7 0 1 0;
#X connect 8 0 11 0;
#X connect 9 0 0 0;
#X connect 10 0 0 0;
#X connect 11 0 5 0;
