#N canvas 0 25 798 600 10;
#X obj 124 520 readsf~;
#X msg 124 497 open \$1 \, 1;
#X obj 124 551 outlet~;
#X obj 126 93 change;
#X obj 126 73 snapshot~;
#X obj 221 16 bang~;
#X obj 126 119 sel 1;
#X obj 127 19 inlet~;
#X obj 126 40 expr~ $v1 > 0.1;
#X obj 285 139 text define \$0-plist;
#X obj 124 169 text get \$0-plist;
#X text 262 14 random & round robin modes?;
#X obj 125 142 random;
#X obj 256 51 loadbang;
#X obj 285 97 list store \$1;
#X msg 285 118 read \$1;
#X obj 257 74 t b b;
#X obj 257 161 text size \$0-plist;
#X obj 123 260 +;
#X obj 151 259 i;
#X obj 123 285 % 4;
#X msg 124 227 1;
#X floatatom 123 310 5 0 0 0 - - -;
#X obj 124 359 list trim;
#X obj 123 333 list append;
#X obj 181 259 loadbang;
#X obj 180 281 f \$2;
#X obj 180 302 + 1;
#X obj 124 382 route 0 1 2 3, f 51;
#X obj 198 521 readsf~;
#X msg 198 498 open \$1 \, 1;
#X obj 274 521 readsf~;
#X msg 274 498 open \$1 \, 1;
#X obj 350 520 readsf~;
#X msg 350 497 open \$1 \, 1;
#X floatatom 218 341 5 0 0 0 - - -;
#X obj 126 454 symbol;
#X obj 124 194 t b a a, f 18;
#X obj 199 451 symbol;
#X obj 276 447 symbol;
#X obj 348 456 symbol;
#X connect 0 0 2 0;
#X connect 1 0 0 0;
#X connect 3 0 6 0;
#X connect 4 0 3 0;
#X connect 5 0 4 0;
#X connect 6 0 12 0;
#X connect 7 0 8 0;
#X connect 8 0 4 0;
#X connect 10 0 37 0;
#X connect 12 0 10 0;
#X connect 13 0 16 0;
#X connect 14 0 15 0;
#X connect 15 0 9 0;
#X connect 16 0 17 0;
#X connect 16 1 14 0;
#X connect 17 0 12 1;
#X connect 18 0 19 0;
#X connect 18 0 20 0;
#X connect 19 0 18 1;
#X connect 20 0 22 0;
#X connect 21 0 18 0;
#X connect 22 0 24 0;
#X connect 23 0 28 0;
#X connect 24 0 23 0;
#X connect 25 0 26 0;
#X connect 26 0 27 0;
#X connect 27 0 20 1;
#X connect 27 0 35 0;
#X connect 28 0 36 0;
#X connect 28 1 38 0;
#X connect 28 2 39 0;
#X connect 28 3 40 0;
#X connect 29 0 2 0;
#X connect 30 0 29 0;
#X connect 31 0 2 0;
#X connect 32 0 31 0;
#X connect 33 0 2 0;
#X connect 34 0 33 0;
#X connect 36 0 1 0;
#X connect 37 0 21 0;
#X connect 37 1 24 1;
#X connect 38 0 30 0;
#X connect 39 0 32 0;
#X connect 40 0 34 0;
