#N canvas 0 22 450 300 10;
#X obj 91 178 outlet~;
#X obj 94 69 phasor~ \$1;
#X obj 96 97 expr~ $v1 < 0.1;
#X obj 92 153 *~ 60;
#X obj 93 124 +~ 0.1;
#X connect 1 0 2 0;
#X connect 2 0 4 0;
#X connect 3 0 0 0;
#X connect 4 0 3 0;
