#N canvas 119 206 525 493 10;
#X obj 11 10 cnv 15 500 120 empty empty instrument_maker 10 22 0 40
-4032 -66577 0;
#X obj 22 60 cnv 15 478 40 empty empty im.player.list 20 22 0 30 -1
-196864 0;
#X obj 91 274 im.sensor 1;
#X obj 171 274 im.keypress Space;
#X obj 91 362 im.speaker;
#X text 22 110 Charles Matthews 2020;
#X obj 91 328 im.player.list plist.txt 4;
#X text 108 344 max polyphony is 4 in this version;
#X obj 11 192 cnv 15 500 20 empty empty Arguments: 10 10 0 13 -203904
-66577 0;
#X obj 11 215 cnv 15 500 20 empty empty Inlets: 34 10 0 13 -204800
-66577 0;
#X obj 11 239 cnv 15 500 20 empty empty Outlets: 25 10 0 13 -204786
-66577 0;
#X text 21 171 comment, f 81;
#X obj 11 135 cnv 15 500 50 empty empty empty 25 10 0 13 -262130 -66577
0;
#X obj 8 392 cnv 15 500 80 empty empty empty 25 10 0 13 -262130 -66577
0;
#X text 16 394 There is no limit to the number of files you can include
in the .txt file. End each line with a semicolon (see plist.txt as
an example \, but best not to write over it!), f 81;
#X text 106 241 audio from the file triggered;
#X text 15 437 In this version the files are played randomly \, but
other methods like round-robin should be possible in the future.,
f 81;
#X text 16 142 Retrigger a sound file using an "on" signal (ignores
"off"). Save the list of files you want to trigger as a text file \,
and use this as the argument., f 81;
#X obj 296 289 im.keypress z;
#X text 305 310 second inlet stops;
#X text 105 195 1 txt file for playlist 2 number of voices (mono by
default), f 64;
#X text 105 218 1 on trigger (e.g. im.sensor or im.keypress) 2 off
trigger;
#X connect 2 0 6 0;
#X connect 3 0 6 0;
#X connect 6 0 4 0;
#X connect 18 0 6 1;
