#N canvas 544 32 450 300 10;
#X obj 150 71 mtof~;
#X obj 150 172 outlet~;
#X obj 151 18 inlet~;
#X obj 152 102 phasor~;
#X obj 152 135 expr~ $v1 > 0.5;
#X obj 148 45 abs~;
#X connect 0 0 3 0;
#X connect 2 0 5 0;
#X connect 3 0 4 0;
#X connect 4 0 1 0;
#X connect 5 0 0 0;
