#N canvas 543 83 525 493 10;
#X obj 11 10 cnv 15 500 120 empty empty instrument_maker 10 22 0 40
-4032 -66577 0;
#X obj 22 60 cnv 15 478 40 empty empty im.reverb 20 22 0 30 -1 -196864
0;
#X obj 91 271 im.sensor 1;
#X obj 27 353 im.speaker;
#X text 22 110 Charles Matthews 2020;
#X obj 11 192 cnv 15 500 20 empty empty Arguments: 10 10 0 13 -203904
-66577 0;
#X obj 11 215 cnv 15 500 20 empty empty Inlets: 34 10 0 13 -204800
-66577 0;
#X obj 11 239 cnv 15 500 20 empty empty Outlets: 25 10 0 13 -204786
-66577 0;
#X text 21 171 comment, f 81;
#X obj 11 135 cnv 15 500 50 empty empty empty 25 10 0 13 -262130 -66577
0;
#X obj 8 391 cnv 15 500 80 empty empty empty 25 10 0 13 -262130 -66577
0;
#X text 105 195 1) length (short or long), f 64;
#X obj 26 319 im.reverb short;
#X obj 26 274 im.noise;
#X obj 26 295 im.fader;
#X text 16 395 im.reverb is based on the rev1~ abstraction that comes
with Pd., f 81;
#X obj 225 350 im.speaker;
#X obj 224 268 im.noise;
#X obj 224 292 im.fader;
#X obj 290 268 im.sensor 2;
#X obj 224 316 im.reverb long;
#X text 105 217 1) signal;
#X text 106 241 1) wet signal;
#X text 114 372 Compare short and long reverb times with the z and
x keys.;
#X obj 369 268 im.keypress x;
#X obj 92 293 im.keypress z;
#X text 16 142 A simple (digital-sounding) reverb \, the length of
which can be defined as short or long., f 81;
#X connect 2 0 14 1;
#X connect 12 0 3 0;
#X connect 13 0 14 0;
#X connect 14 0 12 0;
#X connect 17 0 18 0;
#X connect 18 0 20 0;
#X connect 19 0 18 1;
#X connect 20 0 16 0;
#X connect 24 0 18 1;
#X connect 25 0 14 1;
