#N canvas 0 23 450 300 10;
#X obj 145 162 dac~;
#X obj 145 69 inlet~;
#X obj 143 108 freeverb~;
#X msg 216 133 roomsize \$1;
#X obj 212 30 cyclone/zl reg \$1;
#X msg 214 89 0.2;
#X obj 212 3 loadbang;
#X obj 258 183 loadbang;
#X msg 257 213 wet 0.5;
#X obj 213 63 route short long;
#X msg 251 90 0.85;
#X connect 1 0 2 0;
#X connect 1 0 2 1;
#X connect 2 0 0 0;
#X connect 2 1 0 1;
#X connect 3 0 2 0;
#X connect 4 0 9 0;
#X connect 5 0 3 0;
#X connect 6 0 4 0;
#X connect 7 0 8 0;
#X connect 8 0 2 0;
#X connect 9 0 5 0;
#X connect 9 1 10 0;
#X connect 10 0 3 0;
