#N canvas 0 23 450 300 10;
#X obj 145 103 inlet~;
#X obj 212 3 loadbang;
#X obj 258 217 loadbang;
#X obj 212 30 list store \$1;
#X obj 146 200 outlet~;
#X obj 143 167 rev1~;
#X msg 215 158 1;
#X msg 252 159 50;
#X obj 214 132 route short long 0;
#X obj 216 113 list trim;
#X obj 218 58 route symbol;
#X connect 0 0 5 0;
#X connect 1 0 3 0;
#X connect 3 0 10 0;
#X connect 5 0 4 0;
#X connect 6 0 5 1;
#X connect 7 0 5 1;
#X connect 8 0 6 0;
#X connect 8 1 7 0;
#X connect 9 0 8 0;
#X connect 10 0 9 0;
#X connect 10 1 6 0;
