#N canvas 151 73 450 631 10;
#X obj 55 110 change;
#X obj 55 90 snapshot~;
#X obj 150 33 bang~;
#X obj 55 140 sel 1;
#X obj 56 36 inlet~;
#X obj 55 57 expr~ $v1 > 0.1;
#X obj 54 277 +;
#X obj 82 276 i;
#X obj 114 256 loadbang;
#X obj 53 388 outlet~;
#X obj 54 364 sig~;
#X obj 54 310 % 8;
#X obj 113 278 f \$1;
#X obj 201 24 loadbang;
#X obj 201 45 list store \$2;
#X obj 201 66 sel random;
#X obj 56 182 spigot 1;
#X obj 150 184 spigot 0;
#X obj 201 87 t b b;
#X msg 236 112 1;
#X msg 201 113 0;
#X msg 56 226 1;
#X obj 113 299 sel 0;
#X msg 112 359 8;
#X obj 53 339 / 8;
#X obj 194 244 random;
#X obj 211 280 / 2;
#X obj 153 211 t b b;
#X obj 215 327 expr $f1 \; 1 - $f1;
#X obj 253 287 tgl 15 0 empty empty empty 17 7 0 10 -262144 -1 -1 1
1;
#X obj 172 361 spigot 0;
#X obj 242 360 spigot 1;
#X obj 245 428 * 2;
#X floatatom 82 443 5 0 0 0 - - -;
#X floatatom 291 293 5 0 0 0 - - -;
#X floatatom 196 530 5 0 0 0 - - -;
#X floatatom 245 477 5 0 0 0 - - -;
#X obj 218 460 bng 15 250 50 0 empty empty empty 17 7 0 10 -262144
-1 -1;
#X obj 246 387 sel 0;
#X obj 295 468 bng 15 250 50 0 empty empty empty 17 7 0 10 -262144
-1 -1;
#X obj 143 424 * 2;
#X obj 144 383 sel 0;
#X msg 132 403 1;
#X obj 143 445 - 2;
#X msg 211 414 1, f 4;
#X obj 246 450 + 1;
#X obj 298 408 sel 0 1;
#X obj 312 381 tgl 15 0 empty empty empty 17 7 0 10 -262144 -1 -1 1
1;
#X msg 318 435 1;
#X obj 123 528 sel 0 1;
#X obj 137 501 tgl 15 0 empty empty empty 17 7 0 10 -262144 -1 -1 0
1;
#X msg 143 555 6;
#X connect 0 0 3 0;
#X connect 1 0 0 0;
#X connect 2 0 1 0;
#X connect 3 0 16 0;
#X connect 3 0 17 0;
#X connect 4 0 5 0;
#X connect 5 0 1 0;
#X connect 6 0 7 0;
#X connect 6 0 11 0;
#X connect 7 0 6 1;
#X connect 8 0 12 0;
#X connect 10 0 9 0;
#X connect 11 0 24 0;
#X connect 11 0 33 0;
#X connect 12 0 22 0;
#X connect 13 0 14 0;
#X connect 14 0 15 0;
#X connect 15 0 18 0;
#X connect 16 0 21 0;
#X connect 17 0 27 0;
#X connect 18 0 20 0;
#X connect 18 1 19 0;
#X connect 19 0 17 1;
#X connect 20 0 16 1;
#X connect 21 0 6 0;
#X connect 22 0 23 0;
#X connect 22 1 11 1;
#X connect 22 1 24 1;
#X connect 22 1 26 0;
#X connect 23 0 24 1;
#X connect 23 0 26 0;
#X connect 24 0 10 0;
#X connect 25 0 30 0;
#X connect 25 0 31 0;
#X connect 25 0 34 0;
#X connect 26 0 25 1;
#X connect 27 0 25 0;
#X connect 27 1 29 0;
#X connect 28 0 30 1;
#X connect 28 1 31 1;
#X connect 29 0 28 0;
#X connect 30 0 11 0;
#X connect 30 0 37 0;
#X connect 30 0 41 0;
#X connect 31 0 38 0;
#X connect 31 0 39 0;
#X connect 32 0 45 0;
#X connect 38 0 47 0;
#X connect 38 1 32 0;
#X connect 40 0 43 0;
#X connect 41 0 50 0;
#X connect 41 1 40 0;
#X connect 42 0 40 0;
#X connect 43 0 35 0;
#X connect 43 0 11 0;
#X connect 44 0 32 0;
#X connect 45 0 11 0;
#X connect 45 0 36 0;
#X connect 46 0 44 0;
#X connect 46 1 48 0;
#X connect 47 0 46 0;
#X connect 48 0 11 0;
#X connect 48 0 36 0;
#X connect 49 0 42 0;
#X connect 49 1 51 0;
#X connect 50 0 49 0;
#X connect 51 0 11 0;
#X connect 51 0 35 0;
