#N canvas 147 95 932 683 10;
#X obj 71 537 change;
#X obj 71 583 pack f f;
#X obj 71 610 line~;
#X floatatom 117 558 5 0 0 0 - - -;
#X obj 133 583 outlet;
#X obj 543 305 %, f 7;
#X obj 71 636 outlet~;
#X obj 582 190 im.generatescale \$2;
#X msg 136 139 0;
#X msg 170 139 1;
#X msg 218 140 2;
#X msg 252 139 3;
#X msg 298 142 4;
#X msg 332 143 5;
#X msg 386 140 6;
#X msg 435 143 7;
#X obj 71 418 +;
#X obj 139 15 loadbang;
#X obj 582 164 inlet;
#X obj 71 499 +;
#X text 153 558 glide time;
#X obj 733 356 inlet;
#X obj 734 409 * 12;
#X obj 773 356 loadbang;
#X obj 356 381 * 12;
#X obj 357 326 /;
#X obj 71 460 +;
#X obj 357 355 i;
#X msg 475 142 8;
#X msg 514 141 9;
#X text 250 52 accept frequency \; check type (float \, symbol?) add
lower case options?;
#X msg 551 144 10;
#X obj 139 107 select C C# Db D D# Eb E F F# Gb G G# Ab A A# Bb B,
f 76;
#X msg 583 144 11;
#X obj 582 262 list length;
#X obj 544 390 list store;
#X msg 543 359 get \$1 1;
#X obj 734 385 list store \$3;
#X obj 300 -52 inlet;
#X obj 139 53 list store \$1;
#X obj 300 -30 list;
#X text 608 107 would prefer a coll here \, but keeping it vanilla.
;
#X obj 299 -9 t s b;
#X text 114 514 this will be replaced with tables with an audio input
once scala integration is stable \; for now \, let's make do with mtof
;
#X text 149 79 we could run through the chars here and add an option
for octaves defined within the symbol argument :);
#X obj 582 229 t a a;
#X obj 31 218 t f f;
#X obj 31 53 inlet~;
#X obj 31 85 snapshot~;
#X obj 84 52 bang~;
#X text 29 30 is this healthy for cpu?;
#X obj 31 120 i;
#X text 57 116 nb not always useful;
#X floatatom 543 420 5 0 0 0 - - -;
#X obj 633 396 outlet;
#X obj 678 315 list store;
#X obj 727 193 metro 1000;
#X obj 737 240 list;
#X obj 650 216 t a b;
#X msg 677 240 1;
#X obj 32 170 change;
#X obj 633 372 list prepend;
#X floatatom 81 154 5 0 0 0 - - -;
#X text 610 123 (can convert this to a [text] object);
#X connect 0 0 4 0;
#X connect 0 0 1 0;
#X connect 1 0 2 0;
#X connect 2 0 6 0;
#X connect 3 0 1 1;
#X connect 5 0 36 0;
#X connect 7 0 45 0;
#X connect 7 0 58 0;
#X connect 8 0 16 1;
#X connect 8 0 61 1;
#X connect 9 0 16 1;
#X connect 9 0 61 1;
#X connect 10 0 16 1;
#X connect 10 0 61 1;
#X connect 11 0 16 1;
#X connect 11 0 61 1;
#X connect 12 0 16 1;
#X connect 12 0 61 1;
#X connect 13 0 16 1;
#X connect 13 0 61 1;
#X connect 14 0 16 1;
#X connect 14 0 61 1;
#X connect 15 0 16 1;
#X connect 15 0 61 1;
#X connect 16 0 26 0;
#X connect 17 0 39 0;
#X connect 18 0 7 0;
#X connect 19 0 0 0;
#X connect 21 0 37 0;
#X connect 22 0 19 1;
#X connect 23 0 37 0;
#X connect 24 0 26 1;
#X connect 25 0 27 0;
#X connect 26 0 19 0;
#X connect 27 0 24 0;
#X connect 28 0 16 1;
#X connect 28 0 61 1;
#X connect 29 0 16 1;
#X connect 29 0 61 1;
#X connect 31 0 16 1;
#X connect 31 0 61 1;
#X connect 32 0 8 0;
#X connect 32 1 9 0;
#X connect 32 2 9 0;
#X connect 32 3 10 0;
#X connect 32 4 11 0;
#X connect 32 5 11 0;
#X connect 32 6 12 0;
#X connect 32 7 13 0;
#X connect 32 8 14 0;
#X connect 32 9 14 0;
#X connect 32 10 15 0;
#X connect 32 11 28 0;
#X connect 32 12 28 0;
#X connect 32 13 29 0;
#X connect 32 14 31 0;
#X connect 32 15 31 0;
#X connect 32 16 33 0;
#X connect 33 0 16 1;
#X connect 33 0 61 1;
#X connect 34 0 25 1;
#X connect 34 0 5 1;
#X connect 35 0 16 0;
#X connect 35 0 53 0;
#X connect 36 0 35 0;
#X connect 37 0 22 0;
#X connect 38 0 40 0;
#X connect 39 0 32 0;
#X connect 40 0 42 0;
#X connect 42 0 39 0;
#X connect 42 1 39 1;
#X connect 45 0 34 0;
#X connect 45 1 35 1;
#X connect 46 0 5 0;
#X connect 46 1 25 0;
#X connect 47 0 48 0;
#X connect 48 0 51 0;
#X connect 49 0 48 0;
#X connect 51 0 60 0;
#X connect 51 0 62 0;
#X connect 55 0 57 0;
#X connect 55 0 61 0;
#X connect 56 0 55 0;
#X connect 57 0 55 1;
#X connect 58 0 55 0;
#X connect 58 1 59 0;
#X connect 59 0 56 0;
#X connect 60 0 46 0;
#X connect 61 0 54 0;
