#N canvas 789 68 450 432 10;
#X obj 55 110 change;
#X obj 55 90 snapshot~;
#X obj 150 33 bang~;
#X obj 55 140 sel 1;
#X obj 56 36 inlet~;
#X obj 55 57 expr~ $v1 > 0.1;
#X obj 54 277 +;
#X obj 82 276 i;
#X obj 114 256 loadbang;
#X obj 53 388 outlet~;
#X obj 54 364 sig~;
#X obj 54 302 % 8;
#X obj 113 278 f \$1;
#X obj 200 113 loadbang;
#X obj 200 134 list store \$2;
#X obj 200 155 sel random;
#X obj 56 182 spigot 1;
#X obj 113 228 spigot 0;
#X obj 200 176 t b b;
#X msg 235 201 1;
#X msg 200 202 0;
#X msg 56 226 1;
#X obj 113 299 sel 0;
#X msg 112 359 8;
#X obj 53 339 / 8;
#X obj 178 267 random;
#X connect 0 0 3 0;
#X connect 1 0 0 0;
#X connect 2 0 1 0;
#X connect 3 0 16 0;
#X connect 3 0 17 0;
#X connect 4 0 5 0;
#X connect 5 0 1 0;
#X connect 6 0 7 0;
#X connect 6 0 11 0;
#X connect 7 0 6 1;
#X connect 8 0 12 0;
#X connect 10 0 9 0;
#X connect 11 0 24 0;
#X connect 12 0 22 0;
#X connect 13 0 14 0;
#X connect 14 0 15 0;
#X connect 15 0 18 0;
#X connect 16 0 21 0;
#X connect 17 0 25 0;
#X connect 18 0 20 0;
#X connect 18 1 19 0;
#X connect 19 0 17 1;
#X connect 20 0 16 1;
#X connect 21 0 6 0;
#X connect 22 0 23 0;
#X connect 22 1 11 1;
#X connect 22 1 25 1;
#X connect 22 1 24 1;
#X connect 23 0 24 1;
#X connect 23 0 25 1;
#X connect 24 0 10 0;
#X connect 25 0 24 0;
