#N canvas 0 22 1001 645 10;
#X obj 455 133 r arduino;
#X obj 455 156 list fromsymbol;
#X obj 455 231 select 49 50;
#X obj 510 278 tgl 15 0 empty empty empty 17 7 0 10 -262144 -1 -1 0
1;
#X obj 457 278 tgl 15 0 empty empty empty 17 7 0 10 -262144 -1 -1 0
1;
#X obj 456 323 outlet;
#X obj 507 325 outlet;
#X connect 0 0 1 0;
#X connect 1 0 2 0;
#X connect 2 0 4 0;
#X connect 2 1 3 0;
#X connect 3 0 6 0;
#X connect 4 0 5 0;
