#N canvas 132 69 525 493 10;
#X obj 11 10 cnv 15 500 120 empty empty instrument_maker 10 22 0 40
-4032 -66577 0;
#X obj 22 60 cnv 15 478 40 empty empty im.sah 20 22 0 30 -1 -196864
0;
#X obj 171 287 im.keypress Space;
#X obj 95 444 im.speaker;
#X text 22 110 Charles Matthews 2020;
#X obj 11 192 cnv 15 500 20 empty empty Arguments: 10 10 0 13 -203904
-66577 0;
#X obj 11 215 cnv 15 500 20 empty empty Inlets: 34 10 0 13 -204800
-66577 0;
#X obj 11 239 cnv 15 500 20 empty empty Outlets: 25 10 0 13 -204786
-66577 0;
#X text 21 171 comment, f 81;
#X obj 11 135 cnv 15 500 50 empty empty empty 25 10 0 13 -262130 -66577
0;
#X text 105 195 none, f 64;
#X text 105 217 1 sample signal 2 control signal;
#X text 106 241 1 sampled value;
#X obj 94 313 samphold~;
#X obj 94 389 im.scale C dorian 5;
#X obj 94 411 im.tunedperc;
#X obj 91 287 im.noise;
#X obj 94 343 im.add 1;
#X obj 94 368 im.multiply 8;
#X text 16 142 Sample and hold: can act as a random note generator.
, f 81;
#X connect 2 0 13 1;
#X connect 13 0 17 0;
#X connect 14 0 15 0;
#X connect 15 0 3 0;
#X connect 16 0 13 0;
#X connect 17 0 18 0;
#X connect 18 0 14 0;
