#N canvas 110 46 873 709 10;
#X obj 440 -154 textfile;
#X obj 421 -172 bng 15 250 50 0 empty empty empty 17 7 0 10 -262144
-1 -1;
#X msg 519 -196 rewind;
#X obj 389 -12 route 33;
#X obj 389 -39 list fromsymbol;
#X obj 473 15 route list float symbol bang;
#X text 977 262 ignore lines with exclamation marks;
#X text 977 278 first readable line should be single float;
#X text 976 335 ignore lines with exclamation marks;
#X text 979 322 then tuning:;
#X text 1006 292 set this to number of notes;
#X text 996 352 test to see if contains:;
#X text 1058 366 46 (.);
#X text 1100 365 = cents value;
#X text 1060 386 47 (/);
#X text 1102 385 = ratio;
#X obj 390 -100 list append;
#X obj 389 11 bng 15 250 50 0 empty empty empty 17 7 0 10 -262144 -1
-1;
#X msg 561 519 ratio;
#X msg 608 519 space;
#N canvas 412 54 837 714 fromRatio 0;
#X obj 94 236 cyclone/zl iter 1;
#X obj 123 398 cyclone/zl group;
#X obj 94 284 sel 47, f 11;
#X obj 94 191 list fromsymbol;
#X obj 95 166 cyclone/tosymbol;
#X obj 94 213 t a a, f 22;
#X obj 223 239 cyclone/zl len;
#X obj 30 426 cyclone/gate 2 1;
#X obj 32 577 /, f 44;
#X floatatom 32 612 5 0 0 0 - - -;
#X msg 179 139 1;
#X msg 264 138 1;
#X msg 349 139 1;
#X obj 242 288 cyclone/counter @compatmode 1;
#X obj 94 259 t f b;
#X obj 227 367 expr $f2 - $f1;
#X obj 215 314 t f f, f 16;
#X obj 227 340 f;
#X obj 92 306 t 1 b 2 b;
#X obj 155 551 cyclone/zl group 2;
#X obj 95 109 t a b b b b, f 57;
#X msg 434 139 zlclear;
#X msg 67 398 2;
#X obj 155 484 list tosymbol;
#X obj 156 514 cyclone/fromsymbol;
#X obj 31 640 outlet;
#X obj 29 452 list tosymbol;
#X obj 28 480 cyclone/fromsymbol;
#X text 484 35 unsure: what's expecting float but getting list?;
#X obj 95 57 inlet;
#X msg 164 57 2/1;
#X text 437 15 handle ratios formatted for scala: charles matthews
2019;
#X connect 0 0 14 0;
#X connect 1 0 7 1;
#X connect 2 0 18 0;
#X connect 2 1 1 0;
#X connect 3 0 5 0;
#X connect 4 0 3 0;
#X connect 5 0 0 0;
#X connect 5 1 6 0;
#X connect 6 0 16 0;
#X connect 7 0 26 0;
#X connect 7 1 23 0;
#X connect 8 0 9 0;
#X connect 9 0 25 0;
#X connect 10 0 7 0;
#X connect 11 0 8 1;
#X connect 12 0 13 2;
#X connect 13 0 17 1;
#X connect 14 0 2 0;
#X connect 14 1 13 0;
#X connect 15 0 1 1;
#X connect 16 0 1 1;
#X connect 16 1 15 1;
#X connect 17 0 15 0;
#X connect 18 1 1 0;
#X connect 18 2 22 0;
#X connect 18 3 17 0;
#X connect 19 0 8 0;
#X connect 20 0 4 0;
#X connect 20 1 10 0;
#X connect 20 2 11 0;
#X connect 20 3 12 0;
#X connect 20 4 21 0;
#X connect 21 0 19 0;
#X connect 22 0 7 0;
#X connect 23 0 24 0;
#X connect 24 0 19 0;
#X connect 26 0 27 0;
#X connect 27 0 8 0;
#X connect 29 0 20 0;
#X connect 30 0 20 0;
#X restore 268 544 pd fromRatio;
#X msg 411 364 1;
#X msg 176 479 2;
#X floatatom 268 566 5 0 0 0 - - -;
#X floatatom 175 540 5 0 0 0 - - -;
#X msg 652 267 2, f 2;
#X msg 742 268 zlclear;
#X obj 387 490 list tosymbol;
#X obj 386 518 cyclone/fromsymbol;
#X obj 412 332 sel 46 47;
#X obj 385 295 t f f;
#X msg 516 519 cents;
#X obj 386 395 sel 32, f 32;
#X obj 521 145 t b f;
#X obj 440 -133 t a a;
#X obj 421 -197 until;
#X msg 521 170 1;
#X msg 388 111 0;
#X obj 388 54 0;
#X obj 389 31 bng 15 250 50 0 empty empty empty 17 7 0 10 -262144 -1
-1;
#X msg 470 -198 2;
#X floatatom 155 686 5 0 0 0 - - -;
#X obj 421 -247 bng 15 250 50 0 empty empty empty 17 7 0 10 -262144
-1 -1;
#X obj 386 208 list fromsymbol;
#X obj 386 167 list append;
#X text -28 612 initial freq;
#X floatatom 233 -344 5 0 0 0 - - -;
#X obj 83 569 f;
#X obj 83 527 bng 15 250 50 0 empty empty empty 17 7 0 10 -262144 -1
-1;
#X obj 62 680 mtof;
#X obj 421 -223 t b b b b, f 25;
#X obj 78 619 ftom;
#X obj 63 657 +;
#X obj 93 658 *;
#X obj 174 567 / 100;
#X obj 83 807 print frequencyGroup;
#X text 549 778 this creates a single octave as a test run. we must
create subsequent octaves dynamically \, and ideally extrapolate downward
if the octave ratio != 2/1;
#X obj 90 784 s frequencyGroup;
#X obj 150 622 s frequency;
#X obj 1035 626 r frequency;
#X obj 1119 641 r frequencyGroup;
#X obj 1080 661 t b a;
#X obj 1023 687 f;
#X obj 83 546 t b b;
#X msg 111 570 zlclear;
#X obj 388 82 i;
#X obj 431 7 bng 15 250 50 0 empty empty empty 17 7 0 10 -262144 -1
-1;
#X obj 385 239 t a a b b b, f 60;
#X obj 480 143 t b;
#X msg 478 173 1;
#X obj 564 263 i;
#X obj 563 287 sel 1;
#X msg 562 314 1;
#X msg 413 570 0;
#X obj 386 547 t a b;
#X obj 402 -284 t b b a;
#X text 818 118 See Scala file format here: http://www.huygens-fokker.org/scala/scl_format.html
;
#X text 815 -94 Scala reader for Instrument Maker (Pure Data) Charles
Matthews 2019;
#X text 817 -58 Distinguishes between ratios and cents by looking for
int/float as markers. Pd automatically converts floaty elements from
[textfile] to floats before we can get our hands on them \, so I am
currently relying upon a "cents" marker as found in some example .scl
files. Ultimately \, due to the way Pd handles strings in this context
\, I think I'll need to write an object to do this without cheating.
;
#X text 817 47 Due to a similar problem with commas \, I am relying
on the presence of a ! (comment line) before the number of notes. See
selisir6.scl for an example of why this is problematic.;
#X obj 64 860 outlet;
#X obj 63 706 pipe 0;
#X obj 219 -421 inlet;
#X text 248 668 number of intervals;
#X obj 516 588 print type;
#X obj 515 562 spigot;
#X obj 547 542 tgl 15 0 empty empty empty 17 7 0 10 -262144 -1 -1 0
1;
#X text 959 421 todo: read error for negative ratio;
#X obj 362 -440 inlet;
#X text 442 -254 repeat the action as temporary fix when relying upon
"cents" marker;
#N canvas 0 23 450 300 testing_some_examples 1;
#X msg 278 88 read meanquar.scl cr;
#X msg 31 85 read harrison_5_1.scl cr;
#X msg 57 60 read harrison_15.scl cr;
#X msg 226 63 read selisir6.scl cr;
#X msg 69 112 read mbira_banda.scl cr;
#X msg 244 113 read indian_12c.scl cr;
#X msg 144 143 read safi_isfahan.scl cr;
#X obj 58 230 outlet;
#X msg 134 190 slendro2.scl cr;
#X connect 0 0 7 0;
#X connect 1 0 7 0;
#X connect 2 0 7 0;
#X connect 3 0 7 0;
#X connect 4 0 7 0;
#X connect 5 0 7 0;
#X connect 6 0 7 0;
#X connect 8 0 7 0;
#X restore 411 -396 pd testing_some_examples;
#X text 460 -13 wait for the next ! after our float in case of commas
;
#X obj 401 -441 bng 15 250 50 0 empty empty empty 17 7 0 10 -262144
-1 -1;
#X obj 362 -396 route 0;
#X obj 450 -417 print mymessage;
#X obj 401 -367 list prepend read;
#X obj 401 -346 list append cr;
#X obj 401 -324 list trim;
#X obj 178 -484 loadbang;
#X obj 385 881 outlet;
#X obj 178 -462 t b b;
#X obj 206 -387 \$1;
#X obj 64 764 list prepend;
#X obj 64 834 list trim;
#X obj 81 595 t f f f f, f 12;
#X obj 912 816 print fundamental;
#N canvas 0 23 237 376 downward 0;
#X obj 28 25 inlet;
#X obj 30 328 outlet;
#X obj 30 225 sel 1 0, f 13;
#X obj 30 177 t f f;
#X obj 30 255 f;
#X obj 28 101 until;
#X obj 28 124 f, f 8;
#X obj 30 276 t f f, f 15;
#X text 62 155 or "octave" ratio;
#X obj 30 60 t b f;
#X obj 29 152 / 2;
#X obj 30 202 > 8;
#X obj 67 248 t b b;
#X obj 30 299 cyclone/zl group 255;
#X text 60 202 input to set lower limit;
#X obj 92 25 inlet;
#X connect 0 0 9 0;
#X connect 2 0 4 0;
#X connect 2 1 12 0;
#X connect 3 0 11 0;
#X connect 3 1 4 1;
#X connect 4 0 7 0;
#X connect 5 0 6 0;
#X connect 6 0 10 0;
#X connect 7 0 13 0;
#X connect 7 1 6 1;
#X connect 9 0 5 0;
#X connect 9 1 6 0;
#X connect 10 0 3 0;
#X connect 11 0 2 0;
#X connect 12 0 13 0;
#X connect 12 1 5 1;
#X connect 13 0 1 0;
#X connect 15 0 11 1;
#X restore 385 649 pd downward;
#N canvas 0 23 223 343 upward 0;
#X obj 14 16 inlet;
#X obj 14 312 outlet;
#X obj 16 196 sel 1 0;
#X obj 16 148 t f f;
#X obj 16 225 f;
#X obj 14 72 until;
#X obj 14 95 f, f 8;
#X obj 16 260 t f f, f 15;
#X text 48 126 or "octave" ratio;
#X obj 14 43 t b f, f 6;
#X obj 15 123 * 2;
#X obj 44 225 t b b;
#X obj 15 283 cyclone/zl group 255;
#X obj 16 173 < 8;
#X obj 80 71 mtof;
#X floatatom 80 93 5 0 0 0 - - -;
#X obj 80 17 loadbang;
#X obj 80 48 127;
#X text 119 57 get a reasonable upper limit;
#X obj 143 17 bng 15 250 50 0 empty empty empty 17 7 0 10 -262144 -1
-1;
#X connect 0 0 9 0;
#X connect 2 0 4 0;
#X connect 2 1 11 0;
#X connect 3 0 13 0;
#X connect 3 1 4 1;
#X connect 4 0 7 0;
#X connect 5 0 6 0;
#X connect 6 0 10 0;
#X connect 7 0 12 0;
#X connect 7 1 6 1;
#X connect 9 0 5 0;
#X connect 9 1 6 0;
#X connect 10 0 3 0;
#X connect 11 0 12 0;
#X connect 11 1 5 1;
#X connect 12 0 1 0;
#X connect 13 0 2 0;
#X connect 14 0 15 0;
#X connect 15 0 13 1;
#X connect 16 0 17 0;
#X connect 17 0 14 0;
#X connect 19 0 17 0;
#X restore 567 649 pd upward;
#X floatatom 383 595 5 0 0 0 - - -;
#X obj 384 622 t f f f, f 31;
#X obj 386 768 t a a;
#X text 540 717 should we make this recursive?;
#X obj 463 815 pack f f;
#X obj 464 839 *;
#X floatatom 464 861 5 0 0 0 - - -;
#X floatatom 507 795 5 0 0 0 - - -;
#X obj 464 882 outlet;
#X obj 233 -322 t b f f, f 24;
#X obj 598 879 outlet;
#X obj 681 879 outlet;
#X obj 681 819 *;
#X obj 156 710 - 1;
#X obj 206 -365 sel 0;
#X obj 696 765 + 1;
#X text 713 851 middle note;
#X text 318 695 unnecessary octave?;
#X obj 681 852 + 1;
#X text 630 39 was connected to the gate;
#X obj 316 881 outlet;
#X obj 435 768 list length;
#X obj 695 741 list length;
#X obj 111 860 list;
#X obj 385 677 list.rev;
#X obj 385 269 list.iter;
#X obj 589 396 list length;
#X obj 362 -417 list store \$2;
#X obj 175 512 gate2 2, f 16;
#X obj 387 143 gate2;
#X obj 387 714 list.join;
#X obj 386 746 list.join;
#X obj 1028 719 list.join;
#X obj 551 -37 print tosymbol;
#X obj 838 -136 print huh;
#X obj 390 -67 makefilename %s;
#X obj 386 186 makefilename %s;
#X obj 503 203 print sm;
#X obj 387 467 list.group, f 34;
#X obj 63 731 list.group;
#X obj 473 37 list.iter;
#X obj 530 -82 print tet;
#X obj 473 59 route symbol;
#X obj 473 81 sel cents;
#X obj 473 103 bng 15 250 50 0 empty empty empty 17 7 0 10 -262144
-1 -1;
#X connect 0 0 34 0;
#X connect 0 1 35 1;
#X connect 1 0 0 0;
#X connect 2 0 0 0;
#X connect 3 0 17 0;
#X connect 3 1 66 0;
#X connect 4 0 3 0;
#X connect 5 0 137 1;
#X connect 5 0 148 0;
#X connect 5 1 33 0;
#X connect 5 2 137 1;
#X connect 5 4 137 1;
#X connect 16 0 143 0;
#X connect 17 0 37 0;
#X connect 17 0 39 0;
#X connect 18 0 85 0;
#X connect 19 0 85 0;
#X connect 20 0 23 0;
#X connect 21 0 136 0;
#X connect 22 0 136 0;
#X connect 23 0 53 0;
#X connect 24 0 54 0;
#X connect 25 0 136 0;
#X connect 26 0 146 0;
#X connect 27 0 28 0;
#X connect 28 0 74 0;
#X connect 29 0 21 0;
#X connect 29 0 31 0;
#X connect 29 1 22 0;
#X connect 29 1 18 0;
#X connect 30 0 32 0;
#X connect 30 1 29 0;
#X connect 31 0 85 0;
#X connect 32 0 19 0;
#X connect 32 0 146 0;
#X connect 32 1 146 0;
#X connect 33 0 36 0;
#X connect 33 1 137 1;
#X connect 34 0 5 0;
#X connect 34 0 149 0;
#X connect 34 1 16 0;
#X connect 35 0 1 0;
#X connect 36 0 38 1;
#X connect 37 0 137 0;
#X connect 38 0 65 1;
#X connect 39 0 38 0;
#X connect 40 0 38 1;
#X connect 40 0 65 1;
#X connect 41 0 121 0;
#X connect 41 0 128 0;
#X connect 42 0 50 0;
#X connect 43 0 67 0;
#X connect 44 0 144 0;
#X connect 46 0 117 0;
#X connect 47 0 104 0;
#X connect 48 0 63 0;
#X connect 49 0 81 0;
#X connect 50 0 35 0;
#X connect 50 1 40 0;
#X connect 50 2 2 0;
#X connect 50 3 48 0;
#X connect 51 0 52 1;
#X connect 52 0 49 0;
#X connect 53 0 81 0;
#X connect 54 0 52 0;
#X connect 59 0 62 1;
#X connect 60 0 61 0;
#X connect 61 0 62 0;
#X connect 61 1 140 1;
#X connect 62 0 140 0;
#X connect 63 0 47 0;
#X connect 63 1 64 0;
#X connect 64 0 147 0;
#X connect 65 0 137 0;
#X connect 66 0 65 0;
#X connect 67 0 133 0;
#X connect 67 1 134 0;
#X connect 67 2 70 0;
#X connect 67 3 25 0;
#X connect 67 4 26 0;
#X connect 68 0 69 0;
#X connect 69 0 70 1;
#X connect 70 0 71 0;
#X connect 71 0 72 0;
#X connect 72 0 136 0;
#X connect 73 0 70 1;
#X connect 74 0 136 1;
#X connect 74 1 73 0;
#X connect 75 1 42 0;
#X connect 75 2 0 0;
#X connect 81 0 147 0;
#X connect 82 0 101 0;
#X connect 85 0 84 0;
#X connect 86 0 85 1;
#X connect 88 0 135 0;
#X connect 90 0 95 0;
#X connect 92 0 135 0;
#X connect 93 1 95 0;
#X connect 95 0 96 0;
#X connect 96 0 97 0;
#X connect 97 0 75 0;
#X connect 98 0 100 0;
#X connect 100 0 135 0;
#X connect 100 1 101 0;
#X connect 101 0 122 0;
#X connect 102 0 103 0;
#X connect 103 0 80 0;
#X connect 104 0 51 0;
#X connect 104 1 53 1;
#X connect 104 2 102 1;
#X connect 104 3 58 0;
#X connect 106 0 130 0;
#X connect 106 0 132 0;
#X connect 107 0 139 1;
#X connect 108 0 109 0;
#X connect 109 0 106 0;
#X connect 109 1 138 1;
#X connect 109 2 107 0;
#X connect 110 0 99 0;
#X connect 110 1 129 0;
#X connect 112 0 113 0;
#X connect 113 0 114 0;
#X connect 114 0 116 0;
#X connect 115 0 112 1;
#X connect 115 0 118 0;
#X connect 117 0 75 0;
#X connect 117 1 47 1;
#X connect 117 2 108 0;
#X connect 120 0 126 0;
#X connect 121 0 120 0;
#X connect 121 0 112 0;
#X connect 121 0 147 1;
#X connect 122 1 46 0;
#X connect 123 0 120 1;
#X connect 126 0 119 0;
#X connect 129 0 115 0;
#X connect 130 0 123 0;
#X connect 132 0 138 0;
#X connect 133 0 30 0;
#X connect 134 0 146 1;
#X connect 135 0 93 0;
#X connect 135 0 94 0;
#X connect 136 0 24 0;
#X connect 136 1 20 0;
#X connect 137 0 44 0;
#X connect 137 1 41 0;
#X connect 138 0 139 0;
#X connect 139 0 110 0;
#X connect 143 0 4 0;
#X connect 143 0 141 0;
#X connect 144 0 43 0;
#X connect 144 0 145 0;
#X connect 146 0 27 0;
#X connect 147 0 57 0;
#X connect 147 0 102 0;
#X connect 148 0 150 0;
#X connect 150 0 151 0;
#X connect 151 0 152 0;
#X connect 152 0 68 0;
