#N canvas -1390 -109 450 300 10;
#X obj 121 70 inlet~ signal;
#X obj 120 138 snapshot~;
#X obj 143 106 bang~;
#X obj 115 201 spigot;
#X obj 198 140 expr $f1 \; 1 - $f1;
#X obj 163 200 spigot;
#X obj 232 50 list store \$1;
#X obj 233 97 select change;
#X msg 233 118 1;
#X obj 234 4 loadbang;
#X obj 234 25 t b b, f 23;
#X obj 368 82 0;
#X obj 114 278 outlet controlData;
#X obj 171 235 change;
#X obj 256 192 tgl 15 0 empty empty empty 17 7 0 10 -262144 -1 -1 0
1;
#X obj 229 201 tgl 15 0 empty empty empty 17 7 0 10 -262144 -1 -1 1
1;
#X obj 236 72 route list;
#X connect 0 0 1 0;
#X connect 1 0 3 0;
#X connect 1 0 5 0;
#X connect 2 0 1 0;
#X connect 3 0 12 0;
#X connect 4 0 3 1;
#X connect 4 0 15 0;
#X connect 4 1 5 1;
#X connect 4 1 14 0;
#X connect 5 0 13 0;
#X connect 6 0 16 0;
#X connect 7 0 8 0;
#X connect 8 0 4 0;
#X connect 9 0 10 0;
#X connect 10 0 6 0;
#X connect 10 1 11 0;
#X connect 11 0 4 0;
#X connect 13 0 12 0;
#X connect 16 0 7 0;
