#N canvas 0 22 798 511 10;
#X obj 199 312 mtof~;
#X obj 203 398 outlet~;
#X obj 203 78 inlet~;
#X obj 203 370 *~ 0.2;
#X obj 203 345 phasor~;
#X obj 575 111 inlet;
#X obj 576 164 * 12;
#X obj 346 89 list store \$1, f 15;
#X obj 576 140 list store \$2;
#X obj 346 114 route float, f 17;
#X obj 444 195 +, f 22;
#X obj 445 141 text search \$0-notes;
#X text 3 -2 Moving between signal and control makes me tired..;
#X text 1 15 We need to flip between argument and input rather than
adding - I do this in another abstraction (echo?);
#X obj 346 4 loadbang;
#X obj 444 216 sig~;
#X text 442 236 But let's just add for now.;
#X msg 672 115 read im.nToI.txt;
#X obj 672 141 text define \$0-notes;
#X text 669 158 Come on \, do we need to define one of these each time
\, though?;
#X obj 345 201 print result;
#X obj 345 35 t b b b, f 53;
#X text 252 370 add volume attribute;
#X obj 445 169 text get \$0-notes 1;
#X connect 0 0 4 0;
#X connect 2 0 0 0;
#X connect 3 0 1 0;
#X connect 4 0 3 0;
#X connect 5 0 8 0;
#X connect 6 0 10 1;
#X connect 7 0 9 0;
#X connect 8 0 6 0;
#X connect 9 1 11 0;
#X connect 10 0 15 0;
#X connect 11 0 20 0;
#X connect 11 0 23 0;
#X connect 14 0 21 0;
#X connect 15 0 0 0;
#X connect 17 0 18 0;
#X connect 21 0 7 0;
#X connect 21 1 8 0;
#X connect 21 2 17 0;
#X connect 23 0 10 0;
