#N canvas 230 83 998 683 10;
#X obj 71 537 change;
#X obj 71 583 pack f f;
#X obj 71 610 line~;
#X floatatom 117 558 5 0 0 0 - - -;
#X obj 498 382 %, f 7;
#X msg 136 139 0;
#X msg 170 139 1;
#X msg 218 140 2;
#X msg 252 139 3;
#X msg 298 142 4;
#X msg 332 143 5;
#X msg 386 140 6;
#X msg 435 143 7;
#X obj 71 418 +;
#X obj 235 -23 loadbang;
#X obj 582 164 inlet;
#X obj 71 499 +;
#X text 153 558 glide time;
#X obj 763 307 inlet;
#X obj 733 483 * 12;
#X obj 803 307 loadbang;
#X obj 176 464 * 12;
#X obj 177 409 /;
#X obj 71 477 +;
#X obj 177 438 i;
#X msg 475 142 8;
#X msg 514 141 9;
#X text 250 52 accept frequency \; check type (float \, symbol?) add
lower case options?;
#X msg 551 144 10;
#X obj 139 107 select C C# Db D D# Eb E F F# Gb G G# Ab A A# Bb B,
f 76;
#X msg 583 144 11;
#X obj 582 262 list length;
#X obj 499 436 list store;
#X msg 498 405 get \$1 1;
#X obj 835 497 list store \$3;
#X obj 301 -76 inlet;
#X obj 235 22 list store \$1;
#X obj 300 -30 list;
#X text 608 107 would prefer a coll here \, but keeping it vanilla.
;
#X obj 299 -9 t s b;
#X text 203 511 this will be replaced with tables with an audio input
once scala integration is stable \; for now \, let's make do with mtof
;
#X text 149 79 we could run through the chars here and add an option
for octaves defined within the symbol argument :);
#X obj 582 229 t a a;
#X obj 28 289 t f f;
#X obj 31 53 inlet~;
#X obj 31 85 snapshot~;
#X obj 84 52 bang~;
#X obj 31 137 i;
#X text 57 116 nb not always useful;
#X floatatom 498 466 5 0 0 0 - - -;
#X obj 678 315 list store;
#X obj 678 272 metro 1000;
#X obj 734 294 list;
#X obj 650 216 t a b;
#X msg 677 240 1;
#X obj 30 227 change;
#X obj 633 372 list prepend;
#X text 610 123 (can convert this to a [text] object);
#X obj 71 636 *~ 1;
#X obj 30 250 abs;
#X obj 79 143 > -0.1;
#X floatatom 78 164 5 0 0 0 - - -;
#X obj 34 196 *;
#X floatatom 78 203 5 0 0 0 - - -;
#X obj 78 184 expr if($f1 > -0 \, 1 \, -1);
#X obj 1032 125 loadbang;
#X obj 1281 186 text define \$0-args;
#X msg 1281 167 clear;
#N canvas 116 36 1085 705 args 0;
#X obj 925 203 list fromsymbol;
#X obj 925 234 list split 1;
#X obj 925 179 symbol \$1n;
#X obj 927 260 sel 36;
#X obj 959 335 list store \$1;
#X obj 520 491 list store;
#X obj 825 202 list fromsymbol;
#X obj 825 233 list split 1;
#X obj 825 259 sel 36;
#X obj 859 334 list store \$2;
#X obj 825 178 symbol \$2n;
#X obj 225 680 list store;
#X obj 722 204 list fromsymbol;
#X obj 722 235 list split 1;
#X obj 722 261 sel 36;
#X obj 722 180 symbol \$3n;
#X obj 756 336 list store \$3;
#X obj 452 512 list prepend;
#X obj 612 206 list fromsymbol;
#X obj 612 237 list split 1;
#X obj 612 263 sel 36;
#X obj 505 209 list fromsymbol;
#X obj 505 240 list split 1;
#X obj 505 266 sel 36;
#X obj 404 210 list fromsymbol;
#X obj 404 241 list split 1;
#X obj 404 267 sel 36;
#X obj 453 538 t a a, f 21;
#X obj 453 564 list length;
#X obj 453 590 sel 12;
#X obj 611 182 symbol \$4n;
#X obj 505 185 symbol \$5n;
#X obj 404 186 symbol \$6n;
#X obj 438 342 list store \$6;
#X obj 539 341 list store \$5;
#X obj 646 338 list store \$4;
#X obj 300 212 list fromsymbol;
#X obj 300 243 list split 1;
#X obj 300 269 sel 36;
#X obj 200 211 list fromsymbol;
#X obj 200 242 list split 1;
#X obj 200 268 sel 36;
#X obj 97 213 list fromsymbol;
#X obj 97 244 list split 1;
#X obj 97 270 sel 36;
#X obj -13 215 list fromsymbol;
#X obj -13 246 list split 1;
#X obj -13 272 sel 36;
#X obj -120 218 list fromsymbol;
#X obj -120 249 list split 1;
#X obj -120 275 sel 36;
#X obj -221 219 list fromsymbol;
#X obj -221 250 list split 1;
#X obj -221 276 sel 36;
#X obj -221 195 symbol \$12n;
#X obj -120 194 symbol \$11n;
#X obj -14 191 symbol \$10n;
#X obj 97 189 symbol \$9n;
#X obj 200 187 symbol \$8n;
#X obj 300 188 symbol \$7n;
#X obj -187 364 list store \$12;
#X obj -86 363 list store \$11;
#X obj 20 342 list store \$10;
#X obj 130 349 list store \$9;
#X obj 234 343 list store \$8;
#X obj 334 344 list store \$7;
#X text -217 70 Gather arguments into a list;
#X text -215 87 Charles Matthews 2019 for instrumentmaker.org;
#X text -215 104 This is something of a hack.. not how I'd like to
do it at all \, and for now needs to be included at creation of my
IM objects (which I do via a script in lieu of a functioning abstraction)..aside
from forcing a limit on number of arguments \, the way arguments are
passed in Pd appears that this cannot sit in a separate file/abstraction.
;
#X text 499 592 max number args (since this only affects my own abstractions
at present no need to mess about with generating this dynamically)
;
#X obj 224 648 spigot;
#X msg 1054 304 1;
#X obj 196 587 t b b;
#X msg 196 609 0;
#X obj 958 283 t b b;
#X obj 858 299 t b b;
#X obj 755 284 t b b;
#X obj 645 286 t b b;
#X obj 538 289 t b b;
#X obj 437 289 t b b;
#X obj 333 292 t b b;
#X obj 233 291 t b b;
#X obj 130 293 t b b;
#X obj 20 295 t b b;
#X obj -87 298 t b b;
#X obj -176 302 t b b;
#X obj 226 708 outlet;
#X obj 924 146 t b b, f 22;
#X obj 923 119 inlet;
#X connect 0 0 1 0;
#X connect 1 0 3 0;
#X connect 2 0 0 0;
#X connect 3 0 72 0;
#X connect 3 1 74 0;
#X connect 4 0 17 0;
#X connect 5 0 17 1;
#X connect 6 0 7 0;
#X connect 7 0 8 0;
#X connect 8 0 72 0;
#X connect 8 1 75 0;
#X connect 9 0 17 0;
#X connect 10 0 6 0;
#X connect 11 0 86 0;
#X connect 12 0 13 0;
#X connect 13 0 14 0;
#X connect 14 0 72 0;
#X connect 14 1 76 0;
#X connect 15 0 12 0;
#X connect 16 0 17 0;
#X connect 17 0 5 0;
#X connect 17 0 27 0;
#X connect 18 0 19 0;
#X connect 19 0 20 0;
#X connect 20 0 72 0;
#X connect 20 1 77 0;
#X connect 21 0 22 0;
#X connect 22 0 23 0;
#X connect 23 0 72 0;
#X connect 23 1 78 0;
#X connect 24 0 25 0;
#X connect 25 0 26 0;
#X connect 26 0 72 0;
#X connect 26 1 79 0;
#X connect 27 0 28 0;
#X connect 27 1 11 1;
#X connect 28 0 29 0;
#X connect 29 0 11 0;
#X connect 30 0 18 0;
#X connect 31 0 21 0;
#X connect 32 0 24 0;
#X connect 33 0 17 0;
#X connect 34 0 17 0;
#X connect 35 0 17 0;
#X connect 36 0 37 0;
#X connect 37 0 38 0;
#X connect 38 0 72 0;
#X connect 38 1 80 0;
#X connect 39 0 40 0;
#X connect 40 0 41 0;
#X connect 41 0 72 0;
#X connect 41 1 81 0;
#X connect 42 0 43 0;
#X connect 43 0 44 0;
#X connect 44 0 72 0;
#X connect 44 1 82 0;
#X connect 45 0 46 0;
#X connect 46 0 47 0;
#X connect 47 0 72 0;
#X connect 47 1 83 0;
#X connect 48 0 49 0;
#X connect 49 0 50 0;
#X connect 50 0 72 0;
#X connect 50 1 84 0;
#X connect 51 0 52 0;
#X connect 52 0 53 0;
#X connect 53 0 72 0;
#X connect 53 1 85 0;
#X connect 54 0 51 0;
#X connect 55 0 48 0;
#X connect 56 0 45 0;
#X connect 57 0 42 0;
#X connect 58 0 39 0;
#X connect 59 0 36 0;
#X connect 60 0 17 0;
#X connect 61 0 17 0;
#X connect 62 0 17 0;
#X connect 63 0 17 0;
#X connect 64 0 17 0;
#X connect 65 0 17 0;
#X connect 70 0 11 0;
#X connect 71 0 70 1;
#X connect 72 0 73 0;
#X connect 72 1 70 0;
#X connect 73 0 70 1;
#X connect 74 0 10 0;
#X connect 74 1 4 0;
#X connect 75 0 15 0;
#X connect 75 1 9 0;
#X connect 76 0 30 0;
#X connect 76 1 16 0;
#X connect 77 0 31 0;
#X connect 77 1 35 0;
#X connect 78 0 32 0;
#X connect 78 1 34 0;
#X connect 79 0 59 0;
#X connect 79 1 33 0;
#X connect 80 0 58 0;
#X connect 80 1 65 0;
#X connect 81 0 57 0;
#X connect 81 1 64 0;
#X connect 82 0 56 0;
#X connect 82 1 63 0;
#X connect 83 0 55 0;
#X connect 83 1 62 0;
#X connect 84 0 54 0;
#X connect 84 1 61 0;
#X connect 85 0 72 0;
#X connect 85 1 60 0;
#X connect 87 0 2 0;
#X connect 87 1 71 0;
#X connect 88 0 87 0;
#X restore 1156 168 pd args;
#N canvas 461 20 450 300 checkArgs 0;
#X obj 122 293 list length;
#X obj 122 232 list fromsymbol;
#X obj 61 108 list;
#X obj 222 450 list store;
#X msg 222 427 get \$1 1;
#X obj 223 473 sel 58;
#X obj 195 597 spigot;
#X obj 315 590 spigot;
#X obj 194 643 list append;
#X obj 256 618 list;
#X obj 315 647 list append;
#X obj 377 622 list;
#X obj 225 530 expr $f1 \; 1 - $f1, f 22;
#X obj 224 505 tgl 15 0 empty empty empty 17 7 0 10 -262144 -1 -1 0
1;
#X msg 295 451 0;
#X obj 225 571 tgl 15 0 empty empty empty 17 7 0 10 -262144 -1 -1 0
1;
#X obj 349 563 tgl 15 0 empty empty empty 17 7 0 10 -262144 -1 -1 1
1;
#X obj 315 668 list tosymbol;
#X obj 61 132 t a b b, f 54;
#X obj 121 325 for --;
#X obj 196 673 list tosymbol;
#X obj 138 702 list store;
#X obj 209 703 list store;
#X obj 121 356 t f f, f 17;
#X obj 123 383 sel 0;
#X obj 139 735 pack s s, f 12;
#X obj 139 762 list trim;
#X obj 62 -12 t a a, f 14;
#X obj 61 12 list length;
#X obj 61 82 list store;
#X msg 60 58 get \$1 1;
#X obj 196 392 t f f;
#X obj 59 167 route float;
#X obj 99 512 tgl 15 0 empty empty empty 17 7 0 10 -262144 -1 -1 0
1;
#X obj 123 407 t b b b;
#X msg 252 291 0;
#X obj 86 533 f;
#X obj 86 562 sel 0;
#X obj 42 622 text insert \$0-args;
#X obj 122 256 t a a b a, f 23;
#X obj 85 588 list store;
#X obj 121 206 t a a;
#X text 7 656 this ends up in reverse order;
#X obj 60 34 for --;
#X obj 140 785 outlet;
#X text 0 673 !!check this - prepend instead?;
#X obj 61 -37 inlet;
#X connect 0 0 19 0;
#X connect 1 0 39 0;
#X connect 2 0 18 0;
#X connect 3 0 5 0;
#X connect 4 0 3 0;
#X connect 5 0 13 0;
#X connect 5 0 33 0;
#X connect 5 1 6 0;
#X connect 5 1 7 0;
#X connect 6 0 8 0;
#X connect 7 0 10 0;
#X connect 8 0 9 0;
#X connect 8 0 20 0;
#X connect 9 0 8 1;
#X connect 10 0 11 0;
#X connect 10 0 17 0;
#X connect 11 0 10 1;
#X connect 12 0 15 0;
#X connect 12 1 16 0;
#X connect 13 0 12 0;
#X connect 14 0 13 0;
#X connect 15 0 6 1;
#X connect 16 0 7 1;
#X connect 17 0 22 1;
#X connect 18 0 32 0;
#X connect 18 1 14 0;
#X connect 18 2 9 0;
#X connect 18 2 11 0;
#X connect 18 2 8 0;
#X connect 18 2 10 0;
#X connect 19 0 23 0;
#X connect 20 0 21 1;
#X connect 21 0 25 0;
#X connect 22 0 25 1;
#X connect 23 0 24 0;
#X connect 23 1 31 0;
#X connect 24 0 34 0;
#X connect 25 0 26 0;
#X connect 26 0 44 0;
#X connect 27 0 28 0;
#X connect 27 1 29 1;
#X connect 28 0 43 0;
#X connect 29 0 2 0;
#X connect 30 0 29 0;
#X connect 31 1 4 0;
#X connect 32 0 38 0;
#X connect 32 1 41 0;
#X connect 33 0 36 1;
#X connect 34 0 21 0;
#X connect 34 1 22 0;
#X connect 34 2 36 0;
#X connect 35 0 33 0;
#X connect 36 0 37 0;
#X connect 37 0 40 0;
#X connect 39 0 0 0;
#X connect 39 1 3 1;
#X connect 39 2 35 0;
#X connect 40 0 38 0;
#X connect 41 0 1 0;
#X connect 41 1 40 1;
#X connect 43 0 30 0;
#X connect 46 0 27 0;
#X restore 1156 189 pd checkArgs;
#X obj 1156 210 s \$0-attributes;
#X obj 1032 145 t b b b, f 42;
#X obj 1032 172 s \$0-init;
#X text 1003 67 Charles Matthews for instrumentmaker.org 2019;
#X text 938 49 Vanilla attribute management;
#X text 1003 83 Due to the way Pd handles arguments and abstractions
\, this needs to be manually copied to each IM abstraction for now.
;
#X text 939 297 arguments:;
#X text 1007 297 0: delayTime 1: feedback;
#X obj 1041 327 r \$0-attributes;
#X obj 1041 351 route name;
#N canvas 0 377 450 300 \$0-osc 0;
#X obj 11 99 s \$0-attributes;
#X obj 11 12 r im-fromOSC;
#X obj 12 65 route delay;
#X obj 12 38 route list;
#X connect 1 0 3 0;
#X connect 2 0 0 0;
#X connect 3 0 2 0;
#X restore 1041 468 pd \$0-osc;
#X obj 1041 440 s pd-\$0-osc;
#X msg 1041 404 clear \, obj 11 70 route \$1 \, obj 11 99 s \\\$0-attributes
\, obj 11 39 r im-fromOSC \, connect 0 0 1 0 \, connect 2 0 0 0;
#X obj 709 27 r \$0-attributes;
#X obj 709 52 route mode;
#X obj 582 190 im.generatescale;
#X obj 595 -43 r \$0-init;
#X obj 595 15 text get \$0-args;
#X obj 595 39 route bang;
#X msg 595 -16 1;
#X obj 184 -139 r \$0-init;
#X msg 184 -118 0;
#X obj 184 -96 text get \$0-args;
#X obj 184 -72 route bang;
#X obj 302 -142 r \$0-attributes;
#X obj 302 -120 route key;
#X text 754 -14 arguments: 0 key \, 1 mode \, 2 octave;
#X obj 896 360 r \$0-attributes;
#X obj 896 407 im.convertarg;
#X obj 779 343 r \$0-init;
#X obj 779 386 text get \$0-args;
#X obj 779 410 route bang;
#X msg 779 364 2;
#X obj 896 385 route octave;
#X obj 269 -64 symbol;
#X obj 1041 375 list prepend symbol;
#X obj 190 383 +;
#X obj 566 465 print all;
#X obj 609 423 bng 15 250 50 0 empty empty empty 17 7 0 10 -262144
-1 -1;
#X obj 372 451 +;
#X obj 537 354 - 1;
#X obj 71 662 outlet~ audio;
#X obj 133 583 outlet message;
#X obj 633 396 outlet root;
#X obj 562 581 outlet scaleList;
#X text 661 582 check list length: why is this doubled?;
#X text 565 600 role of first number: offset?;
#X connect 0 0 1 0;
#X connect 0 0 112 0;
#X connect 1 0 2 0;
#X connect 2 0 58 0;
#X connect 3 0 1 1;
#X connect 4 0 33 0;
#X connect 5 0 13 1;
#X connect 5 0 56 1;
#X connect 6 0 13 1;
#X connect 6 0 56 1;
#X connect 7 0 13 1;
#X connect 7 0 56 1;
#X connect 8 0 13 1;
#X connect 8 0 56 1;
#X connect 9 0 13 1;
#X connect 9 0 56 1;
#X connect 10 0 13 1;
#X connect 10 0 56 1;
#X connect 11 0 13 1;
#X connect 11 0 56 1;
#X connect 12 0 13 1;
#X connect 12 0 56 1;
#X connect 13 0 23 0;
#X connect 14 0 36 0;
#X connect 15 0 85 0;
#X connect 16 0 0 0;
#X connect 18 0 19 0;
#X connect 19 0 16 1;
#X connect 21 0 23 1;
#X connect 22 0 24 0;
#X connect 23 0 16 0;
#X connect 24 0 21 0;
#X connect 25 0 13 1;
#X connect 25 0 56 1;
#X connect 26 0 13 1;
#X connect 26 0 56 1;
#X connect 28 0 13 1;
#X connect 28 0 56 1;
#X connect 29 0 5 0;
#X connect 29 1 6 0;
#X connect 29 2 6 0;
#X connect 29 3 7 0;
#X connect 29 4 8 0;
#X connect 29 5 8 0;
#X connect 29 6 9 0;
#X connect 29 7 10 0;
#X connect 29 8 11 0;
#X connect 29 9 11 0;
#X connect 29 10 12 0;
#X connect 29 11 25 0;
#X connect 29 12 25 0;
#X connect 29 13 26 0;
#X connect 29 14 28 0;
#X connect 29 15 28 0;
#X connect 29 16 30 0;
#X connect 30 0 13 1;
#X connect 30 0 56 1;
#X connect 31 0 110 0;
#X connect 32 0 49 0;
#X connect 32 0 107 0;
#X connect 32 0 109 0;
#X connect 33 0 32 0;
#X connect 35 0 37 0;
#X connect 35 0 29 0;
#X connect 37 0 39 0;
#X connect 39 0 36 0;
#X connect 39 1 36 1;
#X connect 42 0 31 0;
#X connect 42 1 32 1;
#X connect 43 0 4 0;
#X connect 43 1 22 0;
#X connect 44 0 45 0;
#X connect 45 0 47 0;
#X connect 45 0 60 0;
#X connect 46 0 45 0;
#X connect 47 0 62 0;
#X connect 50 0 52 0;
#X connect 50 0 56 0;
#X connect 50 1 114 0;
#X connect 51 0 50 0;
#X connect 52 0 50 1;
#X connect 53 0 50 0;
#X connect 53 1 54 0;
#X connect 54 0 51 0;
#X connect 55 0 59 0;
#X connect 56 0 113 0;
#X connect 58 0 111 0;
#X connect 59 0 43 0;
#X connect 60 0 61 0;
#X connect 61 0 64 0;
#X connect 62 0 55 0;
#X connect 63 0 62 1;
#X connect 63 0 58 1;
#X connect 64 0 63 0;
#X connect 65 0 71 0;
#X connect 67 0 66 0;
#X connect 68 0 69 0;
#X connect 69 0 70 0;
#X connect 71 0 72 0;
#X connect 71 1 68 0;
#X connect 71 2 67 0;
#X connect 78 0 79 0;
#X connect 79 0 105 0;
#X connect 82 0 81 0;
#X connect 83 0 84 0;
#X connect 84 0 85 0;
#X connect 85 0 42 0;
#X connect 85 0 53 0;
#X connect 86 0 89 0;
#X connect 87 0 88 0;
#X connect 88 1 85 0;
#X connect 89 0 87 0;
#X connect 90 0 91 0;
#X connect 91 0 92 0;
#X connect 92 0 93 0;
#X connect 93 1 29 0;
#X connect 94 0 95 0;
#X connect 95 0 104 0;
#X connect 97 0 103 0;
#X connect 98 0 19 0;
#X connect 99 0 102 0;
#X connect 100 0 101 0;
#X connect 101 1 19 0;
#X connect 102 0 100 0;
#X connect 103 0 98 0;
#X connect 104 0 29 0;
#X connect 105 0 82 0;
#X connect 106 0 22 1;
#X connect 108 0 32 0;
#X connect 109 0 13 0;
#X connect 110 0 4 1;
#X connect 110 0 106 0;
