#N canvas 576 92 603 439 10;
#X obj 313 243 loadbang;
#X obj 42 50 inlet~;
#X obj 42 271 outlet~;
#X obj 314 266 t b b;
#X obj 28 164 expr~ if($v1 % 2 == 0 \, $v2 \, $v2 * -1);
#X text 48 191 not sure if this works yet;
#X obj 42 84 *~ 4;
#X obj 189 318 list store \$1 \$2 \$3 \$4;
#X obj 275 28 inlet one;
#X obj 343 28 inlet two;
#X obj 408 28 inlet three;
#X obj 484 29 inlet four;
#X obj 342 52 t b f;
#X obj 405 53 t b f;
#X obj 485 54 t b f;
#X obj 277 112 pack f f f f;
#X msg 337 294 4;
#X obj 42 122 tabread~ \$0-sequence1;
#X obj 190 376 array set \$0-sequence1;
#X obj 337 317 array size \$0-sequence1;
#X obj 191 402 array define \$0-sequence1;
#X connect 0 0 3 0;
#X connect 1 0 6 0;
#X connect 3 0 7 0;
#X connect 3 1 16 0;
#X connect 4 0 2 0;
#X connect 6 0 4 0;
#X connect 6 0 17 0;
#X connect 7 0 18 0;
#X connect 8 0 15 0;
#X connect 9 0 12 0;
#X connect 10 0 13 0;
#X connect 11 0 14 0;
#X connect 12 0 15 0;
#X connect 12 1 15 1;
#X connect 13 0 15 0;
#X connect 13 1 15 2;
#X connect 14 0 15 0;
#X connect 14 1 15 3;
#X connect 15 0 7 0;
#X connect 16 0 19 0;
#X connect 17 0 4 1;
