#N canvas 650 74 452 453 10;
#X obj 52 67 ctlin;
#X floatatom 61 115 5 0 0 0 - - -;
#X floatatom 97 116 5 0 0 0 - - -;
#X text 5 12 This is a quick and dirty addition for a workshop! Assumes
you are using the Touch Board in Tin Foil Theremin mode (or otherwise
the MIDI Interface Generic sketch);
#X msg 22 142 \$2 \$1;
#X obj 22 117 pack;
#X text 134 116 don't need to check channel;
#X obj 22 185 route;
#X obj 96 156 loadbang;
#X obj 96 222 \$1;
#X floatatom 21 252 5 0 0 0 - - -;
#X obj 21 363 line~;
#X msg 21 340 \$1 10;
#X obj 21 385 outlet~;
#X obj 22 217 / 127;
#X text 194 196 count from 1 because this is im;
#X obj 96 243 - 1;
#X floatatom 94 137 5 0 0 0 - - -;
#X obj 21 315 *;
#X obj 96 186 t b b;
#X obj 124 223 \$2;
#X obj 124 243 sel 0;
#X msg 124 265 1;
#X text 170 270 add range;
#X connect 0 0 5 0;
#X connect 0 0 17 0;
#X connect 0 1 1 0;
#X connect 0 1 5 1;
#X connect 0 2 2 0;
#X connect 4 0 7 0;
#X connect 5 0 4 0;
#X connect 7 0 14 0;
#X connect 8 0 19 0;
#X connect 9 0 16 0;
#X connect 10 0 18 0;
#X connect 11 0 13 0;
#X connect 12 0 11 0;
#X connect 14 0 10 0;
#X connect 16 0 7 1;
#X connect 18 0 12 0;
#X connect 19 0 9 0;
#X connect 19 1 20 0;
#X connect 20 0 21 0;
#X connect 21 0 22 0;
#X connect 21 1 18 1;
#X connect 22 0 18 1;
