#N canvas 789 68 450 432 10;
#X obj 55 110 change;
#X obj 55 90 snapshot~;
#X obj 150 33 bang~;
#X obj 55 140 sel 1;
#X obj 56 36 inlet~;
#X obj 55 57 expr~ $v1 > 0.1;
#X obj 54 195 +;
#X obj 82 194 i;
#X msg 55 162 1;
#X obj 114 174 loadbang;
#X obj 53 306 outlet~;
#X obj 54 282 sig~;
#X obj 54 220 % 8;
#X obj 54 251 / 8;
#X obj 113 196 f \$1;
#X floatatom 92 242 5 0 0 0 - - -;
#X obj 113 217 +;
#X connect 0 0 3 0;
#X connect 1 0 0 0;
#X connect 2 0 1 0;
#X connect 3 0 8 0;
#X connect 4 0 5 0;
#X connect 5 0 1 0;
#X connect 6 0 7 0;
#X connect 6 0 12 0;
#X connect 7 0 6 1;
#X connect 8 0 6 0;
#X connect 9 0 14 0;
#X connect 11 0 10 0;
#X connect 12 0 13 0;
#X connect 12 0 15 0;
#X connect 13 0 11 0;
#X connect 14 0 16 0;
#X connect 16 0 12 1;
