#N canvas 221 91 932 683 10;
#X obj 71 583 pack f f;
#X obj 71 610 line~;
#X floatatom 117 558 5 0 0 0 - - -;
#X obj 71 636 outlet~;
#X msg 170 314 0;
#X msg 204 314 1;
#X msg 252 315 2;
#X msg 286 314 3;
#X msg 332 317 4;
#X msg 366 318 5;
#X msg 420 315 6;
#X msg 469 318 7;
#X obj 71 10 loadbang;
#X text 153 558 glide time;
#X obj 669 283 inlet;
#X obj 670 336 * 12;
#X msg 509 317 8;
#X msg 548 316 9;
#X text 311 54 accept frequency \; check type (float \, symbol?) add
lower case options?;
#X msg 585 319 10;
#X obj 173 282 select C C# Db D D# Eb E F F# Gb G G# Ab A A# Bb B,
f 76;
#X msg 617 319 11;
#X obj 136 84 inlet;
#X obj 72 213 list store \$1, f 15;
#X obj 136 155 list;
#X text 379 237 would prefer a coll here \, but keeping it vanilla.
;
#X obj 135 176 t s b;
#X text 114 514 this will be replaced with tables with an audio input
once scala integration is stable \; for now \, let's make do with mtof
;
#X text 210 81 we could run through the chars here and add an option
for octaves defined within the symbol argument :);
#X text 381 253 (can convert this to a [text] object);
#X obj 670 312 list store \$2;
#X obj 73 251 route float, f 17;
#X obj 88 43 t b b;
#X obj 170 452 +;
#X obj 240 479 print midinote;
#X obj 99 119 route midi;
#X connect 0 0 1 0;
#X connect 1 0 3 0;
#X connect 2 0 0 1;
#X connect 4 0 33 0;
#X connect 5 0 33 0;
#X connect 6 0 33 0;
#X connect 7 0 33 0;
#X connect 8 0 33 0;
#X connect 9 0 33 0;
#X connect 10 0 33 0;
#X connect 11 0 33 0;
#X connect 12 0 32 0;
#X connect 14 0 30 0;
#X connect 15 0 33 1;
#X connect 16 0 33 0;
#X connect 17 0 33 0;
#X connect 19 0 33 0;
#X connect 20 0 4 0;
#X connect 20 1 5 0;
#X connect 20 2 5 0;
#X connect 20 3 6 0;
#X connect 20 4 7 0;
#X connect 20 5 7 0;
#X connect 20 6 8 0;
#X connect 20 7 9 0;
#X connect 20 8 10 0;
#X connect 20 9 10 0;
#X connect 20 10 11 0;
#X connect 20 11 16 0;
#X connect 20 12 16 0;
#X connect 20 13 17 0;
#X connect 20 14 19 0;
#X connect 20 15 19 0;
#X connect 20 16 21 0;
#X connect 21 0 33 0;
#X connect 22 0 35 0;
#X connect 23 0 31 0;
#X connect 24 0 26 0;
#X connect 26 0 23 0;
#X connect 26 1 23 1;
#X connect 30 0 15 0;
#X connect 31 0 0 0;
#X connect 31 1 20 0;
#X connect 32 0 23 0;
#X connect 32 1 30 0;
#X connect 33 0 34 0;
#X connect 33 0 0 0;
#X connect 35 0 0 0;
#X connect 35 1 24 0;
