#N canvas 318 68 845 694 10;
#X obj 154 427 osc~;
#X obj 154 394 mtof~;
#X obj 154 476 outlet~;
#X obj 154 364 inlet~;
#X obj 154 452 *~ 0.2;
#X obj 575 111 inlet;
#X obj 576 164 * 12;
#X obj 345 60 list store \$1, f 15;
#X obj 576 140 list store \$2;
#X obj 444 223 +, f 22;
#X obj 444 169 text search \$0-notes;
#X obj 346 4 loadbang;
#X obj 444 244 sig~;
#X msg 672 115 read im.nToI.txt;
#X obj 672 141 text define \$0-notes;
#X text 669 158 Come on \, do we need to define one of these each time
\, though?;
#X obj 345 35 t b b b, f 53;
#X text 7 11 must add Hz control;
#X text 793 20 attributes:;
#X text 873 19 note;
#X text 873 38 octave;
#X text 871 54 frequency;
#X text 872 70 amp;
#X obj 446 198 text get \$0-notes 1;
#N canvas 0 485 415 582 hz 1;
#X obj 182 141 list length;
#X obj 123 193 list split;
#X obj 125 92 list fromsymbol;
#X floatatom 154 274 5 0 0 0 - - -;
#X obj 124 392 spigot;
#X obj 125 413 list tosymbol;
#X obj 125 436 stof;
#X obj 68 31 route float;
#X obj 178 165 - 2;
#X obj 154 300 == 72;
#X obj 154 242 unpack f f;
#X floatatom 206 277 5 0 0 0 - - -;
#X obj 208 302 == 122;
#X obj 154 327 &&;
#X obj 126 460 outlet strippedOfHz;
#X obj 66 520 outlet float;
#X obj 154 352 t f f, f 25;
#X obj 294 500 outlet noteName;
#X obj 68 5 inlet messageToCheck;
#X obj 125 116 t a a, f 10;
#X obj 126 64 t a a, f 34;
#X obj 300 411 list store;
#X obj 421 352 t b f;
#X obj 421 397 -, f 5;
#X msg 421 376 1;
#X obj 388 435 spigot;
#X obj 301 383 sel 0;
#X connect 0 0 8 0;
#X connect 1 0 4 0;
#X connect 1 1 10 0;
#X connect 2 0 19 0;
#X connect 3 0 9 0;
#X connect 4 0 5 0;
#X connect 5 0 6 0;
#X connect 6 0 14 0;
#X connect 7 0 15 0;
#X connect 7 1 20 0;
#X connect 8 0 1 1;
#X connect 9 0 13 0;
#X connect 10 0 3 0;
#X connect 10 1 11 0;
#X connect 11 0 12 0;
#X connect 12 0 13 1;
#X connect 13 0 16 0;
#X connect 16 0 4 1;
#X connect 16 1 26 0;
#X connect 18 0 7 0;
#X connect 19 0 1 0;
#X connect 19 1 0 0;
#X connect 20 0 2 0;
#X connect 20 1 21 1;
#X connect 21 0 17 0;
#X connect 22 0 24 0;
#X connect 22 1 23 1;
#X connect 23 0 25 1;
#X connect 24 0 23 0;
#X connect 26 0 21 0;
#X restore 358 84 pd hz;
#X f 18;
#X obj 404 138 ftom;
#X text 773 60 (or parameters?);
#X obj 495 281 print notename;
#X connect 0 0 4 0;
#X connect 1 0 0 0;
#X connect 3 0 1 0;
#X connect 4 0 2 0;
#X connect 5 0 8 0;
#X connect 6 0 9 1;
#X connect 7 0 24 0;
#X connect 8 0 6 0;
#X connect 9 0 12 0;
#X connect 10 0 23 0;
#X connect 11 0 16 0;
#X connect 12 0 1 0;
#X connect 13 0 14 0;
#X connect 16 0 7 0;
#X connect 16 1 8 0;
#X connect 16 2 13 0;
#X connect 23 0 9 0;
#X connect 24 0 12 0;
#X connect 24 1 25 0;
#X connect 24 2 10 0;
#X connect 24 2 27 0;
#X connect 25 0 12 0;
