#N canvas 348 87 932 683 10;
#X obj 72 609 change;
#X obj 73 630 outlet;
#X obj 489 263 %, f 7;
#X obj 540 393 +;
#X obj 874 48 inlet;
#X obj 240 332 inlet;
#X obj 241 391 * 12;
#X obj 280 332 loadbang;
#X obj 544 484 * 12;
#X obj 545 429 /;
#X obj 501 523 +;
#X obj 545 458 i;
#X obj 528 220 list length;
#X obj 489 345 list store;
#X msg 489 317 get \$1 1;
#X text 114 514 this will be replaced with tables with an audio input
once scala integration is stable \; for now \, let's make do with mtof
;
#X obj 528 187 t a a;
#X obj 31 285 t f f, f 15;
#X obj 29 30 i;
#X obj 30 196 t f f f;
#X obj 241 361 list store \$1;
#X obj 157 28 inlet;
#X msg 82 169 1;
#X obj 56 140 sel I II III IV V VI VII VIII;
#X msg 48 168 0;
#X msg 120 168 2;
#X msg 154 169 3;
#X msg 191 168 4;
#X msg 225 169 5;
#X msg 263 168 6;
#X msg 297 169 7;
#X msg 30 80 get \$1 1;
#X obj 56 112 list store \$2 \$3 \$4 \$5;
#X floatatom 87 38 5 0 0 0 - - -;
#X obj 557 91 list split 1;
#X floatatom 523 131 5 0 0 0 - - -;
#X obj 49 232 + 2;
#X obj 77 232 + 4;
#X obj 599 265 %, f 7;
#X obj 638 222 list length;
#X obj 599 347 list store;
#X msg 599 319 get \$1 1;
#X obj 638 189 t a a;
#X obj 705 263 %, f 7;
#X obj 744 220 list length;
#X obj 705 345 list store;
#X msg 705 317 get \$1 1;
#X obj 744 187 t a a;
#X obj 580 125 t a a a;
#X obj 591 394 +;
#X obj 673 396 +;
#X text 672 119 get this into sub-patches;
#X obj 594 480 * 12;
#X obj 595 425 /;
#X obj 595 454 i;
#X obj 684 479 * 12;
#X obj 685 424 /;
#X obj 685 453 i;
#X obj 579 524 +;
#X obj 675 520 +;
#X obj 501 546 +;
#X obj 585 546 +;
#X obj 676 545 +;
#X obj 503 578 change;
#X obj 504 640 outlet;
#X obj 584 581 change;
#X obj 584 643 outlet;
#X obj 681 578 change;
#X obj 681 640 outlet;
#X obj 184 283 t f f, f 15;
#X obj 320 281 t f f, f 15;
#X msg 505 604 midi \$1;
#X msg 585 610 midi \$1;
#X msg 682 612 midi \$1;
#X obj 29 -1 snapshot~;
#X obj 90 -28 bang~;
#X obj 29 -37 inlet~;
#X connect 0 0 1 0;
#X connect 2 0 14 0;
#X connect 3 0 10 0;
#X connect 4 0 34 0;
#X connect 5 0 20 0;
#X connect 6 0 60 1;
#X connect 6 0 61 1;
#X connect 6 0 62 1;
#X connect 7 0 20 0;
#X connect 8 0 10 1;
#X connect 9 0 11 0;
#X connect 10 0 60 0;
#X connect 11 0 8 0;
#X connect 12 0 9 1;
#X connect 12 0 2 1;
#X connect 13 0 3 0;
#X connect 14 0 13 0;
#X connect 16 0 12 0;
#X connect 16 1 13 1;
#X connect 17 0 2 0;
#X connect 17 1 9 0;
#X connect 18 0 31 0;
#X connect 19 0 17 0;
#X connect 19 1 36 0;
#X connect 19 2 37 0;
#X connect 20 0 6 0;
#X connect 21 0 32 1;
#X connect 22 0 19 0;
#X connect 23 0 24 0;
#X connect 23 1 22 0;
#X connect 23 2 25 0;
#X connect 23 3 26 0;
#X connect 23 4 27 0;
#X connect 23 5 28 0;
#X connect 23 6 29 0;
#X connect 23 7 30 0;
#X connect 24 0 19 0;
#X connect 25 0 19 0;
#X connect 26 0 19 0;
#X connect 27 0 19 0;
#X connect 28 0 19 0;
#X connect 29 0 19 0;
#X connect 30 0 19 0;
#X connect 31 0 32 0;
#X connect 32 0 23 0;
#X connect 33 0 18 0;
#X connect 34 0 3 1;
#X connect 34 0 35 0;
#X connect 34 0 49 1;
#X connect 34 0 50 1;
#X connect 34 1 48 0;
#X connect 36 0 69 0;
#X connect 37 0 70 0;
#X connect 38 0 41 0;
#X connect 39 0 38 1;
#X connect 40 0 3 0;
#X connect 40 0 49 0;
#X connect 41 0 40 0;
#X connect 42 0 39 0;
#X connect 42 1 40 1;
#X connect 43 0 46 0;
#X connect 44 0 43 1;
#X connect 45 0 50 0;
#X connect 46 0 45 0;
#X connect 47 0 44 0;
#X connect 47 1 45 1;
#X connect 48 0 16 0;
#X connect 48 1 42 0;
#X connect 48 2 47 0;
#X connect 49 0 58 0;
#X connect 50 0 59 0;
#X connect 52 0 58 1;
#X connect 53 0 54 0;
#X connect 54 0 52 0;
#X connect 55 0 59 1;
#X connect 56 0 57 0;
#X connect 57 0 55 0;
#X connect 58 0 61 0;
#X connect 59 0 62 0;
#X connect 60 0 0 0;
#X connect 60 0 63 0;
#X connect 61 0 0 0;
#X connect 61 0 65 0;
#X connect 62 0 0 0;
#X connect 62 0 67 0;
#X connect 63 0 71 0;
#X connect 65 0 72 0;
#X connect 67 0 73 0;
#X connect 69 0 38 0;
#X connect 69 1 53 1;
#X connect 70 0 43 0;
#X connect 70 1 56 1;
#X connect 71 0 64 0;
#X connect 72 0 66 0;
#X connect 73 0 68 0;
#X connect 74 0 18 0;
#X connect 75 0 74 0;
#X connect 76 0 74 0;
