#N canvas 348 32 932 683 10;
#X obj 421 585 change;
#X obj 421 606 outlet;
#X obj 489 296 %, f 7;
#X obj 489 372 +;
#X obj 337 18 inlet;
#X obj 338 77 * 12;
#X obj 377 18 loadbang;
#X obj 537 430 * 12;
#X obj 538 375 /;
#X obj 494 469 +, f 8;
#X obj 538 404 i;
#X obj 528 220 list length;
#X obj 489 345 list store;
#X msg 489 317 get \$1 1;
#X text 114 514 this will be replaced with tables with an audio input
once scala integration is stable \; for now \, let's make do with mtof
;
#X obj 528 187 t a a;
#X obj 31 259 t f f, f 6;
#X obj 56 68 i;
#X obj 30 196 t f f f;
#X obj 338 47 list store \$1;
#X obj 185 81 inlet;
#X msg 52 167 1;
#X obj 56 140 sel I II III IV V VI VII VIII;
#X msg 18 166 0;
#X msg 90 166 2;
#X msg 124 167 3;
#X msg 161 166 4;
#X msg 195 167 5;
#X msg 233 166 6;
#X msg 267 167 7;
#X msg 56 89 get \$1 1;
#X obj 56 112 list store \$2 \$3 \$4 \$5;
#X obj 493 131 list split 1;
#X obj 49 232 + 2;
#X obj 77 232 + 4;
#X obj 599 298 %, f 7;
#X obj 638 222 list length;
#X obj 599 347 list store;
#X msg 599 319 get \$1 1;
#X obj 638 189 t a a;
#X obj 705 296 %, f 7;
#X obj 744 220 list length;
#X obj 705 345 list store;
#X msg 705 317 get \$1 1;
#X obj 744 187 t a a;
#X obj 528 159 t a a a, f 37;
#X obj 599 371 +;
#X obj 705 371 +;
#X text 672 119 get this into sub-patches;
#X obj 625 427 * 12;
#X obj 626 372 /;
#X obj 626 401 i;
#X obj 733 427 * 12;
#X obj 734 372 /;
#X obj 734 401 i;
#X obj 600 454 +, f 5;
#X obj 718 452 +;
#X obj 494 492 +;
#X obj 596 484 +;
#X obj 716 486 +;
#X obj 491 521 change;
#X obj 596 516 change;
#X obj 715 514 change;
#X obj 133 258 t f f;
#X obj 236 259 t f f;
#X obj 56 37 snapshot~;
#X obj 117 10 bang~;
#X obj 56 1 inlet~;
#X text 236 140 use text object;
#X obj 490 545 sig~;
#X obj 492 583 outlet~;
#X obj 596 578 outlet~;
#X obj 715 576 outlet~;
#X obj 594 545 sig~;
#X obj 717 540 sig~;
#X obj 493 107 inlet scale;
#X connect 0 0 1 0;
#X connect 2 0 13 0;
#X connect 3 0 9 0;
#X connect 4 0 19 0;
#X connect 5 0 57 1;
#X connect 5 0 58 1;
#X connect 5 0 59 1;
#X connect 6 0 19 0;
#X connect 7 0 9 1;
#X connect 8 0 10 0;
#X connect 9 0 57 0;
#X connect 10 0 7 0;
#X connect 11 0 8 1;
#X connect 11 0 2 1;
#X connect 12 0 3 0;
#X connect 13 0 12 0;
#X connect 15 0 11 0;
#X connect 15 1 12 1;
#X connect 16 0 2 0;
#X connect 16 1 8 0;
#X connect 17 0 30 0;
#X connect 18 0 16 0;
#X connect 18 1 33 0;
#X connect 18 2 34 0;
#X connect 19 0 5 0;
#X connect 20 0 31 1;
#X connect 21 0 18 0;
#X connect 22 0 23 0;
#X connect 22 1 21 0;
#X connect 22 2 24 0;
#X connect 22 3 25 0;
#X connect 22 4 26 0;
#X connect 22 5 27 0;
#X connect 22 6 28 0;
#X connect 22 7 29 0;
#X connect 23 0 18 0;
#X connect 24 0 18 0;
#X connect 25 0 18 0;
#X connect 26 0 18 0;
#X connect 27 0 18 0;
#X connect 28 0 18 0;
#X connect 29 0 18 0;
#X connect 30 0 31 0;
#X connect 31 0 22 0;
#X connect 32 0 3 1;
#X connect 32 0 46 1;
#X connect 32 0 47 1;
#X connect 32 1 45 0;
#X connect 33 0 63 0;
#X connect 34 0 64 0;
#X connect 35 0 38 0;
#X connect 36 0 35 1;
#X connect 37 0 3 0;
#X connect 37 0 46 0;
#X connect 38 0 37 0;
#X connect 39 0 36 0;
#X connect 39 1 37 1;
#X connect 40 0 43 0;
#X connect 41 0 40 1;
#X connect 42 0 47 0;
#X connect 43 0 42 0;
#X connect 44 0 41 0;
#X connect 44 1 42 1;
#X connect 45 0 15 0;
#X connect 45 1 39 0;
#X connect 45 2 44 0;
#X connect 46 0 55 0;
#X connect 47 0 56 0;
#X connect 49 0 55 1;
#X connect 50 0 51 0;
#X connect 51 0 49 0;
#X connect 52 0 56 1;
#X connect 53 0 54 0;
#X connect 54 0 52 0;
#X connect 55 0 58 0;
#X connect 56 0 59 0;
#X connect 57 0 0 0;
#X connect 57 0 60 0;
#X connect 58 0 0 0;
#X connect 58 0 61 0;
#X connect 59 0 0 0;
#X connect 59 0 62 0;
#X connect 60 0 69 0;
#X connect 61 0 73 0;
#X connect 62 0 74 0;
#X connect 63 0 35 0;
#X connect 63 1 50 1;
#X connect 64 0 40 0;
#X connect 64 1 53 1;
#X connect 65 0 17 0;
#X connect 66 0 65 0;
#X connect 67 0 65 0;
#X connect 69 0 70 0;
#X connect 73 0 71 0;
#X connect 74 0 72 0;
#X connect 75 0 32 0;
