#N canvas 336 92 460 524 10;
#X obj 72 315 list store, f 16;
#X obj 73 141 t b a, f 16;
#X msg 73 286 get \$1 1;
#X obj 72 194 list store \$1;
#X obj 72 174 bng 15 250 50 0 empty empty empty 17 7 0 10 -262144 -1
-1;
#X obj 72 216 sel x y;
#X msg 72 242 0;
#X msg 103 243 1;
#X obj 72 435 outlet;
#X obj 72 43 list trim;
#X obj 146 347 \$2;
#X obj 179 347 \$3;
#X obj 175 290 loadbang;
#X obj 175 311 t b b;
#X obj 72 74 route /tilts;
#X obj 72 17 r fromSystem;
#X obj 68 344 + 1;
#X text 230 380 need to fix map to accept negative arguments;
#X obj 72 375 im.map 0 2 0 7, f 23;
#X connect 0 0 16 0;
#X connect 1 0 4 0;
#X connect 1 1 0 1;
#X connect 2 0 0 0;
#X connect 3 0 5 0;
#X connect 4 0 3 0;
#X connect 5 0 6 0;
#X connect 5 1 7 0;
#X connect 6 0 2 0;
#X connect 7 0 2 0;
#X connect 9 0 14 0;
#X connect 10 0 18 3;
#X connect 11 0 18 4;
#X connect 12 0 13 0;
#X connect 13 0 10 0;
#X connect 13 1 11 0;
#X connect 14 0 1 0;
#X connect 15 0 9 0;
#X connect 16 0 18 0;
#X connect 18 0 8 0;
