#N canvas 717 77 636 625 10;
#X obj 86 222 timer;
#X obj 96 116 snapshot~;
#X obj 142 90 bang~;
#X obj 95 158 change;
#X obj 96 137 > 0.1;
#X obj 95 194 sel 1;
#X obj 83 283 line~, f 6;
#X msg 83 261 \$1 10;
#X obj 83 304 outlet~;
#X obj 96 90 inlet~;
#X text 160 287 might need an average;
#X text 210 188 taps on signal 1 threshold;
#X connect 0 0 7 0;
#X connect 1 0 4 0;
#X connect 2 0 1 0;
#X connect 3 0 5 0;
#X connect 4 0 3 0;
#X connect 5 0 0 1;
#X connect 5 0 0 0;
#X connect 6 0 8 0;
#X connect 7 0 6 0;
#X connect 9 0 1 0;
