#N canvas 44 34 525 459 10;
#X obj 11 10 cnv 15 500 120 empty empty instrument_maker 10 22 0 40
-4032 -66577 0;
#X obj 22 60 cnv 15 478 40 empty empty im.volume 20 22 0 30 -1 -196864
0;
#X text 22 110 Charles Matthews 2020;
#X obj 11 192 cnv 15 500 20 empty empty Arguments: 10 10 0 13 -203904
-66577 0;
#X obj 11 215 cnv 15 500 20 empty empty Inlets: 34 10 0 13 -204800
-66577 0;
#X obj 11 239 cnv 15 500 20 empty empty Outlets: 25 10 0 13 -204786
-66577 0;
#X text 21 171 comment, f 81;
#X obj 11 135 cnv 15 500 50 empty empty empty 25 10 0 13 -262130 -66577
0;
#X obj 8 392 cnv 15 500 40 empty empty empty 25 10 0 13 -262130 -66577
0;
#X text 16 142 Change volume with a percentage \, or using an input
in the right-hand side., f 81;
#X text 105 195 1) volume as percentage, f 64;
#X text 105 217 1) 1 audio signal 2) volume change (0-1);
#X text 106 241 1) processed signal;
#X text 22 266 Two ways of using im.volume: to put the volume down
by 50% \, and to control via a sensor or keypress.;
#X text 16 394 im.volume can be used to amplify different signals \,
and is the same as im.fader and im.multiply., f 81;
#X obj 49 300 im.noise;
#X obj 48 372 im.speaker;
#X obj 49 321 im.volume 50%;
#X obj 49 347 im.volume, f 26;
#X obj 193 297 im.sensor 1;
#X obj 246 318 im.keypress Space;
#X connect 15 0 17 0;
#X connect 17 0 18 0;
#X connect 18 0 16 0;
#X connect 19 0 18 1;
#X connect 20 0 18 1;
