#N canvas 619 52 525 493 10;
#X obj 11 10 cnv 15 500 120 empty empty instrument_maker 10 22 0 40
-4032 -66577 0;
#X obj 22 60 cnv 15 478 40 empty empty im.whitenoise 20 22 0 30 -1
-196864 0;
#X text 22 110 Charles Matthews 2020;
#X obj 11 192 cnv 15 500 20 empty empty Arguments: 10 10 0 13 -203904
-66577 0;
#X obj 11 215 cnv 15 500 20 empty empty Inlets: 34 10 0 13 -204800
-66577 0;
#X obj 11 239 cnv 15 500 20 empty empty Outlets: 25 10 0 13 -204786
-66577 0;
#X text 21 171 comment, f 81;
#X obj 11 135 cnv 15 500 50 empty empty empty 25 10 0 13 -262130 -66577
0;
#X obj 8 430 cnv 15 500 40 empty empty empty 25 10 0 13 -262130 -66577
0;
#X text 16 142 Generate a white noise signal, f 81;
#X text 105 195 none, f 64;
#X text 105 217 none (output only);
#X text 106 241 noise signal;
#X obj 30 408 im.speaker;
#X obj 30 387 im.fader;
#X obj 75 304 im.keypress Space;
#X obj 86 337 im.sensor 1;
#X text 188 299 Hold down the space bar on your computer or connect
sensor 1 to hear some white noise., f 51;
#X obj 30 282 im.whitenoise;
#X text 15 445 im.whitenoise is the same as im.noise, f 81;
#X connect 14 0 13 0;
#X connect 15 0 14 1;
#X connect 16 0 14 1;
#X connect 18 0 14 0;
