#N canvas 48 23 611 755 10;
#X msg 157 71 list hello world how are you;
#X obj 226 109 list store;
#X obj 190 231 list length;
#X obj 257 272 print listlength;
#X obj 12 244 print hello;
#X obj 157 175 list split 1;
#X obj 147 393 bng 15 250 50 0 empty empty empty 17 7 0 10 -262144
-1 -1;
#X obj 158 363 select hello;
#X obj 389 251 bng 15 250 50 0 empty empty empty 17 7 0 10 -262144
-1 -1;
#X obj 385 217 route hello;
#X obj 516 138 route symbol string;
#X obj 515 172 bng 15 250 50 0 empty empty empty 17 7 0 10 -262144
-1 -1;
#X obj 556 171 bng 15 250 50 0 empty empty empty 17 7 0 10 -262144
-1 -1;
#X obj 618 176 bng 15 250 50 0 empty empty empty 17 7 0 10 -262144
-1 -1;
#X obj 388 180 route symbol;
#X obj 399 145 list split 1;
#X obj 474 286 print endup;
#X msg 386 94 hello world how are you;
#X obj 549 261 print endupt2;
#X obj 576 333 route hello;
#X obj 573 370 print this;
#X obj 68 414 route symbol;
#X obj 60 464 print;
#X obj 103 468 cyclone/fromsymbol;
#X obj 103 497 print from;
#X obj 269 232 print issymbol;
#X obj 270 199 bng 15 250 50 0 empty empty empty 17 7 0 10 -262144
-1 -1;
#X obj 549 444 makefilename;
#X obj 191 200 t a a;
#X obj 190 262 > 0;
#X obj 190 291 tgl 15 0 empty empty empty 17 7 0 10 -262144 -1 -1 0
1;
#X obj 190 311 sel 1;
#X obj 485 486 list store 1 2 3 4;
#X floatatom 485 439 5 0 0 0 - - -;
#X floatatom 487 525 5 0 0 0 - - -;
#X msg 485 461 get \$1 1;
#X obj 487 553 mtof;
#X msg 310 390 quick brown fox;
#X obj 343 438 im.generatescale major;
#X floatatom 229 400 5 0 0 0 - - -;
#X obj 212 506 clip;
#X obj 320 650 im.output;
#X obj 186 613 print;
#X obj 177 559 sig~ 1;
#X obj 255 451 sig~;
#X obj 254 504 print;
#X obj 254 476 snapshot~;
#X floatatom 318 572 5 0 0 0 - - -;
#X obj 319 624 im.acid;
#X obj 289 430 im.input;
#X obj 634 403 r fromGUI;
#X obj 634 424 route /myMultiTouch;
#X obj 634 446 route touch;
#X msg 634 470 \$3 \$4;
#X obj 635 717 outlet;
#X obj 634 665 list store, f 16;
#X obj 635 491 t b a, f 16;
#X msg 635 636 get \$1 1;
#X obj 634 544 list store \$1;
#X obj 634 524 bng 15 250 50 0 empty empty empty 17 7 0 10 -262144
-1 -1;
#X obj 634 566 sel x y;
#X msg 634 592 0;
#X msg 665 593 1;
#X text 670 261 (total range / (input max - input min)) - output min
;
#X text 625 279 (output min + output max / (input max - input min))
- output min;
#X text 638 309 ($f3 + $f4 / ($f2 - $f1)) - $f3;
#X floatatom 774 390 5 0 0 0 - - -;
#X floatatom 776 475 5 0 0 0 - - -;
#X floatatom 841 388 5 0 0 0 - - -;
#X obj 775 430 expr $f1 * (($f4 + $f5) / ($f3 - $f2)) - $f4;
#X floatatom 903 386 5 0 0 0 - - -;
#X floatatom 975 385 5 0 0 0 - - -;
#X floatatom 1034 384 5 0 0 0 - - -;
#X floatatom 1153 358 5 0 0 0 - - -;
#X floatatom 1236 355 5 0 0 0 - - -;
#X floatatom 1171 433 5 0 0 0 - - -;
#X floatatom 1120 397 5 0 0 0 - - -;
#X floatatom 1117 484 5 0 0 0 - - -;
#X obj 1117 458 expr $f2 - $f1;
#X floatatom 1297 358 5 0 0 0 - - -;
#X floatatom 1380 355 5 0 0 0 - - -;
#X obj 1202 345 bng 15 250 50 0 empty empty empty 17 7 0 10 -262144
-1 -1;
#X obj 1174 394 expr ($f1 > $f2 ^ $f3 > $f4) * $f1;
#X text 1231 298 beginning of inverted ranges;
#X obj 841 358 \$1;
#X obj 903 357 \$2;
#X obj 976 355 \$3;
#X obj 1034 356 \$4;
#X obj 840 320 inlet;
#X obj 903 321 inlet;
#X obj 976 319 inlet;
#X obj 1039 320 inlet;
#X obj 1036 252 loadbang;
#X obj 1036 274 t b b b b;
#X obj 774 364 inlet;
#X obj 777 499 outlet;
#X obj 657 378 print;
#X obj 316 538 im.multitouch x 0 7;
#X floatatom 456 621 5 0 0 0 - - -;
#X obj 458 596 im.multitouch y 200 8000;
#X obj 710 99 list.rot;
#X floatatom 748 59 5 0 0 0 - - -;
#X msg 696 28 1 2 3 4;
#X obj 709 133 print rotated;
#X text 436 364 2 1 2 2 2 1 2;
#X text 427 388 0;
#X obj 236 623 mtof;
#X obj 236 647 osc~;
#X obj 234 688 dac~;
#X floatatom 235 593 5 0 0 0 - - -;
#X obj 318 599 im.scale C dorian 4;
#X connect 0 0 5 0;
#X connect 1 0 5 0;
#X connect 2 0 3 0;
#X connect 2 0 29 0;
#X connect 5 0 7 0;
#X connect 5 0 4 0;
#X connect 5 1 28 0;
#X connect 5 1 25 0;
#X connect 7 0 6 0;
#X connect 9 0 8 0;
#X connect 10 0 11 0;
#X connect 10 0 16 0;
#X connect 10 1 12 0;
#X connect 10 2 13 0;
#X connect 10 2 18 0;
#X connect 10 2 19 0;
#X connect 14 0 9 0;
#X connect 14 1 9 0;
#X connect 17 0 10 0;
#X connect 17 0 14 0;
#X connect 19 0 20 0;
#X connect 21 0 22 0;
#X connect 21 0 23 0;
#X connect 23 0 24 0;
#X connect 28 0 2 0;
#X connect 28 1 1 1;
#X connect 29 0 30 0;
#X connect 30 0 31 0;
#X connect 31 0 1 0;
#X connect 32 0 34 0;
#X connect 33 0 35 0;
#X connect 34 0 36 0;
#X connect 35 0 32 0;
#X connect 39 0 46 0;
#X connect 44 0 46 0;
#X connect 46 0 45 0;
#X connect 47 0 110 0;
#X connect 48 0 41 0;
#X connect 50 0 51 0;
#X connect 50 0 96 0;
#X connect 51 0 52 0;
#X connect 52 0 53 0;
#X connect 53 0 56 0;
#X connect 56 0 59 0;
#X connect 56 1 55 1;
#X connect 57 0 55 0;
#X connect 58 0 60 0;
#X connect 59 0 58 0;
#X connect 60 0 61 0;
#X connect 60 1 62 0;
#X connect 61 0 57 0;
#X connect 62 0 57 0;
#X connect 66 0 69 0;
#X connect 67 0 95 0;
#X connect 68 0 69 1;
#X connect 69 0 67 0;
#X connect 70 0 69 2;
#X connect 71 0 69 3;
#X connect 72 0 69 4;
#X connect 73 0 82 0;
#X connect 74 0 81 0;
#X connect 74 0 82 1;
#X connect 75 0 78 1;
#X connect 76 0 78 0;
#X connect 78 0 77 0;
#X connect 79 0 81 0;
#X connect 79 0 82 2;
#X connect 80 0 81 0;
#X connect 80 0 82 3;
#X connect 81 0 82 0;
#X connect 82 0 75 0;
#X connect 84 0 68 0;
#X connect 85 0 70 0;
#X connect 86 0 71 0;
#X connect 87 0 72 0;
#X connect 88 0 84 0;
#X connect 89 0 85 0;
#X connect 90 0 86 0;
#X connect 91 0 87 0;
#X connect 92 0 93 0;
#X connect 93 0 84 0;
#X connect 93 1 85 0;
#X connect 93 2 86 0;
#X connect 93 3 87 0;
#X connect 94 0 66 0;
#X connect 97 0 47 0;
#X connect 98 0 48 1;
#X connect 99 0 98 0;
#X connect 100 0 103 0;
#X connect 101 0 100 1;
#X connect 102 0 100 0;
#X connect 106 0 107 0;
#X connect 109 0 106 0;
#X connect 110 0 48 0;
