#N canvas 75 120 636 658 10;
#X obj 70 71 im.input 1;
#X obj 70 129 im.echo 3000 50%;
#X obj 70 202 im.output 1;
#X obj 173 166 *~;
#X obj 192 72 im.input 1;
#X connect 0 0 1 0;
#X connect 1 0 3 0;
#X connect 1 0 2 0;
#X connect 3 0 2 0;
#X connect 4 0 3 1;
