#N canvas 104 118 640 570 10;
#X obj 153 191 im.tunedperc;
#X obj 153 222 im.output;
#X obj 101 157 im.scale G dorian 4;
#X obj 279 188 im.fizzy;
#X obj 281 222 im.output;
#X obj 100 50 im.input midinote octaves 4;
#X obj 228 157 im.scale G dorian 2;
#X connect 0 0 1 0;
#X connect 2 1 0 0;
#X connect 3 0 4 0;
#X connect 5 0 2 0;
#X connect 5 0 6 0;
#X connect 6 1 3 0;
