#N canvas 99 161 882 501 10;
#X obj 61 177 im.volume;
#X obj 60 277 im.output;
#X obj 119 240 im.echo 500 40%;
#X obj 63 379 im.volume;
#X obj 63 450 im.output;
#X obj 83 415 im.echo 500 40%;
#X obj 64 308 im.set A 5;
#X obj 233 376 im.volume;
#X obj 233 447 im.output;
#X obj 253 412 im.echo 500 40%;
#X obj 234 305 im.set C 6;
#X obj 144 338 im.input 5;
#X obj 314 335 im.input 6;
#X obj 397 374 im.volume;
#X obj 397 445 im.output;
#X obj 417 410 im.echo 500 40%;
#X obj 567 371 im.volume;
#X obj 567 442 im.output;
#X obj 587 407 im.echo 500 40%;
#X obj 398 303 im.set D 5;
#X obj 569 301 im.set E 6;
#X obj 478 333 im.input 7;
#X obj 648 330 im.input 8;
#X obj 60 149 im.hollow;
#X obj 63 339 im.hollow;
#X obj 233 336 im.hollow;
#X obj 397 334 im.hollow;
#X obj 567 331 im.hollow;
#X obj 60 118 im.scale E phrygian 5;
#X obj 54 61 im.input 1 octaves 2;
#X obj 119 92 im.input 1;
#X obj 58 217 im.volume 200%;
#X obj 292 171 im.volume;
#X obj 291 271 im.output;
#X obj 350 234 im.echo 500 40%;
#X obj 291 143 im.hollow;
#X obj 289 211 im.volume 200%;
#X obj 476 174 im.volume;
#X obj 475 274 im.output;
#X obj 534 237 im.echo 500 40%;
#X obj 475 146 im.hollow;
#X obj 473 214 im.volume 200%;
#X obj 698 174 im.volume;
#X obj 697 274 im.output;
#X obj 756 237 im.echo 500 40%;
#X obj 697 146 im.hollow;
#X obj 695 214 im.volume 200%;
#X obj 285 55 im.input 2 octaves 2;
#X obj 350 87 im.input 2;
#X obj 470 58 im.input 2 octaves 2;
#X obj 534 89 im.input 2;
#X obj 691 58 im.input 2 octaves 2;
#X obj 756 89 im.input 2;
#X obj 291 112 im.scale E phrygian 4;
#X obj 475 115 im.scale E phrygian 6;
#X obj 697 115 im.scale E phrygian 6;
#X connect 0 0 2 0;
#X connect 0 0 31 0;
#X connect 2 0 1 0;
#X connect 3 0 4 0;
#X connect 3 0 5 0;
#X connect 5 0 4 0;
#X connect 6 0 24 0;
#X connect 7 0 8 0;
#X connect 7 0 9 0;
#X connect 9 0 8 0;
#X connect 10 0 25 0;
#X connect 11 0 3 1;
#X connect 11 0 24 1;
#X connect 12 0 7 1;
#X connect 12 0 25 1;
#X connect 13 0 14 0;
#X connect 13 0 15 0;
#X connect 15 0 14 0;
#X connect 16 0 17 0;
#X connect 16 0 18 0;
#X connect 18 0 17 0;
#X connect 19 0 26 0;
#X connect 20 0 27 0;
#X connect 21 0 13 1;
#X connect 21 0 26 1;
#X connect 22 0 16 1;
#X connect 22 0 27 1;
#X connect 23 0 0 0;
#X connect 24 0 3 0;
#X connect 25 0 7 0;
#X connect 26 0 13 0;
#X connect 27 0 16 0;
#X connect 28 0 23 0;
#X connect 29 0 28 0;
#X connect 30 0 23 1;
#X connect 30 0 0 1;
#X connect 31 0 1 0;
#X connect 32 0 34 0;
#X connect 32 0 36 0;
#X connect 34 0 33 0;
#X connect 35 0 32 0;
#X connect 36 0 33 0;
#X connect 37 0 39 0;
#X connect 37 0 41 0;
#X connect 39 0 38 0;
#X connect 40 0 37 0;
#X connect 41 0 38 0;
#X connect 42 0 44 0;
#X connect 42 0 46 0;
#X connect 44 0 43 0;
#X connect 45 0 42 0;
#X connect 46 0 43 0;
#X connect 47 0 53 0;
#X connect 48 0 35 1;
#X connect 48 0 32 1;
#X connect 49 0 54 0;
#X connect 50 0 40 1;
#X connect 50 0 37 1;
#X connect 51 0 55 0;
#X connect 52 0 45 1;
#X connect 52 0 42 1;
#X connect 53 0 35 0;
#X connect 54 0 40 0;
#X connect 55 0 45 0;
