#N canvas 598 108 400 503 10;
#X obj 48 92 inlet;
#X obj 94 143 list length;
#X obj 48 236 until;
#X floatatom 93 206 5 0 0 0 - - -;
#X obj 48 301 f, f 8;
#X obj 171 88 sel ++ --, f 25;
#X obj 171 118 bng 15 250 50 0 empty empty empty 17 7 0 10 -262144
-1 -1;
#X obj 282 125 bng 15 250 50 0 empty empty empty 17 7 0 10 -262144
-1 -1;
#X obj 48 118 route float list;
#X msg 207 167 1;
#X msg 171 166 0;
#X msg 282 166 1;
#X msg 315 166 -1;
#X obj 48 377 outlet;
#X obj 93 239 * 0;
#X obj 112 301 + 1;
#X obj 171 56 list store \$1;
#X obj 171 13 loadbang;
#X obj 171 35 bng 15 250 50 0 empty empty empty 17 7 0 10 -262144 -1
-1;
#X obj 93 266 +;
#X obj 282 146 t b b b, f 12;
#X obj 171 139 t b b b, f 13;
#X msg 246 166 0;
#X msg 348 165 -1;
#X obj 188 437 bng 15 250 50 0 empty empty empty 17 7 0 10 -262144
-1 -1;
#X obj 177 320 f;
#X obj 208 319 + 1;
#X obj 48 172 t f f f, f 16;
#X obj 22 334 t b f;
#X obj 188 458 outlet;
#X text 232 437 done;
#X obj 194 261 t b f, f 14;
#X msg 193 289 0;
#X obj 188 386 expr $f1 < $f2;
#X obj 188 412 sel 0;
#X connect 0 0 8 0;
#X connect 1 0 27 0;
#X connect 2 0 4 0;
#X connect 3 0 14 0;
#X connect 4 0 15 0;
#X connect 4 0 28 0;
#X connect 5 0 6 0;
#X connect 5 1 7 0;
#X connect 6 0 21 0;
#X connect 7 0 20 0;
#X connect 8 0 27 0;
#X connect 8 1 1 0;
#X connect 9 0 15 1;
#X connect 10 0 14 1;
#X connect 11 0 14 1;
#X connect 12 0 15 1;
#X connect 14 0 19 0;
#X connect 15 0 4 1;
#X connect 16 0 5 0;
#X connect 17 0 18 0;
#X connect 18 0 16 0;
#X connect 19 0 4 1;
#X connect 20 0 11 0;
#X connect 20 1 12 0;
#X connect 20 2 23 0;
#X connect 21 0 10 0;
#X connect 21 1 9 0;
#X connect 21 2 22 0;
#X connect 22 0 19 1;
#X connect 23 0 19 1;
#X connect 24 0 29 0;
#X connect 25 0 26 0;
#X connect 26 0 25 1;
#X connect 26 0 33 0;
#X connect 27 0 2 0;
#X connect 27 1 3 0;
#X connect 27 2 31 0;
#X connect 28 0 25 0;
#X connect 28 1 13 0;
#X connect 31 0 32 0;
#X connect 31 1 33 1;
#X connect 32 0 25 1;
#X connect 33 0 34 0;
#X connect 34 0 24 0;
