#N canvas 827 212 660 386 10;
#X obj 131 206 spigot;
#X obj 198 206 spigot;
#X obj 164 183 tgl 15 0 empty empty empty 17 7 0 10 -262144 -1 -1 0
1;
#X obj 231 183 tgl 15 0 empty empty empty 17 7 0 10 -262144 -1 -1 0
1;
#X obj 129 114 i;
#X obj 129 138 expr $f1 == 1 \; $f1 == 2;
#X obj 261 46 inlet;
#X floatatom 129 92 5 0 0 0 - - -;
#X obj 129 70 inlet;
#X obj 131 258 outlet;
#X text 22 29 retained inlet order from max/cyclone for now;
#X obj 323 45 loadbang;
#X obj 323 70 \$1;
#X obj 192 260 outlet;
#X connect 0 0 9 0;
#X connect 1 0 13 0;
#X connect 2 0 0 1;
#X connect 3 0 1 1;
#X connect 4 0 5 0;
#X connect 5 0 2 0;
#X connect 5 1 3 0;
#X connect 6 0 0 0;
#X connect 6 0 1 0;
#X connect 7 0 4 0;
#X connect 8 0 7 0;
#X connect 11 0 12 0;
#X connect 12 0 7 0;
