#N canvas 15 181 684 437 10;
#N canvas 383 135 959 699 dollarg 0;
#X obj 40 354 outlet;
#X obj 40 10 inlet;
#X obj 40 192 list;
#X obj 61 172 r \$0-result;
#X obj 40 30 route bang float;
#X obj 86 70 sel 0;
#X obj 166 354 outlet;
#X obj 40 90 t b b;
#X obj 86 90 t b b;
#X obj 86 50 i;
#X obj 113 150 v listlength\$0;
#X obj 166 87 expr if($f1 < 0 \, -1 \, if($f1 > listlength\$0 \, -1
\, $f1));
#X obj 166 107 moses 0;
#X obj 205 127 t b f f;
#X obj 308 233 r \$0-result;
#X obj 253 184 - 1;
#X obj 540 135 f;
#X obj 540 155 + 1;
#X obj 540 175 t b a;
#X obj 540 115 until;
#X obj 540 520 list prepend;
#X obj 540 30 t b b;
#X obj 540 385 list split 1;
#N canvas 368 169 216 100 \$0-test 0;
#X obj 5 5 r 1114-argv-b;
#X obj 5 35 list append \$1 \$1-t;
#X obj 5 65 s 1114-arg;
#X connect 0 0 1 0;
#X connect 1 0 2 0;
#X restore 540 335 pd \$0-test;
#X obj 567 275 s pd-\$0-test;
#X obj 540 365 r \$0-arg;
#X obj 567 195 list append \$0 $;
#X msg 623 365 symbol \$3\$1-t;
#X obj 586 410 sel s;
#X obj 613 450 s \$0-argv-end;
#X obj 567 50 s \$0-argv-reset;
#X obj 582 480 r \$0-argv-reset;
#X obj 567 75 r \$0-argv-end;
#X obj 540 305 s \$0-argv-b;
#X msg 567 235 clear \, obj 5 5 r \$2-argv-b \, obj 5 35 list append
\$3\$1 \$3\$1-t \, obj 5 65 s \$2-arg \, connect 0 0 1 0 \, connect
1 0 2 0;
#X obj 594 118 0;
#X obj 551 590 list;
#X obj 628 627 s \$0-result;
#X obj 551 610 t l l;
#X obj 551 630 list length;
#X obj 551 650 v listlength\$0;
#X obj 567 95 t b b;
#X obj 567 215 t a a;
#X obj 586 430 t b b;
#X obj 540 540 t a a;
#X obj 582 500 t b b;
#X obj 540 10 loadbang;
#X obj 1083 501 r \$0-argv-reset;
#X text 87 542 https://lists.puredata.info/pipermail/pd-list/2009-04/069941.html
;
#X text 87 512 adapted from the patch posted here:;
#X obj 251 265 list store;
#X msg 250 213 get \$1 1;
#X connect 1 0 4 0;
#X connect 2 0 0 0;
#X connect 3 0 2 1;
#X connect 4 0 7 0;
#X connect 4 1 9 0;
#X connect 5 0 8 0;
#X connect 5 1 11 0;
#X connect 7 0 2 0;
#X connect 7 1 10 0;
#X connect 8 0 2 0;
#X connect 8 1 10 0;
#X connect 9 0 5 0;
#X connect 10 0 6 0;
#X connect 11 0 12 0;
#X connect 12 0 6 0;
#X connect 12 1 13 0;
#X connect 13 1 15 0;
#X connect 13 2 6 0;
#X connect 14 0 50 1;
#X connect 15 0 51 0;
#X connect 16 0 17 0;
#X connect 17 0 16 1;
#X connect 17 0 18 0;
#X connect 18 0 33 0;
#X connect 18 1 26 0;
#X connect 19 0 16 0;
#X connect 20 0 44 0;
#X connect 21 0 19 0;
#X connect 21 1 30 0;
#X connect 22 0 20 0;
#X connect 22 1 28 0;
#X connect 25 0 22 0;
#X connect 26 0 42 0;
#X connect 27 0 28 1;
#X connect 28 0 43 0;
#X connect 31 0 45 0;
#X connect 32 0 41 0;
#X connect 34 0 24 0;
#X connect 35 0 16 1;
#X connect 36 0 38 0;
#X connect 38 0 39 0;
#X connect 38 1 37 0;
#X connect 39 0 40 0;
#X connect 41 0 19 1;
#X connect 41 1 35 0;
#X connect 42 0 34 0;
#X connect 42 1 27 0;
#X connect 43 0 36 0;
#X connect 43 1 29 0;
#X connect 44 0 36 1;
#X connect 44 1 20 1;
#X connect 45 0 36 1;
#X connect 45 1 20 1;
#X connect 46 0 21 0;
#X connect 50 0 0 0;
#X connect 51 0 50 0;
#X restore 377 107 pd dollarg;
#X obj 377 129 print;
#X obj 374 70 bng 15 250 50 0 empty empty empty 17 7 0 10 -262144 -1
-1;
#X connect 0 0 1 0;
#X connect 2 0 0 0;
