#N canvas 869 38 411 489 10;
#X obj 52 103 t a a, f 10;
#X obj 109 128 list length;
#X obj 50 178 list split;
#X obj 52 79 list fromsymbol;
#X floatatom 78 208 5 0 0 0 - - -;
#X obj 105 152 - 1;
#X obj 78 234 == 37;
#X obj 49 261 spigot;
#X obj 50 282 list tosymbol;
#X obj 50 305 stof;
#X floatatom 50 331 5 0 0 0 - - -;
#X obj 50 353 / 100;
#X obj 52 385 outlet;
#X obj -5 12 inlet;
#X text 90 32 takes in a symbol ending in % sign \, divides by 100
;
#X text 92 47 this would also work for note values etc like max;
#X obj 150 348 makefilename %f;
#X floatatom 150 378 5 0 0 0 - - -;
#X obj -4 41 route float;
#X connect 0 0 2 0;
#X connect 0 1 1 0;
#X connect 1 0 5 0;
#X connect 2 0 7 0;
#X connect 2 1 4 0;
#X connect 3 0 0 0;
#X connect 4 0 6 0;
#X connect 5 0 2 1;
#X connect 6 0 7 1;
#X connect 7 0 8 0;
#X connect 8 0 9 0;
#X connect 9 0 10 0;
#X connect 10 0 11 0;
#X connect 10 0 16 0;
#X connect 11 0 12 0;
#X connect 13 0 18 0;
#X connect 16 0 17 0;
#X connect 18 0 9 0;
#X connect 18 1 3 0;
