#N canvas 0 23 450 300 10;
#X obj -413 -910 loadbang;
#X obj -413 -854 ggee/shell;
#X msg -413 -889 aconnect 'Touch Board':0 'Pure Data':0;
#X obj -334 -834 ggee/shell;
#X msg -334 -855 aconnect 'Pure Data':1 'Touch Board':0;
#X text -415 -796 comment;
#X connect 0 0 2 0;
#X connect 0 0 4 0;
#X connect 2 0 1 0;
#X connect 4 0 3 0;
