#N canvas 883 43 450 486 10;
#X obj 83 75 t a a, f 11;
#X obj 82 29 inlet;
#X obj 253 234 list store;
#X obj 238 42 inlet;
#X obj 253 264 list.iter;
#X obj 84 105 for --;
#X obj 177 193 list store, f 12;
#X msg 177 165 get \$1 1;
#X obj 84 242 sel;
#X obj 84 129 t b f, f 16;
#X obj 84 164 list store;
#X obj 7 243 print left;
#X obj 156 350 print right;
#X msg 122 35 2 3 1;
#X msg 175 36 a b c;
#X floatatom 221 133 5 0 0 0 - - -;
#X obj 84 191 list.iter ++;
#X obj -14 284 print equal;
#X obj 176 385 outlet;
#X obj 84 269 list store;
#X obj 134 243 t a a;
#X obj 85 295 outlet;
#X connect 0 0 5 0;
#X connect 0 1 6 1;
#X connect 1 0 0 0;
#X connect 2 0 4 0;
#X connect 3 0 2 1;
#X connect 5 0 9 0;
#X connect 6 0 12 0;
#X connect 6 0 18 0;
#X connect 6 0 20 0;
#X connect 7 0 6 0;
#X connect 8 0 17 0;
#X connect 8 0 19 0;
#X connect 9 0 10 0;
#X connect 9 1 7 0;
#X connect 9 1 15 0;
#X connect 10 0 16 0;
#X connect 13 0 0 0;
#X connect 14 0 10 1;
#X connect 16 0 11 0;
#X connect 16 0 8 0;
#X connect 19 0 21 0;
#X connect 20 0 8 1;
#X connect 20 1 19 1;
