#N canvas 0 23 450 516 10;
#X obj 23 283 list append;
#X obj 120 163 t a a;
#X obj 26 127 route bang;
#X obj 24 243 list store;
#X obj 81 212 list;
#X obj 81 190 t a b;
#X obj 23 306 outlet;
#X obj 26 103 inlet;
#X obj 193 100 inlet;
#X text 20 17 replace zl join .. haven't added argument for current
purposes as this will default to 0;
#X connect 0 0 6 0;
#X connect 1 0 3 1;
#X connect 1 1 0 0;
#X connect 2 0 3 0;
#X connect 2 1 1 0;
#X connect 3 0 0 0;
#X connect 3 0 5 0;
#X connect 4 0 3 1;
#X connect 5 0 4 0;
#X connect 5 1 4 0;
#X connect 7 0 2 0;
#X connect 8 0 0 1;
