#N canvas 226 361 868 644;
#X obj 126 93 change; 
#X obj 126 73 snapshot~; 
#X obj 221 16 bang~; 
#X obj 127 19 inlet~; 
#X obj 126 40 expr~ $v1 > 0.1; 
#X obj 287 191 f; 
#X obj 249 154 t f b; 
#X floatatom 249 213 5 0 0 0 - - -; 
#X floatatom 288 212 5 0 0 0 - - -; 
#X obj 126 117 sel 1 0; 
#X obj 147 202 line~; 
#X obj 148 146 pack 0 \$1; 
#X obj 144 237 outlet~; 
#X text 246 139 bucket; 
#X msg 103 152 1; 
#X connect 0 0 9 0; 
#X connect 1 0 0 0; 
#X connect 2 0 1 0; 
#X connect 3 0 4 0; 
#X connect 4 0 1 0; 
#X connect 5 0 8 0; 
#X connect 6 0 5 1; 
#X connect 6 0 7 0; 
#X connect 6 1 5 0; 
#X connect 9 0 14 0; 
#X connect 9 1 11 0; 
#X connect 10 0 12 0; 
#X connect 11 0 10 0; 
#X connect 14 0 10 0; 
#X coords 0 -1 1 1 15 15 1 0 800; 
 
