#N canvas 226 361 868 644;
#X obj 176 229 outlet~; 
#X obj 176 163 lop~ 4000; 
#X obj 175 132 clip~ -0.025 0.025; 
#X obj 176 198 *~ 3.5; 
#X obj 226 49 *~ 10; 
#X obj 226 73 +~ 100; 
#X obj 175 99 *~, f 9; 
#X obj 174 4 inlet~ signal; 
#X obj 226 28 inlet~ amount; 
#X connect 1 0 3 0; 
#X connect 2 0 1 0; 
#X connect 3 0 0 0; 
#X connect 4 0 5 0; 
#X connect 5 0 6 1; 
#X connect 6 0 2 0; 
#X connect 7 0 6 0; 
#X connect 8 0 4 0; 
#X coords 0 -1 1 1 15 15 1 0 800; 
 
