#N canvas 226 361 868 644;
#X obj 38 20 inlet~; 
#X obj 99 25 bang~; 
#X obj 37 52 snapshot~; 
#X obj 37 80 change; 
#X obj 37 101 abs; 
#X obj 38 124 > 0; 
#X obj 37 156 sel 1 0, f 44; 
#X obj 37 236 line~; 
#X text 83 237 temporary version \, vline later; 
#X obj 37 183 pack 1 \$1; 
#X obj 167 183 pack 0 \$2; 
#X obj 37 264 outlet~; 
#X text 104 98 debounce?; 
#X text 180 68 inlet~ attack time; 
#X text 331 67 inlet~ release time; 
#X connect 0 0 2 0; 
#X connect 1 0 2 0; 
#X connect 2 0 3 0; 
#X connect 3 0 4 0; 
#X connect 4 0 5 0; 
#X connect 5 0 6 0; 
#X connect 6 0 9 0; 
#X connect 6 1 10 0; 
#X connect 7 0 11 0; 
#X connect 9 0 7 0; 
#X connect 10 0 7 0; 
#X coords 0 -1 1 1 15 15 1 0 800; 
 
