#N canvas 412 37 837 561 10;
#X floatatom 211 74 5 0 0 0 - - -;
#X msg 250 74;
#X text 278 75 ..;
#X obj 565 408 cnv 15 250 140 empty empty pd_vanilla 8 14 0 18 -249791
-66577 0;
#X obj 565 318 cnv 15 250 80 empty empty web 8 14 0 18 -245757 -66577
0;
#X obj 564 10 cnv 15 250 300 empty empty related 8 14 0 18 -241659
-66577 0;
#X obj 11 265 cnv 15 545 50 empty empty empty 10 10 0 15 -258042 -131073
0;
#X obj 11 315 cnv 15 545 50 empty empty empty 10 10 0 15 -258043 -131073
0;
#X obj 11 365 cnv 15 545 50 empty empty empty 10 10 0 15 -257981 -131073
0;
#X obj 11 414 cnv 15 545 50 empty empty empty 10 10 0 15 -257981 -131073
0;
#X obj 11 464 cnv 15 545 40 empty empty empty 10 10 0 15 -257983 -131073
0;
#X obj 11 505 cnv 15 545 20 empty empty empty 10 10 0 15 -262144 -131073
0;
#X obj 11 526 cnv 15 545 12 empty empty empty 10 10 0 15 -262144 -131073
0;
#X obj 11 41 cnv 15 545 30 empty empty empty 5 18 0 25 -253376 -66577
0;
#X obj 11 72 cnv 15 545 30 empty empty empty 5 18 0 25 -249023 -66577
0;
#X obj 11 103 cnv 15 545 30 empty empty empty 5 18 0 25 -244604 -66577
0;
#X obj 11 10 cnv 15 545 30 empty empty instrumentmaker.org 5 18 0 25
-261824 -66577 0;
#X obj 15 47 cnv 15 523 20 empty empty empty 10 10 0 13 -1 -99865 -196864;#X obj 15 108 cnv 15 523 20 empty empty empty 10 10 0 13 -1 -99865 -196864;#X obj 15 61 cnv 15 523 47 empty empty envelope.follower 10 25 0 30 -1 -16777216 0;#X obj 15 47 cnv 15 100 20 empty empty audio 10 10 0 13 -4034 -1 0;#X obj 15 108 cnv 15 100 20 empty empty control 10 10 0 13 -257985 -1 0;#X text 409 18 Charles Matthews 2020;#X text 487 28 0.1.1a.1;#X obj 11 135 cnv 15 545 50 empty empty empty 10 10 0 13 -262130 -655361 0;#X text 16 142 Track the volume of the microphone input to create an envelope., f 81;#X obj 11 192 cnv 15 545 20 empty empty Arguments: 10 10 0 13 -203904 -1 0;#X text 105 195 1) none , f 70;#X obj 11 215 cnv 15 545 20 empty empty Inlets: 34 10 0 13 -204800 -1 0;#X text 105 217 1) audio signal to follow (e.g. microphone) , f 70;#X obj 11 239 cnv 15 545 20 empty empty Outlets: 25 10 0 13 -204786 -1 0;#X text 105 241 1) modulation signal , f 70;#X obj 11 265 cnv 15 545 20 empty empty Examples 10 11 0 15 -261682 -1 0;#X obj 570 360 im.help.link https://en.wikipedia.org/wiki/Envelope_detector#:~:text=An%20envelope%20detector%20is%20sometimes%20referred%20to%20as%20an%20envelope,made%20up%20of%20audible%20frequencies.;#X obj 570 40 im.help.button im.microphone;#X obj 570 80 im.help.button im.fader;#X obj 570 120 im.help.button im.filter;#X obj 570 450 sigmund~;#X obj 570 475 env~;#X obj 17 413 im.speaker ;
#X obj 127 295 im.microphone ;
#X obj 17 383 im.fader, f 25 ;
#X obj 188 357 im.keypress Space ;
#X obj 127 323 im.envelopefollower ;
#X text 269 292 Hold down the space bar and blow into the microphone
to change the volume of white noise., f 36 ;
#X obj 16 293 im.whitenoise ;
#X obj 17 353 im.fader, f 16 ;
#X obj 24 777 im.speaker ;
#X obj 24 623 im.microphone ;
#X obj 24 749 im.fader, f 25 ;
#X obj 24 654 im.envelopefollower ;
#X obj 195 724 im.keypress Up ;
#X obj 24 678 im.multiply 16 ;
#X obj 24 700 im.scale C dorian 5 ;
#X obj 24 723 im.pulsewave ;
#X text 190 612 Hold down the 'up' key and blow into the microphone
to hear pitches change., f 31 ;
#X text 21 582 Envelope follower controlling a musical scale ;
#X text 12 267 Envelope follower controlling the volume of white noise
 ;
#X connect 40 0 43 0 ;
#X connect 41 0 39 0 ;
#X connect 42 0 41 1 ;
#X connect 43 0 46 1 ;
#X connect 45 0 46 0 ;
#X connect 46 0 41 0 ;
#X connect 48 0 50 0 ;
#X connect 49 0 47 0 ;
#X connect 50 0 52 0 ;
#X connect 51 0 49 1 ;
#X connect 52 0 53 0 ;
#X connect 53 0 54 0 ;
#X connect 54 0 49 0 ;
 ;