#N canvas 412 37 837 561 10;
#X floatatom 211 74 5 0 0 0 - - -;
#X msg 250 74;
#X text 278 75 ..;
#X obj 565 408 cnv 15 250 140 empty empty pd_vanilla 8 14 0 18 -249791
-66577 0;
#X obj 565 318 cnv 15 250 80 empty empty web 8 14 0 18 -245757 -66577
0;
#X obj 564 10 cnv 15 250 300 empty empty related 8 14 0 18 -241659
-66577 0;
#X obj 11 265 cnv 15 545 50 empty empty empty 10 10 0 15 -258042 -131073
0;
#X obj 11 315 cnv 15 545 50 empty empty empty 10 10 0 15 -258043 -131073
0;
#X obj 11 365 cnv 15 545 50 empty empty empty 10 10 0 15 -257981 -131073
0;
#X obj 11 414 cnv 15 545 50 empty empty empty 10 10 0 15 -257981 -131073
0;
#X obj 11 464 cnv 15 545 40 empty empty empty 10 10 0 15 -257983 -131073
0;
#X obj 11 505 cnv 15 545 20 empty empty empty 10 10 0 15 -262144 -131073
0;
#X obj 11 526 cnv 15 545 12 empty empty empty 10 10 0 15 -262144 -131073
0;
#X obj 11 41 cnv 15 545 30 empty empty empty 5 18 0 25 -253376 -66577
0;
#X obj 11 72 cnv 15 545 30 empty empty empty 5 18 0 25 -249023 -66577
0;
#X obj 11 103 cnv 15 545 30 empty empty empty 5 18 0 25 -244604 -66577
0;
#X obj 11 10 cnv 15 545 30 empty empty instrumentmaker.org 5 18 0 25
-261824 -66577 0;
#X obj 15 47 cnv 15 523 20 empty empty empty 10 10 0 13 -1 -99865 -196864;#X obj 15 108 cnv 15 523 20 empty empty empty 10 10 0 13 -1 -99865 -196864;#X obj 15 61 cnv 15 523 47 empty empty filter 10 25 0 30 -1 -16777216 0;#X obj 15 47 cnv 15 100 20 empty empty audio 10 10 0 13 -4034 -1 0;#X obj 15 108 cnv 15 100 20 empty empty audio 10 10 0 13 -4034 -1 0;#X text 409 18 Charles Matthews 2020;#X text 487 28 0.1.1a.1;#X obj 11 135 cnv 15 545 50 empty empty empty 10 10 0 13 -262130 -655361 0;#X text 16 142 A resonant lowpass filter -- this means that only low frequencies are allowed through.  Resonance control boosts the point at which the frequencies are cut off., f 81;#X obj 11 192 cnv 15 545 20 empty empty Arguments: 10 10 0 13 -203904 -1 0;#X text 105 195 1) cutoff (in Hz) 2) resonance (0-1 3) or %) , f 70;#X obj 11 215 cnv 15 545 20 empty empty Inlets: 34 10 0 13 -204800 -1 0;#X text 105 217 1) signal to filter 2) cutoff (0-1) 3) resonance (0-1) , f 70;#X obj 11 239 cnv 15 545 20 empty empty Outlets: 25 10 0 13 -204786 -1 0;#X text 105 241 1) filtered signal , f 70;#X obj 11 265 cnv 15 545 20 empty empty Examples 10 11 0 15 -261682 -1 0;#X obj 570 360 im.help.link https://en.wikipedia.org/wiki/Audio_filter;#X obj 570 40 im.help.button im.chorus;#X obj 570 80 im.help.button im.distort;#X obj 570 120 im.help.button im.echo;#X obj 570 160 im.help.button im.flanger;#X obj 570 200 im.help.button im.reverb;#X obj 570 450 bob~;#X obj 570 475 vcf~;#X obj 570 500 lop~;#X obj 570 525 bp~;#X obj 670 450 hip~;#X obj 670 475 biquad~;#X obj 22 441 im.speaker ;
#X obj 81 356 im.keypress Space ;
#X obj 22 300 im.noise ;
#X obj 102 384 im.sensor 1 0.5 ;
#X obj 22 414 im.volume ;
#X obj 272 294 im.lfo slow sawtooth ;
#X text 126 279 cutoff ;
#X text 270 277 resonance ;
#X obj 22 330 im.filter 200Hz 0, f 36 ;
#X obj 136 299 im.lfo 0.5Hz sine ;
#X text 218 384 Press space or connect a sensor to hear some filtered
white noise. ;
#X text 122 262 Replace these LFOs with sensor inputs for live control.
 ;
#X connect 46 0 49 1 ;
#X connect 47 0 53 0 ;
#X connect 48 0 49 1 ;
#X connect 49 0 45 0 ;
#X connect 50 0 53 2 ;
#X connect 53 0 49 0 ;
#X connect 54 0 53 1 ;
 ;