#N canvas 412 37 837 561 10;
#X floatatom 211 74 5 0 0 0 - - -;
#X msg 250 74;
#X text 278 75 ..;
#X obj 565 408 cnv 15 250 140 empty empty pd_vanilla 8 14 0 18 -249791
-66577 0;
#X obj 565 318 cnv 15 250 80 empty empty web 8 14 0 18 -245757 -66577
0;
#X obj 564 10 cnv 15 250 300 empty empty related 8 14 0 18 -241659
-66577 0;
#X obj 11 265 cnv 15 545 50 empty empty empty 10 10 0 15 -258042 -131073
0;
#X obj 11 315 cnv 15 545 50 empty empty empty 10 10 0 15 -258043 -131073
0;
#X obj 11 365 cnv 15 545 50 empty empty empty 10 10 0 15 -257981 -131073
0;
#X obj 11 414 cnv 15 545 50 empty empty empty 10 10 0 15 -257981 -131073
0;
#X obj 11 464 cnv 15 545 40 empty empty empty 10 10 0 15 -257983 -131073
0;
#X obj 11 505 cnv 15 545 20 empty empty empty 10 10 0 15 -262144 -131073
0;
#X obj 11 526 cnv 15 545 12 empty empty empty 10 10 0 15 -262144 -131073
0;
#X obj 11 41 cnv 15 545 30 empty empty empty 5 18 0 25 -253376 -66577
0;
#X obj 11 72 cnv 15 545 30 empty empty empty 5 18 0 25 -249023 -66577
0;
#X obj 11 103 cnv 15 545 30 empty empty empty 5 18 0 25 -244604 -66577
0;
#X obj 11 10 cnv 15 545 30 empty empty instrumentmaker.org 5 18 0 25
-261824 -66577 0;
#X obj 15 47 cnv 15 523 20 empty empty empty 10 10 0 13 -1 -99865 -196864;#X obj 15 108 cnv 15 523 20 empty empty empty 10 10 0 13 -1 -99865 -196864;#X obj 15 61 cnv 15 523 47 empty empty generate.sine 10 25 0 30 -1 -16777216 0;#X obj 15 47 cnv 15 100 20 empty empty control 10 10 0 13 -257985 -1 0;#X obj 15 108 cnv 15 100 20 empty empty audio 10 10 0 13 -4034 -1 0;#X text 409 18 Charles Matthews 2020;#X text 487 28 0.1.1a.1;#X obj 11 135 cnv 15 545 50 empty empty empty 10 10 0 13 -262130 -655361 0;#X text 16 142 Generate a sine wave (often thought of as a 'pure' tone- like an ocarina or a smooth rumbling sensation at lower frequencies)., f 81;#X obj 11 192 cnv 15 545 20 empty empty Arguments: 10 10 0 13 -203904 -1 0;#X text 105 195 1) note (optional) 2) octave (optional), , f 70;#X obj 11 215 cnv 15 545 20 empty empty Inlets: 34 10 0 13 -204800 -1 0;#X text 105 217 1) pitch from im.scale (range of 0 - 127) , f 70;#X obj 11 239 cnv 15 545 20 empty empty Outlets: 25 10 0 13 -204786 -1 0;#X text 105 241 1) sine wave signal , f 70;#X obj 11 265 cnv 15 545 20 empty empty Examples 10 11 0 15 -261682 -1 0;#X obj 570 360 im.help.link https://en.wikipedia.org/wiki/Pure_tone;#X obj 570 40 im.help.button im.squarewave;#X obj 570 80 im.help.button im.sawtooth;#X obj 570 120 im.help.button im.noise;#X obj 570 160 im.help.button im.scale;#X obj 570 200 im.help.button im.lfo;#X obj 570 240 im.help.button im.fader;#X obj 570 280 im.help.button im.envelope;#X obj 570 450 osc~;#X obj 570 475 phasor~;#X obj 18 411 im.speaker ;
#X obj 18 390 im.fader ;
#X obj 63 345 im.keypress Space ;
#X obj 74 365 im.sensor 1 ;
#X obj 17 320 im.sinewave A 5 ;
#X text 14 267 Hold down the space bar on your computer or connect sensor
1 to hear a sine wave at pitch A (octave 5)., f 32 ;
#X obj 13 636 im.speaker ;
#X obj 13 615 im.fader ;
#X obj 13 571 im.scale C major 4 ;
#X obj 13 593 im.sinewave ;
#X obj 13 526 im.lfo slow sawtooth ;
#X obj 13 549 im.multiply 8 ;
#X obj 91 599 im.sensor 2 ;
#X obj 91 622 im.keypress Up ;
#X text 10 478 Hold down the 'Up' key or connect sensor 2 to hear a
sine wave ascending through the C major scale., f 26 ;
#X connect 44 0 43 0 ;
#X connect 45 0 44 1 ;
#X connect 46 0 44 1 ;
#X connect 47 0 44 0 ;
#X connect 50 0 49 0 ;
#X connect 51 0 52 0 ;
#X connect 52 0 50 0 ;
#X connect 53 0 54 0 ;
#X connect 54 0 51 0 ;
#X connect 55 0 50 1 ;
#X connect 56 0 50 1 ;
 ;