#N canvas 0 23 450 300 12;
#X obj 167 127 bonk~;
#X msg 224 106 thresh 2 20;
#X obj 224 84 loadbang;
#X obj 167 214 sig~;
#X msg 167 161 1;
#X obj 207 160 delay 10;
#X msg 206 181 0;
#X obj 167 239 outlet~;
#X obj 166 84 inlet~;
#X text 119 38 experimental - threshold set high!;
#X connect 0 0 4 0;
#X connect 0 0 5 0;
#X connect 1 0 0 0;
#X connect 2 0 1 0;
#X connect 3 0 7 0;
#X connect 4 0 3 0;
#X connect 5 0 6 0;
#X connect 6 0 3 0;
#X connect 8 0 0 0;
#X coords 0 -1 1 1 15 15 1 0 800;
