#N canvas 507 54 717 465 12;
#X obj 240 342 outlet~;
#X obj 425 57 inlet~;
#X obj 316 143 +~;
#X obj 328 101 osc~ 0.5;
#X obj 318 168 clip~ -100 100;
#X obj 315 54 sig~ 10;
#X obj 519 245 hip~ 2000;
#X obj 329 123 *~ 10;
#X obj 226 278 -~;
#X obj 272 302 clip~ -1 1;
#X obj 315 215 vd~ \$0-imchor;
#X obj 471 144 delwrite~ \$0-imchor 1000;
#X obj 192 146 +~;
#X obj 202 169 clip~ -100 100;
#X obj 199 216 vd~ \$0-imchor;
#X obj 469 93 *~ 0.2;
#X obj 212 102 osc~ 0.3;
#X obj 213 124 *~ 14;
#X obj 520 217 *~ 0.8;
#X obj 51 144 +~;
#X obj 61 167 clip~ -100 100;
#X obj 58 214 vd~ \$0-imchor;
#X obj 58 53 sig~ 14;
#X obj 199 55 sig~ 11;
#X obj 71 100 osc~ 0.1;
#X obj 72 122 *~ 12;
#X connect 1 0 8 0;
#X connect 1 0 15 0;
#X connect 2 0 4 0;
#X connect 3 0 7 0;
#X connect 4 0 10 0;
#X connect 5 0 2 0;
#X connect 6 0 11 0;
#X connect 7 0 2 1;
#X connect 8 0 9 0;
#X connect 9 0 0 0;
#X connect 10 0 8 1;
#X connect 10 0 18 0;
#X connect 12 0 13 0;
#X connect 13 0 14 0;
#X connect 14 0 8 0;
#X connect 15 0 11 0;
#X connect 16 0 17 0;
#X connect 17 0 12 1;
#X connect 18 0 6 0;
#X connect 19 0 20 0;
#X connect 20 0 21 0;
#X connect 21 0 8 0;
#X connect 22 0 19 0;
#X connect 23 0 12 0;
#X connect 24 0 25 0;
#X connect 25 0 19 1;
#X coords 0 -1 1 1 15 15 1 0 800;
