#N canvas 412 37 837 561 10;
#X floatatom 211 74 5 0 0 0 - - -;
#X msg 250 74;
#X text 278 75 ..;
#X obj 565 408 cnv 15 250 140 empty empty pd_vanilla 8 14 0 18 -249791
-66577 0;
#X obj 565 318 cnv 15 250 80 empty empty web 8 14 0 18 -245757 -66577
0;
#X obj 564 10 cnv 15 250 300 empty empty related 8 14 0 18 -241659
-66577 0;
#X obj 11 265 cnv 15 545 50 empty empty empty 10 10 0 15 -258042 -131073
0;
#X obj 11 315 cnv 15 545 50 empty empty empty 10 10 0 15 -258043 -131073
0;
#X obj 11 365 cnv 15 545 50 empty empty empty 10 10 0 15 -257981 -131073
0;
#X obj 11 414 cnv 15 545 50 empty empty empty 10 10 0 15 -257981 -131073
0;
#X obj 11 464 cnv 15 545 40 empty empty empty 10 10 0 15 -257983 -131073
0;
#X obj 11 505 cnv 15 545 20 empty empty empty 10 10 0 15 -262144 -131073
0;
#X obj 11 526 cnv 15 545 12 empty empty empty 10 10 0 15 -262144 -131073
0;
#X obj 11 41 cnv 15 545 30 empty empty empty 5 18 0 25 -253376 -66577
0;
#X obj 11 72 cnv 15 545 30 empty empty empty 5 18 0 25 -249023 -66577
0;
#X obj 11 103 cnv 15 545 30 empty empty empty 5 18 0 25 -244604 -66577
0;
#X obj 11 10 cnv 15 545 30 empty empty instrumentmaker.org 5 18 0 25
-261824 -66577 0;
#X obj 15 47 cnv 15 523 20 empty empty empty 10 10 0 13 -1 -99865 -196864;#X obj 15 108 cnv 15 523 20 empty empty empty 10 10 0 13 -1 -99865 -196864;#X obj 15 61 cnv 15 523 47 empty empty echo 10 25 0 30 -1 -16777216 0;#X obj 15 47 cnv 15 100 20 empty empty audio 10 10 0 13 -4034 -1 0;#X obj 15 108 cnv 15 100 20 empty empty audio 10 10 0 13 -4034 -1 0;#X text 409 18 Charles Matthews 2020;#X text 487 28 0.1.1a.1;#X obj 11 135 cnv 15 545 50 empty empty empty 10 10 0 13 -262130 -655361 0;#X text 16 142 Echo unit with feedback. This effect is completely wet\, so it's best used as a parallel (send) effect., f 81;#X obj 11 192 cnv 15 545 20 empty empty Arguments: 10 10 0 13 -203904 -1 0;#X text 105 195 1) delay time in ms 2) feedback amount as percentage , f 70;#X obj 11 215 cnv 15 545 20 empty empty Inlets: 34 10 0 13 -204800 -1 0;#X text 105 217 1) signal input 2) delay time 3) feedback (0-1) 4) clear , f 70;#X obj 11 239 cnv 15 545 20 empty empty Outlets: 25 10 0 13 -204786 -1 0;#X text 105 241 1) processed signal , f 70;#X obj 11 265 cnv 15 545 20 empty empty Examples 10 11 0 15 -261682 -1 0;#X obj 570 360 im.help.link https://en.wikipedia.org/wiki/Delay_(audio_effect);#X obj 570 40 im.help.button im.chorus;#X obj 570 80 im.help.button im.distort;#X obj 570 120 im.help.button im.filter;#X obj 570 160 im.help.button im.flanger;#X obj 570 200 im.help.button im.reverb;#X obj 570 450 delwrite~;#X obj 570 475 delread~;#X obj 42 439 im.echo 1000 50% ;
#X obj 22 395 im.player sounds/sn.wav ;
#X obj 22 300 im.keypress Space ;
#X obj 22 480 im.output ;
#X obj 276 409 im.sensor 1 1000 ;
#X obj 237 300 im.keypress Up ;
#X obj 237 376 im.player sounds/string.aif ;
#X obj 237 487 im.output ;
#X text 269 329 use an external sensor to set the delay time., f 24
 ;
#X obj 404 409 im.keypress z ;
#X text 397 436 clear the feedback ;
#X obj 279 454 im.echo 100 50% ;
#X connect 41 0 44 0 ;
#X connect 42 0 44 0 ;
#X connect 42 0 41 0 ;
#X connect 43 0 42 0 ;
#X connect 45 0 52 1 ;
#X connect 46 0 47 0 ;
#X connect 47 0 48 0 ;
#X connect 47 0 52 0 ;
#X connect 50 0 52 3 ;
#X connect 52 0 48 0 ;
 ;