#N canvas 358 23 922 755;
#X obj 227 114 inlet~;
#X obj 227 135 expr~ 1 - $v1;
#X obj 227 313 outlet~;
#X obj 319 182 im.snapshot;
#X obj 320 273 * 16;
#X obj 320 302 t b f, f 19;
#X obj 320 392 pack s f, f 19;
#X msg 320 421 \; \$1 color \$2;
#X obj 320 249 > 0;
#X obj 320 224 change;
#X obj 3 818 cnv 3 75 4 empty \$0-canvas empty 2 7 0 12 -24198 -1 0;
#X obj 319 354 symbol \$0-canvas;
#X connect 0 0 1 0;
#X connect 1 0 2 0;
#X connect 1 0 3 0;
#X connect 3 0 9 0;
#X connect 4 0 5 0;
#X connect 5 0 11 0;
#X connect 5 1 6 1;
#X connect 6 0 7 0;
#X connect 8 0 4 0;
#X connect 9 0 8 0;
#X connect 11 0 6 0;
#X coords 0 -1 1 1 80 27 1 0 800;
