#N canvas 0 23 596 408 12;
#X text 108 191 T T S T T T S;
#X obj 111 495 +;
#X obj 140 495 i;
#X obj 110 377 t a b b;
#X msg 128 413 0;
#X floatatom 218 257 5 0 0 0 - - -;
#X obj 109 4 loadbang;
#X obj 218 176 select ionian dorian phrygian lydian mixolydian aolian
locrian, f 63;
#X obj 238 135 select major minor;
#X msg 217 204 0;
#X msg 269 203 1;
#X msg 325 202 2;
#X msg 378 202 3;
#X msg 432 202 4;
#X msg 485 201 5;
#X msg 539 201 6;
#X obj 109 29 t b b, f 19;
#X obj 109 287 t a a, f 24;
#X obj 110 579 outlet;
#X text 371 135 transfer to table or subpatch;
#X obj 277 5 inlet;
#X obj 218 98 list store \$1;
#X obj 251 322 list length;
#X obj 110 349 list.rot;
#X obj 111 454 list.iter;
#X obj 110 548 list.group;
#X obj 277 42 list;
#X obj 277 63 t b s b;
#X text 91 230 Set up the first interval;
#X msg 110 212 2 2 1 2 2 2 1;
#X msg 183 407 0;
#X obj 220 422 + 1;
#X obj 389 69 route float;
#X floatatom 337 16 5 0 0 0 - - -;
#X obj 389 92 t b f;
#X connect 1 0 2 0;
#X connect 1 0 25 0;
#X connect 2 0 1 1;
#X connect 3 0 24 0;
#X connect 3 1 4 0;
#X connect 3 2 30 0;
#X connect 4 0 1 1;
#X connect 5 0 23 1;
#X connect 6 0 16 0;
#X connect 7 0 9 0;
#X connect 7 1 10 0;
#X connect 7 2 11 0;
#X connect 7 3 12 0;
#X connect 7 4 13 0;
#X connect 7 5 14 0;
#X connect 7 6 15 0;
#X connect 8 0 9 0;
#X connect 8 1 14 0;
#X connect 9 0 5 0;
#X connect 10 0 5 0;
#X connect 11 0 5 0;
#X connect 12 0 5 0;
#X connect 13 0 5 0;
#X connect 14 0 5 0;
#X connect 15 0 5 0;
#X connect 16 0 29 0;
#X connect 16 1 21 0;
#X connect 17 0 23 0;
#X connect 17 1 22 0;
#X connect 20 0 32 0;
#X connect 21 0 8 0;
#X connect 21 0 7 0;
#X connect 22 0 31 0;
#X connect 23 0 3 0;
#X connect 24 0 1 0;
#X connect 25 0 18 0;
#X connect 26 0 27 0;
#X connect 27 0 29 0;
#X connect 27 1 21 0;
#X connect 27 2 21 1;
#X connect 29 0 17 0;
#X connect 30 0 25 0;
#X connect 31 0 25 1;
#X connect 32 0 34 0;
#X connect 32 1 26 0;
#X connect 33 0 26 0;
#X connect 34 0 29 0;
#X connect 34 1 5 0;
#X coords 0 -1 1 1 15 15 1 0 800;
