#N canvas 0 23 450 300;
#X obj 31 53 inlet~;
#X obj 31 85 snapshot~;
#X obj 84 52 bang~;
#X obj 31 137 i;
#X obj 31 164 change;
#X obj 31 187 abs;
#X obj 30 235 outlet;
#X obj 124 236 outlet;
#X obj 31 214 i;
#X obj 131 97 inlet~;
#X obj 92 177 sel 0;
#X obj 127 155 t f f;
#X obj 232 53 \$1;
#X obj 226 21 loadbang;
#X obj 232 74 sel 0;
#X obj 232 95 127;
#X obj 130 125 im.midivelocity;
#X connect 0 0 1 0;
#X connect 1 0 3 0;
#X connect 2 0 1 0;
#X connect 3 0 4 0;
#X connect 4 0 5 0;
#X connect 5 0 8 0;
#X connect 8 0 6 0;
#X connect 9 0 16 0;
#X connect 10 0 8 0;
#X connect 11 0 10 0;
#X connect 11 1 7 0;
#X connect 12 0 14 0;
#X connect 13 0 12 0;
#X connect 14 0 15 0;
#X connect 14 1 16 1;
#X connect 15 0 16 1;
#X connect 16 0 11 0;
#X coords 0 -1 1 1 15 15 1 0 800;
