#N canvas -489 -918 1201 755 12;
#X obj 788 19 loadbang;
#X obj 86 195 list fromsymbol;
#X obj 86 402 list length;
#X obj 306 339 unpack 0 0 0;
#X obj 347 392 expr if ($f1 == 35 \, 1 \, if ($f1 == 98 \, -1 \, 0
));
#X text 204 195 << convert first argument to ASCII;
#X text 141 380 get accidental modifier >>;
#X obj 306 459 expr $f1 + $f2 + $f3;
#X obj 381 412 expr ($f1 - 49) * 12;
#X obj 706 349 unpack 0 0, f 14;
#X obj 801 417 expr ($f1 - 49) * 12;
#X obj 706 451 expr $f1 + $f2;
#X obj 86 466 sel 3 2;
#X text 159 360 get MIDI note number >>;
#X text 165 398 get octave modifier >>;
#N canvas -1167 21 620 527 getMidiNote 0;
#X obj 40 24 inlet;
#X obj 40 49 sel 65 66 67 68 69 70 71;
#X msg 98 75 24;
#X msg 126 75 26;
#X msg 155 75 28;
#X msg 184 75 29;
#X msg 213 75 31;
#X msg 40 75 33;
#X msg 69 75 35;
#X obj 40 110 outlet;
#X connect 0 0 1 0;
#X connect 1 0 7 0;
#X connect 1 1 8 0;
#X connect 1 2 2 0;
#X connect 1 3 3 0;
#X connect 1 4 4 0;
#X connect 1 5 5 0;
#X connect 1 6 6 0;
#X connect 2 0 9 0;
#X connect 3 0 9 0;
#X connect 4 0 9 0;
#X connect 5 0 9 0;
#X connect 6 0 9 0;
#X connect 7 0 9 0;
#X connect 8 0 9 0;
#X restore 306 360 pd getMidiNote;
#N canvas -1167 483 620 527 getMidiNote 0;
#X obj 40 24 inlet;
#X obj 40 49 sel 65 66 67 68 69 70 71;
#X msg 98 75 24;
#X msg 126 75 26;
#X msg 155 75 28;
#X msg 184 75 29;
#X msg 213 75 31;
#X msg 40 75 33;
#X msg 69 75 35;
#X obj 40 110 outlet;
#X connect 0 0 1 0;
#X connect 1 0 7 0;
#X connect 1 1 8 0;
#X connect 1 2 2 0;
#X connect 1 3 3 0;
#X connect 1 4 4 0;
#X connect 1 5 5 0;
#X connect 1 6 6 0;
#X connect 2 0 9 0;
#X connect 3 0 9 0;
#X connect 4 0 9 0;
#X connect 5 0 9 0;
#X connect 6 0 9 0;
#X connect 7 0 9 0;
#X connect 8 0 9 0;
#X restore 706 370 pd getMidiNote;
#X obj 292 607 sig~;
#X text 405 337 << use when accidental is provided;
#X text 817 347 << no accidental;
#X obj 642 476 inlet~;
#X obj 642 736 outlet~;
#X text 344 633 << MIDI note value;
#X text 701 736 << amplitude;
#X text 176 15 arguments: \$1 = note \, \$2 = amplitude;
#X text 176 32 inlet: trigger signal (0-1);
#X text 176 48 outlets: MIDI note value signal \, amplitude signal
;
#X obj 86 217 t a a a, f 74;
#X obj 291 634 outlet~;
#X obj 747 585 route float;
#X floatatom 747 675 5 0 0 0 - - -;
#X obj 787 78 list store \$1;
#X obj 939 78 list store \$2;
#X obj 821 638 / 100;
#X obj 821 613 utils.check.unit %;
#X obj 787 104 route float;
#X obj 787 135 ftom;
#X obj 292 554 f;
#X obj 600 478 f;
#X obj 642 708 *~ 1;
#X obj 788 48 t b b b, f 22;
#X obj 1041 80 list store \$3;
#X obj 1041 104 sel retrigger;
#X obj 659 530 snapshot~;
#X obj 659 554 > 0;
#X obj 659 578 change;
#X obj 659 609 spigot;
#X msg 1041 128 1;
#X obj 541 616 snapshot~;
#X obj 659 634 sel 1;
#X obj 577 550 *~ 1;
#X msg 1076 128 0;
#X obj 541 659 sig~;
#X obj 683 504 bang~;
#X floatatom 612 588 5 0 0 0 - - -;
#X connect 0 0 40 0;
#X connect 1 0 27 0;
#X connect 2 0 12 0;
#X connect 3 0 15 0;
#X connect 3 1 4 0;
#X connect 3 2 8 0;
#X connect 4 0 7 1;
#X connect 7 0 37 1;
#X connect 8 0 7 2;
#X connect 9 0 16 0;
#X connect 9 1 10 0;
#X connect 10 0 11 1;
#X connect 11 0 38 1;
#X connect 12 0 37 0;
#X connect 12 1 38 0;
#X connect 15 0 7 0;
#X connect 16 0 11 0;
#X connect 17 0 28 0;
#X connect 20 0 43 0;
#X connect 20 0 50 0;
#X connect 20 0 48 0;
#X connect 27 0 2 0;
#X connect 27 1 3 0;
#X connect 27 2 9 0;
#X connect 29 0 30 0;
#X connect 29 1 34 0;
#X connect 30 0 39 1;
#X connect 31 0 35 0;
#X connect 32 0 29 0;
#X connect 33 0 30 0;
#X connect 34 0 33 0;
#X connect 35 0 36 0;
#X connect 35 1 1 0;
#X connect 36 0 17 0;
#X connect 37 0 17 0;
#X connect 38 0 17 0;
#X connect 39 0 21 0;
#X connect 40 0 31 0;
#X connect 40 1 32 0;
#X connect 40 2 41 0;
#X connect 41 0 42 0;
#X connect 42 0 47 0;
#X connect 42 0 51 0;
#X connect 43 0 44 0;
#X connect 43 0 54 0;
#X connect 44 0 45 0;
#X connect 45 0 46 0;
#X connect 46 0 49 0;
#X connect 47 0 46 1;
#X connect 48 0 52 0;
#X connect 49 0 48 0;
#X connect 49 1 52 0;
#X connect 50 0 39 0;
#X connect 51 0 50 1;
#X connect 52 0 39 0;
#X connect 53 0 43 0;
