#N canvas 412 37 837 561 10;
#X floatatom 211 74 5 0 0 0 - - -;
#X msg 250 74;
#X text 278 75 ..;
#X obj 565 408 cnv 15 250 140 empty empty pd_vanilla 8 14 0 18 -249791
-66577 0;
#X obj 565 318 cnv 15 250 80 empty empty web 8 14 0 18 -245757 -66577
0;
#X obj 564 10 cnv 15 250 300 empty empty related 8 14 0 18 -241659
-66577 0;
#X obj 11 265 cnv 15 545 50 empty empty empty 10 10 0 15 -258042 -131073
0;
#X obj 11 315 cnv 15 545 50 empty empty empty 10 10 0 15 -258043 -131073
0;
#X obj 11 365 cnv 15 545 50 empty empty empty 10 10 0 15 -257981 -131073
0;
#X obj 11 414 cnv 15 545 50 empty empty empty 10 10 0 15 -257981 -131073
0;
#X obj 11 464 cnv 15 545 40 empty empty empty 10 10 0 15 -257983 -131073
0;
#X obj 11 505 cnv 15 545 20 empty empty empty 10 10 0 15 -262144 -131073
0;
#X obj 11 526 cnv 15 545 12 empty empty empty 10 10 0 15 -262144 -131073
0;
#X obj 11 41 cnv 15 545 30 empty empty empty 5 18 0 25 -253376 -66577
0;
#X obj 11 72 cnv 15 545 30 empty empty empty 5 18 0 25 -249023 -66577
0;
#X obj 11 103 cnv 15 545 30 empty empty empty 5 18 0 25 -244604 -66577
0;
#X obj 11 10 cnv 15 545 30 empty empty instrumentmaker.org 5 18 0 25
-261824 -66577 0;
#X obj 15 47 cnv 15 523 20 empty empty empty 10 10 0 13 -1 -99865 -196864;#X obj 15 108 cnv 15 523 20 empty empty empty 10 10 0 13 -1 -99865 -196864;#X obj 15 61 cnv 15 523 47 empty empty generate.pulse 10 25 0 30 -1 -16777216 0;#X obj 15 47 cnv 15 100 20 empty empty control 10 10 0 13 -257985 -1 0;#X obj 15 108 cnv 15 100 20 empty empty audio 10 10 0 13 -4034 -1 0;#X text 409 18 Charles Matthews 2020;#X text 487 28 0.1.1a.1;#X obj 11 135 cnv 15 545 50 empty empty empty 10 10 0 13 -262130 -655361 0;#X text 16 142 , f 81;#X obj 11 192 cnv 15 545 20 empty empty Arguments: 10 10 0 13 -203904 -1 0;#X text 105 195 1) 1 note (optional) 2) octave (optional), , f 70;#X obj 11 215 cnv 15 545 20 empty empty Inlets: 34 10 0 13 -204800 -1 0;#X text 105 217 1) pitch from im.scale (range of 0 - 127) 2) pulsewidth , f 70;#X obj 11 239 cnv 15 545 20 empty empty Outlets: 25 10 0 13 -204786 -1 0;#X text 105 241 1) retrigger rate in ms, , f 70;#X obj 11 265 cnv 15 545 20 empty empty Examples 10 11 0 15 -261682 -1 0;#X obj 570 360 im.help.link https://en.wikipedia.org/wiki/Pulse_wave;#X obj 570 450 phasor~;#X obj 570 475 >~;#X obj 11 270 cnv 15 500 120 empty empty instrument_maker 10 22 0 40
-4032 -66577 0 ;
#X obj 22 320 cnv 15 478 40 empty empty im.pulsewave 20 22 0 30 -1 -196864
0 ;
#X text 22 370 Charles Matthews 2020 ;
#X obj 11 452 cnv 15 500 20 empty empty Arguments: 10 10 0 13 -203904
-66577 0 ;
#X obj 11 475 cnv 15 500 20 empty empty Inlets: 34 10 0 13 -204800
-66577 0 ;
#X obj 11 499 cnv 15 500 20 empty empty Outlets: 25 10 0 13 -204786
-66577 0 ;
#X text 21 431 comment, f 81 ;
#X obj 11 395 cnv 15 500 50 empty empty empty 25 10 0 13 -262130 -66577
0 ;
#X obj 6 830 cnv 15 500 40 empty empty empty 25 10 0 13 -262130 -66577
0 ;
#X text 105 455 1) 1 Note (optional) 2) Octave (optional), f 64 ;
#X text 105 477 1) pitch from im.scale (range of 0 - 127). 2) pulsewidth.
 ;
#X text 16 402 Generate a square wave (a kind of beeping)., f 81 ;
#X text 106 501 1) pulsewave signal ;
#X text 14 832 im.pulsewave accepts pitches \, but does not currently
recognise raw frequencies in Hz.., f 81 ;
#X obj 20 674 im.speaker ;
#X obj 20 653 im.fader ;
#X obj 65 570 im.keypress Space ;
#X obj 76 603 im.sensor 1 ;
#X obj 179 805 im.speaker ;
#X obj 179 784 im.fader ;
#X obj 179 625 im.scale C major 4 ;
#X obj 179 603 im.multiply 8 ;
#X obj 235 734 im.sensor 2 ;
#X obj 224 702 im.keypress Up ;
#X obj 179 675 im.pulsewave ;
#X text 317 709 hold down the 'Up' key or connect sensor 2 to hear
a pulse wave ascending through the C major scale., f 26 ;
#X obj 20 532 im.pulsewave A 2 ;
#X text 129 523 Hold down the space bar on your computer or connect
sensor 1 to hear a pulse wave at pitch A (octave 2)., f 28 ;
#X obj 310 640 im.sensor 3 ;
#X obj 179 580 im.lfo fast sawtooth ;
#X text 264 666 connect a sensor to input 3 to hear a change in pulsewidth
, f 36 ;
#X connect 51 0 50 0 ;
#X connect 52 0 51 1 ;
#X connect 53 0 51 1 ;
#X connect 55 0 54 0 ;
#X connect 56 0 60 0 ;
#X connect 57 0 56 0 ;
#X connect 58 0 55 1 ;
#X connect 59 0 55 1 ;
#X connect 60 0 55 0 ;
#X connect 62 0 51 0 ;
#X connect 64 0 60 2 ;
#X connect 65 0 57 0 ;
 ;