#N canvas 700 170 800 646;
#X obj 156 232 loadbang;
#X obj 5 698 outlet~;
#X obj 4 559 *~ 8;
#X obj 5 642 expr~ if($v1 % 2 == 0 \, $v2 \, $v2 * -1);
#X obj 157 406 list store \$1 \$2 \$3 \$4 \$5 \$6 \$7 \$8;
#X msg 265 312 8;
#X obj 158 464 array set \$0-sequence;
#X obj 577 471 array define \$0-sequence;
#X obj 265 378 array size \$0-sequence;
#X obj 19 600 tabread~ \$0-sequence;
#X text 25 669 I think this works..;
#X obj 294 69 inlet~ signal;
#X obj 397 22 inlet~ recTrigger;
#X obj 468 56 bang~;
#X obj 309 276 array set \$0-sequence;
#X obj 395 80 > 0.01;
#X obj 395 101 change;
#X obj 396 52 snapshot~;
#X obj 395 122 sel 1;
#X obj 449 122 bng 15 250 50 0 empty empty empty 17 7 0 10 -262144
-1 -1;
#X obj 390 172 im.count 7;
#X obj 340 151 t b b;
#X obj 306 175 snapshot~;
#X obj 470 120 bng 15 250 50 0 empty empty empty 17 7 0 10 -262144
-1 -1;
#X obj 636 46 inlet;
#X obj 192 312 pdcontrol;
#X msg 192 288 args 0;
#X obj 191 334 list length;
#X obj 156 263 t b b b, f 19;
#X text 414 373 variable length works in Pd 0.5 upwards - set to 8
by default;
#X obj 321 341 - 1;
#X text 356 343 variable length recording is untested;
#X obj 9 123 inlet~ fwd control signal;
#X obj 138 194 print forwarded;
#X obj 62 230 route set;
#X obj 65 268 t a a a;
#X connect 0 0 28 0;
#X connect 2 0 3 0;
#X connect 2 0 9 0;
#X connect 3 0 1 0;
#X connect 4 0 6 0;
#X connect 5 0 8 0;
#X connect 9 0 3 1;
#X connect 11 0 22 0;
#X connect 12 0 17 0;
#X connect 13 0 17 0;
#X connect 15 0 16 0;
#X connect 16 0 18 0;
#X connect 17 0 15 0;
#X connect 18 0 21 0;
#X connect 19 0 20 0;
#X connect 20 0 14 1;
#X connect 21 0 22 0;
#X connect 21 1 20 0;
#X connect 22 0 14 0;
#X connect 23 0 21 0;
#X connect 24 0 6 0;
#X connect 25 0 27 0;
#X connect 26 0 25 0;
#X connect 27 0 8 0;
#X connect 27 0 2 1;
#X connect 27 0 30 0;
#X connect 28 0 4 0;
#X connect 28 1 26 0;
#X connect 28 2 5 0;
#X connect 30 0 20 1;
#X connect 32 0 2 0;
#X connect 32 1 33 0;
#X connect 32 1 34 0;
#X connect 34 0 35 0;
#X connect 35 0 4 0;
#X connect 35 1 27 0;
#X connect 35 2 8 0;
#X coords 0 -1 1 1 15 15 1 0 800;
