#N canvas 226 361 868 644;
#X obj 150 121 inlet~; 
#X obj 151 175 outlet~; 
#X text 213 177 could replace with table reference; 
#X obj 256 120 sig~ \$1; 
#X obj 229 96 inlet~; 
#X obj 150 147 expr~ $v1 > $v2 * 5; 
#X connect 0 0 5 0; 
#X connect 3 0 5 1; 
#X connect 4 0 5 1; 
#X connect 5 0 1 0; 
#X coords 0 -1 1 1 15 15 1 0 800; 
 
