#N canvas 226 361 868 644;
#X obj 79 32 keyname; 
#X msg 79 149 0; 
#X obj 79 107 t b f; 
#X obj 46 180 spigot; 
#X obj 79 82 change; 
#X obj 46 204 sig~; 
#X obj 46 225 outlet~; 
#X obj 46 149 != 1; 
#X obj 217 75 list store \$1; 
#X obj 217 55 loadbang; 
#N canvas 0 23 888 658 case 0; 
#X obj 106 13 inlet; 
#X obj 128 569 outlet; 
#X obj 243 13 inlet; 
#X obj 128 474 sel \$1; 
#X msg 128 539 1; 
#X obj 212 203 spigot; 
#X obj 245 160 tgl 15 0 empty empty empty 17 7 0 10 -262144 -1 -1 0 
1; 
#X obj 245 42 sel space up down left right, f 86; 
#X obj 319 201 spigot; 
#X obj 351 163 tgl 15 0 empty empty empty 17 7 0 10 -262144 -1 -1 0 
1; 
#X obj 412 203 spigot; 
#X obj 444 175 tgl 15 0 empty empty empty 17 7 0 10 -262144 -1 -1 0 
1; 
#X obj 518 203 spigot; 
#X obj 550 169 tgl 15 0 empty empty empty 17 7 0 10 -262144 -1 -1 0 
1; 
#X obj 625 201 spigot; 
#X obj 657 151 tgl 15 0 empty empty empty 17 7 0 10 -262144 -1 -1 0 
1; 
#X obj 212 226 sel space Space; 
#X obj 320 224 sel up Up; 
#X obj 412 226 sel down Down; 
#X obj 519 226 sel left Left; 
#X obj 625 224 sel right Right; 
#X connect 0 0 5 0; 
#X connect 0 0 8 0; 
#X connect 0 0 10 0; 
#X connect 0 0 12 0; 
#X connect 0 0 14 0; 
#X connect 0 0 3 0; 
#X connect 2 0 7 0; 
#X connect 3 0 4 0; 
#X connect 4 0 1 0; 
#X connect 5 0 16 0; 
#X connect 6 0 5 1; 
#X connect 7 0 6 0; 
#X connect 7 1 9 0; 
#X connect 7 2 11 0; 
#X connect 7 3 13 0; 
#X connect 7 4 15 0; 
#X connect 8 0 17 0; 
#X connect 9 0 8 1; 
#X connect 10 0 18 0; 
#X connect 11 0 10 1; 
#X connect 12 0 19 0; 
#X connect 13 0 12 1; 
#X connect 14 0 20 0; 
#X connect 15 0 14 1; 
#X connect 16 0 4 0; 
#X connect 16 1 4 0; 
#X connect 17 0 4 0; 
#X connect 17 1 4 0; 
#X connect 18 0 4 0; 
#X connect 18 1 4 0; 
#X connect 19 0 4 0; 
#X connect 19 1 4 0; 
#X connect 20 0 4 0; 
#X connect 20 1 4 0; 
#X restore 119 109 pd case sensitive; 
#X connect 0 0 4 0; 
#X connect 0 1 10 0; 
#X connect 1 0 3 1; 
#X connect 2 0 1 0; 
#X connect 2 1 7 0; 
#X connect 3 0 5 0; 
#X connect 4 0 2 0; 
#X connect 5 0 6 0; 
#X connect 7 0 3 0; 
#X connect 8 0 10 1; 
#X connect 9 0 8 0; 
#X connect 10 0 3 1; 
#X coords 0 -1 1 1 15 15 1 0 800; 
 
