#N canvas 226 361 868 644;
#X obj 82 159 keyname, f 9; 
#X msg 81 258 0; 
#X obj 81 213 t b f; 
#X obj 49 290 spigot; 
#X obj 82 192 change; 
#X obj 49 422 sig~; 
#X obj 49 443 outlet~; 
#X obj 232 197 list store \$1; 
#X obj 232 177 loadbang; 
#N canvas 392 84 888 658 case 0; 
#X obj 106 13 inlet; 
#X obj 128 569 outlet; 
#X obj 243 13 inlet; 
#X msg 128 539 1; 
#X obj 212 203 spigot; 
#X obj 245 160 tgl 15 0 empty empty empty 17 7 0 10 -262144 -1 -1 0 
1; 
#X obj 245 42 sel space up down left right, f 86; 
#X obj 319 201 spigot; 
#X obj 351 163 tgl 15 0 empty empty empty 17 7 0 10 -262144 -1 -1 0 
1; 
#X obj 412 203 spigot; 
#X obj 444 175 tgl 15 0 empty empty empty 17 7 0 10 -262144 -1 -1 0 
1; 
#X obj 518 203 spigot; 
#X obj 550 169 tgl 15 0 empty empty empty 17 7 0 10 -262144 -1 -1 0 
1; 
#X obj 625 201 spigot; 
#X obj 657 151 tgl 15 0 empty empty empty 17 7 0 10 -262144 -1 -1 0 
1; 
#X obj 212 226 sel space Space; 
#X obj 320 224 sel up Up; 
#X obj 412 226 sel down Down; 
#X obj 519 226 sel left Left; 
#X obj 625 224 sel right Right; 
#X obj 27 197 route symbol; 
#X obj 28 220 list fromsymbol; 
#X floatatom 28 241 5 0 0 0 - - -; 
#X obj 28 292 tgl 15 0 empty empty empty 17 7 0 10 -262144 -1 -1 0 
1; 
#X obj 28 264 expr $f1 >= 48 && $f1 <= 57; 
#X obj 28 312 sel 1; 
#X obj 85 531 bng 15 250 50 0 empty empty empty 17 7 0 10 -262144 -1 
-1; 
#X obj 103 464 sel \$1; 
#X connect 0 0 4 0; 
#X connect 0 0 7 0; 
#X connect 0 0 9 0; 
#X connect 0 0 11 0; 
#X connect 0 0 13 0; 
#X connect 0 0 20 0; 
#X connect 0 0 27 0; 
#X connect 2 0 6 0; 
#X connect 3 0 1 0; 
#X connect 4 0 15 0; 
#X connect 5 0 4 1; 
#X connect 6 0 5 0; 
#X connect 6 1 8 0; 
#X connect 6 2 10 0; 
#X connect 6 3 12 0; 
#X connect 6 4 14 0; 
#X connect 7 0 16 0; 
#X connect 8 0 7 1; 
#X connect 9 0 17 0; 
#X connect 10 0 9 1; 
#X connect 11 0 18 0; 
#X connect 12 0 11 1; 
#X connect 13 0 19 0; 
#X connect 14 0 13 1; 
#X connect 15 0 3 0; 
#X connect 15 1 3 0; 
#X connect 16 0 3 0; 
#X connect 16 1 3 0; 
#X connect 17 0 3 0; 
#X connect 17 1 3 0; 
#X connect 18 0 3 0; 
#X connect 18 1 3 0; 
#X connect 19 0 3 0; 
#X connect 19 1 3 0; 
#X connect 20 0 21 0; 
#X connect 21 0 22 0; 
#X connect 22 0 24 0; 
#X connect 23 0 25 0; 
#X connect 24 0 23 0; 
#X connect 27 0 3 0; 
#X connect 27 0 26 0; 
#X restore 133 221 pd case sensitive; 
#X obj 612 110 pdcontrol; 
#X msg 612 88 dir 1; 
#X obj 612 67 loadbang; 
#X obj 611 157 list.rev; 
#X obj 611 133 list fromsymbol; 
#X obj 611 178 list split 10; 
#X obj 611 222 list tosymbol; 
#X obj 611 243 sel im.objects; 
#X obj 611 200 list.rev; 
#X obj 611 265 tgl 15 0 empty empty empty 17 7 0 10 -262144 -1 -1 0 
1; 
#X obj 380 287 &&, f 39; 
#X obj 49 397 spigot 1, f 56; 
#X obj 379 141 r noKey; 
#X obj 380 260 tgl 15 0 empty empty empty 17 7 0 10 -262144 -1 -1 0 
1; 
#X obj 380 321 t b f, f 6; 
#X obj 380 342 1; 
#X obj 381 365 -, f 5; 
#X text 514 15 Check: is the parent patcher in im.objects?; 
#X msg 407 222 0; 
#X text 515 31 This disables im.makeymakey though; 
#X obj 407 200 delay 1100; 
#X obj 379 165 t f b; 
#X obj 596 538 namecanvas keypress; 
#X obj 431 141 r \$0-nokey; 
#X obj 85 422 r \$0-emukey; 
#X obj 62 817 vsl 108 2 0 255 0 0 \$0-activity \$0-colour empty 0 -9 
0 10 -4033 -4033 -4033 0 1; 
#X obj 250 500 bng 15 250 50 0 empty \$0-activity empty 17 7 0 10 -262144 
-1 -1; 
#X obj 274 627 cursor; 
#X msg 275 606 1; 
#X obj 274 649 route button; 
#X msg 317 770 0; 
#X obj 204 721 tgl 15 0 \$0-emukey empty empty 17 7 0 10 -262144 -1 
-1 0 1; 
#X obj 269 687 route 1; 
#X obj 312 731 sel 0; 
#X msg 405 644 color #ff0000 #ff0000 #ff0000; 
#X obj 457 624 loadbang; 
#X obj 434 704 s \$0-colour; 
#X msg 447 670 color #00ff00 #00ff00 #00ff00; 
#X obj 397 578 sel 0 1; 
#X text 213 651 mac only; 
#X obj 225 580 t b b; 
#X msg 200 602 set 23; 
#X obj 243 530 tgl 15 0 empty empty empty 17 7 0 10 -262144 -1 -1 0 
1; 
#X msg 266 570 0; 
#X obj 252 546 sel 1 0; 
#X obj 152 249 tgl 15 0 empty empty empty 17 7 0 10 -262144 -1 -1 1 
1; 
#X connect 0 0 4 0; 
#X connect 0 1 9 0; 
#X connect 1 0 3 1; 
#X connect 2 0 1 0; 
#X connect 2 1 3 0; 
#X connect 3 0 21 0; 
#X connect 4 0 2 0; 
#X connect 5 0 6 0; 
#X connect 7 0 9 1; 
#X connect 8 0 7 0; 
#X connect 9 0 3 1; 
#X connect 9 0 55 0; 
#X connect 10 0 14 0; 
#X connect 11 0 10 0; 
#X connect 12 0 11 0; 
#X connect 13 0 15 0; 
#X connect 14 0 13 0; 
#X connect 15 0 18 0; 
#X connect 16 0 17 0; 
#X connect 17 0 19 0; 
#X connect 18 0 16 0; 
#X connect 19 0 20 1; 
#X connect 20 0 24 0; 
#X connect 21 0 5 0; 
#X connect 21 0 48 0; 
#X connect 22 0 31 0; 
#X connect 23 0 20 0; 
#X connect 24 0 25 0; 
#X connect 24 1 26 1; 
#X connect 25 0 26 0; 
#X connect 26 0 21 1; 
#X connect 28 0 23 0; 
#X connect 30 0 28 0; 
#X connect 31 0 23 0; 
#X connect 31 1 30 0; 
#X connect 33 0 31 0; 
#X connect 34 0 5 0; 
#X connect 36 0 52 0; 
#X connect 37 0 39 0; 
#X connect 38 0 37 0; 
#X connect 38 0 41 0; 
#X connect 39 0 42 0; 
#X connect 40 0 37 0; 
#X connect 40 0 41 0; 
#X connect 40 0 52 0; 
#X connect 42 0 43 0; 
#X connect 43 0 40 0; 
#X connect 43 0 47 0; 
#X connect 44 0 46 0; 
#X connect 45 0 47 0; 
#X connect 47 0 46 0; 
#X connect 48 0 47 0; 
#X connect 48 1 44 0; 
#X connect 50 0 51 0; 
#X connect 50 1 38 0; 
#X connect 51 0 46 0; 
#X connect 52 0 54 0; 
#X connect 53 0 41 0; 
#X connect 54 0 50 0; 
#X connect 54 0 44 0; 
#X connect 54 1 53 0; 
#X connect 54 1 47 0; 
#X coords 0 -1 1 1 112 24 1 60 800; 
 
