#N canvas 412 37 837 561 10;
#X floatatom 211 74 5 0 0 0 - - -;
#X msg 250 74;
#X text 278 75 ..;
#X obj 565 408 cnv 15 250 140 empty empty pd_vanilla 8 14 0 18 -249791
-66577 0;
#X obj 565 318 cnv 15 250 80 empty empty web 8 14 0 18 -245757 -66577
0;
#X obj 564 10 cnv 15 250 300 empty empty related 8 14 0 18 -241659
-66577 0;
#X obj 11 265 cnv 15 545 50 empty empty empty 10 10 0 15 -258042 -131073
0;
#X obj 11 315 cnv 15 545 50 empty empty empty 10 10 0 15 -258043 -131073
0;
#X obj 11 365 cnv 15 545 50 empty empty empty 10 10 0 15 -257981 -131073
0;
#X obj 11 414 cnv 15 545 50 empty empty empty 10 10 0 15 -257981 -131073
0;
#X obj 11 464 cnv 15 545 40 empty empty empty 10 10 0 15 -257983 -131073
0;
#X obj 11 505 cnv 15 545 20 empty empty empty 10 10 0 15 -262144 -131073
0;
#X obj 11 526 cnv 15 545 12 empty empty empty 10 10 0 15 -262144 -131073
0;
#X obj 11 41 cnv 15 545 30 empty empty empty 5 18 0 25 -253376 -66577
0;
#X obj 11 72 cnv 15 545 30 empty empty empty 5 18 0 25 -249023 -66577
0;
#X obj 11 103 cnv 15 545 30 empty empty empty 5 18 0 25 -244604 -66577
0;
#X obj 11 10 cnv 15 545 30 empty empty instrumentmaker.org 5 18 0 25
-261824 -66577 0;
#X obj 15 47 cnv 15 523 20 empty empty empty 10 10 0 13 -1 -99865 -196864;#X obj 15 108 cnv 15 523 20 empty empty empty 10 10 0 13 -1 -99865 -196864;#X obj 15 61 cnv 15 523 47 empty empty key.hold 10 25 0 30 -1 -16777216 0;#X obj 15 108 cnv 15 100 20 empty empty control 10 10 0 13 -257985 -1 0;#X text 445 18 Alex Lucas 2020;#X text 487 28 0.1.1a.1;#X obj 11 135 cnv 15 545 50 empty empty empty 10 10 0 13 -262130 -655361 0;#X text 16 142 Hold a key to trigger an event. Watch out - it doesn't always work to hold more than one key down together. If you find that certain notes hang try pressing the relevant key again., f 81;#X obj 11 192 cnv 15 545 20 empty empty Arguments: 10 10 0 13 -203904 -1 0;#X text 105 195 1) letter of the key to monitor 2) hold time threshold in milliseconds , f 70;#X obj 11 215 cnv 15 545 20 empty empty Inlets: 34 10 0 13 -204800 -1 0;#X text 105 217 1) none , f 70;#X obj 11 239 cnv 15 545 20 empty empty Outlets: 25 10 0 13 -204786 -1 0;#X text 105 241 1) off/on signal (0/1) , f 70;#X obj 11 265 cnv 15 545 20 empty empty Examples 10 11 0 15 -261682 -1 0;#X obj 570 450 keyname;#X obj 570 475 key;#X obj 570 500 keyup;#X obj 570 525 select;#X obj 193 353 im.speaker ;
#X obj 6 317 im.fader ;
#X obj 193 315 im.fader ;
#X obj 6 274 im.pulsewave A 3 ;
#X obj 193 272 im.pulsewave B 3 ;
#X obj 13 452 im.speaker ;
#X obj 182 453 im.speaker ;
#X text 11 382 Some quick sample players using im.player: ;
#X obj 13 431 im.player sounds/sn.wav ;
#X obj 182 431 im.player sounds/string.aif ;
#X obj 51 295 im.keyhold a 500 ;
#X obj 238 292 im.keyhold b 500 ;
#X obj 13 410 im.keyhold Up 1000 ;
#X obj 182 409 im.keyhold Space 1000 ;
#X connect 37 0 36 0 ;
#X connect 38 0 36 0 ;
#X connect 39 0 37 0 ;
#X connect 40 0 38 0 ;
#X connect 44 0 41 0 ;
#X connect 45 0 42 0 ;
#X connect 46 0 37 1 ;
#X connect 47 0 38 1 ;
#X connect 48 0 44 0 ;
#X connect 49 0 45 0 ;
 ;