#N canvas 412 37 837 561 10;
#X floatatom 211 74 5 0 0 0 - - -;
#X msg 250 74;
#X text 278 75 ..;
#X obj 565 408 cnv 15 250 140 empty empty pd_vanilla 8 14 0 18 -249791
-66577 0;
#X obj 565 318 cnv 15 250 80 empty empty web 8 14 0 18 -245757 -66577
0;
#X obj 564 10 cnv 15 250 300 empty empty related 8 14 0 18 -241659
-66577 0;
#X obj 11 265 cnv 15 545 50 empty empty empty 10 10 0 15 -258042 -131073
0;
#X obj 11 315 cnv 15 545 50 empty empty empty 10 10 0 15 -258043 -131073
0;
#X obj 11 365 cnv 15 545 50 empty empty empty 10 10 0 15 -257981 -131073
0;
#X obj 11 414 cnv 15 545 50 empty empty empty 10 10 0 15 -257981 -131073
0;
#X obj 11 464 cnv 15 545 40 empty empty empty 10 10 0 15 -257983 -131073
0;
#X obj 11 505 cnv 15 545 20 empty empty empty 10 10 0 15 -262144 -131073
0;
#X obj 11 526 cnv 15 545 12 empty empty empty 10 10 0 15 -262144 -131073
0;
#X obj 11 41 cnv 15 545 30 empty empty empty 5 18 0 25 -253376 -66577
0;
#X obj 11 72 cnv 15 545 30 empty empty empty 5 18 0 25 -249023 -66577
0;
#X obj 11 103 cnv 15 545 30 empty empty empty 5 18 0 25 -244604 -66577
0;
#X obj 11 10 cnv 15 545 30 empty empty instrumentmaker.org 5 18 0 25
-261824 -66577 0;
#X obj 15 47 cnv 15 523 20 empty empty empty 10 10 0 13 -1 -99865 -196864;#X obj 15 108 cnv 15 523 20 empty empty empty 10 10 0 13 -1 -99865 -196864;#X obj 15 61 cnv 15 523 47 empty empty key.press 10 25 0 30 -1 -16777216 0;#X obj 15 108 cnv 15 100 20 empty empty control 10 10 0 13 -257985 -1 0;#X text 409 18 Charles Matthews 2020;#X text 487 28 0.1.1a.1;#X obj 11 135 cnv 15 545 50 empty empty empty 10 10 0 13 -262130 -655361 0;#X text 16 142 Hold keys down to play certain sounds. Watch out - it doesn't always work to hold more than one key down together. If certain notes hang try pressing the relevant key again., f 81;#X obj 11 192 cnv 15 545 20 empty empty Arguments: 10 10 0 13 -203904 -1 0;#X text 105 195 1) letter of the key to monitor , f 70;#X obj 11 215 cnv 15 545 20 empty empty Inlets: 34 10 0 13 -204800 -1 0;#X text 105 217 1) none , f 70;#X obj 11 239 cnv 15 545 20 empty empty Outlets: 25 10 0 13 -204786 -1 0;#X text 105 241 1) off/on signal (0/1) , f 70;#X obj 11 265 cnv 15 545 20 empty empty Examples 10 11 0 15 -261682 -1 0;#X obj 570 360 im.help.link https://en.wikipedia.org/wiki/Computer_keyboard;#X obj 570 40 im.help.button im.player;#X obj 570 80 im.help.button im.keyhold;#X obj 570 120 im.help.button im.keypress;#X obj 570 160 im.help.button im.keydoublepress;#X obj 570 450 keyname;#X obj 570 475 key;#X obj 570 500 keyup;#X obj 570 525 select;#X obj 157 378 im.speaker ;
#X obj 18 340 im.fader ;
#X obj 61 278 im.keypress a ;
#X obj 200 278 im.keypress b ;
#X obj 331 273 im.keypress c ;
#X obj 467 271 im.keypress d ;
#X obj 156 340 im.fader ;
#X obj 288 337 im.fader ;
#X obj 423 334 im.fader ;
#X obj 18 312 im.pulsewave A 3 ;
#X obj 155 313 im.pulsewave B 3 ;
#X obj 287 312 im.pulsewave C 3 ;
#X obj 424 310 im.pulsewave D 3 ;
#X obj 24 489 im.speaker ;
#X obj 193 490 im.speaker ;
#X obj 386 490 im.speaker ;
#X text 21 413 Some quick sample players using im.player: ;
#X obj 24 463 im.player sounds/sn.wav ;
#X obj 193 463 im.player sounds/string.aif ;
#X obj 386 463 im.player sounds/rush.aif ;
#X obj 23 434 im.keypress up ;
#X obj 193 433 im.keypress space ;
#X obj 386 434 im.keypress return ;
#X connect 42 0 41 0 ;
#X connect 43 0 42 1 ;
#X connect 44 0 47 1 ;
#X connect 45 0 48 1 ;
#X connect 46 0 49 1 ;
#X connect 47 0 41 0 ;
#X connect 48 0 41 0 ;
#X connect 49 0 41 0 ;
#X connect 50 0 42 0 ;
#X connect 51 0 47 0 ;
#X connect 52 0 48 0 ;
#X connect 53 0 49 0 ;
#X connect 58 0 54 0 ;
#X connect 59 0 55 0 ;
#X connect 60 0 56 0 ;
#X connect 61 0 58 0 ;
#X connect 62 0 59 0 ;
#X connect 63 0 60 0 ;
 ;