#N canvas 226 361 868 644;
#X obj 108 178 adc~ \$1; 
#X obj 108 214 outlet~; 
#X obj 177 59 loadbang; 
#X obj 177 80 \$1; 
#X obj 177 103 sel 0; 
#X obj 177 124 1; 
#X msg 177 149 set \$1; 
#X connect 0 0 1 0; 
#X connect 2 0 3 0; 
#X connect 3 0 4 0; 
#X connect 4 0 5 0; 
#X connect 4 1 6 0; 
#X connect 5 0 6 0; 
#X connect 6 0 0 0; 
#X coords 0 -1 1 1 15 15 1 0 800; 
 
