#N canvas 693 107 218 278 10;
#X obj 29 141 list append;
#X obj 29 113 list store;
#X obj 29 88 t b a, f 12;
#X obj 29 62 list split 1, f 20;
#X obj 29 172 outlet;
#X obj 29 29 inlet;
#X obj 146 17 inlet;
#X obj 146 41 \$1;
#X obj 188 16 loadbang;
#X connect 0 0 4 0;
#X connect 1 0 0 0;
#X connect 2 0 1 0;
#X connect 2 1 0 1;
#X connect 3 0 2 0;
#X connect 3 1 1 1;
#X connect 5 0 3 0;
#X connect 6 0 7 0;
#X connect 7 0 3 1;
#X connect 8 0 7 0;
