#N canvas 585 59 450 719 10;
#X obj 122 161 list length;
#X obj 202 162 list length;
#X floatatom 123 262 5 0 0 0 - - -;
#X floatatom 203 264 5 0 0 0 - - -;
#X obj 123 285 ==, f 14;
#X obj 202 134 t a a;
#X obj 122 137 t a a;
#X obj 70 380 f;
#X obj 125 80 t a b b, f 27;
#X msg 161 206 0;
#X obj 123 306 sel 1;
#X msg 180 351 0;
#X obj 101 380 + 1;
#X obj 70 357 until;
#X obj 74 541 list store;
#X obj 174 540 list store;
#X obj 70 464 t f f, f 19;
#X msg 70 493 get \$1 1;
#X msg 172 495 get \$1 1;
#X obj 74 572 ==;
#X obj 74 597 +;
#X obj 122 183 t a f b b, f 12;
#X msg 190 206 0;
#X obj 107 596 f;
#X obj 51 411 t f f;
#X obj 20 503 sel;
#X obj 43 252 t f f;
#X obj 39 624 f;
#X floatatom 39 645 5 0 0 0 - - -;
#X obj 139 328 t b b, f 7;
#X obj 70 323 f;
#X obj 19 440 + 1;
#X obj 19 473 t f f;
#X obj 45 674 ==, f 11;
#X obj 201 107 list store;
#X obj 45 698 outlet match;
#X obj 125 57 inlet list input;
#X obj 258 55 inlet list to match;
#X connect 0 0 21 0;
#X connect 1 0 3 0;
#X connect 2 0 4 0;
#X connect 3 0 4 1;
#X connect 4 0 10 0;
#X connect 5 0 1 0;
#X connect 5 1 15 1;
#X connect 6 0 0 0;
#X connect 6 1 14 1;
#X connect 7 0 12 0;
#X connect 7 0 24 0;
#X connect 8 0 6 0;
#X connect 8 1 34 0;
#X connect 9 0 7 1;
#X connect 10 0 29 0;
#X connect 10 1 35 0;
#X connect 11 0 7 1;
#X connect 12 0 7 1;
#X connect 13 0 7 0;
#X connect 14 0 19 0;
#X connect 15 0 19 1;
#X connect 16 0 17 0;
#X connect 16 1 18 0;
#X connect 17 0 14 0;
#X connect 18 0 15 0;
#X connect 19 0 20 0;
#X connect 20 0 23 0;
#X connect 20 0 27 1;
#X connect 21 0 2 0;
#X connect 21 1 26 0;
#X connect 21 2 9 0;
#X connect 21 3 22 0;
#X connect 22 0 20 1;
#X connect 23 0 20 1;
#X connect 24 0 31 0;
#X connect 24 1 16 0;
#X connect 25 0 27 0;
#X connect 26 0 25 1;
#X connect 26 1 30 1;
#X connect 27 0 28 0;
#X connect 28 0 33 0;
#X connect 29 0 30 0;
#X connect 29 1 11 0;
#X connect 30 0 13 0;
#X connect 31 0 32 0;
#X connect 32 0 25 0;
#X connect 32 1 33 1;
#X connect 33 0 35 0;
#X connect 34 0 5 0;
#X connect 36 0 8 0;
#X connect 37 0 34 1;
