#N canvas 412 37 837 561 10;
#X floatatom 211 74 5 0 0 0 - - -;
#X msg 250 74;
#X text 278 75 ..;
#X obj 565 408 cnv 15 250 140 empty empty pd_vanilla 8 14 0 18 -249791
-66577 0;
#X obj 565 318 cnv 15 250 80 empty empty web 8 14 0 18 -245757 -66577
0;
#X obj 564 10 cnv 15 250 300 empty empty related 8 14 0 18 -241659
-66577 0;
#X obj 11 265 cnv 15 545 50 empty empty empty 10 10 0 15 -258042 -131073
0;
#X obj 11 315 cnv 15 545 50 empty empty empty 10 10 0 15 -258043 -131073
0;
#X obj 11 365 cnv 15 545 50 empty empty empty 10 10 0 15 -257981 -131073
0;
#X obj 11 414 cnv 15 545 50 empty empty empty 10 10 0 15 -257981 -131073
0;
#X obj 11 464 cnv 15 545 40 empty empty empty 10 10 0 15 -257983 -131073
0;
#X obj 11 505 cnv 15 545 20 empty empty empty 10 10 0 15 -262144 -131073
0;
#X obj 11 526 cnv 15 545 12 empty empty empty 10 10 0 15 -262144 -131073
0;
#X obj 11 41 cnv 15 545 30 empty empty empty 5 18 0 25 -253376 -66577
0;
#X obj 11 72 cnv 15 545 30 empty empty empty 5 18 0 25 -249023 -66577
0;
#X obj 11 103 cnv 15 545 30 empty empty empty 5 18 0 25 -244604 -66577
0;
#X obj 11 10 cnv 15 545 30 empty empty instrumentmaker.org 5 18 0 25
-261824 -66577 0;
#X obj 15 47 cnv 15 523 20 empty empty empty 10 10 0 13 -1 -99865 -196864;#X obj 15 108 cnv 15 523 20 empty empty empty 10 10 0 13 -1 -99865 -196864;#X obj 15 61 cnv 15 523 47 empty empty map.sequence 10 25 0 30 -1 -16777216 0;#X obj 15 47 cnv 15 100 20 empty empty control 10 10 0 13 -257985 -1 0;#X obj 15 108 cnv 15 100 20 empty empty control 10 10 0 13 -257985 -1 0;#X text 409 18 Charles Matthews 2020;#X text 487 28 0.1.1a.1;#X obj 11 135 cnv 15 545 50 empty empty empty 10 10 0 13 -262130 -655361 0;#X text 16 142 Play a sequence of notes as specified in the arguemnts. Use [im.step] to convert sensor values into a clock for im.sequence. Try an LFO object to sequence automatically., f 81;#X obj 11 192 cnv 15 545 20 empty empty Arguments: 10 10 0 13 -203904 -1 0;#X text 105 195 1) 1-8) numbers to output for each corresponding step , f 70;#X obj 11 215 cnv 15 545 20 empty empty Inlets: 34 10 0 13 -204800 -1 0;#X text 105 217 1) audio signal (0-1) 2) signal to record 3) trigger to record , f 70;#X obj 11 239 cnv 15 545 20 empty empty Outlets: 25 10 0 13 -204786 -1 0;#X text 105 241 1) sequence as audio control signal , f 70;#X obj 11 265 cnv 15 545 20 empty empty Examples 10 11 0 15 -261682 -1 0;#X obj 570 360 im.help.link https://en.wikipedia.org/wiki/Sequence_(music)#:~:text=In%20music%2C%20a%20sequence%20is,Classical%20period%20and%20Romantic%20music).;#X obj 570 450 text;#X obj 570 475 array;#X obj 14 396 im.tunedperc ;
#X obj 14 417 im.speaker ;
#X obj 15 634 im.tunedperc ;
#X obj 15 655 im.speaker ;
#X obj 15 526 im.keypress s ;
#X obj 14 375 im.scale C dorian 5 ;
#X obj 15 613 im.scale C dorian 5 ;
#X obj 14 351 im.sequence 0 1 4 3 4 5 2 7 ;
#X obj 15 591 im.sequence 0 1 4 3 4 5 2 7 ;
#X obj 15 550 im.step 8 ;
#X obj 14 287 im.lfo slow saw ;
#X obj 14 313 im.fader, f 19 ;
#X obj 125 287 im.keypress a ;
#X text 10 265 Press a to hear a slow sequence ;
#X text 14 495 Press s to step through a sequence note by note., f
34 ;
#X obj 16 439 cnv 15 500 50 empty empty empty 25 10 0 13 -262130 -66577
0 ;
#X text 21 446 Experimental feature: record and play back sequences
- documentation coming soon., f 81 ;
#X msg 102 291 set 1 1 1 1 2 2 2 2 ;
#X text 102 567 experimental feature ;
#X connect 36 0 37 0 ;
#X connect 38 0 39 0 ;
#X connect 40 0 45 0 ;
#X connect 41 0 36 0 ;
#X connect 42 0 38 0 ;
#X connect 43 0 41 0 ;
#X connect 44 0 42 0 ;
#X connect 45 0 44 0 ;
#X connect 46 0 47 0 ;
#X connect 47 0 43 0 ;
#X connect 48 0 47 1 ;
#X connect 53 0 44 0 ;
 ;