#N canvas 412 37 837 561 10;
#X floatatom 211 74 5 0 0 0 - - -;
#X msg 250 74;
#X text 278 75 ..;
#X obj 565 408 cnv 15 250 140 empty empty pd_vanilla 8 14 0 18 -249791
-66577 0;
#X obj 565 318 cnv 15 250 80 empty empty web 8 14 0 18 -245757 -66577
0;
#X obj 564 10 cnv 15 250 300 empty empty related 8 14 0 18 -241659
-66577 0;
#X obj 11 265 cnv 15 545 50 empty empty empty 10 10 0 15 -258042 -131073
0;
#X obj 11 315 cnv 15 545 50 empty empty empty 10 10 0 15 -258043 -131073
0;
#X obj 11 365 cnv 15 545 50 empty empty empty 10 10 0 15 -257981 -131073
0;
#X obj 11 414 cnv 15 545 50 empty empty empty 10 10 0 15 -257981 -131073
0;
#X obj 11 464 cnv 15 545 40 empty empty empty 10 10 0 15 -257983 -131073
0;
#X obj 11 505 cnv 15 545 20 empty empty empty 10 10 0 15 -262144 -131073
0;
#X obj 11 526 cnv 15 545 12 empty empty empty 10 10 0 15 -262144 -131073
0;
#X obj 11 41 cnv 15 545 30 empty empty empty 5 18 0 25 -253376 -66577
0;
#X obj 11 72 cnv 15 545 30 empty empty empty 5 18 0 25 -249023 -66577
0;
#X obj 11 103 cnv 15 545 30 empty empty empty 5 18 0 25 -244604 -66577
0;
#X obj 11 10 cnv 15 545 30 empty empty instrumentmaker.org 5 18 0 25
-261824 -66577 0;
#X obj 15 47 cnv 15 523 20 empty empty empty 10 10 0 13 -1 -99865 -196864;#X obj 15 108 cnv 15 523 20 empty empty empty 10 10 0 13 -1 -99865 -196864;#X obj 15 61 cnv 15 523 47 empty empty map.scale 10 25 0 30 -1 -16777216 0;#X obj 15 47 cnv 15 100 20 empty empty control 10 10 0 13 -257985 -1 0;#X obj 15 108 cnv 15 100 20 empty empty control 10 10 0 13 -257985 -1 0;#X text 409 18 Charles Matthews 2020;#X text 487 28 0.1.1a.1;#X obj 11 135 cnv 15 545 50 empty empty empty 10 10 0 13 -262130 -655361 0;#X text 16 142 Choose a 7 interval mode based on equal temperament. The input from a sensor or sequence determines the degree of the scale played., f 81;#X obj 11 192 cnv 15 545 20 empty empty Arguments: 10 10 0 13 -203904 -1 0;#X text 105 195 1) root note 2) scale/mode , f 70;#X obj 11 215 cnv 15 545 20 empty empty Inlets: 34 10 0 13 -204800 -1 0;#X text 105 217 1) degree of scale to play , f 70;#X obj 11 239 cnv 15 545 20 empty empty Outlets: 25 10 0 13 -204786 -1 0;#X text 105 241 1) sensor information as audio control signal , f 70;#X obj 11 265 cnv 15 545 20 empty empty Examples 10 11 0 15 -261682 -1 0;#X obj 570 360 im.help.link https://en.wikipedia.org/wiki/Mode_(music);#X obj 570 40 im.help.button im.sinewave;#X obj 570 80 im.help.button im.sensor;#X obj 570 450 text;#X obj 570 475 array;#X obj 570 500 *~;#X obj 570 525 mtof;#X obj 670 450 mtof~;#X obj 670 475 ftom;#X obj 670 500 ftom~;#X text 301 315 Scales/modes available: ;
#X text 430 340 major ;
#X text 430 429 minor ;
#X text 356 341 ionian ;
#X text 355 360 dorian ;
#X text 355 377 phrygian ;
#X text 354 395 lydian ;
#X text 354 410 mixolydian ;
#X text 354 426 aeolian ;
#X text 355 442 locrian ;
#X obj 41 304 im.scale C major 5 ;
#X obj 41 325 im.pulsewave ;
#X obj 42 409 im.output ;
#X obj 42 386 im.fader ;
#X obj 75 357 im.sensor 2 ;
#X obj 202 354 im.keypress Space ;
#X obj 41 282 im.sensor 1 7 ;
#X text 154 274 Send a full octave of C major by attaching a sensor
to the first input. ;
#X obj 15 464 cnv 15 500 40 empty empty empty 25 10 0 13 -262130 -66577
0 ;
#X text 24 465 * Both # and b characters are valid \, e.g. C# \, Db
, f 81 ;
#X obj 67 485 im.scale Bb major 5 ;
#X obj 222 484 im.scale A# major 5 ;
#X connect 53 0 54 0 ;
#X connect 54 0 56 0 ;
#X connect 56 0 55 0 ;
#X connect 57 0 56 1 ;
#X connect 58 0 56 1 ;
#X connect 59 0 53 0 ;
 ;