#N canvas 226 361 868 644;
#X obj 13 558 change; 
#X obj 13 604 pack f f; 
#X obj 13 631 line~; 
#X floatatom 65 581 5 0 0 0 - - -; 
#X obj 2 355 %, f 7; 
#X obj 13 468 +; 
#X obj 13 520 +; 
#X text 101 579 glide time; 
#X obj 733 483 * 12; 
#X obj 176 464 * 12; 
#X obj 177 409 /; 
#X obj 13 498 +; 
#X obj 177 438 i; 
#X obj 667 206 list length; 
#X obj 2 402 list store; 
#X msg 2 378 get \$1 1; 
#X obj 1 320 t f f; 
#X obj -6 46 inlet~; 
#X obj -6 78 snapshot~; 
#X obj 47 45 bang~; 
#X obj -6 130 i; 
#X obj 1 273 change; 
#X obj 13 657 *~ 1; 
#X obj 1 296 abs; 
#X obj 48 133 > -0.1; 
#X floatatom 47 159 5 0 0 0 - - -; 
#X obj 0 242 *, f 9; 
#X floatatom 47 210 5 0 0 0 - - -; 
#X obj 47 184 expr if($f1 > -0 \, 1 \, -1); 
#X obj 667 134 im.generatescale; 
#X text 718 -135 arguments: 0 key \, 1 mode \, 2 octave; 
#X obj 190 383 +; 
#X obj 3 426 +; 
#X obj 48 318 - 1; 
#X obj 13 683 outlet~ audio; 
#X text 659 669 check list length: why is this doubled?; 
#X text 563 687 role of first number: offset?; 
#X text 634 403 Outlet root; 
#X text 538 712 outlet scaleList; 
#X obj 166 46 utils.get.args \$0 1 key; 
#X obj 667 43 utils.get.args \$0 2 mode; 
#X obj 732 391 utils.get.args \$0 3 octave; 
#X obj 64 555 route float; 
#X obj 64 527 utils.get.args \$0 4 glidetime; 
#N canvas 624 182 450 300 types 0; 
#X obj 50 50 inlet; 
#X obj 48 233 outlet; 
#X obj 165 86 utils.check.variable; 
#X obj 215 111 utils.check.unit MS; 
#X obj 282 134 utils.check.unit Ms; 
#X connect 0 0 2 0; 
#X connect 0 0 3 0; 
#X connect 0 0 4 0; 
#X connect 2 0 1 0; 
#X connect 3 0 1 0; 
#X connect 4 0 1 0; 
#X restore 141 623 pd types; 
#X obj 1034 -140 cnv 15 600 400 empty empty empty 20 12 0 14 -204800 
-66577 0; 
#X obj 1043 -84 loadbang; 
#X obj 1335 -7 text define \$0-args; 
#X msg 1335 -32 clear; 
#N canvas 116 36 1085 705 args 0; 
#X obj 925 203 list fromsymbol; 
#X obj 925 234 list split 1; 
#X obj 925 179 symbol \$1n; 
#X obj 927 260 sel 36; 
#X obj 959 335 list store \$1; 
#X obj 520 491 list store; 
#X obj 825 202 list fromsymbol; 
#X obj 825 233 list split 1; 
#X obj 825 259 sel 36; 
#X obj 859 334 list store \$2; 
#X obj 825 178 symbol \$2n; 
#X obj 225 680 list store; 
#X obj 722 204 list fromsymbol; 
#X obj 722 235 list split 1; 
#X obj 722 261 sel 36; 
#X obj 722 180 symbol \$3n; 
#X obj 756 336 list store \$3; 
#X obj 452 512 list prepend; 
#X obj 612 206 list fromsymbol; 
#X obj 612 237 list split 1; 
#X obj 612 263 sel 36; 
#X obj 505 209 list fromsymbol; 
#X obj 505 240 list split 1; 
#X obj 505 266 sel 36; 
#X obj 404 210 list fromsymbol; 
#X obj 404 241 list split 1; 
#X obj 404 267 sel 36; 
#X obj 453 538 t a a, f 21; 
#X obj 453 564 list length; 
#X obj 453 590 sel 12; 
#X obj 611 182 symbol \$4n; 
#X obj 505 185 symbol \$5n; 
#X obj 404 186 symbol \$6n; 
#X obj 438 342 list store \$6; 
#X obj 539 341 list store \$5; 
#X obj 646 338 list store \$4; 
#X obj 300 212 list fromsymbol; 
#X obj 300 243 list split 1; 
#X obj 300 269 sel 36; 
#X obj 200 211 list fromsymbol; 
#X obj 200 242 list split 1; 
#X obj 200 268 sel 36; 
#X obj 97 213 list fromsymbol; 
#X obj 97 244 list split 1; 
#X obj 97 270 sel 36; 
#X obj -13 215 list fromsymbol; 
#X obj -13 246 list split 1; 
#X obj -13 272 sel 36; 
#X obj -120 218 list fromsymbol; 
#X obj -120 249 list split 1; 
#X obj -120 275 sel 36; 
#X obj -221 219 list fromsymbol; 
#X obj -221 250 list split 1; 
#X obj -221 276 sel 36; 
#X obj -221 195 symbol \$12n; 
#X obj -120 194 symbol \$11n; 
#X obj -14 191 symbol \$10n; 
#X obj 97 189 symbol \$9n; 
#X obj 200 187 symbol \$8n; 
#X obj 300 188 symbol \$7n; 
#X obj -187 364 list store \$12; 
#X obj -86 363 list store \$11; 
#X obj 20 342 list store \$10; 
#X obj 130 349 list store \$9; 
#X obj 234 343 list store \$8; 
#X obj 334 344 list store \$7; 
#X text -217 70 Gather arguments into a list; 
#X text -215 87 Charles Matthews 2019 for instrumentmaker.org; 
#X text -215 104 This is something of a hack.. not how I'd like to 
do it at all \, and for now needs to be included at creation of my 
IM objects (which I do via a script in lieu of a functioning abstraction)..aside 
from forcing a limit on number of arguments \, the way arguments are 
passed in Pd appears that this cannot sit in a separate file/abstraction. 
; 
#X text 499 592 max number args (since this only affects my own abstractions 
at present no need to mess about with generating this dynamically) 
; 
#X obj 224 648 spigot; 
#X msg 1054 304 1; 
#X obj 196 587 t b b; 
#X msg 196 609 0; 
#X obj 958 283 t b b; 
#X obj 858 299 t b b; 
#X obj 755 284 t b b; 
#X obj 645 286 t b b; 
#X obj 538 289 t b b; 
#X obj 437 289 t b b; 
#X obj 333 292 t b b; 
#X obj 233 291 t b b; 
#X obj 130 293 t b b; 
#X obj 20 295 t b b; 
#X obj -87 298 t b b; 
#X obj -176 302 t b b; 
#X obj 226 708 outlet; 
#X obj 924 146 t b b, f 22; 
#X obj 923 119 inlet; 
#X connect 0 0 1 0; 
#X connect 1 0 3 0; 
#X connect 2 0 0 0; 
#X connect 3 0 72 0; 
#X connect 3 1 74 0; 
#X connect 4 0 17 0; 
#X connect 5 0 17 1; 
#X connect 6 0 7 0; 
#X connect 7 0 8 0; 
#X connect 8 0 72 0; 
#X connect 8 1 75 0; 
#X connect 9 0 17 0; 
#X connect 10 0 6 0; 
#X connect 11 0 86 0; 
#X connect 12 0 13 0; 
#X connect 13 0 14 0; 
#X connect 14 0 72 0; 
#X connect 14 1 76 0; 
#X connect 15 0 12 0; 
#X connect 16 0 17 0; 
#X connect 17 0 5 0; 
#X connect 17 0 27 0; 
#X connect 18 0 19 0; 
#X connect 19 0 20 0; 
#X connect 20 0 72 0; 
#X connect 20 1 77 0; 
#X connect 21 0 22 0; 
#X connect 22 0 23 0; 
#X connect 23 0 72 0; 
#X connect 23 1 78 0; 
#X connect 24 0 25 0; 
#X connect 25 0 26 0; 
#X connect 26 0 72 0; 
#X connect 26 1 79 0; 
#X connect 27 0 28 0; 
#X connect 27 1 11 1; 
#X connect 28 0 29 0; 
#X connect 29 0 11 0; 
#X connect 30 0 18 0; 
#X connect 31 0 21 0; 
#X connect 32 0 24 0; 
#X connect 33 0 17 0; 
#X connect 34 0 17 0; 
#X connect 35 0 17 0; 
#X connect 36 0 37 0; 
#X connect 37 0 38 0; 
#X connect 38 0 72 0; 
#X connect 38 1 80 0; 
#X connect 39 0 40 0; 
#X connect 40 0 41 0; 
#X connect 41 0 72 0; 
#X connect 41 1 81 0; 
#X connect 42 0 43 0; 
#X connect 43 0 44 0; 
#X connect 44 0 72 0; 
#X connect 44 1 82 0; 
#X connect 45 0 46 0; 
#X connect 46 0 47 0; 
#X connect 47 0 72 0; 
#X connect 47 1 83 0; 
#X connect 48 0 49 0; 
#X connect 49 0 50 0; 
#X connect 50 0 72 0; 
#X connect 50 1 84 0; 
#X connect 51 0 52 0; 
#X connect 52 0 53 0; 
#X connect 53 0 72 0; 
#X connect 53 1 85 0; 
#X connect 54 0 51 0; 
#X connect 55 0 48 0; 
#X connect 56 0 45 0; 
#X connect 57 0 42 0; 
#X connect 58 0 39 0; 
#X connect 59 0 36 0; 
#X connect 60 0 17 0; 
#X connect 61 0 17 0; 
#X connect 62 0 17 0; 
#X connect 63 0 17 0; 
#X connect 64 0 17 0; 
#X connect 65 0 17 0; 
#X connect 70 0 11 0; 
#X connect 71 0 70 1; 
#X connect 72 0 73 0; 
#X connect 72 1 70 0; 
#X connect 73 0 70 1; 
#X connect 74 0 10 0; 
#X connect 74 1 4 0; 
#X connect 75 0 15 0; 
#X connect 75 1 9 0; 
#X connect 76 0 30 0; 
#X connect 76 1 16 0; 
#X connect 77 0 31 0; 
#X connect 77 1 35 0; 
#X connect 78 0 32 0; 
#X connect 78 1 34 0; 
#X connect 79 0 59 0; 
#X connect 79 1 33 0; 
#X connect 80 0 58 0; 
#X connect 80 1 65 0; 
#X connect 81 0 57 0; 
#X connect 81 1 64 0; 
#X connect 82 0 56 0; 
#X connect 82 1 63 0; 
#X connect 83 0 55 0; 
#X connect 83 1 62 0; 
#X connect 84 0 54 0; 
#X connect 84 1 61 0; 
#X connect 85 0 72 0; 
#X connect 85 1 60 0; 
#X connect 87 0 2 0; 
#X connect 87 1 71 0; 
#X connect 88 0 87 0; 
#X restore 1189 -31 pd args; 
#N canvas 461 20 450 300 checkArgs 0; 
#X obj 122 293 list length; 
#X obj 122 232 list fromsymbol; 
#X obj 61 108 list; 
#X obj 222 450 list store; 
#X msg 222 427 get \$1 1; 
#X obj 223 473 sel 58; 
#X obj 195 597 spigot; 
#X obj 315 590 spigot; 
#X obj 194 643 list append; 
#X obj 256 618 list; 
#X obj 315 647 list append; 
#X obj 377 622 list; 
#X obj 225 530 expr $f1 \; 1 - $f1, f 22; 
#X obj 224 505 tgl 15 0 empty empty empty 17 7 0 10 -262144 -1 -1 0 
1; 
#X msg 295 451 0; 
#X obj 225 571 tgl 15 0 empty empty empty 17 7 0 10 -262144 -1 -1 0 
1; 
#X obj 349 563 tgl 15 0 empty empty empty 17 7 0 10 -262144 -1 -1 1 
1; 
#X obj 315 668 list tosymbol; 
#X obj 61 132 t a b b, f 54; 
#X obj 121 325 for --; 
#X obj 196 673 list tosymbol; 
#X obj 138 702 list store; 
#X obj 209 703 list store; 
#X obj 121 356 t f f, f 17; 
#X obj 123 383 sel 0; 
#X obj 139 735 pack s s, f 12; 
#X obj 139 762 list trim; 
#X obj 62 -12 t a a, f 14; 
#X obj 61 12 list length; 
#X obj 61 82 list store; 
#X msg 60 58 get \$1 1; 
#X obj 196 392 t f f; 
#X obj 59 167 route float; 
#X obj 99 512 tgl 15 0 empty empty empty 17 7 0 10 -262144 -1 -1 0 
1; 
#X obj 123 407 t b b b; 
#X msg 252 291 0; 
#X obj 86 533 f; 
#X obj 86 562 sel 0; 
#X obj 42 622 text insert \$0-args; 
#X obj 122 256 t a a b a, f 23; 
#X obj 85 588 list store; 
#X obj 121 206 t a a; 
#X text 7 656 this ends up in reverse order; 
#X obj 60 34 for --; 
#X obj 140 785 outlet; 
#X text 0 673 !!check this - prepend instead?; 
#X obj 61 -37 inlet; 
#X connect 0 0 19 0; 
#X connect 1 0 39 0; 
#X connect 2 0 18 0; 
#X connect 3 0 5 0; 
#X connect 4 0 3 0; 
#X connect 5 0 13 0; 
#X connect 5 0 33 0; 
#X connect 5 1 6 0; 
#X connect 5 1 7 0; 
#X connect 6 0 8 0; 
#X connect 7 0 10 0; 
#X connect 8 0 9 0; 
#X connect 8 0 20 0; 
#X connect 9 0 8 1; 
#X connect 10 0 11 0; 
#X connect 10 0 17 0; 
#X connect 11 0 10 1; 
#X connect 12 0 15 0; 
#X connect 12 1 16 0; 
#X connect 13 0 12 0; 
#X connect 14 0 13 0; 
#X connect 15 0 6 1; 
#X connect 16 0 7 1; 
#X connect 17 0 22 1; 
#X connect 18 0 32 0; 
#X connect 18 1 14 0; 
#X connect 18 2 9 0; 
#X connect 18 2 11 0; 
#X connect 18 2 8 0; 
#X connect 18 2 10 0; 
#X connect 19 0 23 0; 
#X connect 20 0 21 1; 
#X connect 21 0 25 0; 
#X connect 22 0 25 1; 
#X connect 23 0 24 0; 
#X connect 23 1 31 0; 
#X connect 24 0 34 0; 
#X connect 25 0 26 0; 
#X connect 26 0 44 0; 
#X connect 27 0 28 0; 
#X connect 27 1 29 1; 
#X connect 28 0 43 0; 
#X connect 29 0 2 0; 
#X connect 30 0 29 0; 
#X connect 31 1 4 0; 
#X connect 32 0 38 0; 
#X connect 32 1 41 0; 
#X connect 33 0 36 1; 
#X connect 34 0 21 0; 
#X connect 34 1 22 0; 
#X connect 34 2 36 0; 
#X connect 35 0 33 0; 
#X connect 36 0 37 0; 
#X connect 37 0 40 0; 
#X connect 39 0 0 0; 
#X connect 39 1 3 1; 
#X connect 39 2 35 0; 
#X connect 40 0 38 0; 
#X connect 41 0 1 0; 
#X connect 41 1 40 1; 
#X connect 43 0 30 0; 
#X connect 46 0 27 0; 
#X restore 1189 -7 pd checkArgs; 
#X obj 1189 18 s \$0-attributes; 
#X obj 1043 -29 s \$0-init; 
#X text 1042 -106 Charles Matthews for instrumentmaker.org 2019; 
#X obj 1043 19 r \$0-attributes; 
#X obj 1043 43 route name; 
#N canvas 220 128 450 300 \$0-osc 0; 
#X obj 11 99 s \$0-attributes; 
#X obj 11 39 r im-fromOSC; 
#X obj 11 70 route list; 
#X obj 11 70 route delay; 
#X connect 1 0 2 0; 
#X connect 2 0 3 0; 
#X connect 3 0 0 0; 
#X restore 1043 186 pd \$0-osc; 
#X obj 1043 158 s pd-\$0-osc; 
#X msg 1043 100 clear \, obj 11 99 s \\\$0-attributes \, obj 11 39 
r im-fromOSC \, obj 11 70 route list \, obj 11 70 route \$1 \, connect 
1 0 2 0 \, connect 2 0 3 0 \, connect 3 0 0 0; 
#X obj 1043 67 list prepend symbol; 
#X text 1041 -128 Vanilla attribute management (compatible with older 
Pd versions), f 65; 
#X obj 1043 -56 t b b b b, f 63; 
#X msg 1481 -30 0; 
#X obj 1481 -5 v taken\$0; 
#X obj 1031 393 text define -k \$0-nToI; 
#A set C 0 \; c 0 \; C# 1 \; C♯ 1 \; c# 1 \; c♯ 1 \; Db 1 \; D♭ 
1 \; D 2 \; db 1 \; d♭ 1 \; d 2 \; D# 3 \; D♯ 3 \; d# 3 \; d♯ 
3 \; Eb 3 \; E♭ 3 \; eb 3 \; e♭ 3 \; E 4 \; e 4 \; F 5 \; f 5 \; 
F# 6 \; F♯ 6 \; f# 6 \; f♯ 6 \; Gb 6 \; G♭ 6 \; G 7 \; gb 6 \; 
g♭ 6 \; g 7 \; Ab 8 \; A♭ 8 \; G# 8 \; G♯ 8 \; ab 8 \; a♭ 8 
\; g# 8 \; g♯ 8 \; A 9 \; a 9 \; Bb 10 \; B♭ 10 \; bb 10 \; b♭ 
10 \; A# 10 \; A♯ 10 \; a# 10 \; a♯ 10 \; B 11 \; b 11 \;; 
#X obj 259 174 text search \$0-nToI; 
#X floatatom 259 228 5 0 0 0 - - -; 
#X obj 261 99 symbol; 
#X obj 259 205 text get \$0-nToI 1; 
#X obj 166 72 route float, f 14; 
#X obj 347 423 list store; 
#X obj 667 173 t a a a; 
#X obj 347 392 metro 100; 
#X obj 347 368 loadbang; 
#X obj 259 136 utils.case.flatten; 
#X obj 480 121 list.compare; 
#X obj 485 5 list fromsymbol; 
#X obj 485 30 t b a b, f 12; 
#X obj 480 148 sel 1; 
#X obj 526 91 list split 3; 
#X obj 480 182 v \$1; 
#X obj 797 281 list.compare; 
#X obj 802 165 list fromsymbol; 
#X obj 802 190 t b a b, f 12; 
#X obj 797 308 sel 1; 
#X obj 843 251 list split 3; 
#X obj 801 138 symbol; 
#X obj 797 342 v \$2; 
#X obj 806 574 list.compare; 
#X obj 811 458 list fromsymbol; 
#X obj 811 483 t b a b, f 12; 
#X obj 806 601 sel 1; 
#X obj 804 535 list split 3; 
#X obj 810 412 symbol; 
#X obj 695 442 route float; 
#X obj 670 76 route float; 
#X obj 810 434 route symbol; 
#X msg 883 510 103 101 116; 
#X msg 879 225 103 101 116; 
#X msg 562 65 103 101 116; 
#X obj 635 541 r resetScales; 
#X obj 852 304 r resetScales; 
#X obj 529 148 r resetScales; 
#X obj 806 661 value; 
#X obj 924 528 loadbang; 
#X obj 924 592 route float; 
#X obj 923 556 list store \$3; 
#X obj 640 578 spigot 0; 
#X msg 709 585 1; 
#X obj 807 628 t b b; 
#X obj 328 724 list.compare; 
#X obj 333 608 list fromsymbol; 
#X obj 333 633 t b a b, f 12; 
#X obj 328 751 sel 1; 
#X obj 326 685 list split 3; 
#X obj 332 584 route symbol; 
#X msg 405 660 103 101 116; 
#X obj 157 691 r resetScales; 
#X obj 328 811 value; 
#X obj 446 678 loadbang; 
#X obj 446 742 route float; 
#X obj 162 728 spigot 0; 
#X msg 231 735 1; 
#X obj 329 778 t b b; 
#X obj 445 706 list store \$4; 
#X floatatom 802 722 5 0 0 0 - - -; 
#X connect 0 0 1 0; 
#X connect 1 0 2 0; 
#X connect 2 0 22 0; 
#X connect 3 0 1 1; 
#X connect 4 0 15 0; 
#X connect 5 0 11 0; 
#X connect 6 0 0 0; 
#X connect 8 0 6 1; 
#X connect 9 0 11 1; 
#X connect 10 0 12 0; 
#X connect 11 0 6 0; 
#X connect 12 0 9 0; 
#X connect 13 0 33 0; 
#X connect 14 0 32 0; 
#X connect 15 0 14 0; 
#X connect 16 0 4 0; 
#X connect 16 1 10 0; 
#X connect 17 0 18 0; 
#X connect 18 0 20 0; 
#X connect 18 0 24 0; 
#X connect 19 0 18 0; 
#X connect 20 0 26 0; 
#X connect 21 0 23 0; 
#X connect 22 0 34 0; 
#X connect 23 0 16 0; 
#X connect 24 0 25 0; 
#X connect 25 0 28 0; 
#X connect 26 0 21 0; 
#X connect 27 0 26 1; 
#X connect 27 0 22 1; 
#X connect 28 0 27 0; 
#X connect 29 0 71 0; 
#X connect 31 0 10 1; 
#X connect 32 0 5 0; 
#X connect 33 0 4 1; 
#X connect 33 0 31 0; 
#X connect 39 0 69 0; 
#X connect 40 0 95 0; 
#X connect 41 0 94 0; 
#X connect 42 0 3 0; 
#X connect 42 1 44 0; 
#X connect 42 1 115 0; 
#X connect 43 0 42 0; 
#X connect 44 0 3 0; 
#X connect 46 0 61 0; 
#X connect 48 0 47 0; 
#X connect 49 0 50 0; 
#X connect 50 0 51 0; 
#X connect 54 0 55 0; 
#X connect 55 0 59 0; 
#X connect 58 0 57 0; 
#X connect 59 0 58 0; 
#X connect 61 0 52 0; 
#X connect 61 1 49 0; 
#X connect 61 2 48 0; 
#X connect 61 3 62 0; 
#X connect 62 0 63 0; 
#X connect 65 0 68 0; 
#X connect 66 0 5 1; 
#X connect 67 0 74 0; 
#X connect 67 0 76 0; 
#X connect 68 0 66 0; 
#X connect 69 0 5 1; 
#X connect 69 1 67 0; 
#X connect 71 0 13 0; 
#X connect 71 1 14 1; 
#X connect 71 2 70 1; 
#X connect 72 0 70 0; 
#X connect 73 0 72 0; 
#X connect 74 0 65 0; 
#X connect 75 0 78 0; 
#X connect 76 0 77 0; 
#X connect 77 1 79 0; 
#X connect 77 2 99 0; 
#X connect 78 0 80 0; 
#X connect 79 0 75 0; 
#X connect 80 0 66 0; 
#X connect 81 0 84 0; 
#X connect 82 0 83 0; 
#X connect 83 1 85 0; 
#X connect 83 2 98 0; 
#X connect 84 0 87 0; 
#X connect 85 0 81 0; 
#X connect 86 0 82 0; 
#X connect 87 0 29 0; 
#X connect 88 0 91 0; 
#X connect 89 0 90 0; 
#X connect 90 1 92 0; 
#X connect 90 2 97 0; 
#X connect 91 0 109 0; 
#X connect 92 0 88 0; 
#X connect 93 0 96 0; 
#X connect 94 0 8 0; 
#X connect 94 1 89 0; 
#X connect 94 1 93 0; 
#X connect 95 0 29 0; 
#X connect 95 1 86 0; 
#X connect 95 1 29 0; 
#X connect 96 0 89 0; 
#X connect 97 0 88 1; 
#X connect 98 0 81 1; 
#X connect 99 0 75 1; 
#X connect 100 0 107 0; 
#X connect 101 0 87 0; 
#X connect 102 0 80 0; 
#X connect 103 0 8 0; 
#X connect 103 0 125 0; 
#X connect 104 0 106 0; 
#X connect 105 0 103 1; 
#X connect 105 1 103 1; 
#X connect 106 0 105 0; 
#X connect 107 0 103 0; 
#X connect 108 0 107 1; 
#X connect 109 0 103 0; 
#X connect 109 1 108 0; 
#X connect 110 0 113 0; 
#X connect 111 0 112 0; 
#X connect 112 1 114 0; 
#X connect 112 2 116 0; 
#X connect 113 0 123 0; 
#X connect 114 0 110 0; 
#X connect 115 0 111 0; 
#X connect 116 0 110 1; 
#X connect 117 0 121 0; 
#X connect 118 0 3 0; 
#X connect 119 0 124 0; 
#X connect 120 0 118 1; 
#X connect 120 1 118 1; 
#X connect 121 0 118 0; 
#X connect 122 0 121 1; 
#X connect 123 0 118 0; 
#X connect 123 1 122 0; 
#X connect 124 0 120 0; 
#X coords 0 -1 1 1 15 15 1 0 800; 
 
