#N canvas 412 37 837 561 10;
#X floatatom 211 74 5 0 0 0 - - -;
#X msg 250 74;
#X text 278 75 ..;
#X obj 565 408 cnv 15 250 140 empty empty pd_vanilla 8 14 0 18 -249791
-66577 0;
#X obj 565 318 cnv 15 250 80 empty empty web 8 14 0 18 -245757 -66577
0;
#X obj 564 10 cnv 15 250 300 empty empty related 8 14 0 18 -241659
-66577 0;
#X obj 11 265 cnv 15 545 50 empty empty empty 10 10 0 15 -258042 -131073
0;
#X obj 11 315 cnv 15 545 50 empty empty empty 10 10 0 15 -258043 -131073
0;
#X obj 11 365 cnv 15 545 50 empty empty empty 10 10 0 15 -257981 -131073
0;
#X obj 11 414 cnv 15 545 50 empty empty empty 10 10 0 15 -257981 -131073
0;
#X obj 11 464 cnv 15 545 40 empty empty empty 10 10 0 15 -257983 -131073
0;
#X obj 11 505 cnv 15 545 20 empty empty empty 10 10 0 15 -262144 -131073
0;
#X obj 11 526 cnv 15 545 12 empty empty empty 10 10 0 15 -262144 -131073
0;
#X obj 11 41 cnv 15 545 30 empty empty empty 5 18 0 25 -253376 -66577
0;
#X obj 11 72 cnv 15 545 30 empty empty empty 5 18 0 25 -249023 -66577
0;
#X obj 11 103 cnv 15 545 30 empty empty empty 5 18 0 25 -244604 -66577
0;
#X obj 11 10 cnv 15 545 30 empty empty instrumentmaker.org 5 18 0 25
-261824 -66577 0;
#X obj 15 47 cnv 15 523 20 empty empty empty 10 10 0 13 -1 -99865 -196864;#X obj 15 108 cnv 15 523 20 empty empty empty 10 10 0 13 -1 -99865 -196864;#X obj 15 61 cnv 15 523 47 empty empty midi.note 10 25 0 30 -1 -16777216 0;#X obj 15 47 cnv 15 100 20 empty empty control 10 10 0 13 -257985 -1 0;#X obj 15 108 cnv 15 100 20 empty empty messages 10 10 0 13 -191407 -1 0;#X text 409 18 Charles Matthews 2020;#X text 487 28 0.1.1a.1;#X obj 11 135 cnv 15 545 50 empty empty empty 10 10 0 13 -262130 -655361 0;#X text 16 142 Break out of the instrument maker objects into MIDI. Velocity is set to a static value (127 by default)., f 81;#X obj 11 192 cnv 15 545 20 empty empty Arguments: 10 10 0 13 -203904 -1 0;#X text 105 195 1) velocity (optional) , f 70;#X obj 11 215 cnv 15 545 20 empty empty Inlets: 34 10 0 13 -204800 -1 0;#X text 105 217 1) pitch input 2) velocity (on/off) input , f 70;#X obj 11 239 cnv 15 545 20 empty empty Outlets: 25 10 0 13 -204786 -1 0;#X text 105 241 1) midi pitch value 2) midi velocity , f 70;#X obj 11 265 cnv 15 545 20 empty empty Examples 10 11 0 15 -261682 -1 0;#X obj 570 360 im.help.link https://www.scienceworld.ca/resource/exploring-pitch-and-volume/;#X obj 570 40 im.help.button im.midivelocity;#X obj 570 450 notein;#X obj 570 475 noteout;#X obj 570 500 makenote;#X obj 147 310 im.sensor 1 ;
#X obj 26 309 im.keypress Space ;
#X obj 25 337 im.step 8 ;
#X obj 23 366 im.sequence 0 1 2 3 4 3 2 7 ;
#X obj 20 514 noteout ;
#X obj 21 417 im.midinote ;
#X floatatom 21 178 5 0 0 0 - - - ;
#X obj 148 573 im.sensor 1 ;
#X obj 17 606 im.step 8 ;
#X obj 17 628 im.sequence 0 1 2 3 4 3 2 7 ;
#X obj 16 652 im.scale C dorian 6 ;
#X obj 14 765 noteout ;
#X floatatom 15 471 5 0 0 0 - - - ;
#X obj 21 390 im.scale C phrygian 6 ;
#X obj 97 679 im.keypress m ;
#X obj 18 574 im.keypress m ;
#X floatatom 67 471 5 0 0 0 - - - ;
#X floatatom 39 227 5 0 0 0 - - - ;
#X obj 20 461 makenote 127 500 ;
#X obj 15 710 im.midinote 127 ;
#X obj 219 680 im.sensor 1 ;
#X text 16 535 Version 2: take on/off from the same sensor triggering
the sequence., f 34 ;
#X text 24 258 Version 1: use makenote to generate a velocity/note off.
Useful if generating a scale from a continuous sensor., f 50 ;
#X connect 38 0 40 0 ;
#X connect 39 0 40 0 ;
#X connect 40 0 41 0 ;
#X connect 41 0 51 0 ;
#X connect 43 0 44 0 ;
#X connect 44 0 56 0 ;
#X connect 45 0 46 0 ;
#X connect 46 0 47 0 ;
#X connect 47 0 48 0 ;
#X connect 48 0 57 0 ;
#X connect 50 0 49 0 ;
#X connect 51 0 43 0 ;
#X connect 52 0 57 1 ;
#X connect 53 0 46 0 ;
#X connect 54 0 49 1 ;
#X connect 55 0 42 1 ;
#X connect 56 0 42 0 ;
#X connect 56 1 55 0 ;
#X connect 57 0 50 0 ;
#X connect 57 1 54 0 ;
#X connect 58 0 57 1 ;
 ;