#N canvas 226 361 868 644;
#X obj 31 53 inlet~; 
#X obj 31 85 snapshot~; 
#X obj 84 52 bang~; 
#X obj 31 114 i; 
#X obj 31 144 change; 
#X obj 31 165 abs; 
#X obj 31 227 outlet; 
#X obj 89 122 loadbang; 
#X obj 89 143 \$1; 
#X obj 89 164 sel 0; 
#X msg 89 185 1; 
#X obj 32 194 *; 
#X obj 182 104 inlet; 
#X connect 0 0 1 0; 
#X connect 1 0 3 0; 
#X connect 2 0 1 0; 
#X connect 3 0 4 0; 
#X connect 4 0 5 0; 
#X connect 5 0 11 0; 
#X connect 7 0 8 0; 
#X connect 8 0 9 0; 
#X connect 9 0 10 0; 
#X connect 9 1 11 1; 
#X connect 10 0 11 1; 
#X connect 11 0 6 0; 
#X connect 12 0 8 0; 
#X coords 0 -1 1 1 15 15 1 0 800; 
 
