#N canvas 412 37 837 561 10;
#X floatatom 211 74 5 0 0 0 - - -;
#X msg 250 74;
#X text 278 75 ..;
#X obj 565 408 cnv 15 250 140 empty empty pd_vanilla 8 14 0 18 -249791
-66577 0;
#X obj 565 318 cnv 15 250 80 empty empty web 8 14 0 18 -245757 -66577
0;
#X obj 564 10 cnv 15 250 300 empty empty related 8 14 0 18 -241659
-66577 0;
#X obj 11 265 cnv 15 545 50 empty empty empty 10 10 0 15 -258042 -131073
0;
#X obj 11 315 cnv 15 545 50 empty empty empty 10 10 0 15 -258043 -131073
0;
#X obj 11 365 cnv 15 545 50 empty empty empty 10 10 0 15 -257981 -131073
0;
#X obj 11 414 cnv 15 545 50 empty empty empty 10 10 0 15 -257981 -131073
0;
#X obj 11 464 cnv 15 545 40 empty empty empty 10 10 0 15 -257983 -131073
0;
#X obj 11 505 cnv 15 545 20 empty empty empty 10 10 0 15 -262144 -131073
0;
#X obj 11 526 cnv 15 545 12 empty empty empty 10 10 0 15 -262144 -131073
0;
#X obj 11 41 cnv 15 545 30 empty empty empty 5 18 0 25 -253376 -66577
0;
#X obj 11 72 cnv 15 545 30 empty empty empty 5 18 0 25 -249023 -66577
0;
#X obj 11 103 cnv 15 545 30 empty empty empty 5 18 0 25 -244604 -66577
0;
#X obj 11 10 cnv 15 545 30 empty empty instrumentmaker.org 5 18 0 25
-261824 -66577 0;
#X obj 15 47 cnv 15 523 20 empty empty empty 10 10 0 13 -1 -99865 -196864;#X obj 15 108 cnv 15 523 20 empty empty empty 10 10 0 13 -1 -99865 -196864;#X obj 15 61 cnv 15 523 47 empty empty multiply 10 25 0 30 -1 -16777216 0;#X obj 15 47 cnv 15 100 20 empty empty control 10 10 0 13 -257985 -1 0;#X obj 15 108 cnv 15 100 20 empty empty control 10 10 0 13 -257985 -1 0;#X text 409 18 Charles Matthews 2020;#X text 487 28 0.1.1a.1;#X obj 11 135 cnv 15 545 50 empty empty empty 10 10 0 13 -262130 -655361 0;#X text 16 142 Multiply a signal by another signal or number, either with an argument or with another signal in the right-hand-side., f 81;#X obj 11 192 cnv 15 545 20 empty empty Arguments: 10 10 0 13 -203904 -1 0;#X text 105 195 1) number to mulitply by (also accepts a percentage), , f 70;#X obj 11 215 cnv 15 545 20 empty empty Inlets: 34 10 0 13 -204800 -1 0;#X text 105 217 1) 1 audio signal 2) amount to multiply by , f 70;#X obj 11 239 cnv 15 545 20 empty empty Outlets: 25 10 0 13 -204786 -1 0;#X text 105 241 1) processed signal , f 70;#X obj 11 265 cnv 15 545 20 empty empty Examples 10 11 0 15 -261682 -1 0;#X obj 570 360 im.help.link https://en.wikipedia.org/wiki/Multiplication;#X obj 570 450 *~;#X obj 570 475 *;#X obj 4 610 cnv 15 500 40 empty empty empty 25 10 0 13 -262130 -66577
0 ;
#X text 12 612 im.multiply can be used to amplify different signals
\, and is the same as im.fader and im.volume, f 81 ;
#X obj 19 295 im.scale C major 4 ;
#X obj 19 350 im.multiply ;
#X obj 109 318 im.keypress Space ;
#X obj 19 378 im.speaker ;
#X obj 32 319 im.sensor 2 ;
#X text 4 472 This combination of im.sensor and im.multiply is the
same as:, f 49 ;
#X obj 82 486 im.sensor 1 7 ;
#X obj 18 269 im.multiply 7 ;
#X obj 74 513 im.microphone ;
#X obj 164 515 im.sinewave C 4 ;
#X obj 73 537 im.multiply ;
#X text 105 558 Instant dalek (connect the output of im.multiply to
a speaker), f 27 ;
#X text 96 350 im.multiply can be used like im.volume or im.fader,
f 26 ;
#X connect 38 0 39 0 ;
#X connect 39 0 41 0 ;
#X connect 40 0 39 1 ;
#X connect 42 0 39 1 ;
#X connect 45 0 38 0 ;
#X connect 46 0 48 0 ;
#X connect 47 0 48 1 ;
#X coords 0 -1 1 1 15 15 1 0 800 ;
 ;