#N canvas 226 361 868 644;
#X obj 27 322 dac~, f 24; 
#X obj 26 20 inlet~; 
#X obj 329 12 loadbang; 
#X msg 328 101 \; pd dsp 1; 
#X obj 26 57 clip~ -1 1; 
#X text 327 134 no harm in doing this whenever an output is created 
\, right?; 
#X obj 329 70 spigot; 
#X obj 329 33 t b 1; 
#X obj 185 103 sel 0; 
#X obj 185 59 loadbang; 
#X obj 185 80 \$1; 
#X obj 168 299 *~; 
#X msg 185 124 1; 
#X msg 39 298 set \$1; 
#X connect 1 0 4 0; 
#X connect 2 0 7 0; 
#X connect 4 0 0 0; 
#X connect 4 0 11 0; 
#X connect 6 0 3 0; 
#X connect 7 0 6 0; 
#X connect 7 1 6 1; 
#X connect 8 0 12 0; 
#X connect 8 1 13 0; 
#X connect 9 0 10 0; 
#X connect 10 0 8 0; 
#X connect 11 0 0 1; 
#X connect 12 0 11 1; 
#X connect 13 0 0 0; 
#X coords 0 -1 1 1 15 15 1 0 800; 
 
