#N canvas 226 361 868 644;
#X floatatom 29 63 5 0 0 0 - - -; 
#X floatatom 194 61 5 0 0 0 - - -; 
#X obj 29 37 sigmund~ -hop 4096 pitch env; 
#X floatatom 104 149 5 0 0 0 - - -; 
#X obj 104 177 line~; 
#X obj 105 121 spigot; 
#X obj 195 84 > 50; 
#X obj 29 15 inlet~ mic; 
#X obj 103 203 outlet~ rawPitch; 
#X obj 29 83 moses 0; 
#X connect 0 0 9 0; 
#X connect 1 0 6 0; 
#X connect 2 0 0 0; 
#X connect 2 1 1 0; 
#X connect 3 0 4 0; 
#X connect 4 0 8 0; 
#X connect 5 0 3 0; 
#X connect 6 0 5 1; 
#X connect 7 0 2 0; 
#X connect 9 1 5 0; 
#X coords 0 -1 1 1 15 15 1 0 800; 
 
