#N canvas 226 361 868 644;
#X obj 123 89 change; 
#X obj 124 69 snapshot~; 
#X obj 221 2 bang~; 
#X obj 123 138 sel 1; 
#X obj 123 581 readsf~; 
#X msg 124 495 open \$1 \, 1; 
#X obj 233 624 outlet~; 
#X obj 122 321 +; 
#X obj 150 320 i; 
#X obj 122 346 % 4; 
#X msg 123 288 1; 
#X floatatom 122 371 5 0 0 0 - - -; 
#X obj 123 420 list trim; 
#X obj 122 394 list append, f 21; 
#X obj 180 320 loadbang; 
#X obj 179 363 + 1; 
#X obj 123 443 route 0 1 2 3, f 51; 
#X obj 197 582 readsf~; 
#X msg 198 496 open \$1 \, 1; 
#X obj 273 582 readsf~; 
#X msg 274 496 open \$1 \, 1; 
#X obj 349 581 readsf~; 
#X msg 350 495 open \$1 \, 1; 
#X obj 124 474 symbol; 
#X obj 197 471 symbol; 
#X obj 274 472 symbol; 
#X obj 351 470 symbol; 
#X obj 123 255 t b a, f 21; 
#X msg 442 468 0, f 2; 
#X obj 441 325 change; 
#X obj 441 302 snapshot~; 
#X obj 559 269 bang~; 
#X obj 441 348 sel 1; 
#X obj 441 269 expr~ $v1 > 0.1; 
#X obj 441 240 inlet~ stop; 
#X obj 124 29 expr~ $v1 > 0.1 \; ($v1 < -0.1)*-1; 
#X obj 123 110 abs; 
#X text 210 72 this is a temporary fix for sequencing rather than trigger 
; 
#X obj 882 -106 cnv 15 600 400 empty empty empty 20 12 0 14 -204800 
-66577 0; 
#X obj 891 -50 loadbang; 
#X obj 1183 27 text define \$0-args; 
#X msg 1183 2 clear; 
#N canvas 116 36 1085 705 args 0; 
#X obj 925 203 list fromsymbol; 
#X obj 925 234 list split 1; 
#X obj 925 179 symbol \$1n; 
#X obj 927 260 sel 36; 
#X obj 959 335 list store \$1; 
#X obj 520 491 list store; 
#X obj 825 202 list fromsymbol; 
#X obj 825 233 list split 1; 
#X obj 825 259 sel 36; 
#X obj 859 334 list store \$2; 
#X obj 825 178 symbol \$2n; 
#X obj 225 680 list store; 
#X obj 722 204 list fromsymbol; 
#X obj 722 235 list split 1; 
#X obj 722 261 sel 36; 
#X obj 722 180 symbol \$3n; 
#X obj 756 336 list store \$3; 
#X obj 452 512 list prepend; 
#X obj 612 206 list fromsymbol; 
#X obj 612 237 list split 1; 
#X obj 612 263 sel 36; 
#X obj 505 209 list fromsymbol; 
#X obj 505 240 list split 1; 
#X obj 505 266 sel 36; 
#X obj 404 210 list fromsymbol; 
#X obj 404 241 list split 1; 
#X obj 404 267 sel 36; 
#X obj 453 538 t a a, f 21; 
#X obj 453 564 list length; 
#X obj 453 590 sel 12; 
#X obj 611 182 symbol \$4n; 
#X obj 505 185 symbol \$5n; 
#X obj 404 186 symbol \$6n; 
#X obj 438 342 list store \$6; 
#X obj 539 341 list store \$5; 
#X obj 646 338 list store \$4; 
#X obj 300 212 list fromsymbol; 
#X obj 300 243 list split 1; 
#X obj 300 269 sel 36; 
#X obj 200 211 list fromsymbol; 
#X obj 200 242 list split 1; 
#X obj 200 268 sel 36; 
#X obj 97 213 list fromsymbol; 
#X obj 97 244 list split 1; 
#X obj 97 270 sel 36; 
#X obj -13 215 list fromsymbol; 
#X obj -13 246 list split 1; 
#X obj -13 272 sel 36; 
#X obj -120 218 list fromsymbol; 
#X obj -120 249 list split 1; 
#X obj -120 275 sel 36; 
#X obj -221 219 list fromsymbol; 
#X obj -221 250 list split 1; 
#X obj -221 276 sel 36; 
#X obj -221 195 symbol \$12n; 
#X obj -120 194 symbol \$11n; 
#X obj -14 191 symbol \$10n; 
#X obj 97 189 symbol \$9n; 
#X obj 200 187 symbol \$8n; 
#X obj 300 188 symbol \$7n; 
#X obj -187 364 list store \$12; 
#X obj -86 363 list store \$11; 
#X obj 20 342 list store \$10; 
#X obj 130 349 list store \$9; 
#X obj 234 343 list store \$8; 
#X obj 334 344 list store \$7; 
#X text -217 70 Gather arguments into a list; 
#X text -215 87 Charles Matthews 2019 for instrumentmaker.org; 
#X text -215 104 This is something of a hack.. not how I'd like to 
do it at all \, and for now needs to be included at creation of my 
IM objects (which I do via a script in lieu of a functioning abstraction)..aside 
from forcing a limit on number of arguments \, the way arguments are 
passed in Pd appears that this cannot sit in a separate file/abstraction. 
; 
#X text 499 592 max number args (since this only affects my own abstractions 
at present no need to mess about with generating this dynamically) 
; 
#X obj 224 648 spigot; 
#X msg 1054 304 1; 
#X obj 196 587 t b b; 
#X msg 196 609 0; 
#X obj 958 283 t b b; 
#X obj 858 299 t b b; 
#X obj 755 284 t b b; 
#X obj 645 286 t b b; 
#X obj 538 289 t b b; 
#X obj 437 289 t b b; 
#X obj 333 292 t b b; 
#X obj 233 291 t b b; 
#X obj 130 293 t b b; 
#X obj 20 295 t b b; 
#X obj -87 298 t b b; 
#X obj -176 302 t b b; 
#X obj 226 708 outlet; 
#X obj 924 146 t b b, f 22; 
#X obj 923 119 inlet; 
#X connect 0 0 1 0; 
#X connect 1 0 3 0; 
#X connect 2 0 0 0; 
#X connect 3 0 72 0; 
#X connect 3 1 74 0; 
#X connect 4 0 17 0; 
#X connect 5 0 17 1; 
#X connect 6 0 7 0; 
#X connect 7 0 8 0; 
#X connect 8 0 72 0; 
#X connect 8 1 75 0; 
#X connect 9 0 17 0; 
#X connect 10 0 6 0; 
#X connect 11 0 86 0; 
#X connect 12 0 13 0; 
#X connect 13 0 14 0; 
#X connect 14 0 72 0; 
#X connect 14 1 76 0; 
#X connect 15 0 12 0; 
#X connect 16 0 17 0; 
#X connect 17 0 5 0; 
#X connect 17 0 27 0; 
#X connect 18 0 19 0; 
#X connect 19 0 20 0; 
#X connect 20 0 72 0; 
#X connect 20 1 77 0; 
#X connect 21 0 22 0; 
#X connect 22 0 23 0; 
#X connect 23 0 72 0; 
#X connect 23 1 78 0; 
#X connect 24 0 25 0; 
#X connect 25 0 26 0; 
#X connect 26 0 72 0; 
#X connect 26 1 79 0; 
#X connect 27 0 28 0; 
#X connect 27 1 11 1; 
#X connect 28 0 29 0; 
#X connect 29 0 11 0; 
#X connect 30 0 18 0; 
#X connect 31 0 21 0; 
#X connect 32 0 24 0; 
#X connect 33 0 17 0; 
#X connect 34 0 17 0; 
#X connect 35 0 17 0; 
#X connect 36 0 37 0; 
#X connect 37 0 38 0; 
#X connect 38 0 72 0; 
#X connect 38 1 80 0; 
#X connect 39 0 40 0; 
#X connect 40 0 41 0; 
#X connect 41 0 72 0; 
#X connect 41 1 81 0; 
#X connect 42 0 43 0; 
#X connect 43 0 44 0; 
#X connect 44 0 72 0; 
#X connect 44 1 82 0; 
#X connect 45 0 46 0; 
#X connect 46 0 47 0; 
#X connect 47 0 72 0; 
#X connect 47 1 83 0; 
#X connect 48 0 49 0; 
#X connect 49 0 50 0; 
#X connect 50 0 72 0; 
#X connect 50 1 84 0; 
#X connect 51 0 52 0; 
#X connect 52 0 53 0; 
#X connect 53 0 72 0; 
#X connect 53 1 85 0; 
#X connect 54 0 51 0; 
#X connect 55 0 48 0; 
#X connect 56 0 45 0; 
#X connect 57 0 42 0; 
#X connect 58 0 39 0; 
#X connect 59 0 36 0; 
#X connect 60 0 17 0; 
#X connect 61 0 17 0; 
#X connect 62 0 17 0; 
#X connect 63 0 17 0; 
#X connect 64 0 17 0; 
#X connect 65 0 17 0; 
#X connect 70 0 11 0; 
#X connect 71 0 70 1; 
#X connect 72 0 73 0; 
#X connect 72 1 70 0; 
#X connect 73 0 70 1; 
#X connect 74 0 10 0; 
#X connect 74 1 4 0; 
#X connect 75 0 15 0; 
#X connect 75 1 9 0; 
#X connect 76 0 30 0; 
#X connect 76 1 16 0; 
#X connect 77 0 31 0; 
#X connect 77 1 35 0; 
#X connect 78 0 32 0; 
#X connect 78 1 34 0; 
#X connect 79 0 59 0; 
#X connect 79 1 33 0; 
#X connect 80 0 58 0; 
#X connect 80 1 65 0; 
#X connect 81 0 57 0; 
#X connect 81 1 64 0; 
#X connect 82 0 56 0; 
#X connect 82 1 63 0; 
#X connect 83 0 55 0; 
#X connect 83 1 62 0; 
#X connect 84 0 54 0; 
#X connect 84 1 61 0; 
#X connect 85 0 72 0; 
#X connect 85 1 60 0; 
#X connect 87 0 2 0; 
#X connect 87 1 71 0; 
#X connect 88 0 87 0; 
#X restore 1037 3 pd args; 
#N canvas 461 20 450 300 checkArgs 0; 
#X obj 122 293 list length; 
#X obj 122 232 list fromsymbol; 
#X obj 61 108 list; 
#X obj 222 450 list store; 
#X msg 222 427 get \$1 1; 
#X obj 223 473 sel 58; 
#X obj 195 597 spigot; 
#X obj 315 590 spigot; 
#X obj 194 643 list append; 
#X obj 256 618 list; 
#X obj 315 647 list append; 
#X obj 377 622 list; 
#X obj 225 530 expr $f1 \; 1 - $f1, f 22; 
#X obj 224 505 tgl 15 0 empty empty empty 17 7 0 10 -262144 -1 -1 0 
1; 
#X msg 295 451 0; 
#X obj 225 571 tgl 15 0 empty empty empty 17 7 0 10 -262144 -1 -1 0 
1; 
#X obj 349 563 tgl 15 0 empty empty empty 17 7 0 10 -262144 -1 -1 1 
1; 
#X obj 315 668 list tosymbol; 
#X obj 61 132 t a b b, f 54; 
#X obj 121 325 for --; 
#X obj 196 673 list tosymbol; 
#X obj 138 702 list store; 
#X obj 209 703 list store; 
#X obj 121 356 t f f, f 17; 
#X obj 123 383 sel 0; 
#X obj 139 735 pack s s, f 12; 
#X obj 139 762 list trim; 
#X obj 62 -12 t a a, f 14; 
#X obj 61 12 list length; 
#X obj 61 82 list store; 
#X msg 60 58 get \$1 1; 
#X obj 196 392 t f f; 
#X obj 59 167 route float; 
#X obj 99 512 tgl 15 0 empty empty empty 17 7 0 10 -262144 -1 -1 0 
1; 
#X obj 123 407 t b b b; 
#X msg 252 291 0; 
#X obj 86 533 f; 
#X obj 86 562 sel 0; 
#X obj 42 622 text insert \$0-args; 
#X obj 122 256 t a a b a, f 23; 
#X obj 85 588 list store; 
#X obj 121 206 t a a; 
#X text 7 656 this ends up in reverse order; 
#X obj 60 34 for --; 
#X obj 140 785 outlet; 
#X text 0 673 !!check this - prepend instead?; 
#X obj 61 -37 inlet; 
#X connect 0 0 19 0; 
#X connect 1 0 39 0; 
#X connect 2 0 18 0; 
#X connect 3 0 5 0; 
#X connect 4 0 3 0; 
#X connect 5 0 13 0; 
#X connect 5 0 33 0; 
#X connect 5 1 6 0; 
#X connect 5 1 7 0; 
#X connect 6 0 8 0; 
#X connect 7 0 10 0; 
#X connect 8 0 9 0; 
#X connect 8 0 20 0; 
#X connect 9 0 8 1; 
#X connect 10 0 11 0; 
#X connect 10 0 17 0; 
#X connect 11 0 10 1; 
#X connect 12 0 15 0; 
#X connect 12 1 16 0; 
#X connect 13 0 12 0; 
#X connect 14 0 13 0; 
#X connect 15 0 6 1; 
#X connect 16 0 7 1; 
#X connect 17 0 22 1; 
#X connect 18 0 32 0; 
#X connect 18 1 14 0; 
#X connect 18 2 9 0; 
#X connect 18 2 11 0; 
#X connect 18 2 8 0; 
#X connect 18 2 10 0; 
#X connect 19 0 23 0; 
#X connect 20 0 21 1; 
#X connect 21 0 25 0; 
#X connect 22 0 25 1; 
#X connect 23 0 24 0; 
#X connect 23 1 31 0; 
#X connect 24 0 34 0; 
#X connect 25 0 26 0; 
#X connect 26 0 44 0; 
#X connect 27 0 28 0; 
#X connect 27 1 29 1; 
#X connect 28 0 43 0; 
#X connect 29 0 2 0; 
#X connect 30 0 29 0; 
#X connect 31 1 4 0; 
#X connect 32 0 38 0; 
#X connect 32 1 41 0; 
#X connect 33 0 36 1; 
#X connect 34 0 21 0; 
#X connect 34 1 22 0; 
#X connect 34 2 36 0; 
#X connect 35 0 33 0; 
#X connect 36 0 37 0; 
#X connect 37 0 40 0; 
#X connect 39 0 0 0; 
#X connect 39 1 3 1; 
#X connect 39 2 35 0; 
#X connect 40 0 38 0; 
#X connect 41 0 1 0; 
#X connect 41 1 40 1; 
#X connect 43 0 30 0; 
#X connect 46 0 27 0; 
#X restore 1037 27 pd checkArgs; 
#X obj 1037 52 s \$0-attributes; 
#X obj 891 5 s \$0-init; 
#X text 890 -72 Charles Matthews for instrumentmaker.org 2019; 
#X obj 891 53 r \$0-attributes; 
#X obj 891 77 route name; 
#N canvas 220 128 450 300 \$0-osc 0; 
#X obj 11 99 s \$0-attributes; 
#X obj 11 39 r im-fromOSC; 
#X obj 11 70 route list; 
#X obj 11 70 route delay; 
#X connect 1 0 2 0; 
#X connect 2 0 3 0; 
#X connect 3 0 0 0; 
#X restore 891 220 pd \$0-osc; 
#X obj 891 192 s pd-\$0-osc; 
#X msg 891 134 clear \, obj 11 99 s \\\$0-attributes \, obj 11 39 r 
im-fromOSC \, obj 11 70 route list \, obj 11 70 route \$1 \, connect 
1 0 2 0 \, connect 2 0 3 0 \, connect 3 0 0 0; 
#X obj 891 101 list prepend symbol; 
#X text 889 -94 Vanilla attribute management (compatible with older 
Pd versions), f 65; 
#X obj 891 -22 t b b b b, f 63; 
#X msg 1329 4 0; 
#X obj 1329 29 v taken\$0; 
#X obj 577 187 utils.get.args \$0 2 voices; 
#X obj 214 126 utils.get.args \$0 1 file; 
#X obj 621 430 route; 
#X obj 621 503 spigot; 
#X obj 701 427 f; 
#X msg 342 229 0; 
#X obj 123 178 t b b b b; 
#X msg 305 231 1; 
#X obj 702 466 sel 0; 
#X obj 179 342 f; 
#X obj 123 230 list store; 
#X obj 125 -65 inlet~ fwd 1; 
#X obj 205 -37 route bang; 
#X obj 621 338 r im.mute; 
#X obj 701 505 s im.mute; 
#X obj 701 338 utils.get.args \$0 3 mute; 
#N canvas 154 249 450 495 presets 0; 
#X obj 21 61 sel kick snare bass hihat; 
#X obj 21 26 inlet; 
#X msg 19 110 sounds/bd.wav; 
#X msg 50 144 sounds/sn.wav; 
#X msg 69 177 sounds/ch.wav; 
#X obj 35 456 outlet; 
#X obj 256 141 symbol; 
#X obj 256 165 list fromsymbol; 
#X obj 256 189 list.iter; 
#X obj 196 84 t a a b, f 23; 
#X obj 351 309 tgl 15 0 empty empty empty 17 7 0 10 -262144 -1 -1 1 
1; 
#X obj 258 225 sel 46; 
#X obj 129 342 spigot; 
#X obj 174 300 tgl 15 0 empty empty empty 17 7 0 10 -262144 -1 -1 0 
1; 
#X obj 186 340 spigot; 
#X obj 168 377 makefilename sounds/%s.wav; 
#X msg 258 249 0; 
#X msg 275 286 1; 
#X msg 356 134 1; 
#X msg 391 137 0; 
#X obj 153 404 symbol; 
#X connect 0 0 2 0; 
#X connect 0 1 3 0; 
#X connect 0 2 2 0; 
#X connect 0 3 4 0; 
#X connect 0 4 9 0; 
#X connect 1 0 0 0; 
#X connect 2 0 5 0; 
#X connect 3 0 5 0; 
#X connect 4 0 5 0; 
#X connect 6 0 7 0; 
#X connect 7 0 8 0; 
#X connect 8 0 11 0; 
#X connect 9 0 12 0; 
#X connect 9 0 14 0; 
#X connect 9 1 6 0; 
#X connect 9 2 18 0; 
#X connect 9 2 19 0; 
#X connect 10 0 14 1; 
#X connect 11 0 16 0; 
#X connect 11 0 17 0; 
#X connect 12 0 5 0; 
#X connect 13 0 12 1; 
#X connect 14 0 15 0; 
#X connect 15 0 20 0; 
#X connect 16 0 10 0; 
#X connect 17 0 13 0; 
#X connect 18 0 10 0; 
#X connect 19 0 13 0; 
#X connect 20 0 5 0; 
#X restore 215 162 pd presets; 
#X connect 0 0 36 0; 
#X connect 1 0 0 0; 
#X connect 2 0 1 0; 
#X connect 3 0 63 0; 
#X connect 4 0 6 0; 
#X connect 5 0 4 0; 
#X connect 7 0 8 0; 
#X connect 7 0 9 0; 
#X connect 8 0 7 1; 
#X connect 9 0 11 0; 
#X connect 10 0 7 0; 
#X connect 11 0 13 0; 
#X connect 12 0 16 0; 
#X connect 13 0 12 0; 
#X connect 14 0 66 0; 
#X connect 15 0 9 1; 
#X connect 16 0 23 0; 
#X connect 16 1 24 0; 
#X connect 16 2 25 0; 
#X connect 16 3 26 0; 
#X connect 17 0 6 0; 
#X connect 18 0 17 0; 
#X connect 19 0 6 0; 
#X connect 20 0 19 0; 
#X connect 21 0 6 0; 
#X connect 22 0 21 0; 
#X connect 23 0 5 0; 
#X connect 24 0 18 0; 
#X connect 25 0 20 0; 
#X connect 26 0 22 0; 
#X connect 27 0 10 0; 
#X connect 27 1 13 1; 
#X connect 28 0 4 0; 
#X connect 28 0 21 0; 
#X connect 28 0 19 0; 
#X connect 28 0 17 0; 
#X connect 29 0 32 0; 
#X connect 30 0 29 0; 
#X connect 31 0 30 0; 
#X connect 32 0 28 0; 
#X connect 33 0 30 0; 
#X connect 34 0 33 0; 
#X connect 35 0 1 0; 
#X connect 35 1 1 0; 
#X connect 36 0 3 0; 
#X connect 39 0 54 0; 
#X connect 41 0 40 0; 
#X connect 42 0 43 0; 
#X connect 43 0 44 0; 
#X connect 47 0 48 0; 
#X connect 48 0 52 0; 
#X connect 51 0 50 0; 
#X connect 52 0 51 0; 
#X connect 54 0 45 0; 
#X connect 54 1 42 0; 
#X connect 54 2 41 0; 
#X connect 54 3 55 0; 
#X connect 55 0 56 0; 
#X connect 57 0 66 1; 
#X connect 58 0 73 0; 
#X connect 59 0 60 0; 
#X connect 60 0 28 0; 
#X connect 61 0 65 0; 
#X connect 62 0 60 1; 
#X connect 63 0 64 0; 
#X connect 63 1 67 0; 
#X connect 63 2 61 0; 
#X connect 63 3 62 0; 
#X connect 64 0 60 1; 
#X connect 65 1 71 0; 
#X connect 66 0 15 0; 
#X connect 67 0 27 0; 
#X connect 68 0 35 0; 
#X connect 68 1 69 0; 
#X connect 69 0 63 0; 
#X connect 70 0 59 0; 
#X connect 72 0 59 1; 
#X connect 72 0 61 1; 
#X connect 73 0 67 1; 
#X coords 0 -1 1 1 15 15 1 0 800; 
 
