#N canvas 226 361 868 644;
#X obj 531 276 readsf~; 
#X obj 530 186 list store \$1; 
#X msg 531 249 open \$1 \, 1; 
#X obj 531 307 outlet~; 
#X obj 533 119 change; 
#X obj 533 99 snapshot~; 
#X obj 628 42 bang~; 
#X obj 534 45 inlet~; 
#X obj 533 66 expr~ $v1 > 0.1; 
#X obj 252 310 writesf~; 
#X msg 219 225 open \$1 \, start; 
#X obj 533 145 sel 1 0; 
#X msg 320 225 stop; 
#X obj 5 14 inlet~ mic; 
#X obj 414 30 inlet~ rec; 
#X obj 414 63 snapshot~; 
#X obj 488 34 bang~; 
#X obj 414 84 > 0.1; 
#X obj 414 149 sel 1 0; 
#X obj 412 118 change; 
#X obj 236 194 list store \$1; 
#X connect 0 0 3 0; 
#X connect 1 0 2 0; 
#X connect 2 0 0 0; 
#X connect 4 0 11 0; 
#X connect 5 0 4 0; 
#X connect 6 0 5 0; 
#X connect 7 0 8 0; 
#X connect 8 0 5 0; 
#X connect 10 0 9 0; 
#X connect 11 0 1 0; 
#X connect 12 0 9 0; 
#X connect 13 0 9 0; 
#X connect 14 0 15 0; 
#X connect 15 0 17 0; 
#X connect 16 0 15 0; 
#X connect 17 0 19 0; 
#X connect 18 0 20 0; 
#X connect 18 1 12 0; 
#X connect 19 0 18 0; 
#X connect 20 0 10 0; 
#X coords 0 -1 1 1 15 15 1 0 800; 
 
