#N canvas 226 361 868 644;
#X obj 123 165 samphold~; 
#X obj 122 98 inlet~; 
#X obj 172 97 inlet~; 
#X obj 123 200 outlet~; 
#X connect 0 0 3 0; 
#X connect 1 0 0 0; 
#X connect 2 0 0 1; 
#X coords 0 -1 1 1 15 15 1 0 800; 
 
