#N canvas 412 37 837 561 10;
#X floatatom 211 74 5 0 0 0 - - -;
#X msg 250 74;
#X text 278 75 ..;
#X obj 565 408 cnv 15 250 140 empty empty pd_vanilla 8 14 0 18 -249791
-66577 0;
#X obj 565 318 cnv 15 250 80 empty empty web 8 14 0 18 -245757 -66577
0;
#X obj 564 10 cnv 15 250 300 empty empty related 8 14 0 18 -241659
-66577 0;
#X obj 11 265 cnv 15 545 50 empty empty empty 10 10 0 15 -258042 -131073
0;
#X obj 11 315 cnv 15 545 50 empty empty empty 10 10 0 15 -258043 -131073
0;
#X obj 11 365 cnv 15 545 50 empty empty empty 10 10 0 15 -257981 -131073
0;
#X obj 11 414 cnv 15 545 50 empty empty empty 10 10 0 15 -257981 -131073
0;
#X obj 11 464 cnv 15 545 40 empty empty empty 10 10 0 15 -257983 -131073
0;
#X obj 11 505 cnv 15 545 20 empty empty empty 10 10 0 15 -262144 -131073
0;
#X obj 11 526 cnv 15 545 12 empty empty empty 10 10 0 15 -262144 -131073
0;
#X obj 11 41 cnv 15 545 30 empty empty empty 5 18 0 25 -253376 -66577
0;
#X obj 11 72 cnv 15 545 30 empty empty empty 5 18 0 25 -249023 -66577
0;
#X obj 11 103 cnv 15 545 30 empty empty empty 5 18 0 25 -244604 -66577
0;
#X obj 11 10 cnv 15 545 30 empty empty instrumentmaker.org 5 18 0 25
-261824 -66577 0;
#X obj 15 47 cnv 15 523 20 empty empty empty 10 10 0 13 -1 -99865 -196864;#X obj 15 108 cnv 15 523 20 empty empty empty 10 10 0 13 -1 -99865 -196864;#X obj 15 61 cnv 15 523 47 empty empty sample.player.list 10 25 0 30 -1 -16777216 0;#X obj 15 47 cnv 15 100 20 empty empty audio 10 10 0 13 -4034 -1 0;#X obj 15 108 cnv 15 100 20 empty empty audio 10 10 0 13 -4034 -1 0;#X text 409 18 Charles Matthews 2020;#X text 487 28 0.1.1a.1;#X obj 11 135 cnv 15 545 50 empty empty empty 10 10 0 13 -262130 -655361 0;#X text 16 142 Retrigger a sound file using an "on" signal (ignores "off"). Save the list of files you want to trigger as a text file, and use this as the argument., f 81;#X obj 11 192 cnv 15 545 20 empty empty Arguments: 10 10 0 13 -203904 -1 0;#X text 105 195 1) txt file for playlist 2) number of voices (mono by default), , f 70;#X obj 11 215 cnv 15 545 20 empty empty Inlets: 34 10 0 13 -204800 -1 0;#X text 105 217 1) audio from the file triggered , f 70;#X obj 11 239 cnv 15 545 20 empty empty Outlets: 25 10 0 13 -204786 -1 0;#X text 105 241 1) sound triggered , f 70;#X obj 11 265 cnv 15 545 20 empty empty Examples 10 11 0 15 -261682 -1 0;#X obj 570 450 tabread~;#X obj 570 475 tabwrite~;#X obj 570 500 readsf~;#X obj 570 525 writesf~;#X obj 670 450 tabread4~;#X obj 670 475 text;#X obj 670 500 poly;#X obj 11 270 im.sensor 1 ;
#X obj 132 269 im.keypress Space ;
#X obj 11 358 im.speaker ;
#X obj 11 324 im.player.list plist.txt 4 ;
#X text 28 340 max polyphony is 4 in this version ;
#X obj 7 386 cnv 15 500 80 empty empty empty 25 10 0 13 -262130 -66577
0 ;
#X text 15 388 There is no limit to the number of files you can include
in the .txt file. End each line with a semicolon (see plist.txt as
an example \, but best not to write over it!), f 81 ;
#X text 14 431 In this version the files are played randomly \, but
other methods like round-robin should be possible in the future.,
f 81 ;
#X obj 255 269 im.keypress z ;
#X text 256 294 second inlet stops ;
#X connect 41 0 44 0 ;
#X connect 42 0 44 0 ;
#X connect 44 0 43 0 ;
#X connect 49 0 44 1 ;
 ;