#N canvas 412 37 837 561 10;
#X floatatom 211 74 5 0 0 0 - - -;
#X msg 250 74;
#X text 278 75 ..;
#X obj 565 408 cnv 15 250 140 empty empty pd_vanilla 8 14 0 18 -249791
-66577 0;
#X obj 565 318 cnv 15 250 80 empty empty web 8 14 0 18 -245757 -66577
0;
#X obj 564 10 cnv 15 250 300 empty empty related 8 14 0 18 -241659
-66577 0;
#X obj 11 265 cnv 15 545 50 empty empty empty 10 10 0 15 -258042 -131073
0;
#X obj 11 315 cnv 15 545 50 empty empty empty 10 10 0 15 -258043 -131073
0;
#X obj 11 365 cnv 15 545 50 empty empty empty 10 10 0 15 -257981 -131073
0;
#X obj 11 414 cnv 15 545 50 empty empty empty 10 10 0 15 -257981 -131073
0;
#X obj 11 464 cnv 15 545 40 empty empty empty 10 10 0 15 -257983 -131073
0;
#X obj 11 505 cnv 15 545 20 empty empty empty 10 10 0 15 -262144 -131073
0;
#X obj 11 526 cnv 15 545 12 empty empty empty 10 10 0 15 -262144 -131073
0;
#X obj 11 41 cnv 15 545 30 empty empty empty 5 18 0 25 -253376 -66577
0;
#X obj 11 72 cnv 15 545 30 empty empty empty 5 18 0 25 -249023 -66577
0;
#X obj 11 103 cnv 15 545 30 empty empty empty 5 18 0 25 -244604 -66577
0;
#X obj 11 10 cnv 15 545 30 empty empty instrumentmaker.org 5 18 0 25
-261824 -66577 0;
#X obj 15 47 cnv 15 523 20 empty empty empty 10 10 0 13 -1 -99865 -196864;#X obj 15 108 cnv 15 523 20 empty empty empty 10 10 0 13 -1 -99865 -196864;#X obj 15 61 cnv 15 523 47 empty empty sensor 10 25 0 30 -1 -16777216 0;#X obj 15 108 cnv 15 100 20 empty empty control 10 10 0 13 -257985 -1 0;#X text 409 18 Charles Matthews 2020;#X text 487 28 0.1.1a.1;#X obj 11 135 cnv 15 545 50 empty empty empty 10 10 0 13 -262130 -655361 0;#X text 16 142 Take a sensor reading and output as a value from 0 - 1 This range can be expanded using the second argument -- state the number of intervals you would like to trigger., f 81;#X obj 11 192 cnv 15 545 20 empty empty Arguments: 10 10 0 13 -203904 -1 0;#X text 105 195 1) input number 2) multiplier, , f 70;#X obj 11 215 cnv 15 545 20 empty empty Inlets: 34 10 0 13 -204800 -1 0;#X text 105 217 1) none , f 70;#X obj 11 239 cnv 15 545 20 empty empty Outlets: 25 10 0 13 -204786 -1 0;#X text 105 241 1) audio signal from 0-1 2) signal to record 3) trigger to record, , f 70;#X obj 11 265 cnv 15 545 20 empty empty Examples 10 11 0 15 -261682 -1 0;#X obj 570 360 im.help.link https://en.wikipedia.org/wiki/Sensor;#X obj 570 40 im.help.button im.microphone;#X obj 570 80 im.help.button im.speaker;#X obj 570 120 im.help.button im.fader;#X obj 570 160 im.help.button im.scale;#X obj 570 200 im.help.button im.flip;#X obj 570 450 ctlin;#X obj 570 475 adc~;#X obj 18 341 im.speaker ;
#X obj 18 320 im.fader, f 10 ;
#X obj 18 284 im.noise ;
#X obj 75 284 im.sensor 1 ;
#X obj 16 520 im.speaker ;
#X obj 16 499 im.fader, f 14 ;
#X obj 17 442 im.scale E lydian 3 ;
#X obj 95 463 im.sensor 3 ;
#X obj 17 473 im.sawtooth ;
#X obj 17 410 im.sensor 2 7 ;
#X text 144 400 When combined with scale \, use the second argument
to choose how many pitches to trigger., f 29 ;
#X connect 41 0 40 0 ;
#X connect 42 0 41 0 ;
#X connect 43 0 41 1 ;
#X connect 45 0 44 0 ;
#X connect 46 0 48 0 ;
#X connect 47 0 45 1 ;
#X connect 48 0 45 0 ;
#X connect 49 0 46 0 ;
 ;