#N canvas 226 361 868 644;
#X obj 248 87 inlet~ signal; 
#X obj 247 155 snapshot~; 
#X obj 270 123 bang~; 
#X obj 247 218 spigot; 
#X obj 366 160 expr $f1 \; 1 - $f1; 
#X obj 295 217 spigot; 
#X obj 368 66 list store \$1; 
#X obj 366 114 select change; 
#X msg 366 135 1; 
#X obj 366 21 loadbang; 
#X obj 501 114 0; 
#X obj 246 295 outlet controlData; 
#X obj 295 248 change; 
#X obj 417 214 tgl 15 0 empty empty empty 17 7 0 10 -262144 -1 -1 1 
1; 
#X obj 366 214 tgl 15 0 empty empty empty 17 7 0 10 -262144 -1 -1 0 
1; 
#X obj 366 89 route list; 
#X obj 61 816 cnv 3 4 4 empty \$0-canvas empty 2 7 0 12 -24198 -1 0 
; 
#X obj 181 480 pack s f; 
#X obj 181 383 symbol \$0-canvas; 
#X obj 199 349 t b f; 
#X msg 181 509 \; \$1 vis_size \$2 4; 
#X obj 199 295 * 108; 
#X obj 199 321 expr if ($f1 <= 4 \, 4 \, $f1); 
#X obj 226 445 clip 0 108; 
#X obj 366 42 t b b b, f 44; 
#X msg 626 76 \; pd dsp 1; 
#X connect 0 0 1 0; 
#X connect 1 0 3 0; 
#X connect 1 0 5 0; 
#X connect 2 0 1 0; 
#X connect 3 0 11 0; 
#X connect 3 0 21 0; 
#X connect 4 0 3 1; 
#X connect 4 0 14 0; 
#X connect 4 1 5 1; 
#X connect 4 1 13 0; 
#X connect 5 0 12 0; 
#X connect 6 0 15 0; 
#X connect 7 0 8 0; 
#X connect 8 0 4 0; 
#X connect 9 0 24 0; 
#X connect 10 0 4 0; 
#X connect 12 0 11 0; 
#X connect 12 0 21 0; 
#X connect 15 0 7 0; 
#X connect 17 0 20 0; 
#X connect 18 0 17 0; 
#X connect 19 0 18 0; 
#X connect 19 1 23 0; 
#X connect 21 0 22 0; 
#X connect 22 0 19 0; 
#X connect 23 0 17 1; 
#X connect 24 0 6 0; 
#X connect 24 1 10 0; 
#X connect 24 2 25 0; 
#X coords 0 -1 1 1 112 24 1 60 800; 
 
