#N canvas 412 37 837 561 10;
#X floatatom 211 74 5 0 0 0 - - -;
#X msg 250 74;
#X text 278 75 ..;
#X obj 565 408 cnv 15 250 140 empty empty pd_vanilla 8 14 0 18 -249791
-66577 0;
#X obj 565 318 cnv 15 250 80 empty empty web 8 14 0 18 -245757 -66577
0;
#X obj 564 10 cnv 15 250 300 empty empty related 8 14 0 18 -241659
-66577 0;
#X obj 11 265 cnv 15 545 50 empty empty empty 10 10 0 15 -258042 -131073
0;
#X obj 11 315 cnv 15 545 50 empty empty empty 10 10 0 15 -258043 -131073
0;
#X obj 11 365 cnv 15 545 50 empty empty empty 10 10 0 15 -257981 -131073
0;
#X obj 11 414 cnv 15 545 50 empty empty empty 10 10 0 15 -257981 -131073
0;
#X obj 11 464 cnv 15 545 40 empty empty empty 10 10 0 15 -257983 -131073
0;
#X obj 11 505 cnv 15 545 20 empty empty empty 10 10 0 15 -262144 -131073
0;
#X obj 11 526 cnv 15 545 12 empty empty empty 10 10 0 15 -262144 -131073
0;
#X obj 11 41 cnv 15 545 30 empty empty empty 5 18 0 25 -253376 -66577
0;
#X obj 11 72 cnv 15 545 30 empty empty empty 5 18 0 25 -249023 -66577
0;
#X obj 11 103 cnv 15 545 30 empty empty empty 5 18 0 25 -244604 -66577
0;
#X obj 11 10 cnv 15 545 30 empty empty instrumentmaker.org 5 18 0 25
-261824 -66577 0;
#X obj 15 47 cnv 15 523 20 empty empty empty 10 10 0 13 -1 -99865 -196864;#X obj 15 108 cnv 15 523 20 empty empty empty 10 10 0 13 -1 -99865 -196864;#X obj 15 61 cnv 15 523 47 empty empty sounds.fizzy 10 25 0 30 -1 -16777216 0;#X obj 15 47 cnv 15 100 20 empty empty control 10 10 0 13 -257985 -1 0;#X obj 15 108 cnv 15 100 20 empty empty audio 10 10 0 13 -4034 -1 0;#X text 409 18 Charles Matthews 2020;#X text 487 28 0.1.1a.1;#X obj 11 135 cnv 15 545 50 empty empty empty 10 10 0 13 -262130 -655361 0;#X text 16 142 An 80s style synthesiser. One of a set of complex tone generators included in the Instrument Maker library. Fizzy generates a note when it receives a change in signal at its leftmost inlet., f 81;#X obj 11 192 cnv 15 545 20 empty empty Arguments: 10 10 0 13 -203904 -1 0;#X text 105 195 1) none , f 70;#X obj 11 215 cnv 15 545 20 empty empty Inlets: 34 10 0 13 -204800 -1 0;#X text 105 217 1) pitch from a scale input 2) velocity (0-1) , f 70;#X obj 11 239 cnv 15 545 20 empty empty Outlets: 25 10 0 13 -204786 -1 0;#X text 105 241 1) sounds , f 70;#X obj 11 265 cnv 15 545 20 empty empty Examples 10 11 0 15 -261682 -1 0;#X obj 570 360 im.help.link https://www.attackmagazine.com/features/long-read/the-genesis-of-synthesis/;#X obj 570 40 im.help.button im.sinewave;#X obj 570 80 im.help.button im.tunedperc;#X obj 570 120 im.help.button im.acid;#X obj 570 450 phasor~;#X obj 11 444 im.speaker ;
#X obj 11 393 im.scale F lydian 4 ;
#X obj 11 330 im.sensor 1 7 ;
#X obj 123 354 im.fader ;
#X text 70 417 velocity is optional ;
#X obj 12 624 im.speaker ;
#X obj 11 588 im.fizzy trigger:velocity ;
#X obj 11 419 im.fizzy ;
#X obj 158 559 im.keypress f ;
#X obj 268 329 im.keypress q ;
#X obj 10 558 im.set C 3 ;
#X obj 123 328 im.lfo slow saw 12 ;
#X text 11 284 Use a sensor or press the q key to trigger notes ;
#X obj 16 861 im.speaker ;
#X obj 162 801 im.keypress g ;
#X obj 14 728 im.lfo slow sine 12 ;
#X obj 15 825 im.fizzy trigger:velocity ;
#X obj 14 752 im.scale G# major 3 ;
#X text 11 266 --------------------------------------------------------------------
, f 68 ;
#X text 12 300 --------------------------------------------------------------------
, f 68 ;
#X text 7 489 --------------------------------------------------------------------
, f 68 ;
#X text 8 523 --------------------------------------------------------------------
, f 68 ;
#X text 8 674 --------------------------------------------------------------------
, f 68 ;
#X text 9 708 --------------------------------------------------------------------
, f 68 ;
#X text 11 691 Use trigger:velocity for sample + hold style interaction
 ;
#X text 10 506 Use trigger:velocity to only start notes when velocity
is received, f 69 ;
#X connect 39 0 45 0 ;
#X connect 40 0 39 0 ;
#X connect 41 0 39 0 ;
#X connect 44 0 43 0 ;
#X connect 45 0 38 0 ;
#X connect 46 0 44 1 ;
#X connect 47 0 41 1 ;
#X connect 48 0 44 0 ;
#X connect 49 0 41 0 ;
#X connect 52 0 54 1 ;
#X connect 53 0 55 0 ;
#X connect 54 0 51 0 ;
#X connect 55 0 54 0 ;
 ;