#N canvas 0 22 919 641 10;
#N canvas 0 22 560 664 int 0;
#X obj 102 465 pow;
#X msg 102 423 10;
#X msg 56 278 get \$1 1;
#X obj 61 173 until;
#X obj 57 306 list store;
#X obj 63 202 f;
#X obj 69 230 t f f;
#X obj 100 378 t b f;
#X obj 68 522 *, f 6;
#X obj 240 147 t b b;
#X msg 266 182 0;
#X obj 59 389 - 48;
#X obj 60 101 list length;
#X obj 65 580 +;
#X obj 88 53 t a a b;
#X obj 61 137 t f f;
#X obj 100 203 + 1;
#X msg 151 225 0;
#X obj 59 255 expr $f2 - $f1;
#X obj 141 344 - 1;
#X obj 65 542 t f f;
#X obj 102 579 f;
#X obj 88 24 inlet;
#X obj 69 614 outlet;
#X obj 42 334 route 194;
#X connect 0 0 8 1;
#X connect 1 0 0 0;
#X connect 2 0 4 0;
#X connect 3 0 5 0;
#X connect 4 0 24 0;
#X connect 5 0 16 0;
#X connect 6 0 18 0;
#X connect 6 1 19 0;
#X connect 7 0 1 0;
#X connect 7 1 0 1;
#X connect 8 0 20 0;
#X connect 9 0 17 0;
#X connect 9 1 10 0;
#X connect 10 0 21 0;
#X connect 11 0 8 0;
#X connect 12 0 15 0;
#X connect 13 0 21 0;
#X connect 13 0 23 0;
#X connect 14 0 12 0;
#X connect 14 1 4 1;
#X connect 14 2 9 0;
#X connect 15 0 3 0;
#X connect 15 1 18 1;
#X connect 16 0 5 1;
#X connect 16 0 6 0;
#X connect 17 0 5 1;
#X connect 18 0 2 0;
#X connect 19 0 7 0;
#X connect 20 0 13 0;
#X connect 21 0 13 1;
#X connect 22 0 14 0;
#X connect 24 1 11 0;
#X restore 63 222 pd int;
#X floatatom 61 253 5 0 0 0 - - -;
#X floatatom 141 251 5 0 0 0 - - -;
#N canvas 720 50 560 723 after. 0;
#X obj 206 477 pow;
#X msg 206 435 10;
#X msg 59 370 get \$1 1;
#X obj 44 208 until;
#X obj 58 395 list store;
#X obj 44 236 f;
#X obj 204 390 t b f;
#X obj 68 522 *, f 6;
#X obj 59 430 - 48;
#X obj 61 136 list length;
#X obj 65 580 +;
#X obj 60 99 t a a b;
#X obj 71 297 + 1;
#X obj 51 318 expr $f2 - $f1;
#X obj 65 542 t f f;
#X obj 102 579 f;
#X obj 58 39 inlet;
#X obj 118 668 outlet;
#X floatatom 200 528 5 0 0 0 - - -;
#X obj 52 161 t f f f;
#N canvas 0 22 450 300 allow0 0;
#X obj 170 18 inlet;
#X obj 237 270 outlet;
#X obj 198 211 spigot;
#X obj 215 124 t b f;
#X msg 211 153 1;
#X floatatom 238 238 5 0 0 0 - - -;
#X floatatom 175 69 5 0 0 0 - - -;
#X obj 178 95 sel 0;
#X msg 178 132 0;
#X obj 262 33 inlet;
#X connect 0 0 6 0;
#X connect 2 0 5 0;
#X connect 3 0 4 0;
#X connect 3 1 5 0;
#X connect 4 0 2 1;
#X connect 5 0 1 0;
#X connect 6 0 7 0;
#X connect 7 0 8 0;
#X connect 7 1 3 0;
#X connect 8 0 2 0;
#X connect 9 0 2 1;
#X restore 61 457 pd allow0;
#X obj 229 316 f;
#X obj 261 315 + 1;
#X obj 67 489 t f b;
#X obj 118 640 /;
#X obj 50 185 + 1;
#X obj 202 273 t b b;
#X obj 117 616 f;
#X obj 51 266 sel;
#X msg 135 135 0;
#X obj 140 164 t f f f f f, f 44;
#X obj 215 345 - 0;
#X msg 18 102 0;
#X obj 30 69 route 48;
#X connect 0 0 7 1;
#X connect 0 0 18 0;
#X connect 1 0 0 0;
#X connect 2 0 4 0;
#X connect 3 0 5 0;
#X connect 4 0 8 0;
#X connect 5 0 28 0;
#X connect 6 0 1 0;
#X connect 6 1 0 1;
#X connect 7 0 14 0;
#X connect 8 0 20 0;
#X connect 9 0 19 0;
#X connect 10 0 15 0;
#X connect 10 0 27 1;
#X connect 11 0 9 0;
#X connect 11 1 4 1;
#X connect 11 2 29 0;
#X connect 12 0 5 1;
#X connect 12 0 13 0;
#X connect 13 0 2 0;
#X connect 14 0 10 0;
#X connect 15 0 10 1;
#X connect 16 0 33 0;
#X connect 18 0 24 1;
#X connect 19 0 25 0;
#X connect 19 1 28 1;
#X connect 19 2 13 1;
#X connect 20 0 23 0;
#X connect 21 0 22 0;
#X connect 21 0 31 0;
#X connect 22 0 21 1;
#X connect 23 0 7 0;
#X connect 23 1 21 0;
#X connect 24 0 17 0;
#X connect 25 0 3 0;
#X connect 26 0 27 0;
#X connect 26 1 21 0;
#X connect 27 0 24 0;
#X connect 28 0 26 0;
#X connect 28 0 3 1;
#X connect 28 1 12 0;
#X connect 29 0 30 0;
#X connect 30 0 5 1;
#X connect 30 1 15 0;
#X connect 30 2 20 1;
#X connect 30 3 21 1;
#X connect 30 4 24 0;
#X connect 31 0 6 0;
#X connect 32 0 17 0;
#X connect 33 0 32 0;
#X connect 33 1 11 0;
#X restore 140 220 pd after.;
#N canvas 433 49 506 631 checkpoint 0;
#X obj 116 76 list length;
#X obj 117 149 until;
#X obj 130 295 list store;
#X msg 195 118 0;
#X obj 116 196 f;
#X obj 172 193 + 1;
#X msg 130 272 get \$1 1;
#X obj 130 326 sel 46;
#X obj 131 246 t f f, f 12;
#X obj 130 384 f, f 13;
#X obj 128 462 list split, f 20;
#X obj 130 431 list store, f 21;
#X obj 188 480 list split 1;
#X obj 130 353 t b b;
#X obj 117 96 t f f;
#X obj 105 220 sel;
#X obj 119 124 + 1;
#X obj 130 403 t b f, f 16;
#X obj 222 523 outlet after;
#X obj 122 524 outlet before;
#X obj 114 14 inlet;
#X obj 270 432 list store, f 21;
#X obj 116 44 t a a b a a, f 20;
#X connect 0 0 14 0;
#X connect 1 0 4 0;
#X connect 2 0 7 0;
#X connect 3 0 4 1;
#X connect 4 0 5 0;
#X connect 4 0 15 0;
#X connect 5 0 4 1;
#X connect 6 0 2 0;
#X connect 7 0 13 0;
#X connect 8 0 6 0;
#X connect 8 1 9 1;
#X connect 9 0 17 0;
#X connect 10 0 19 0;
#X connect 10 1 12 0;
#X connect 11 0 10 0;
#X connect 12 1 18 0;
#X connect 13 0 9 0;
#X connect 13 1 1 1;
#X connect 14 0 16 0;
#X connect 14 1 15 1;
#X connect 15 0 21 0;
#X connect 15 1 8 0;
#X connect 16 0 1 0;
#X connect 17 0 11 0;
#X connect 17 1 10 1;
#X connect 20 0 22 0;
#X connect 21 0 19 0;
#X connect 22 0 0 0;
#X connect 22 1 2 1;
#X connect 22 2 3 0;
#X connect 22 3 11 1;
#X connect 22 4 21 1;
#X restore 50 190 pd checkpoint;
#X obj 48 55 list fromsymbol;
#X floatatom 61 300 5 0 0 0 - - -;
#X obj 61 277 +;
#X msg 184 186 0;
#X obj 47 28 inlet;
#X obj 47 392 outlet;
#X obj 49 85 route 45;
#X text 122 323 charles matthews 2019;
#X obj 95 112 t a b;
#X obj 49 112 t a b;
#X msg 75 133 -1;
#X msg 122 134 1;
#X obj 60 331 * 0;
#X text 123 336 structure from liamg's post \, rewritten to accomodate
floats https://forum.pdpatchrepo.info/topic/9986/trying-to-route-or-select-a-symbol-that-looks-like-an-integer/5
;
#X obj 47 363 f;
#X obj 49 162 t b a b, f 23;
#X connect 0 0 1 0;
#X connect 1 0 7 0;
#X connect 2 0 7 1;
#X connect 3 0 2 0;
#X connect 4 0 0 0;
#X connect 4 1 3 0;
#X connect 5 0 11 0;
#X connect 6 0 17 0;
#X connect 7 0 6 0;
#X connect 8 0 7 1;
#X connect 9 0 5 0;
#X connect 11 0 14 0;
#X connect 11 1 13 0;
#X connect 13 0 20 0;
#X connect 13 1 16 0;
#X connect 14 0 20 0;
#X connect 14 1 15 0;
#X connect 15 0 17 1;
#X connect 16 0 17 1;
#X connect 17 0 19 1;
#X connect 19 0 10 0;
#X connect 20 0 19 0;
#X connect 20 1 4 0;
#X connect 20 2 8 0;
