#N canvas 226 361 868 644;
#X obj 55 110 change; 
#X obj 55 90 snapshot~; 
#X obj 150 33 bang~; 
#X obj 55 140 sel 1; 
#X obj 56 36 inlet~; 
#X obj 55 57 expr~ $v1 > 0.1; 
#X obj 54 277 +; 
#X obj 82 276 i; 
#X obj 114 182 loadbang; 
#X obj 39 589 outlet~; 
#X obj 40 565 sig~; 
#X obj 40 511 % 8; 
#X obj 114 203 f \$1; 
#X obj 201 24 loadbang; 
#X obj 198 45 list store \$2; 
#X obj 56 182 spigot 1; 
#X obj 180 185 spigot 0; 
#X obj 201 87 t b b, f 6; 
#X msg 231 113 1; 
#X msg 201 113 0; 
#X obj 114 224 sel 0; 
#X msg 113 243 8; 
#X obj 39 540 / 8; 
#X obj 146 299 random; 
#X obj 184 277 / 2, f 4; 
#X obj 146 277 t b b; 
#X obj 217 320 expr $f1 \; 1 - $f1, f 12; 
#X obj 217 297 tgl 15 0 empty empty empty 17 7 0 10 -262144 -1 -1 0 
1; 
#X obj 144 358 spigot 0; 
#X obj 242 360 spigot 1; 
#X obj 338 468 * 2; 
#X floatatom 196 530 5 0 0 0 - - -; 
#X floatatom 338 517 5 0 0 0 - - -; 
#X obj 243 383 sel 0, f 11; 
#X obj 143 424 * 2; 
#X obj 144 383 sel 0; 
#X msg 132 403 1; 
#X obj 143 445 - 2; 
#X msg 337 442 1, f 4; 
#X obj 339 490 + 1; 
#X obj 352 415 sel 0 1; 
#X obj 352 393 tgl 15 0 empty empty empty 17 7 0 10 -262144 -1 -1 0 
1; 
#X msg 372 442 1; 
#X obj 123 528 sel 0 1; 
#X obj 137 501 tgl 15 0 empty empty empty 17 7 0 10 -262144 -1 -1 0 
1; 
#X msg 143 555 6; 
#X obj 201 66 sel random down; 
#X msg 56 226 1; 
#X connect 0 0 3 0; 
#X connect 1 0 0 0; 
#X connect 2 0 1 0; 
#X connect 3 0 15 0; 
#X connect 3 0 16 0; 
#X connect 4 0 5 0; 
#X connect 5 0 1 0; 
#X connect 6 0 7 0; 
#X connect 6 0 11 0; 
#X connect 7 0 6 1; 
#X connect 8 0 12 0; 
#X connect 10 0 9 0; 
#X connect 11 0 22 0; 
#X connect 12 0 20 0; 
#X connect 13 0 14 0; 
#X connect 14 0 46 0; 
#X connect 15 0 47 0; 
#X connect 16 0 25 0; 
#X connect 17 0 19 0; 
#X connect 17 1 18 0; 
#X connect 18 0 16 1; 
#X connect 19 0 15 1; 
#X connect 20 0 21 0; 
#X connect 20 1 11 1; 
#X connect 20 1 22 1; 
#X connect 20 1 24 0; 
#X connect 21 0 22 1; 
#X connect 21 0 24 0; 
#X connect 22 0 10 0; 
#X connect 23 0 28 0; 
#X connect 23 0 29 0; 
#X connect 24 0 23 1; 
#X connect 25 0 23 0; 
#X connect 25 1 27 0; 
#X connect 26 0 28 1; 
#X connect 26 1 29 1; 
#X connect 27 0 26 0; 
#X connect 28 0 11 0; 
#X connect 28 0 35 0; 
#X connect 29 0 33 0; 
#X connect 30 0 39 0; 
#X connect 33 0 41 0; 
#X connect 33 1 30 0; 
#X connect 34 0 37 0; 
#X connect 35 0 44 0; 
#X connect 35 1 34 0; 
#X connect 36 0 34 0; 
#X connect 37 0 31 0; 
#X connect 37 0 11 0; 
#X connect 38 0 30 0; 
#X connect 39 0 11 0; 
#X connect 39 0 32 0; 
#X connect 40 0 38 0; 
#X connect 40 1 42 0; 
#X connect 41 0 40 0; 
#X connect 42 0 11 0; 
#X connect 42 0 32 0; 
#X connect 43 0 36 0; 
#X connect 43 1 45 0; 
#X connect 44 0 43 0; 
#X connect 45 0 11 0; 
#X connect 45 0 31 0; 
#X connect 46 0 17 0; 
#X connect 47 0 6 0; 
#X coords 0 -1 1 1 15 15 1 0 800; 
 
