#N canvas 0 23 896 546 12;
#X obj 271 176 list fromsymbol;
#X obj 271 153 symbol \$1;
#X obj 270 207 list.iter;
#X obj 270 232 t f f, f 8;
#X obj 269 293 ||, f 8;
#X obj 269 266 < 46;
#X obj 323 265 > 57;
#X obj 269 317 sel 1;
#X obj 269 341 t b b;
#X obj 239 127 t a a;
#X obj 158 355 spigot 1;
#X obj 228 395 spigot 0;
#X msg 269 365 0;
#X msg 301 365 1;
#X obj 161 421 stof;
#X obj 161 394 symbol;
#X obj 238 68 inlet not sure if symbol or float;
#X obj 162 469 outlet labelled for pd;
#X connect 0 0 2 0;
#X connect 1 0 0 0;
#X connect 2 0 3 0;
#X connect 3 0 5 0;
#X connect 3 1 6 0;
#X connect 4 0 7 0;
#X connect 5 0 4 0;
#X connect 6 0 4 1;
#X connect 7 0 8 0;
#X connect 8 0 12 0;
#X connect 8 1 13 0;
#X connect 9 0 10 0;
#X connect 9 0 11 0;
#X connect 9 1 1 0;
#X connect 10 0 15 0;
#X connect 11 0 17 0;
#X connect 12 0 10 1;
#X connect 13 0 11 1;
#X connect 14 0 17 0;
#X connect 15 0 14 0;
#X connect 16 0 9 0;
