#N canvas 0 73 1023 541 12;
#X obj 162 383 route bang;
#X obj 315 648 outlet;
#X obj 162 358 text get \$1-args;
#X obj 162 -1 r \$1-init;
#X obj 815 281 list store \$3;
#X obj 492 405 list.compare, f 47;
#X obj 493 377 list fromsymbol;
#X obj 815 370 list fromsymbol;
#X obj 815 305 symbol;
#X obj 458 66 r \$1-attributes;
#X obj 492 317 symbol, f 7;
#X obj 343 430 spigot, f 21;
#X msg 340 284 \$2;
#X obj 458 124 list;
#X msg 492 291 \$1;
#X text 199 239 start at 1 for continuity with help;
#X text 675 57 charles matthews 2020;
#X floatatom 297 107 5 0 0 0 - - -;
#X obj 392 565 v taken\$1;
#X obj 458 147 t a a b b, f 31;
#X obj 392 593 s \$1-taken;
#X obj 162 308 clip 0 999;
#X floatatom 162 272 5 0 0 0 - - -;
#X obj 297 133 t b f;
#X obj 228 591 spigot 1;
#X obj 343 491 t a b b b, f 17;
#X msg 280 569 0;
#X floatatom 162 333 5 0 0 0 - - -;
#X msg 547 290 test;
#X text 809 611 print with \$3 for testing;
#X obj 482 674 bng 15 250 50 0 empty empty empty 17 7 0 10 -262144
-1 -1;
#X obj 511 125 bng 15 250 50 0 empty empty empty 17 7 0 10 -262144
-1 -1;
#X obj 458 94 t a a;
#X obj 297 80 v taken\$1;
#X obj 162 127 t f b;
#X obj 162 50 \$2;
#X obj 161 204 f;
#X floatatom 161 155 5 0 0 0 - - -;
#X obj 162 101 - 1;
#X obj 162 238 -;
#X floatatom 162 75 5 0 0 0 - - -;
#X obj 482 647 spigot 1;
#X obj 480 593 t b b;
#X msg 534 621 0;
#X obj 161 24 t b b;
#X obj 482 695 expr taken\$1 = taken\$1 + 1;
#X obj 343 461 utils.lost.type;
#X obj 815 334 utils.case.flatten;
#X obj 493 345 utils.case.flatten;
#X text 674 40 instrumentmaker.org parameter/argument handling;
#X connect 0 1 24 0;
#X connect 2 0 0 0;
#X connect 3 0 44 0;
#X connect 4 0 8 0;
#X connect 5 0 11 1;
#X connect 6 0 5 0;
#X connect 7 0 5 1;
#X connect 8 0 47 0;
#X connect 9 0 32 0;
#X connect 10 0 48 0;
#X connect 11 0 46 0;
#X connect 12 0 11 0;
#X connect 13 0 19 0;
#X connect 14 0 10 0;
#X connect 17 0 23 0;
#X connect 18 0 20 0;
#X connect 19 0 12 0;
#X connect 19 1 14 0;
#X connect 19 3 4 0;
#X connect 21 0 27 0;
#X connect 22 0 21 0;
#X connect 23 1 39 1;
#X connect 24 0 1 0;
#X connect 25 0 1 0;
#X connect 25 1 18 0;
#X connect 25 2 42 0;
#X connect 25 3 26 0;
#X connect 26 0 24 1;
#X connect 27 0 2 0;
#X connect 28 0 10 0;
#X connect 30 0 45 0;
#X connect 31 0 13 0;
#X connect 32 0 13 1;
#X connect 32 1 13 0;
#X connect 33 0 17 0;
#X connect 34 0 37 0;
#X connect 35 0 40 0;
#X connect 36 0 39 0;
#X connect 37 0 36 0;
#X connect 38 0 34 0;
#X connect 39 0 22 0;
#X connect 40 0 38 0;
#X connect 41 0 30 0;
#X connect 42 0 43 0;
#X connect 42 1 41 0;
#X connect 43 0 41 1;
#X connect 44 0 35 0;
#X connect 44 1 33 0;
#X connect 46 0 25 0;
#X connect 47 0 7 0;
#X connect 48 0 6 0;
