#N canvas 0 23 989 612 12;
#X obj 132 159 list fromsymbol;
#X obj 173 437 list tosymbol;
#X obj 177 309 expr if (($f1 >= 65) && ($f1 <= 122) \, ($f1 % 32 +
96) \, 0);
#X obj 175 222 list.iter;
#X obj 163 120 t a b;
#X obj 151 400 list store;
#X obj 134 190 t b a;
#X obj 284 351 list;
#X obj 176 351 list prepend;
#X obj 175 252 sel 46;
#X obj 163 91 inlet symbol to flatten;
#X text 18 17 flattens dots and strips the case of an incoming symbol
(e.g. a parameter name), f 81;
#X text 19 41 charles matthews 2020;
#X obj 174 470 outlet flattened and stripped;
#X msg 247 276 37;
#X obj 247 252 sel 37 186, f 13;
#X msg 290 276 186;
#X connect 0 0 6 0;
#X connect 1 0 13 0;
#X connect 2 0 8 0;
#X connect 3 0 9 0;
#X connect 3 0 15 0;
#X connect 4 0 0 0;
#X connect 4 1 8 1;
#X connect 5 0 1 0;
#X connect 6 0 5 0;
#X connect 6 1 3 0;
#X connect 7 0 8 1;
#X connect 8 0 5 1;
#X connect 8 0 7 0;
#X connect 9 1 2 0;
#X connect 10 0 4 0;
#X connect 14 0 8 0;
#X connect 15 0 14 0;
#X connect 15 1 16 0;
#X connect 16 0 8 0;
