#N canvas 420 95 740 611 12;
#X obj 196 123 list fromsymbol;
#X obj 123 3 inlet value to check and strip;
#X obj 123 53 route float;
#X obj 123 28 symbol;
#X obj 197 87 t a a, f 36;
#X obj 219 405 v, f 5;
#X obj 196 283 sel 1;
#X obj 196 309 symbol, f 36;
#X obj 219 432 outlet;
#X obj 196 337 t b b s, f 8;
#X msg 196 362 1;
#X obj 102 245 loadbang;
#X msg 102 269 0;
#X obj 114 337 metro 30;
#X obj 106 303 tgl 15 0 empty empty empty 17 7 0 10 -262144 -1 -1 1
1;
#X text 13 474 previously bang and switch temporarily moving this back
to metro for stability;
#X obj 554 263 key;
#X floatatom 554 287 5 0 0 0 - - -;
#X text 230 214 first three chars are letters?;
#X obj 196 239 expr ($f1 >= 65) && ($f1 <= 122) && ($f1 >= 65) && ($f1
<= 122) && ($f1 >= 65) && ($f1 <= 122);
#X connect 0 0 19 0;
#X connect 1 0 3 0;
#X connect 2 1 4 0;
#X connect 3 0 2 0;
#X connect 4 0 0 0;
#X connect 4 1 7 1;
#X connect 5 0 8 0;
#X connect 6 0 7 0;
#X connect 7 0 9 0;
#X connect 9 0 10 0;
#X connect 9 1 5 0;
#X connect 9 2 5 1;
#X connect 10 0 14 0;
#X connect 11 0 12 0;
#X connect 12 0 14 0;
#X connect 13 0 5 0;
#X connect 14 0 13 0;
#X connect 16 0 17 0;
#X connect 19 0 6 0;
