#N canvas 60 90 640 570 10;
#X obj 232 16 im.mobile;
#X obj 17 50 im.input /mySlider octaves 2;
#X obj 132 74 im.input /myToggle;
#X obj 17 74 im.scale A minor 5;
#X obj 18 107 im.warm;
#X obj 18 137 im.output;
#X connect 1 0 3 0;
#X connect 2 0 4 1;
#X connect 3 0 4 0;
#X connect 4 0 5 0;
