#N canvas 519 165 611 549 10;
#X obj 12 231 list tosymbol;
#X obj 110 120 list;
#X obj 81 78 t b b b;
#X obj 15 75 t b b;
#X obj 12 178 list store;
#X obj 48 145 list prepend;
#X obj 52 436 stof;
#X obj 19 52 sel 13 10;
#X obj 21 -16 comport 1 9600;
#X obj 13 205 list trim;
#X obj 20 11 t f f, f 31;
#X obj 13 256 list prepend digital;
#X obj 14 287 list split 1;
#X text 216 -17 temporary version to accommodate microbit;
#X obj 166 311 print hi;
#X obj 139 380 r arduino;
#X floatatom 141 411 5 0 0 0 - - -;
#X floatatom 137 340 5 0 0 0 - - -;
#X obj 205 468 print t;
#X floatatom 12 393 5 0 0 0 - - -;
#X obj 44 345 list split 1;
#X obj 114 436 stof;
#X obj 115 461 s arduino;
#X obj 269 471 print 2;
#X obj 46 315 list trim;
#X obj 165 270 list split 1;
#N canvas 433 49 506 631 checkpoint 0;
#X obj 116 76 list length;
#X obj 117 149 until;
#X obj 130 295 list store;
#X msg 195 118 0;
#X obj 116 196 f;
#X obj 172 193 + 1;
#X msg 130 272 get \$1 1;
#X obj 131 246 t f f, f 12;
#X obj 130 384 f, f 13;
#X obj 128 462 list split, f 20;
#X obj 130 431 list store, f 21;
#X obj 188 480 list split 1;
#X obj 130 353 t b b;
#X obj 117 96 t f f;
#X obj 105 220 sel;
#X obj 119 124 + 1;
#X obj 130 403 t b f, f 16;
#X obj 222 523 outlet after;
#X obj 122 524 outlet before;
#X obj 114 14 inlet;
#X obj 270 432 list store, f 21;
#X obj 116 44 t a a b a a, f 20;
#X obj 130 326 sel 32;
#X connect 0 0 13 0;
#X connect 1 0 4 0;
#X connect 2 0 22 0;
#X connect 3 0 4 1;
#X connect 4 0 5 0;
#X connect 4 0 14 0;
#X connect 5 0 4 1;
#X connect 6 0 2 0;
#X connect 7 0 6 0;
#X connect 7 1 8 1;
#X connect 8 0 16 0;
#X connect 9 0 18 0;
#X connect 9 1 11 0;
#X connect 10 0 9 0;
#X connect 11 1 17 0;
#X connect 12 0 8 0;
#X connect 12 1 1 1;
#X connect 13 0 15 0;
#X connect 13 1 14 1;
#X connect 14 0 20 0;
#X connect 14 1 7 0;
#X connect 15 0 1 0;
#X connect 16 0 10 0;
#X connect 16 1 9 1;
#X connect 19 0 21 0;
#X connect 20 0 18 0;
#X connect 21 0 0 0;
#X connect 21 1 2 1;
#X connect 21 2 3 0;
#X connect 21 3 10 1;
#X connect 21 4 20 1;
#X connect 22 0 12 0;
#X restore 331 282 pd checkpoint;
#X floatatom 329 316 5 0 0 0 - - -;
#X floatatom 406 316 5 0 0 0 - - -;
#X obj 328 355 - 48;
#X obj 411 356 - 48;
#X floatatom 331 386 5 0 0 0 - - -;
#X floatatom 409 388 5 0 0 0 - - -;
#X obj 335 418 pack f f;
#X text 282 494 quick fix for buttons - this symbol business is a pain..
;
#X msg 119 -11 open 2;
#X obj 334 456 s micro;
#X obj 174 -12 r arduino;
#X obj 394 459 print micro;
#X connect 0 0 11 0;
#X connect 1 0 5 1;
#X connect 2 0 5 1;
#X connect 2 1 5 0;
#X connect 2 2 1 1;
#X connect 3 0 4 0;
#X connect 3 1 2 0;
#X connect 4 0 9 0;
#X connect 4 0 26 0;
#X connect 5 0 1 0;
#X connect 5 0 4 1;
#X connect 6 0 18 0;
#X connect 7 0 3 0;
#X connect 7 1 3 0;
#X connect 7 2 5 0;
#X connect 8 0 10 0;
#X connect 9 0 0 0;
#X connect 10 0 7 0;
#X connect 11 0 12 0;
#X connect 12 1 24 0;
#X connect 15 0 16 0;
#X connect 19 0 6 0;
#X connect 20 0 6 0;
#X connect 20 1 21 0;
#X connect 21 0 22 0;
#X connect 21 0 23 0;
#X connect 25 1 14 0;
#X connect 26 0 27 0;
#X connect 26 1 28 0;
#X connect 27 0 29 0;
#X connect 28 0 30 0;
#X connect 29 0 31 0;
#X connect 30 0 32 0;
#X connect 31 0 33 0;
#X connect 32 0 33 1;
#X connect 33 0 36 0;
#X connect 33 0 38 0;
#X connect 35 0 8 0;
#X connect 37 0 10 0;
