#N canvas 261 167 1176 669 10;
#X obj 35 66 im.sinewave;
#X obj 161 406 im.output;
#X obj 35 114 im.volume;
#X obj 440 239 im.echo 100 50%;
#X obj 440 213 *~ 0.2;
#X obj 35 43 im.set E 5;
#X obj 126 232 snapshot~;
#X obj 131 185 metro 100;
#X obj 128 131 loadbang;
#X obj 125 275 print;
#X obj 86 88 im.input 2;
#X connect 0 0 2 0;
#X connect 2 0 1 0;
#X connect 2 0 4 0;
#X connect 3 0 1 0;
#X connect 4 0 3 0;
#X connect 5 0 0 0;
#X connect 6 0 9 0;
#X connect 7 0 6 0;
#X connect 8 0 7 0;
#X connect 10 0 2 1;
#X connect 10 0 6 0;
