#N canvas 39 132 525 493 10;
#X obj 18 160 im.speaker;
#X obj 17 22 im.microphone;
#X obj 17 43 im.audiotrigger;
#X obj 18 67 im.step 8;
#X obj 18 135 im.tunedperc;
#X obj 18 114 im.scale C dorian 6;
#X obj 18 90 im.sequence 7 6 5 2 3 4 5 6 random;
#X connect 1 0 2 0;
#X connect 2 0 3 0;
#X connect 3 0 6 0;
#X connect 4 0 0 0;
#X connect 5 0 4 0;
#X connect 6 0 5 0;
