#N canvas 384 155 561 266 12;
#X obj 21 22 im.sensor 1;
#X obj 115 22 im.keypress Space;
#X obj 21 166 im.speaker;
#X obj 21 77 im.debounce 10;
#X obj 21 118 im.player sounds/string.aif;
#X obj 308 21 im.sensor 1;
#X obj 310 169 im.speaker;
#X obj 310 132 im.player sounds/sn.wav;
#X obj 310 96 im.debounce 100;
#X obj 407 21 im.keypress x;
#X text 379 52 experiment with higher numbers, f 17;
#X connect 0 0 3 0;
#X connect 1 0 3 0;
#X connect 3 0 4 0;
#X connect 4 0 2 0;
#X connect 5 0 8 0;
#X connect 7 0 6 0;
#X connect 8 0 7 0;
#X connect 9 0 8 0;
