#N canvas 0 23 450 300 12;
#X obj 59 56 im.noise;
#X obj 59 80 im.fader;
#X obj 139 56 im.keypress a;
#X obj 61 166 im.speaker;
#X obj 61 142 im.flanger 1Hz 200% 20%;
#X connect 0 0 1 0;
#X connect 1 0 4 0;
#X connect 2 0 1 1;
#X connect 4 0 3 0;
