#N canvas 364 107 780 644 10;
#X obj 99 17 im.keypress Space;
#X obj 19 109 im.speaker;
#X obj 99 48 im.flip;
#X obj 19 18 im.noise;
#X obj 19 86 im.fader;
#X text 190 46 press the space bar to stop the noise.;
#X connect 0 0 2 0;
#X connect 2 0 4 1;
#X connect 3 0 4 0;
#X connect 4 0 1 0;
