#N canvas 132 69 525 493 10;
#X obj 79 186 im.speaker;
#X obj 79 165 im.fader;
#X obj 124 99 im.keypress Space;
#X obj 135 132 im.sensor 1;
#X obj 79 56 im.hollow A 5;
#X obj 153 23 im.sensor 1 100;
#X text 36 5 Add pitch control like im.sinewave;
#X text 173 50 Hold down the space bar on your computer or connect
sensor 1 to hear a texture at pitch A (octave 5)., f 32;
#X connect 1 0 0 0;
#X connect 2 0 1 1;
#X connect 3 0 1 1;
#X connect 4 0 1 0;
#X connect 5 0 4 1;
