#N canvas 412 93 555 463 12;
#X text 14 17 > Use with with note playback.;
#X obj 124 147 im.hesitate minimum:0 maximum:100;
#X obj 217 186 im.hesitate minimum:100 maximum: 200;
#X obj 30 232 im.tunedperc;
#X obj 124 232 im.tunedperc;
#X obj 220 233 im.tunedperc;
#X obj 129 298 im.speaker;
#X obj 29 64 im.sensor 4 3;
#X obj 30 118 im.triads C major 5 II IV V;
#X connect 1 0 4 0;
#X connect 2 0 5 0;
#X connect 3 0 6 0;
#X connect 4 0 6 0;
#X connect 5 0 6 0;
#X connect 7 0 8 0;
#X connect 8 0 3 0;
#X connect 8 1 1 0;
#X connect 8 2 2 0;
