#N canvas 132 69 525 493 10;
#X obj 11 175 im.speaker;
#X obj 11 149 im.fader;
#X obj 208 16 im.keypress Space;
#X obj 208 54 im.toggle;
#X obj 11 12 im.noise;
#X obj 11 107 im.filter;
#X obj 32 65 im.lfo medium sine;
#X obj 208 90 im.snapshot;
#X floatatom 208 119 5 0 0 0 - - -;
#X connect 1 0 0 0;
#X connect 2 0 3 0;
#X connect 3 0 1 1;
#X connect 3 0 7 0;
#X connect 4 0 5 0;
#X connect 5 0 1 0;
#X connect 6 0 5 1;
#X connect 6 0 5 2;
#X connect 7 0 8 0;
