#N canvas 361 114 871 561 12;
#X obj 113 31 im.sensor 1;
#X obj 209 31 im.keypress Space;
#X obj 44 139 im.speaker;
#X obj 44 31 im.noise;
#X obj 45 107 im.fader;
#X obj 113 81 im.envelope 100 1000;
#X connect 0 0 5 0;
#X connect 1 0 5 0;
#X connect 3 0 4 0;
#X connect 4 0 2 0;
#X connect 5 0 4 1;
