#N canvas 0 23 450 300 12;
#X obj 20 89 im.speaker;
#X obj 107 8 im.sensor 1;
#X obj 18 28 im.noise;
#X obj 19 59 im.fader, f 13;
#X obj 107 35 im.lessthan 0.5;
#X text 21 120 Is the reading from sensor 1 below half way?;
#X connect 1 0 4 0;
#X connect 2 0 3 0;
#X connect 3 0 0 0;
#X connect 4 0 3 1;
