#N canvas 364 107 780 644 10;
#X obj 157 118 im.speaker;
#X obj 18 80 im.fader;
#X obj 61 18 im.keypress a;
#X obj 200 18 im.keypress b;
#X obj 331 13 im.keypress c;
#X obj 467 11 im.keypress d;
#X obj 156 80 im.fader;
#X obj 288 77 im.fader;
#X obj 423 74 im.fader;
#X obj 18 52 im.pulsewave A 3;
#X obj 155 53 im.pulsewave B 3;
#X obj 287 52 im.pulsewave C 3;
#X obj 424 50 im.pulsewave D 3;
#X obj 24 229 im.speaker;
#X obj 193 230 im.speaker;
#X obj 386 230 im.speaker;
#X text 21 153 Some quick sample players using im.player:;
#X obj 24 203 im.player sounds/sn.wav;
#X obj 193 203 im.player sounds/string.aif;
#X obj 386 203 im.player sounds/rush.aif;
#X obj 23 174 im.keypress up;
#X obj 193 173 im.keypress space;
#X obj 386 174 im.keypress return;
#X connect 1 0 0 0;
#X connect 2 0 1 1;
#X connect 3 0 6 1;
#X connect 4 0 7 1;
#X connect 5 0 8 1;
#X connect 6 0 0 0;
#X connect 7 0 0 0;
#X connect 8 0 0 0;
#X connect 9 0 1 0;
#X connect 10 0 6 0;
#X connect 11 0 7 0;
#X connect 12 0 8 0;
#X connect 17 0 13 0;
#X connect 18 0 14 0;
#X connect 19 0 15 0;
#X connect 20 0 17 0;
#X connect 21 0 18 0;
#X connect 22 0 19 0;
