#N canvas 256 101 531 591 10;
#X obj 13 89 im.speaker;
#X obj 13 65 im.fader;
#X obj 213 65 im.fader;
#X obj 13 22 im.pulsewave A 3;
#X obj 213 22 im.pulsewave B 3;
#X obj 13 201 im.speaker;
#X obj 189 201 im.speaker;
#X text 18 130 Some quick sample players using im.player:;
#X obj 13 180 im.player sounds/sn.wav;
#X obj 189 179 im.player sounds/string.aif;
#X obj 257 43 im.keydoublepress a 500;
#X obj 13 157 im.keydoublepress b 500;
#X obj 189 155 im.keydoublepress Up 500;
#X obj 213 88 im.speaker;
#X connect 1 0 0 0;
#X connect 2 0 13 0;
#X connect 3 0 1 0;
#X connect 4 0 2 0;
#X connect 8 0 5 0;
#X connect 9 0 6 0;
#X connect 10 0 2 1;
#X connect 11 0 8 0;
#X connect 12 0 9 0;
