#N canvas 0 23 450 300 12;
#X obj 56 68 im.keypress Space;
#X obj 11 130 im.speaker;
#X obj 11 8 im.sawtooth C 4;
#X obj 11 37 im.filter, f 28;
#X obj 11 105 im.fader;
#X obj 74 427 im.speaker;
#X obj 74 402 im.fader, f 31;
#X obj 73 323 im.sawtooth C 4;
#X obj 205 251 im.keypress m;
#X obj 136 11 im.lfo slow sawtooth;
#X text 168 289 adjust this value for vibrato amount, f 18;
#X obj 72 297 im.fader 75%;
#X text 202 230 resets the lfo;
#X text 9 246 frequency can be set in Hz;
#X obj 73 273 im.lfo 3Hz sine;
#X connect 0 0 4 1;
#X connect 2 0 3 0;
#X connect 3 0 4 0;
#X connect 4 0 1 0;
#X connect 6 0 5 0;
#X connect 7 0 6 0;
#X connect 8 0 6 1;
#X connect 8 0 14 2;
#X connect 9 0 3 1;
#X connect 11 0 7 0;
#X connect 14 0 11 0;
