#N canvas 0 23 662 420 12;
#X obj 20 263 im.speaker;
#X obj 59 10 im.makeymakey, f 75;
#X obj 19 133 im.fader;
#X obj 129 146 im.fader;
#X obj 128 94 im.sinewave G 6;
#X obj 241 118 im.fader;
#X obj 242 92 im.sinewave Eb 6;
#X obj 372 118 im.fader;
#X obj 418 184 im.fader;
#X obj 372 92 im.sinewave Bb 6;
#X obj 17 100 im.sinewave C 6;
#X obj 418 158 im.sinewave Db 7;
#X text 43 32 Up;
#X text 150 30 Down;
#X text 266 30 Left;
#X text 380 30 Right;
#X text 480 30 Space;
#X connect 1 0 2 1;
#X connect 1 1 3 1;
#X connect 1 2 5 1;
#X connect 1 3 7 1;
#X connect 1 4 8 1;
#X connect 2 0 0 0;
#X connect 3 0 0 0;
#X connect 4 0 3 0;
#X connect 5 0 0 0;
#X connect 6 0 5 0;
#X connect 7 0 0 0;
#X connect 8 0 0 0;
#X connect 9 0 7 0;
#X connect 10 0 2 0;
#X connect 11 0 8 0;
