#N canvas 0 23 597 300 12;
#X obj 8 98 im.speaker;
#X obj 8 77 im.fader;
#X text 175 37 Hold down the space bar on your computer to hear the
mic., f 28;
#X obj 62 42 im.keypress Space;
#X obj 8 11 im.microphone;
#X connect 1 0 0 0;
#X connect 3 0 1 1;
#X connect 4 0 1 0;
