#N canvas 0 23 740 576 12;
#X obj 108 61 im.sensor 1;
#X obj 105 211 noteout;
#X obj 21 115 im.midivelocity;
#X msg 22 156 64 \$1;
#X obj 328 91 im.sensor 1;
#X obj 208 126 im.midivelocity;
#X obj 21 19 im.keypress e;
#X obj 207 91 im.keypress r;
#X msg 209 154 65 \$1;
#X connect 0 0 2 0;
#X connect 2 0 3 0;
#X connect 3 0 1 0;
#X connect 4 0 5 0;
#X connect 5 0 8 0;
#X connect 6 0 2 0;
#X connect 7 0 5 0;
#X connect 8 0 1 0;
