#N canvas 574 91 546 478 10;
#X obj 152 118 im.distort;
#X obj 158 46 im.sensor 1;
#X obj 68 224 im.fader;
#X obj 69 250 im.speaker;
#X obj 127 180 im.keypress Space;
#X obj 26 87 im.pan;
#X obj 26 47 im.sinewave D 5;
#X obj 25 119 im.flanger 0.5Hz 2;
#X obj 27 148 im.reverb;
#X text 21 20 Work in progress.;
#X connect 0 0 2 0;
#X connect 1 0 5 1;
#X connect 2 0 3 0;
#X connect 4 0 2 1;
#X connect 5 0 7 0;
#X connect 5 1 0 0;
#X connect 6 0 5 0;
#X connect 7 0 8 0;
#X connect 8 0 2 0;
