#N canvas 675 89 525 493 10;
#X obj 29 149 im.speaker;
#X obj 29 20 im.microphone;
#X obj 29 45 im.pitchtracker;
#X obj 29 99 im.pulsewave;
#X obj 29 123 im.fader, f 25;
#X obj 175 89 im.keypress a;
#X obj 29 72 im.octaveshifter -2;
#X text 161 21 Hold down the a key to hear/feel some lower octaves
from the pitches sung into the microphone., f 27;
#X connect 1 0 2 0;
#X connect 2 0 6 0;
#X connect 3 0 4 0;
#X connect 4 0 0 0;
#X connect 5 0 4 1;
#X connect 6 0 3 0;
