#N canvas 82 110 906 663 12;
#X obj 20 159 im.tunedperc;
#X obj 123 226 im.speaker;
#X obj 123 159 im.tunedperc;
#X obj 227 160 im.tunedperc;
#X obj 20 65 im.sensor 1 4;
#X obj 20 108 im.triads Bb major 5 II V I IV;
#X obj 25 650 im.speaker;
#X obj 25 392 im.keypress a;
#X obj 161 392 im.keypress s;
#X obj 295 392 im.keypress d;
#X obj 25 598 im.fader;
#X obj 130 601 im.fader;
#X obj 231 602 im.fader;
#X obj 423 520 im.echo 200;
#X obj 373 567 im.echo 400;
#X obj 25 445 im.switches zero:on;
#X text 430 544 delay second notes;
#X obj 476 424 im.sensor 2;
#X obj 421 391 im.keypress f;
#X obj 25 549 im.hollow;
#X obj 127 549 im.hollow;
#X obj 231 550 im.hollow;
#X obj 24 473 im.triads A# minor 6 II V I III VI;
#X text 17 28 > Play chords straight from a sensor;
#X text 20 340 Play chords \, Kellycaster-style (this example is bowed
with a sensor input). By starting from zero \, we have access to five
chords.;
#X text 21 290 > Separate selection and trigger;
#X connect 0 0 1 0;
#X connect 2 0 1 0;
#X connect 3 0 1 0;
#X connect 4 0 5 0;
#X connect 5 0 0 0;
#X connect 5 1 2 0;
#X connect 5 2 3 0;
#X connect 7 0 15 0;
#X connect 8 0 15 1;
#X connect 9 0 15 2;
#X connect 10 0 6 0;
#X connect 11 0 6 0;
#X connect 12 0 6 0;
#X connect 13 0 11 1;
#X connect 14 0 12 1;
#X connect 15 0 22 0;
#X connect 17 0 10 1;
#X connect 17 0 13 0;
#X connect 17 0 14 0;
#X connect 18 0 15 3;
#X connect 19 0 10 0;
#X connect 20 0 11 0;
#X connect 21 0 12 0;
#X connect 22 0 19 0;
#X connect 22 1 20 0;
#X connect 22 2 21 0;
