#N canvas 499 120 658 562 10;
#X obj 28 136 im.speaker;
#X obj 28 20 im.microphone;
#X obj 28 104 im.looper, f 57;
#X obj 136 63 im.keypress q;
#X obj 250 63 im.keypress w;
#X text 133 24 Press q to record \, w to play back;
#X obj 365 35 im.sensor 1;
#X obj 365 64 im.add 1;
#X text 366 14 pitch control;
#X connect 1 0 2 0;
#X connect 2 0 0 0;
#X connect 3 0 2 1;
#X connect 4 0 2 2;
#X connect 6 0 7 0;
#X connect 7 0 2 3;
