#N canvas 132 69 525 493 10;
#X obj 95 15 im.keypress Space;
#X obj 18 162 im.speaker;
#X obj 18 117 im.scale C dorian 5;
#X obj 18 139 im.tunedperc;
#X obj 17 14 im.noise;
#X obj 18 71 im.add 1;
#X obj 18 96 im.multiply 8;
#X obj 18 41 im.sah;
#X connect 0 0 7 1;
#X connect 2 0 3 0;
#X connect 3 0 1 0;
#X connect 4 0 7 0;
#X connect 5 0 6 0;
#X connect 6 0 2 0;
#X connect 7 0 5 0;
