#N canvas 670 229 742 483 10;
#X obj 18 81 im.speaker;
#X obj 18 60 im.fader, f 10;
#X obj 18 24 im.noise;
#X obj 75 24 im.sensor 1;
#X obj 16 268 im.speaker;
#X obj 16 247 im.fader, f 14;
#X obj 17 182 im.scale E lydian 3;
#X obj 103 207 im.sensor 3;
#X obj 16 215 im.sawtooth;
#X obj 17 150 im.sensor 2 7;
#X text 144 140 When combined with scale \, use the second argument
to choose how many pitches to trigger., f 29;
#X obj 20 341 im.sensor input:A0 range:12;
#X obj 20 407 im.fizzy;
#X obj 20 379 im.scale c minor 5;
#X obj 92 406 im.sensor input:A0 range:2-;
#X obj 20 446 im.filter resonance:1;
#X obj 20 469 im.speaker;
#X text 18 321 Faders still work for previewing audio.;
#X text 19 307 Bela: use inputs A0 \, A1 etc.. this is currently untested.
;
#X connect 1 0 0 0;
#X connect 2 0 1 0;
#X connect 3 0 1 1;
#X connect 5 0 4 0;
#X connect 6 0 8 0;
#X connect 7 0 5 1;
#X connect 8 0 5 0;
#X connect 9 0 6 0;
#X connect 11 0 13 0;
#X connect 12 0 15 0;
#X connect 13 0 12 0;
#X connect 14 0 15 1;
#X connect 15 0 16 0;
