#N canvas 198 87 871 561 12;
#X obj 25 194 im.speaker;
#X obj 24 167 im.acid, f 55;
#X obj 151 135 im.lfo slow sine;
#X obj 24 109 im.scale F lydian 3;
#X obj 24 44 im.multiply 14;
#X obj 24 78 im.fader;
#X obj 24 17 im.lfo slow saw;
#X obj 138 16 im.keypress Space;
#X obj 277 107 im.lfo medium sine;
#X obj 406 134 im.lfo slow sine;
#X obj 138 40 im.toggle;
#X connect 1 0 0 0;
#X connect 2 0 1 1;
#X connect 3 0 1 0;
#X connect 4 0 5 0;
#X connect 5 0 3 0;
#X connect 6 0 4 0;
#X connect 7 0 10 0;
#X connect 8 0 1 2;
#X connect 9 0 1 3;
#X connect 10 0 5 1;
