#N canvas 137 60 525 493 10;
#X obj 11 72 im.tunedperc;
#X obj 11 93 im.speaker;
#X obj 11 47 im.scale F lydian 4;
#X obj 10 16 im.sensor 1 7;
#X obj 14 229 im.tunedperc;
#X obj 14 249 im.speaker;
#X obj 14 204 im.scale C major 5;
#X obj 14 183 im.sequence 0 1;
#X obj 14 158 im.step 2;
#X obj 14 126 im.keypress c;
#X connect 0 0 1 0;
#X connect 2 0 0 0;
#X connect 3 0 2 0;
#X connect 4 0 5 0;
#X connect 6 0 4 0;
#X connect 7 0 6 0;
#X connect 8 0 7 0;
#X connect 9 0 8 0;
