#N canvas 134 57 906 663 12;
#X obj 153 713 im.speaker;
#X obj 24 425 im.keypress a;
#X obj 157 425 im.keypress s;
#X obj 287 425 im.keypress d;
#X obj 25 647 im.fader;
#X obj 130 650 im.fader;
#X obj 231 651 im.fader;
#X obj 423 569 im.echo 200;
#X obj 373 616 im.echo 400;
#X obj 24 478 im.switches zero:on, f 57;
#X obj 363 518 im.sensor 2;
#X obj 420 424 im.keypress f;
#X obj 25 598 im.hollow;
#X obj 127 598 im.hollow;
#X obj 231 599 im.hollow;
#X obj 24 522 im.triads A# minor 6 II V I III VI;
#X text 19 373 Play chords \, Kellycaster-style (this example is bowed
with a sensor input). By starting from zero \, we have access to five
chords., f 78;
#X text 21 15 > Play chords, f 78;
#X obj 24 56 im.keypress q;
#X obj 161 56 im.keypress w;
#X obj 297 56 im.keypress e;
#X obj 432 56 im.keypress r;
#X obj 141 286 im.speaker;
#X obj 25 233 im.fader;
#X obj 138 231 im.fader;
#X obj 252 234 im.fader;
#X obj 24 108 im.switches, f 59;
#X obj 24 146 im.triads C major 6 II V I III VI;
#X obj 25 184 im.tunedperc;
#X obj 138 184 im.tunedperc;
#X obj 252 182 im.tunedperc;
#X text 430 593 delay second note;
#X text 397 638 delay third note;
#X text 18 335 > Separate selection and note trigger, f 78;
#X text 23 762 > Testing header, f 78;
#X connect 1 0 9 0;
#X connect 2 0 9 1;
#X connect 3 0 9 2;
#X connect 4 0 0 0;
#X connect 5 0 0 0;
#X connect 6 0 0 0;
#X connect 7 0 5 1;
#X connect 8 0 6 1;
#X connect 9 0 15 0;
#X connect 10 0 4 1;
#X connect 10 0 7 0;
#X connect 10 0 8 0;
#X connect 10 0 14 1;
#X connect 10 0 13 1;
#X connect 10 0 12 1;
#X connect 11 0 9 3;
#X connect 12 0 4 0;
#X connect 13 0 5 0;
#X connect 14 0 6 0;
#X connect 15 0 12 0;
#X connect 15 1 13 0;
#X connect 15 2 14 0;
#X connect 18 0 26 0;
#X connect 19 0 26 1;
#X connect 20 0 26 2;
#X connect 21 0 26 3;
#X connect 23 0 22 0;
#X connect 24 0 22 0;
#X connect 25 0 22 0;
#X connect 26 0 27 0;
#X connect 27 0 28 0;
#X connect 27 1 29 0;
#X connect 27 2 30 0;
#X connect 28 0 23 0;
#X connect 29 0 24 0;
#X connect 30 0 25 0;
