#N canvas 755 123 525 493 10;
#X obj 15 15 im.keypress a;
#X obj 15 45 im.step 8;
#X obj 15 122 im.tunedperc;
#X obj 15 143 im.speaker;
#X obj 16 284 im.tunedperc;
#X obj 16 305 im.speaker;
#X obj 16 210 im.step 8 random;
#X obj 16 176 im.keypress s;
#X text 132 213 added random arg;
#X obj 15 94 im.scale C dorian 5;
#X obj 16 257 im.scale C dorian 5;
#X obj 15 70 im.sequence 0 1 4 3 4 5 2 7;
#X obj 16 235 im.sequence 0 1 4 3 4 5 2 7;
#X connect 0 0 1 0;
#X connect 1 0 11 0;
#X connect 2 0 3 0;
#X connect 4 0 5 0;
#X connect 6 0 12 0;
#X connect 7 0 6 0;
#X connect 9 0 2 0;
#X connect 10 0 4 0;
#X connect 11 0 9 0;
#X connect 12 0 10 0;
