#N canvas 132 69 525 493 10;
#X obj 11 10 cnv 15 500 120 empty empty instrument_maker_utils 10 22
0 35 -159808 -45076 0;
#X obj 22 60 cnv 15 478 40 empty empty im. 20 22 0 30 -1 -196864 0
;
#X obj 91 287 im.sensor 1;
#X obj 171 287 im.keypress Space;
#X obj 91 362 im.speaker;
#X text 22 110 Charles Matthews 2020;
#X obj 11 192 cnv 15 500 20 empty empty Arguments: 10 10 0 13 -203904
-66577 0;
#X obj 11 215 cnv 15 500 20 empty empty Inlets: 34 10 0 13 -204800
-66577 0;
#X obj 11 239 cnv 15 500 20 empty empty Outlets: 25 10 0 13 -204786
-66577 0;
#X text 21 171 comment, f 81;
#X obj 11 135 cnv 15 500 50 empty empty empty 25 10 0 13 -232576 -66577
0;
#X obj 8 392 cnv 15 500 80 empty empty empty 25 10 0 13 -232576 -66577
0;
#X text 16 142 -, f 81;
#X text 105 195 1, f 64;
#X text 105 217 1;
#X text 106 241 1;
#X text 16 394 -, f 81;
#X text 15 437 comment, f 81;
