#N canvas 103 190 1280 778 10;
#X obj 116 267 im.warm;
#X obj 280 317 im.output;
#X obj 279 282 im.warm;
#X obj 459 285 im.warm;
#X obj 8 137 im.triads 4 II V I I, f 76;
#X obj 115 174 im.set;
#X obj 278 178 im.set;
#X obj 458 170 im.set;
#X obj 155 196 im.input 2;
#X obj 355 100 im.scale G minor 3;
#X obj 768 253 bng 15 250 50 0 empty empty empty 17 7 0 10 -262144
-1 -1;
#X obj 765 226 metro 1000;
#X obj 744 141 loadbang;
#X obj 765 205 tgl 15 0 empty empty empty 17 7 0 10 -262144 -1 -1 1
1;
#X obj 745 163 t b b;
#X obj 765 310 s trim;
#X msg 769 285 1;
#X obj 609 342 print trimmer;
#X obj 617 300 r trim;
#X obj 49 77 sig~ 1;
#X connect 0 0 1 0;
#X connect 2 0 1 0;
#X connect 3 0 1 0;
#X connect 4 1 5 0;
#X connect 4 2 6 0;
#X connect 4 3 7 0;
#X connect 5 0 0 0;
#X connect 6 0 2 0;
#X connect 7 0 3 0;
#X connect 8 0 0 1;
#X connect 9 2 4 3;
#X connect 10 0 16 0;
#X connect 11 0 10 0;
#X connect 12 0 14 0;
#X connect 13 0 11 0;
#X connect 14 1 13 0;
#X connect 16 0 15 0;
#X connect 18 0 17 0;
#X connect 19 0 4 0;
