#N canvas -225 26 1280 737 10;
#X obj 17 137 im.sinewave;
#X obj 171 131 im.sinewave;
#X obj 17 110 im.set 269;
#X obj 171 104 im.set 311;
#X obj 309 133 im.sinewave;
#X obj 309 105 im.set 354;
#X obj 439 130 im.sinewave;
#X obj 439 103 im.set 406;
#X obj 567 130 im.sinewave;
#X obj 567 103 im.set 466;
#X obj 17 198 im.volume;
#X obj 17 227 im.output;
#X obj 67 166 im.input 1;
#X obj 172 186 im.volume;
#X obj 172 215 im.output;
#X obj 224 160 im.input 2;
#X obj 315 200 im.volume;
#X obj 315 229 im.output;
#X obj 439 197 im.volume;
#X obj 439 226 im.output;
#X obj 364 167 im.input 3;
#X obj 492 171 im.input 4;
#X obj 578 191 im.volume;
#X obj 578 220 im.output;
#X obj 630 166 im.input 5;
#X connect 0 0 10 0;
#X connect 1 0 13 0;
#X connect 2 0 0 0;
#X connect 3 0 1 0;
#X connect 4 0 16 0;
#X connect 5 0 4 0;
#X connect 6 0 18 0;
#X connect 7 0 6 0;
#X connect 8 0 22 0;
#X connect 9 0 8 0;
#X connect 10 0 11 0;
#X connect 12 0 10 1;
#X connect 13 0 14 0;
#X connect 15 0 13 1;
#X connect 16 0 17 0;
#X connect 18 0 19 0;
#X connect 20 0 16 1;
#X connect 21 0 18 1;
#X connect 22 0 23 0;
#X connect 24 0 22 1;
