#N canvas 0 0 1280 778 10;
#X obj 58 57 im.ctlin 102;
#X obj 157 57 im.ctlin 103;
#X obj 247 58 im.ctlin 104;
#X obj 344 297 im.output;
#X obj 46 175 im.volume;
#X obj 147 178 im.volume;
#X obj 228 176 im.volume;
#X obj 329 179 im.volume;
#X obj 15 136 osc~ 100;
#X obj 109 134 osc~ 200;
#X obj 200 133 osc~ 300;
#X obj 316 130 osc~ 400;
#X obj 498 167 im.volume;
#X obj 599 170 im.volume;
#X obj 680 168 im.volume;
#X obj 781 171 im.volume;
#X obj 467 128 osc~ 500;
#X obj 561 126 osc~ 600;
#X obj 652 125 osc~ 700;
#X obj 768 122 osc~ 800;
#X obj 368 58 im.ctlin 105;
#X obj 510 49 im.ctlin 106;
#X obj 609 49 im.ctlin 107;
#X obj 699 50 im.ctlin 108;
#X obj 820 50 im.ctlin 109;
#X text 1 20 touch board needs to be set to "midi interface generic"
;
#X connect 0 0 4 1;
#X connect 1 0 5 1;
#X connect 2 0 6 1;
#X connect 4 0 3 0;
#X connect 5 0 3 0;
#X connect 6 0 3 0;
#X connect 7 0 3 0;
#X connect 8 0 4 0;
#X connect 9 0 5 0;
#X connect 10 0 6 0;
#X connect 11 0 7 0;
#X connect 12 0 3 0;
#X connect 13 0 3 0;
#X connect 14 0 3 0;
#X connect 15 0 3 0;
#X connect 16 0 12 0;
#X connect 17 0 13 0;
#X connect 18 0 14 0;
#X connect 19 0 15 0;
#X connect 20 0 7 1;
#X connect 21 0 12 1;
#X connect 22 0 13 1;
#X connect 23 0 14 1;
#X connect 24 0 15 1;
