#N canvas 223 183 882 501 10;
#X obj 141 148 im.input 1;
#X obj 60 118 im.set C 5;
#X obj 60 189 im.volume;
#X obj 60 260 im.output;
#X obj 80 225 im.echo 500 40%;
#X obj 226 186 im.volume;
#X obj 226 257 im.output;
#X obj 246 222 im.echo 500 40%;
#X obj 226 115 im.set D 5;
#X obj 307 145 im.input 2;
#X obj 392 184 im.volume;
#X obj 392 255 im.output;
#X obj 412 220 im.echo 500 40%;
#X obj 392 113 im.set E 5;
#X obj 473 143 im.input 3;
#X obj 560 181 im.volume;
#X obj 560 252 im.output;
#X obj 580 217 im.echo 500 40%;
#X obj 63 379 im.volume;
#X obj 63 450 im.output;
#X obj 83 415 im.echo 500 40%;
#X obj 560 110 im.set G 5;
#X obj 64 308 im.set A 5;
#X obj 641 140 im.input 4;
#X obj 233 376 im.volume;
#X obj 233 447 im.output;
#X obj 253 412 im.echo 500 40%;
#X obj 234 305 im.set C 6;
#X obj 144 338 im.input 5;
#X obj 314 335 im.input 6;
#X obj 397 374 im.volume;
#X obj 397 445 im.output;
#X obj 417 410 im.echo 500 40%;
#X obj 567 371 im.volume;
#X obj 567 442 im.output;
#X obj 587 407 im.echo 500 40%;
#X obj 398 303 im.set D 5;
#X obj 569 301 im.set E 6;
#X obj 478 333 im.input 7;
#X obj 648 330 im.input 8;
#X obj 60 149 im.hollow;
#X obj 226 146 im.hollow;
#X obj 392 144 im.hollow;
#X obj 560 141 im.hollow;
#X obj 63 339 im.hollow;
#X obj 233 336 im.hollow;
#X obj 397 334 im.hollow;
#X obj 567 331 im.hollow;
#X connect 0 0 2 1;
#X connect 0 0 40 1;
#X connect 1 0 40 0;
#X connect 2 0 3 0;
#X connect 2 0 4 0;
#X connect 4 0 3 0;
#X connect 5 0 6 0;
#X connect 5 0 7 0;
#X connect 7 0 6 0;
#X connect 8 0 41 0;
#X connect 9 0 5 1;
#X connect 9 0 41 1;
#X connect 10 0 11 0;
#X connect 10 0 12 0;
#X connect 12 0 11 0;
#X connect 13 0 42 0;
#X connect 14 0 10 1;
#X connect 14 0 42 1;
#X connect 15 0 16 0;
#X connect 15 0 17 0;
#X connect 17 0 16 0;
#X connect 18 0 19 0;
#X connect 18 0 20 0;
#X connect 20 0 19 0;
#X connect 21 0 43 0;
#X connect 22 0 44 0;
#X connect 23 0 15 1;
#X connect 23 0 43 1;
#X connect 24 0 25 0;
#X connect 24 0 26 0;
#X connect 26 0 25 0;
#X connect 27 0 45 0;
#X connect 28 0 18 1;
#X connect 28 0 44 1;
#X connect 29 0 24 1;
#X connect 29 0 45 1;
#X connect 30 0 31 0;
#X connect 30 0 32 0;
#X connect 32 0 31 0;
#X connect 33 0 34 0;
#X connect 33 0 35 0;
#X connect 35 0 34 0;
#X connect 36 0 46 0;
#X connect 37 0 47 0;
#X connect 38 0 30 1;
#X connect 38 0 46 1;
#X connect 39 0 33 1;
#X connect 39 0 47 1;
#X connect 40 0 2 0;
#X connect 41 0 5 0;
#X connect 42 0 10 0;
#X connect 43 0 15 0;
#X connect 44 0 18 0;
#X connect 45 0 24 0;
#X connect 46 0 30 0;
#X connect 47 0 33 0;
