#N canvas -1832 33 1440 855 12;
#X obj 19 207 im.fizzy;
#X obj 19 378 im.speaker;
#X obj 127 207 im.fizzy;
#X obj 19 159 im.note C3 0.5;
#X obj 127 159 im.note Eb3 0.5;
#X obj 243 207 im.fizzy;
#X obj 243 159 im.note G3 0.5;
#X obj 19 66 im.toggle;
#X obj 19 101 im.retrigger 1000;
#X obj 19 344 im.filter;
#X obj 364 80 im.envelope 500 500;
#X obj 508 80 im.toggle;
#X obj 528 118 im.flip;
#X obj 488 169 im.looper;
#X obj 365 264 +~;
#X obj 488 213 im.snapshot;
#X obj 376 123 im.snapshot;
#X obj 19 29 im.keyhold w 2000;
#X obj 364 52 im.keyhold w 5 100;
#X obj 508 52 im.keydoublepress w 500;
#X obj 365 294 clip~ 0 1;
#X obj 19 263 im.volume 20%;
#X obj 127 264 im.volume 20%;
#X obj 243 264 im.volume 20%;
#X connect 0 0 21 0;
#X connect 2 0 22 0;
#X connect 3 0 0 0;
#X connect 3 1 0 1;
#X connect 4 0 2 0;
#X connect 4 1 2 1;
#X connect 5 0 23 0;
#X connect 6 0 5 0;
#X connect 6 1 5 1;
#X connect 7 0 8 0;
#X connect 8 0 4 0;
#X connect 8 0 3 0;
#X connect 8 0 6 0;
#X connect 9 0 1 0;
#X connect 10 0 13 0;
#X connect 10 0 14 0;
#X connect 10 0 16 0;
#X connect 11 0 13 1;
#X connect 11 0 12 0;
#X connect 12 0 13 2;
#X connect 13 0 14 1;
#X connect 13 0 15 0;
#X connect 14 0 20 0;
#X connect 17 0 7 0;
#X connect 18 0 10 0;
#X connect 19 0 11 0;
#X connect 20 0 9 1;
#X connect 21 0 9 0;
#X connect 22 0 9 0;
#X connect 23 0 9 0;
