#N canvas -1789 33 1292 1004 12;
#X obj 31 158 im.sequence 0 3 7 10;
#X obj 31 325 im.speaker;
#X obj 220 242 im.acid;
#X obj 220 161 im.sequence 0 3 7 10;
#X obj 220 135 im.step 4;
#X obj 399 164 im.sequence 0 3 7 10;
#X obj 399 138 im.step 4;
#X obj 220 53 im.toggle;
#X obj 399 27 im.keyhold w 1000;
#X obj 220 188 im.scale A minor 4;
#X obj 31 240 im.fizzy;
#X obj 31 184 im.scale A minor 3;
#X obj 31 132 im.step 4 random;
#X obj 220 27 im.keydoublepress w 200;
#X obj 220 100 im.retrigger 200;
#X obj 399 190 im.scale A minor 3;
#X obj 399 244 im.acid;
#X obj 399 55 im.toggle;
#X obj 399 102 im.retrigger 400;
#X obj 31 29 im.keyhold w 300;
#X obj 31 275 im.volume 40%;
#X obj 220 276 im.volume 40%;
#X obj 399 277 im.volume 40%;
#X connect 0 0 11 0;
#X connect 2 0 21 0;
#X connect 3 0 9 0;
#X connect 4 0 3 0;
#X connect 5 0 15 0;
#X connect 6 0 5 0;
#X connect 7 0 14 0;
#X connect 8 0 17 0;
#X connect 9 0 2 0;
#X connect 10 0 20 0;
#X connect 11 0 10 0;
#X connect 12 0 0 0;
#X connect 13 0 7 0;
#X connect 14 0 4 0;
#X connect 15 0 16 0;
#X connect 16 0 22 0;
#X connect 17 0 18 0;
#X connect 18 0 6 0;
#X connect 19 0 12 0;
#X connect 20 0 1 0;
#X connect 21 0 1 0;
#X connect 22 0 1 0;
