#N canvas 118 297 450 300 10;
#X obj 176 195 outlet~;
#X obj 174 19 inlet~;
#X obj 94 148 +~;
#X obj 178 155 vd~ wbchor;
#X obj 175 99 delwrite~ wbchor 1000;
#X obj 333 175 *~ 0.7;
#X obj 333 203 hip~ 4000;
#X obj 228 73 *~ 0.5;
#X obj 106 106 osc~ 0.5;
#X obj 96 173 clip~ -100 100;
#X obj 93 59 sig~ 10;
#X obj 107 128 *~ 10;
#X connect 1 0 7 0;
#X connect 1 0 0 0;
#X connect 2 0 9 0;
#X connect 3 0 0 0;
#X connect 3 0 5 0;
#X connect 5 0 6 0;
#X connect 6 0 4 0;
#X connect 7 0 4 0;
#X connect 8 0 11 0;
#X connect 9 0 3 0;
#X connect 10 0 2 0;
#X connect 11 0 2 1;
