#N canvas 299 98 865 745 10;
#X obj 224 98 inlet~;
#X obj 229 314 outlet~;
#X obj 229 289 vd~ \$0-imecho;
#X obj 225 135 delwrite~ \$0-imecho 10000;
#X obj 394 240 inlet feedback;
#X obj 335 163 inlet delay;
#X obj 334 258 line~;
#X msg 334 234 \$1 10;
#X obj 335 190 list store \$1;
#X obj 404 134 loadbang;
#X obj 394 304 route float;
#X obj 394 275 list store \$2;
#X obj 457 347 im.percent;
#X floatatom 457 369 5 0 0 0 - - -;
#X obj 490 241 loadbang;
#X obj 367 348 *~;
#X connect 0 0 3 0;
#X connect 2 0 1 0;
#X connect 2 0 15 0;
#X connect 4 0 11 0;
#X connect 5 0 8 0;
#X connect 6 0 2 0;
#X connect 7 0 6 0;
#X connect 8 0 7 0;
#X connect 9 0 8 0;
#X connect 10 0 15 1;
#X connect 10 1 12 0;
#X connect 11 0 10 0;
#X connect 12 0 13 0;
#X connect 13 0 15 1;
#X connect 14 0 11 0;
#X connect 15 0 3 0;
