#N canvas 94 429 450 300 10;
#X obj 135 186 outlet~;
#X obj 140 59 inlet~;
#X obj 175 99 freeverb~;
#X obj 189 28 loadbang;
#X msg 190 57 wet 1;
#X connect 1 0 2 0;
#X connect 1 0 0 0;
#X connect 2 0 0 0;
#X connect 3 0 4 0;
#X connect 4 0 2 0;
