#N canvas 67 214 1039 362 10;
#X declare -path ../Bela-test;
#X obj 98 203 im.output;
#X obj 683 58 declare -path ../Bela-test;
#X obj 99 155 im.sinewave C 5;
#X obj 247 154 im.sawtooth D 5;
#X obj 383 157 im.sinewave Eb 5;
#X obj 531 156 im.sawtooth G 5;
#X obj 249 324 im.output;
#X obj 250 277 im.gate d4;
#X obj 99 176 im.gate d0;
#X obj 247 175 im.gate d1;
#X obj 383 178 im.gate d2;
#X obj 531 177 im.gate d3;
#X obj 249 303 im.echo 500 50%;
#X obj 248 198 im.output;
#X obj 383 202 im.output;
#X obj 531 200 im.output;
#X connect 2 0 8 0;
#X connect 3 0 9 0;
#X connect 4 0 10 0;
#X connect 5 0 11 0;
#X connect 7 0 12 0;
#X connect 8 0 0 0;
#X connect 8 0 7 0;
#X connect 9 0 7 0;
#X connect 9 0 13 0;
#X connect 10 0 7 0;
#X connect 10 0 14 0;
#X connect 11 0 7 0;
#X connect 11 0 15 0;
#X connect 12 0 6 0;
