#N canvas 110 24 1280 778 10;
#X obj 299 257 im.warm;
#X obj 315 413 im.output;
#X obj 597 248 im.warm;
#X obj 898 242 im.warm;
#X obj 8 137 im.triads 4 II V I I, f 149;
#X obj 300 183 im.set;
#X obj 595 173 im.set;
#X obj 898 172 im.set;
#X obj 338 231 im.input 2;
#X obj 793 113 im.scale G minor 3;
#X obj 634 222 im.input 3;
#X obj 937 219 im.input 4;
#X obj 7 108 im.input 1;
#X text 75 107 choose chord;
#X text 356 256 "strum" first note;
#X text 654 246 "strum" second note;
#X text 958 241 "strum" third note;
#X text 919 115 choose scale;
#X connect 0 0 1 0;
#X connect 2 0 1 0;
#X connect 3 0 1 0;
#X connect 4 1 5 0;
#X connect 4 2 6 0;
#X connect 4 3 7 0;
#X connect 5 0 0 0;
#X connect 6 0 2 0;
#X connect 7 0 3 0;
#X connect 8 0 0 1;
#X connect 9 2 4 3;
#X connect 10 0 2 1;
#X connect 11 0 3 1;
#X connect 12 0 4 0;
