#N canvas 56 25 1170 735 10;
#X obj 524 319 im.fizzy;
#X obj 514 472 im.output;
#X obj 683 313 im.fizzy;
#X obj 582 317 im.tunedperc;
#X obj 359 396 im.output;
#X obj 535 395 im.output;
#X obj 534 370 im.chorus;
#X obj 253 303 im.grains string.aif;
#X obj 289 395 im.output;
#X obj 278 182 im.input 2 divisions 120;
#X obj 452 149 im.input 2 octaves 1.5;
#X obj 222 155 im.scale G phrygian 3;
#X obj 451 180 im.scale G phrygian 4;
#X obj 358 371 im.echo 100 70%;
#X obj 465 245 im.input 2 divisions 4;
#X obj 683 343 im.echo 700 70%;
#X obj 465 270 im.triads 4 II V I;
#X obj 393 293 im.acid;
#X obj 218 113 im.input 1 octaves 2;
#X obj 405 221 im.input 2 divisions 3000;
#X connect 0 0 1 0;
#X connect 0 0 6 0;
#X connect 2 0 1 0;
#X connect 2 0 15 0;
#X connect 3 0 1 0;
#X connect 6 0 5 0;
#X connect 7 0 8 0;
#X connect 7 0 13 0;
#X connect 9 0 7 3;
#X connect 9 0 7 2;
#X connect 10 0 12 0;
#X connect 11 0 7 0;
#X connect 11 0 17 0;
#X connect 12 2 16 3;
#X connect 13 0 4 0;
#X connect 14 0 16 0;
#X connect 15 0 1 0;
#X connect 16 1 0 0;
#X connect 16 2 3 0;
#X connect 16 3 2 0;
#X connect 17 0 13 0;
#X connect 18 0 11 0;
#X connect 19 0 17 1;
