#N canvas 177 241 450 300 10;
#X obj 126 93 change;
#X obj 126 73 snapshot~;
#X obj 221 16 bang~;
#X obj 126 119 sel 1;
#X obj 127 19 inlet~;
#X obj 126 40 expr~ $v1 > 0.1;
#X obj 39 30 loadbang;
#X obj 39 51 random 60;
#X obj 39 72 + 30;
#X obj 39 93 mtof;
#X obj 39 166 osc~;
#X obj 115 198 line~;
#X obj 36 207 *~;
#X obj 33 243 dac~;
#X obj 40 114 sig~;
#X obj 40 141 +~;
#X obj 83 146 *~ 100;
#X msg 121 168 0.2 \, 0 50;
#X connect 0 0 3 0;
#X connect 1 0 0 0;
#X connect 2 0 1 0;
#X connect 3 0 17 0;
#X connect 4 0 5 0;
#X connect 5 0 1 0;
#X connect 6 0 7 0;
#X connect 7 0 8 0;
#X connect 8 0 9 0;
#X connect 9 0 14 0;
#X connect 10 0 12 0;
#X connect 11 0 12 1;
#X connect 11 0 16 0;
#X connect 12 0 13 0;
#X connect 12 0 13 1;
#X connect 14 0 15 0;
#X connect 15 0 10 0;
#X connect 16 0 15 1;
#X connect 17 0 11 0;
