#N canvas 0 22 450 300 10;
#X obj 147 145 im.volume;
#X obj 263 89 im.input 1;
#X obj 147 172 im.output;
#X obj 131 107 noise~;
#X obj 256 145 adc~ 3;
#X obj 256 206 snapshot~;
#X obj 315 133 tgl 15 0 empty empty empty 17 7 0 10 -262144 -1 -1 0
1;
#X obj 314 112 loadbang;
#X obj 271 253 print tester;
#X obj 318 166 metro 1000;
#X connect 0 0 2 0;
#X connect 1 0 0 1;
#X connect 3 0 0 0;
#X connect 4 0 5 0;
#X connect 5 0 8 0;
#X connect 6 0 9 0;
#X connect 7 0 6 0;
#X connect 9 0 5 0;
