#N canvas 0 29 1261 711 10;
#X obj 381 -79 snapshot~;
#X obj 426 -102 bang~;
#X obj 380 -102 inlet~;
#X obj 382 -50 change;
#X obj 318 29 != 0;
#X msg 360 28 1;
#X obj 710 501 outlet~;
#X obj 581 61 phasor~ 200;
#X obj 581 82 expr~ $v1 > 0.5;
#X obj 693 84 expr~ $v1 > 0.5;
#X obj 794 84 expr~ $v1 > 0.5;
#X obj 906 86 expr~ $v1 > 0.5;
#X obj 906 109 *~ 0.1;
#X obj 1026 89 expr~ $v1 > 0.5;
#X obj 1026 112 *~ 0.1;
#X obj 1138 91 expr~ $v1 > 0.5;
#X obj 1138 114 *~ 0.1;
#X obj 693 63 phasor~ 511;
#X obj 794 64 phasor~ 612;
#X obj 1026 69 phasor~ 799;
#X obj 1138 70 phasor~ 910;
#X obj 692 416 *~;
#X obj 747 432 *~;
#X obj 309 174 vline~;
#X obj 431 185 vline~;
#X obj 316 82 bng 15 250 50 0 empty empty empty 17 7 0 10 -262144 -1
-1;
#X obj 704 471 hip~ 10000;
#X obj 693 107 *~ 0.07;
#X obj 795 107 *~ 0.1;
#X obj 799 385 vcf~ 4.3;
#X obj 688 366 vcf~ 4;
#X obj 581 105 *~ 0.005;
#X obj 905 65 phasor~ 714.2;
#X obj 533 234 *~ 2000;
#X obj 533 254 +~ 2000;
#X obj 732 185 sig~ 1000;
#X msg 309 128 1 5 \, 0.2 100 10 \, 0 1000 105;
#X msg 430 159 1 10 \, 0.2 100 10 \, 0 4000 20;
#X obj 318 55 sel 1;
#X obj 416 16 + 9000;
#X obj 416 -5 * 9000;
#X obj 382 -28 t f f f;
#X connect 0 0 3 0;
#X connect 1 0 0 0;
#X connect 2 0 0 0;
#X connect 3 0 41 0;
#X connect 4 0 38 0;
#X connect 5 0 38 0;
#X connect 7 0 8 0;
#X connect 8 0 31 0;
#X connect 9 0 27 0;
#X connect 10 0 28 0;
#X connect 11 0 12 0;
#X connect 12 0 29 0;
#X connect 12 0 30 0;
#X connect 13 0 14 0;
#X connect 14 0 29 0;
#X connect 14 0 30 0;
#X connect 15 0 16 0;
#X connect 16 0 29 0;
#X connect 16 0 30 0;
#X connect 17 0 9 0;
#X connect 18 0 10 0;
#X connect 19 0 13 0;
#X connect 20 0 15 0;
#X connect 21 0 26 0;
#X connect 22 0 26 0;
#X connect 23 0 21 1;
#X connect 24 0 22 1;
#X connect 24 0 33 0;
#X connect 25 0 36 0;
#X connect 25 0 37 0;
#X connect 26 0 6 0;
#X connect 27 0 29 0;
#X connect 27 0 30 0;
#X connect 28 0 29 0;
#X connect 28 0 30 0;
#X connect 29 0 22 0;
#X connect 30 0 21 0;
#X connect 31 0 29 0;
#X connect 31 0 30 0;
#X connect 32 0 11 0;
#X connect 33 0 34 0;
#X connect 34 0 29 1;
#X connect 35 0 30 1;
#X connect 36 0 23 0;
#X connect 37 0 24 0;
#X connect 38 0 25 0;
#X connect 39 0 26 1;
#X connect 40 0 39 0;
#X connect 40 0 35 0;
#X connect 41 0 4 0;
#X connect 41 1 40 0;
