#N canvas 299 43 887 713 10;
#X obj 216 426 *~, f 17;
#X obj 216 278 vline~;
#X msg 216 234 1 10 \, 0.7 20 10 \, 0 500 30;
#X obj 217 317 *~ 120;
#X obj 218 46 snapshot~;
#X obj 262 9 bang~;
#X obj 218 7 inlet~;
#X obj 219 75 change;
#X obj 214 461 outlet~;
#X obj 216 131 != 0;
#X obj 215 165 sel 1;
#X obj 215 386 *~ 0.2;
#X obj 217 355 osc~ 100;
#X obj 158 352 osc~ 100;
#X obj 156 383 *~ 0.1;
#X obj 163 316 *~ 2;
#X obj 190 104 t f f;
#X obj 156 404 *~ 0.2;
#X obj 83 351 osc~ 100;
#X obj 81 382 *~ 0.1;
#X obj 81 403 *~ 0.15;
#X obj 88 315 *~ 3;
#X connect 0 0 8 0;
#X connect 1 0 0 1;
#X connect 1 0 3 0;
#X connect 2 0 1 0;
#X connect 3 0 12 0;
#X connect 3 0 15 0;
#X connect 3 0 21 0;
#X connect 4 0 7 0;
#X connect 5 0 4 0;
#X connect 6 0 4 0;
#X connect 7 0 16 0;
#X connect 9 0 10 0;
#X connect 10 0 2 0;
#X connect 11 0 0 0;
#X connect 12 0 11 0;
#X connect 13 0 14 0;
#X connect 14 0 17 0;
#X connect 15 0 13 0;
#X connect 16 0 14 1;
#X connect 16 0 20 1;
#X connect 16 1 9 0;
#X connect 17 0 0 0;
#X connect 18 0 19 0;
#X connect 19 0 20 0;
#X connect 20 0 0 0;
#X connect 21 0 18 0;
