#N canvas 254 56 792 711 10;
#X obj 65 350 osc~ 100;
#X obj 64 421 *~, f 17;
#X obj 64 273 vline~;
#X msg 64 229 1 10 \, 0.7 20 10 \, 0 500 30;
#X obj 65 312 *~ 120;
#X obj 64 83 snapshot~;
#X obj 108 46 bang~;
#X obj 64 44 inlet~;
#X obj 65 112 change;
#X obj 62 456 outlet~;
#X obj 63 139 != 0;
#X obj 63 160 sel 1;
#X obj 63 381 *~ 0.2;
#X connect 0 0 12 0;
#X connect 1 0 9 0;
#X connect 2 0 1 1;
#X connect 2 0 4 0;
#X connect 3 0 2 0;
#X connect 4 0 0 0;
#X connect 5 0 8 0;
#X connect 6 0 5 0;
#X connect 7 0 5 0;
#X connect 8 0 10 0;
#X connect 10 0 11 0;
#X connect 11 0 3 0;
#X connect 12 0 1 0;
