#N canvas 11 70 1020 437 10;
#X obj 45 150 soundfiler;
#X obj 43 92 list store \$1;
#X obj 43 67 loadbang;
#X obj 435 85 tabwrite~ 0-grains;
#X msg 487 45 start;
#X msg 533 42 stop;
#X obj 44 191 array define 0-grains;
#X obj 4 261 array size 0-grains;
#X obj 4 216 loadbang;
#X msg 4 237 44100;
#X obj 450 111 im.sync;
#X obj 350 255 im.clock 1 0ยบ;
#X msg 45 119 read -resize \$1 0-grains;
#X msg 148 54 symbol string.aif;
#X obj 233 252 im.clock 1 180ยบ;
#X obj 232 275 im.grainunit;
#X obj 28 391 array define 0-env;
#X obj 165 333 loadbang;
#X obj 165 374 array size 0-env;
#X msg 165 354 512;
#X msg 5 316 \; 0-env sinesum 512 1 0;
#X obj 350 280 im.grainunit;
#X obj 459 307 im.grainunit;
#X obj 573 303 im.grainunit;
#X obj 459 285 im.clock 1 90ยบ;
#X obj 572 282 im.clock 1 270ยบ;
#X obj 600 159 +~ 1;
#X obj 598 212 +~ 100;
#X obj 711 158 +~ 1;
#X obj 709 211 +~ 100;
#X floatatom 709 101 5 0 0 0 - - -;
#X floatatom 756 155 5 0 0 0 - - -;
#X obj 599 238 send~ 0-pitchMod;
#X obj 710 238 send~ 0-offsetMod;
#X obj 856 160 +~ 1;
#X floatatom 852 106 5 0 0 0 - - -;
#X obj 855 240 send~ 0-envMod;
#X obj 352 398 outlet~;
#X obj 5 293 loadbang;
#X obj 328 133 inlet~ rate;
#X obj 435 54 inlet~;
#X obj 709 74 inlet offsetModFreq;
#X obj 754 122 inlet offsetModAmt;
#X obj 853 75 inlet envModFreq;
#X obj 903 139 inlet envModAmt;
#X obj 598 134 osc~;
#X obj 598 185 *~;
#X obj 709 184 *~;
#X obj 709 133 osc~;
#X obj 854 135 osc~;
#X obj 855 187 *~;
#X obj 854 213 +~ 256;
#X obj 598 12 inlet~ pitchModFreq;
#X obj 645 38 inlet~ pitchModAmt;
#X connect 1 0 12 0;
#X connect 2 0 1 0;
#X connect 4 0 3 0;
#X connect 5 0 3 0;
#X connect 8 0 9 0;
#X connect 9 0 7 0;
#X connect 11 0 21 0;
#X connect 12 0 0 0;
#X connect 13 0 12 0;
#X connect 15 0 37 0;
#X connect 17 0 19 0;
#X connect 19 0 18 0;
#X connect 21 0 37 0;
#X connect 22 0 37 0;
#X connect 23 0 37 0;
#X connect 24 0 22 0;
#X connect 25 0 23 0;
#X connect 26 0 46 0;
#X connect 27 0 32 0;
#X connect 28 0 47 0;
#X connect 29 0 33 0;
#X connect 30 0 48 0;
#X connect 31 0 47 1;
#X connect 34 0 50 0;
#X connect 35 0 49 0;
#X connect 38 0 20 0;
#X connect 39 0 14 0;
#X connect 39 0 11 0;
#X connect 39 0 24 0;
#X connect 39 0 25 0;
#X connect 39 0 21 1;
#X connect 39 0 22 1;
#X connect 39 0 23 1;
#X connect 40 0 3 0;
#X connect 41 0 30 0;
#X connect 42 0 31 0;
#X connect 43 0 35 0;
#X connect 44 0 50 1;
#X connect 45 0 26 0;
#X connect 46 0 27 0;
#X connect 47 0 29 0;
#X connect 48 0 28 0;
#X connect 49 0 34 0;
#X connect 50 0 51 0;
#X connect 51 0 36 0;
#X connect 52 0 45 0;
#X connect 53 0 46 1;
