#N canvas 557 126 464 652 10;
#X obj 120 389 outlet~;
#X floatatom 146 102 5 0 0 0 - - -;
#X obj 146 76 tabread \$1;
#X obj 146 48 + 29;
#X obj 245 6 r \$1-middle;
#X floatatom 245 27 5 0 0 0 - - -;
#X obj 111 132 makenote 1 10;
#N canvas 273 231 450 300 pencon 0;
#X obj 81 150 *~ 0.2;
#X obj 81 197 *~, f 10;
#X obj 81 95 t f b, f 10;
#X obj 27 149 osc~;
#X obj 81 64 inlet;
#X obj 37 271 outlet~;
#X obj 138 174 vline~;
#X obj 24 123 * 2;
#X obj 27 170 *~ 0.1;
#X msg 138 127 1 100 \, 0 800 100;
#X obj 81 129 phasor~;
#X obj 106 254 bob~;
#X obj 112 225 sig~ 1000;
#X obj 184 219 sig~ 1;
#X connect 0 0 1 0;
#X connect 1 0 11 0;
#X connect 2 0 7 0;
#X connect 2 0 10 0;
#X connect 2 1 9 0;
#X connect 3 0 8 0;
#X connect 4 0 2 0;
#X connect 6 0 1 1;
#X connect 7 0 3 0;
#X connect 8 0 1 0;
#X connect 9 0 6 0;
#X connect 10 0 0 0;
#X connect 11 0 5 0;
#X connect 12 0 11 1;
#X connect 13 0 11 2;
#X restore 114 311 pd pencon;
#X obj 113 206 pack f f;
#X obj 111 162 poly 3 1;
#X obj 114 284 route 1 2 3, f 40;
#X obj 46 49 spigot;
#X obj 70 4 tgl 15 0 empty empty empty 17 7 0 10 -262144 -1 -1 1 1
;
#X obj 195 57 spigot;
#X obj 50 -76 loadbang;
#X obj 50 -33 select 0;
#X text 148 -65 switch between mtof and table-based scale;
#X obj 46 74 mtof;
#X obj 154 -28 inlet~;
#X obj 154 -5 snapshot~;
#X obj 199 -28 bang~;
#X obj 154 16 change;
#X obj 225 33 tgl 15 0 empty empty empty 17 7 0 10 -262144 -1 -1 0
1;
#X obj 50 -55 list store \$1;
#X obj 266 51 change;
#X obj 265 76 abs;
#X obj 46 28 abs;
#X floatatom 34 110 5 0 0 0 - - -;
#N canvas 273 231 450 300 pencon 0;
#X obj 81 150 *~ 0.2;
#X obj 81 197 *~, f 10;
#X obj 81 95 t f b, f 10;
#X obj 27 149 osc~;
#X obj 81 64 inlet;
#X obj 37 271 outlet~;
#X obj 138 174 vline~;
#X obj 24 123 * 2;
#X obj 27 170 *~ 0.1;
#X msg 138 127 1 100 \, 0 800 100;
#X obj 81 129 phasor~;
#X obj 106 254 bob~;
#X obj 112 225 sig~ 1000;
#X obj 184 219 sig~ 1;
#X connect 0 0 1 0;
#X connect 1 0 11 0;
#X connect 2 0 7 0;
#X connect 2 0 10 0;
#X connect 2 1 9 0;
#X connect 3 0 8 0;
#X connect 4 0 2 0;
#X connect 6 0 1 1;
#X connect 7 0 3 0;
#X connect 8 0 1 0;
#X connect 9 0 6 0;
#X connect 10 0 0 0;
#X connect 11 0 5 0;
#X connect 12 0 11 1;
#X connect 13 0 11 2;
#X restore 190 314 pd pencon;
#N canvas 273 231 450 300 pencon 0;
#X obj 81 150 *~ 0.2;
#X obj 81 197 *~, f 10;
#X obj 81 95 t f b, f 10;
#X obj 27 149 osc~;
#X obj 81 64 inlet;
#X obj 37 271 outlet~;
#X obj 138 174 vline~;
#X obj 24 123 * 2;
#X obj 27 170 *~ 0.1;
#X msg 138 127 1 100 \, 0 800 100;
#X obj 81 129 phasor~;
#X obj 106 254 bob~;
#X obj 112 225 sig~ 1000;
#X obj 184 219 sig~ 1;
#X connect 0 0 1 0;
#X connect 1 0 11 0;
#X connect 2 0 7 0;
#X connect 2 0 10 0;
#X connect 2 1 9 0;
#X connect 3 0 8 0;
#X connect 4 0 2 0;
#X connect 6 0 1 1;
#X connect 7 0 3 0;
#X connect 8 0 1 0;
#X connect 9 0 6 0;
#X connect 10 0 0 0;
#X connect 11 0 5 0;
#X connect 12 0 11 1;
#X connect 13 0 11 2;
#X restore 272 315 pd pencon;
#X connect 1 0 6 0;
#X connect 2 0 1 0;
#X connect 3 0 2 0;
#X connect 4 0 5 0;
#X connect 5 0 3 1;
#X connect 6 0 9 0;
#X connect 6 1 9 1;
#X connect 7 0 0 0;
#X connect 8 0 10 0;
#X connect 9 0 8 0;
#X connect 9 1 8 1;
#X connect 10 0 7 0;
#X connect 10 1 28 0;
#X connect 10 2 29 0;
#X connect 11 0 17 0;
#X connect 12 0 11 1;
#X connect 13 0 2 0;
#X connect 14 0 23 0;
#X connect 15 0 12 0;
#X connect 17 0 6 0;
#X connect 18 0 19 0;
#X connect 19 0 21 0;
#X connect 20 0 19 0;
#X connect 21 0 13 0;
#X connect 21 0 26 0;
#X connect 22 0 13 1;
#X connect 23 0 15 0;
#X connect 24 0 25 0;
#X connect 26 0 11 0;
#X connect 27 0 17 0;
#X connect 28 0 0 0;
#X connect 29 0 0 0;
