#N canvas 39 30 1010 734 10;
#X obj 775 428 sigmund~ -hop 4096 notes;
#X obj 638 219 soundfiler;
#X obj 261 230 array define \$0_sound;
#X obj 638 160 pack s \$0;
#X msg 731 126 gender-a-1.aif;
#X msg 638 185 read -resize \$1 \$2_sound;
#X msg 919 127 la.wav;
#X msg 831 126 pianonot.wav;
#X obj 776 373 line~;
#X obj 776 399 tabread4~ \$0_sound;
#X msg 695 242 \$1;
#X msg 776 349 0 \, \$1 10000;
#X obj 774 326 expr 10 * $f1;
#X floatatom 776 502 5 0 0 0 - - -;
#X text 709 527 home pitch;
#X obj 177 390 line~;
#X obj 177 554 tabread4~ \$0_sound;
#X obj 176 240 bng 15 250 50 0 empty empty empty 17 7 0 10 -262144
-1 -1;
#X obj 177 339 expr 10 * $f1;
#X msg 177 364 0 \, \$1 10000;
#X obj 260 261 expr pow(2 \, ($f1 / 12));
#X floatatom 176 207 5 0 0 0 - - -;
#X floatatom 260 285 5 0 0 0 - - -;
#X obj 177 312 *;
#X floatatom 176 158 5 0 0 0 - - -;
#X obj 775 277 t f b, f 20;
#X msg 892 300 1;
#X obj 775 452 spigot;
#X obj 776 478 t f b;
#X msg 823 452 0;
#X obj 638 127 list store \$1;
#X obj 776 526 v home_\$0;
#X obj 176 181 expr $f1 - home_\$0;
#X obj 695 277 v rate_\$0;
#X obj 176 262 v rate_\$0;
#X obj 638 104 loadbang;
#X text 254 364 todo: get number of samples from soundfiler;
#N canvas 0 23 889 674 pitchbend 0;
#X obj 36 193 expr pow(2 \, ($f1 / 12));
#X floatatom 36 217 5 0 0 0 - - -;
#X text 189 193 pitchbend/glide;
#X floatatom 35 172 5 0 0 0 - - -;
#X msg 39 142 -1;
#X msg 67 142 1;
#X msg 100 140 0;
#X obj 105 225 expr (rate_\$0*(1-$f1)) / $f2;
#X obj 149 262 expr (rate_\$0*$f2) * ($f1-1);
#X floatatom 308 213 5 0 0 0 - - -;
#X text 37 53 read up on http://www.pd-tutorial.com/english/ch03s04.html
;
#X connect 0 0 1 0;
#X connect 1 0 7 0;
#X connect 3 0 0 0;
#X connect 4 0 3 0;
#X connect 5 0 3 0;
#X connect 6 0 3 0;
#X connect 9 0 7 1;
#X connect 9 0 8 1;
#X restore 233 448 pd pitchbend;
#X obj 177 579 outlet~;
#X obj 246 118 tabread \$1;
#X obj 246 90 + 29;
#X obj 377 -10 r \$1-middle;
#X floatatom 377 11 5 0 0 0 - - -;
#X obj 173 80 spigot;
#X obj 176 -12 tgl 15 0 empty empty empty 17 7 0 10 -262144 -1 -1 1
1;
#X obj 228 31 spigot;
#X obj 182 -92 loadbang;
#X obj 182 -49 select 0;
#X text 271 -75 switch between mtof and table-based scale;
#X obj 173 105 mtof;
#X obj 259 -12 tgl 15 0 empty empty empty 17 7 0 10 -262144 -1 -1 0
1;
#X obj 286 -5 snapshot~;
#X obj 330 -42 bang~;
#X obj 284 -49 inlet~;
#X text 281 -65 switch between mtof and table-based scale;
#X text 242 -90 determine note onset with brief switch to negative
number;
#X obj 286 20 change;
#X obj 285 45 abs;
#X obj 226 -24 t b;
#X obj 182 -71 list store \$1;
#X text 697 102 condition for measuring pitch?;
#X text 367 43 this could be an abstraction in itself..why not already?
;
#X connect 0 0 27 0;
#X connect 1 1 10 0;
#X connect 3 0 5 0;
#X connect 4 0 3 0;
#X connect 5 0 1 0;
#X connect 6 0 3 0;
#X connect 7 0 3 0;
#X connect 8 0 9 0;
#X connect 9 0 0 0;
#X connect 10 0 25 0;
#X connect 10 0 33 0;
#X connect 11 0 8 0;
#X connect 12 0 11 0;
#X connect 13 0 31 0;
#X connect 15 0 16 0;
#X connect 16 0 38 0;
#X connect 17 0 34 0;
#X connect 18 0 19 0;
#X connect 19 0 15 0;
#X connect 20 0 22 0;
#X connect 21 0 20 0;
#X connect 21 0 17 0;
#X connect 22 0 23 1;
#X connect 23 0 18 0;
#X connect 24 0 32 0;
#X connect 25 0 12 0;
#X connect 25 1 26 0;
#X connect 26 0 27 1;
#X connect 27 0 28 0;
#X connect 28 0 13 0;
#X connect 28 1 29 0;
#X connect 29 0 27 1;
#X connect 30 0 3 0;
#X connect 32 0 21 0;
#X connect 34 0 23 0;
#X connect 35 0 30 0;
#X connect 39 0 24 0;
#X connect 40 0 39 0;
#X connect 41 0 42 0;
#X connect 42 0 40 1;
#X connect 43 0 49 0;
#X connect 44 0 43 1;
#X connect 45 0 39 0;
#X connect 46 0 59 0;
#X connect 47 0 44 0;
#X connect 47 1 58 0;
#X connect 49 0 24 0;
#X connect 50 0 45 1;
#X connect 51 0 56 0;
#X connect 52 0 51 0;
#X connect 53 0 51 0;
#X connect 56 0 57 0;
#X connect 57 0 43 0;
#X connect 57 0 45 0;
#X connect 58 0 50 0;
#X connect 59 0 47 0;
