#N canvas 537 126 464 652 10;
#X obj 120 389 outlet~;
#X floatatom 146 102 5 0 0 0 - - -;
#X obj 146 76 tabread \$1;
#X obj 146 48 + 29;
#X obj 245 6 r \$1-middle;
#X floatatom 245 27 5 0 0 0 - - -;
#X obj 111 132 makenote 1 10;
#N canvas 273 231 450 300 pencon 0;
#X obj 81 129 osc~;
#X obj 81 150 *~ 0.2;
#X obj 81 197 *~, f 10;
#X obj 81 95 t f b, f 10;
#X obj 27 149 osc~;
#X obj 24 123 * 1.3;
#X obj 27 170 *~ 0.01;
#X obj 81 64 inlet;
#X obj 37 271 outlet~;
#X obj 138 174 vline~;
#X msg 138 127 1 10 \, 0 400 10;
#X connect 0 0 1 0;
#X connect 1 0 2 0;
#X connect 2 0 8 0;
#X connect 3 0 0 0;
#X connect 3 0 5 0;
#X connect 3 1 10 0;
#X connect 4 0 6 0;
#X connect 5 0 4 0;
#X connect 6 0 2 0;
#X connect 7 0 3 0;
#X connect 9 0 2 1;
#X connect 10 0 9 0;
#X restore 114 311 pd pencon;
#X obj 113 206 pack f f;
#X obj 111 162 poly 3 1;
#X obj 114 284 route 1 2 3, f 40;
#N canvas 273 231 450 300 pencon 0;
#X obj 81 129 osc~;
#X obj 81 150 *~ 0.2;
#X obj 81 197 *~, f 10;
#X obj 81 95 t f b, f 10;
#X obj 27 149 osc~;
#X obj 24 123 * 1.3;
#X obj 27 170 *~ 0.01;
#X obj 81 64 inlet;
#X obj 37 271 outlet~;
#X obj 138 174 vline~;
#X msg 138 127 1 10 \, 0 400 10;
#X connect 0 0 1 0;
#X connect 1 0 2 0;
#X connect 2 0 8 0;
#X connect 3 0 0 0;
#X connect 3 0 5 0;
#X connect 3 1 10 0;
#X connect 4 0 6 0;
#X connect 5 0 4 0;
#X connect 6 0 2 0;
#X connect 7 0 3 0;
#X connect 9 0 2 1;
#X connect 10 0 9 0;
#X restore 192 312 pd pencon;
#N canvas 273 231 450 300 pencon 0;
#X obj 81 129 osc~;
#X obj 81 150 *~ 0.2;
#X obj 81 197 *~, f 10;
#X obj 81 95 t f b, f 10;
#X obj 27 149 osc~;
#X obj 24 123 * 1.3;
#X obj 27 170 *~ 0.01;
#X obj 81 64 inlet;
#X obj 37 271 outlet~;
#X obj 138 174 vline~;
#X msg 138 127 1 10 \, 0 400 10;
#X connect 0 0 1 0;
#X connect 1 0 2 0;
#X connect 2 0 8 0;
#X connect 3 0 0 0;
#X connect 3 0 5 0;
#X connect 3 1 10 0;
#X connect 4 0 6 0;
#X connect 5 0 4 0;
#X connect 6 0 2 0;
#X connect 7 0 3 0;
#X connect 9 0 2 1;
#X connect 10 0 9 0;
#X restore 272 314 pd pencon;
#X obj 46 49 spigot;
#X obj 70 4 tgl 15 0 empty empty empty 17 7 0 10 -262144 -1 -1 1 1
;
#X obj 96 47 spigot;
#X obj 50 -76 loadbang;
#X obj 50 -33 select 0;
#X text 105 -59 switch between mtof and table-based scale;
#X obj 46 74 mtof;
#X obj 154 -28 inlet~;
#X obj 154 -5 snapshot~;
#X obj 199 -28 bang~;
#X obj 154 16 change;
#X text 158 -46 is this healthy? bela probably won't like this;
#X floatatom 50 111 5 0 0 0 - - -;
#X obj 127 4 tgl 15 0 empty empty empty 17 7 0 10 -262144 -1 -1 0 1
;
#X obj 50 -55 list store \$1;
#X connect 1 0 6 0;
#X connect 2 0 1 0;
#X connect 3 0 2 0;
#X connect 4 0 5 0;
#X connect 5 0 3 1;
#X connect 6 0 9 0;
#X connect 6 1 9 1;
#X connect 7 0 0 0;
#X connect 8 0 10 0;
#X connect 9 0 8 0;
#X connect 9 1 8 1;
#X connect 10 0 7 0;
#X connect 10 1 11 0;
#X connect 10 2 12 0;
#X connect 11 0 0 0;
#X connect 12 0 0 0;
#X connect 13 0 19 0;
#X connect 14 0 13 1;
#X connect 15 0 2 0;
#X connect 16 0 27 0;
#X connect 17 0 14 0;
#X connect 19 0 6 0;
#X connect 19 0 25 0;
#X connect 20 0 21 0;
#X connect 21 0 23 0;
#X connect 22 0 21 0;
#X connect 23 0 13 0;
#X connect 23 0 15 0;
#X connect 26 0 15 1;
#X connect 27 0 17 0;
