#N canvas 260 215 708 453 10;
#X obj 267 422 outlet~;
#X obj 149 90 phasor~;
#X obj 278 90 phasor~;
#X obj 149 129 expr~ $v1 > $v2;
#X obj 280 197 expr~ $v1 > $v2;
#X obj 357 90 osc~;
#X obj 269 358 bob~, f 58;
#X obj 269 399 *~, f 69;
#X obj 672 112 inlet~;
#X obj 150 155 *~ 0.2;
#X obj 280 222 *~ 0.2;
#X obj 419 88 osc~;
#X obj 419 61 /~ 1500;
#X obj 357 63 /~ 2000;
#X obj 419 114 +~ 1;
#X obj 357 118 +~ 1;
#X obj 360 163 /~ 2;
#X obj 419 140 /~ 2;
#X obj 575 313 sig~ 2;
#X obj 621 191 *~ 500;
#X obj 479 73 phasor~;
#X obj 481 180 expr~ $v1 > $v2;
#X obj 568 77 osc~;
#X obj 481 205 *~ 0.2;
#X obj 568 50 /~ 2000;
#X obj 568 105 +~ 1;
#X obj 479 45 *~ 0.5;
#X obj 571 150 /~ 3;
#X obj 557 270 +~;
#X obj 596 244 osc~ 0.2;
#X obj 596 265 *~ 100;
#X obj 278 62 *~ 1.004;
#X obj 439 318 +~ 100;
#X obj 149 11 mtof~;
#X obj 149 -9 inlet~;
#X connect 1 0 3 0;
#X connect 2 0 4 0;
#X connect 3 0 9 0;
#X connect 4 0 10 0;
#X connect 5 0 15 0;
#X connect 6 0 7 0;
#X connect 7 0 0 0;
#X connect 8 0 7 1;
#X connect 8 0 19 0;
#X connect 9 0 6 0;
#X connect 10 0 6 0;
#X connect 11 0 14 0;
#X connect 12 0 11 0;
#X connect 13 0 5 0;
#X connect 14 0 17 0;
#X connect 15 0 16 0;
#X connect 16 0 4 1;
#X connect 17 0 3 1;
#X connect 18 0 6 2;
#X connect 19 0 28 0;
#X connect 20 0 21 0;
#X connect 21 0 23 0;
#X connect 22 0 25 0;
#X connect 23 0 6 0;
#X connect 24 0 22 0;
#X connect 25 0 27 0;
#X connect 26 0 20 0;
#X connect 27 0 21 1;
#X connect 28 0 32 0;
#X connect 29 0 30 0;
#X connect 30 0 28 1;
#X connect 31 0 2 0;
#X connect 32 0 6 1;
#X connect 33 0 1 0;
#X connect 33 0 12 0;
#X connect 33 0 13 0;
#X connect 33 0 24 0;
#X connect 33 0 26 0;
#X connect 33 0 31 0;
#X connect 34 0 33 0;
