#N canvas 127 25 759 753 10;
#X obj 203 -8 r arduino;
#X obj 205 115 sel 13 10;
#X msg 287 195 0;
#X msg 318 196 1;
#X msg 350 196 0;
#X msg 381 197 1;
#X obj 289 224 tgl 15 0 empty empty empty 17 7 0 10 -262144 -1 -1 1
1;
#X obj 351 227 tgl 15 0 empty empty empty 17 7 0 10 -262144 -1 -1 1
1;
#X obj 270 506 outlet~;
#X obj 270 481 vd~ \$0-imecho;
#X obj 272 406 delwrite~ \$0-imecho 10000;
#X obj 375 450 line~;
#X msg 375 426 \$1 10;
#X obj 374 355 loadbang;
#X obj 435 496 route float;
#X obj 435 440 loadbang;
#X obj 408 540 *~;
#X obj 263 345 *~;
#X obj 376 382 3000;
#X obj 435 467 0.5;
#X obj 99 191 adc~;
#X obj 104 496 dac~;
#X obj 101 411 *~ 1;
#X obj 353 279 line~;
#X msg 352 256 \$1 10;
#X obj 292 276 line~;
#X msg 291 253 \$1 10;
#X obj 165 627 clip~ -1 1;
#X obj 110 577 lop~ 1000;
#X obj 232 676 *~ 100;
#X obj 234 656 +~ 1;
#X obj 232 631 osc~ 1;
#X obj 182 577 *~ 0.8;
#X obj 146 549 delwrite~ \$0-mydelay2 1000;
#X obj 121 668 vd~ \$0-mydelay2;
#X obj 198 351 *~;
#X obj 403 238 print chorus;
#X obj 171 232 print other;
#X obj 285 116 print input;
#X obj 187 70 print unrouted;
#X obj 286 172 route 1 2 3 4, f 23;
#X msg 456 192 0;
#X msg 487 193 1;
#X msg 519 193 0;
#X msg 550 194 1;
#X obj 455 169 route 10 20 30 40, f 23;
#X connect 0 0 39 0;
#X connect 0 0 40 0;
#X connect 0 0 45 0;
#X connect 1 2 38 0;
#X connect 1 2 40 0;
#X connect 2 0 6 0;
#X connect 3 0 6 0;
#X connect 4 0 7 0;
#X connect 5 0 7 0;
#X connect 6 0 26 0;
#X connect 6 0 37 0;
#X connect 7 0 24 0;
#X connect 7 0 36 0;
#X connect 9 0 8 0;
#X connect 9 0 16 0;
#X connect 9 0 22 0;
#X connect 11 0 9 0;
#X connect 12 0 11 0;
#X connect 13 0 18 0;
#X connect 14 0 16 1;
#X connect 15 0 19 0;
#X connect 16 0 10 0;
#X connect 17 0 10 0;
#X connect 18 0 12 0;
#X connect 19 0 14 0;
#X connect 20 0 17 0;
#X connect 20 0 22 0;
#X connect 20 0 35 0;
#X connect 22 0 21 0;
#X connect 22 0 21 1;
#X connect 23 0 17 1;
#X connect 24 0 23 0;
#X connect 25 0 35 1;
#X connect 26 0 25 0;
#X connect 27 0 32 0;
#X connect 28 0 27 0;
#X connect 29 0 34 0;
#X connect 30 0 29 0;
#X connect 31 0 30 0;
#X connect 32 0 33 0;
#X connect 34 0 28 0;
#X connect 34 0 22 0;
#X connect 35 0 33 0;
#X connect 40 0 2 0;
#X connect 40 1 3 0;
#X connect 40 2 4 0;
#X connect 40 3 5 0;
#X connect 41 0 6 0;
#X connect 42 0 6 0;
#X connect 43 0 7 0;
#X connect 44 0 7 0;
#X connect 45 0 41 0;
#X connect 45 1 42 0;
#X connect 45 2 43 0;
#X connect 45 3 44 0;
