#N canvas 28 247 450 300 10;
#X obj 80 198 im.output;
#X obj 80 161 im.acid, f 10;
#X obj 99 99 im.multitouch y 20 8000;
#X obj 119 131 im.tilt x 0 1;
#X obj 206 132 im.tilt y 0 1;
#X obj 79 71 im.scale E dorian 4;
#X obj 78 36 im.multitouch x octaves 3;
#X connect 1 0 0 0;
#X connect 2 0 1 1;
#X connect 3 0 1 2;
#X connect 4 0 1 3;
#X connect 5 0 1 0;
#X connect 6 0 5 0;
