#N canvas 451 75 726 433 10;
#X obj 11 10 cnv 15 500 120 empty empty instrument_maker 10 22 0 40
-4032 -66577 0;
#X obj 22 60 cnv 15 478 40 empty empty im.acid 20 22 0 30 -1 -196864
0;
#X text 22 110 Charles Matthews 2020;
#X obj 11 192 cnv 15 500 20 empty empty Arguments: 10 10 0 13 -203904
-66577 0;
#X obj 11 215 cnv 15 500 20 empty empty Inlets: 34 10 0 13 -204800
-66577 0;
#X obj 11 239 cnv 15 500 20 empty empty Outlets: 25 10 0 13 -204786
-66577 0;
#X text 21 171 comment, f 81;
#X obj 11 135 cnv 15 500 50 empty empty empty 25 10 0 13 -262130 -66577
0;
#X text 105 195 none, f 64;
#X text 106 241 1) sound;
#X obj 31 400 im.speaker;
#X obj 32 378 im.acid, f 55;
#X obj 140 356 im.lfo slow sine;
#X obj 32 336 im.scale F lydian 3;
#X obj 33 290 im.multiply 14;
#X obj 33 313 im.fader;
#X obj 32 269 im.lfo slow saw;
#X obj 229 273 im.keypress Space;
#X obj 251 331 im.lfo medium sine;
#X text 105 217 1) pitch from im.scale 2) cutoff (0-1) 3) resonance
4) pwm;
#X obj 358 357 im.lfo slow sine;
#X obj 228 293 im.toggle;
#X obj 514 10 cnv 15 200 410 empty empty notes 8 12 0 20 -261682 -66577
0;
#X msg 533 66 im.fizzy;
#X msg 559 141 im.scale;
#X msg 570 166 im.lfo;
#X obj 531 238 im.help;
#X text 16 142 Acid synth with inputs for filter. Attach controls (range
of 0-1) for cutoff \, resonance \, and pwm., f 81;
#X text 595 67 80's style synth;
#X text 620 152 interactions;
#X msg 546 90 im.tunedperc;
#X text 630 91 gamelan tones;
#X connect 11 0 10 0;
#X connect 12 0 11 1;
#X connect 13 0 11 0;
#X connect 14 0 15 0;
#X connect 15 0 13 0;
#X connect 16 0 14 0;
#X connect 17 0 21 0;
#X connect 18 0 11 2;
#X connect 20 0 11 3;
#X connect 21 0 15 1;
#X connect 23 0 26 0;
#X connect 24 0 26 0;
#X connect 25 0 26 0;
#X connect 30 0 26 0;
