#N canvas 647 433 450 300;
#X obj 204 208 outlet~;
#X obj 239 15 inlet~;
#X obj 55 94 +~;
#X obj 67 52 osc~ 0.5;
#X obj 57 119 clip~ -100 100;
#X obj 54 5 sig~ 10;
#X obj 333 203 hip~ 2000;
#X obj 283 51 *~ 0.8;
#X obj 68 74 *~ 10;
#X obj 334 175 *~ 0.5;
#X obj 285 102 delwrite~ \$0-wbchor 1000;
#X obj 178 155 vd~ \$0-wbchor;
#X connect 1 0 7 0;
#X connect 1 0 0 0;
#X connect 2 0 4 0;
#X connect 3 0 8 0;
#X connect 4 0 11 0;
#X connect 5 0 2 0;
#X connect 6 0 10 0;
#X connect 7 0 10 0;
#X connect 8 0 2 1;
#X connect 9 0 6 0;
#X connect 11 0 0 0;
#X connect 11 0 9 0;
#X coords 0 -1 1 1 15 15 1 0 800;
