#N canvas 115 61 696 672 12;
#X floatatom 117 524 5 0 0 0 - - -;
#X obj 117 426 stof;
#X obj 116 395 route symbol;
#X obj 109 71 list prepend symbol;
#X obj 109 100 list trim;
#X obj 172 153 list fromsymbol;
#X obj 226 198 list length;
#X obj 173 239 list split;
#X obj 172 177 t a a, f 10;
#X obj 225 216 - 1;
#X obj 116 373 spigot;
#X obj 219 384 spigot;
#X obj 201 320 expr $f1 \; 1 - $f1;
#X obj 201 298 tgl 15 0 empty empty empty 17 7 0 10 -262144 -1 -1 0
1;
#X obj 202 357 tgl 15 0 empty empty empty 17 7 0 10 -262144 -1 -1 0
1;
#X obj 252 357 tgl 15 0 empty empty empty 17 7 0 10 -262144 -1 -1 0
1;
#X obj 201 274 != 37;
#X obj 109 126 t a a a, f 11;
#X floatatom 218 468 5 0 0 0 - - -;
#X obj 116 550 outlet;
#X obj 47 11 inlet;
#X obj 47 37 route float;
#X obj 219 413 utils.check.unit %;
#X obj 219 438 / 100;
#X connect 0 0 19 0;
#X connect 1 0 0 0;
#X connect 2 0 1 0;
#X connect 2 1 1 0;
#X connect 3 0 4 0;
#X connect 4 0 17 0;
#X connect 5 0 8 0;
#X connect 6 0 9 0;
#X connect 7 1 16 0;
#X connect 8 0 7 0;
#X connect 8 1 6 0;
#X connect 9 0 7 1;
#X connect 10 0 2 0;
#X connect 11 0 22 0;
#X connect 12 0 14 0;
#X connect 12 1 15 0;
#X connect 13 0 12 0;
#X connect 14 0 10 1;
#X connect 15 0 11 1;
#X connect 16 0 13 0;
#X connect 17 0 10 0;
#X connect 17 1 11 0;
#X connect 17 2 5 0;
#X connect 18 0 0 0;
#X connect 20 0 21 0;
#X connect 21 0 0 0;
#X connect 21 1 3 0;
#X connect 22 0 23 0;
#X connect 23 0 18 0;
#X coords 0 -1 1 1 15 15 1 0 800;
