#N canvas 0 81 683 446;
#X obj 104 13 inlet;
#X obj 155 190 outlet;
#X obj 244 92 inlet;
#X obj 330 91 inlet, f 6;
#X text 216 70 switch direction;
#X obj 244 115 tgl 15 0 empty empty empty 17 7 0 10 -262144 -1 -1 0
1;
#X obj 244 136 sel 0 1;
#X msg 244 160 1;
#X msg 278 160 -1;
#X text 327 69 counter no output;
#X obj 330 112 route bang;
#X obj 248 218 \$1;
#X obj 248 194 loadbang;
#X obj 149 311 sel 1;
#X obj 161 63 t f f;
#X obj 104 36 route bang;
#X obj 102 72 bng 15 250 50 0 empty empty empty 17 7 0 10 -262144 -1
-1;
#X text 364 14 basic counter functions for vanilla compatibility;
#X obj 149 284 tgl 15 0 empty empty empty 17 7 0 10 -262144 -1 -1 0
1;
#X obj 156 159 + 1;
#X obj 201 1 loadbang;
#X obj 344 190 loadbang;
#X obj 344 211 1;
#X obj 146 250 expr $f1 == $f2 || ($f1 + $f3) < 0;
#X text 366 31 will get the arguments right later..;
#X obj 120 154 -1;
#X text 369 46 might prefer to sort max-style attributes while at it
;
#X msg 149 338 -1;
#X obj 180 339 t b;
#X obj 116 378 f;
#X obj 105 213 t f f;
#X obj 201 26 list store \$2;
#X obj 201 46 route forward reverse both;
#X obj 472 91 inlet;
#X text 468 68 set max;
#X connect 0 0 15 0;
#X connect 2 0 5 0;
#X connect 3 0 10 0;
#X connect 5 0 6 0;
#X connect 6 0 7 0;
#X connect 6 1 8 0;
#X connect 7 0 19 1;
#X connect 7 0 23 2;
#X connect 8 0 19 1;
#X connect 8 0 23 2;
#X connect 10 1 25 1;
#X connect 11 0 23 1;
#X connect 12 0 11 0;
#X connect 13 0 27 0;
#X connect 13 1 28 0;
#X connect 14 0 25 1;
#X connect 14 1 1 0;
#X connect 15 0 16 0;
#X connect 15 1 14 0;
#X connect 16 0 25 0;
#X connect 18 0 13 0;
#X connect 19 0 1 0;
#X connect 19 0 25 1;
#X connect 20 0 31 0;
#X connect 21 0 22 0;
#X connect 22 0 23 2;
#X connect 23 0 18 0;
#X connect 25 0 30 0;
#X connect 27 0 29 0;
#X connect 28 0 29 0;
#X connect 29 0 19 0;
#X connect 30 0 23 0;
#X connect 30 1 29 1;
#X connect 31 0 32 0;
#X connect 33 0 11 0;
#X coords 0 -1 1 1 15 15 1 0 800;
