#N canvas 574 91 546 478 10;
#X obj 11 10 cnv 15 500 120 empty empty instrument_maker 10 22 0 40
-4032 -66577 0;
#X obj 22 60 cnv 15 478 40 empty empty im.crossfade 20 22 0 30 -1 -196864
0;
#X text 22 110 Charles Matthews 2019;
#X text 22 190 Arguments: none;
#X text 22 210 Inlets: signal to process;
#X text 22 230 Outlets: processed signal;
#X obj 142 271 im.pulsewave C 3;
#X obj 142 311 im.crossfade;
#X obj 143 342 im.chorus;
#X obj 212 343 im.distort;
#X obj 256 272 im.sensor 1;
#X obj 142 399 im.fader;
#X obj 143 425 im.speaker;
#X obj 197 377 im.keypress Space;
#X text 22 140 Send a signal to two different places. Work in progress:
this doesn't quite work the way it should \, yet! In the future \,
this will fade between two inputs., f 81;
#X connect 6 0 7 0;
#X connect 7 0 8 0;
#X connect 7 1 9 0;
#X connect 8 0 11 0;
#X connect 9 0 11 0;
#X connect 10 0 7 1;
#X connect 11 0 12 0;
#X connect 13 0 11 1;
