#N canvas 280 98 525 493 10;
#X obj 11 10 cnv 15 500 120 empty empty instrument_maker 10 22 0 40
-4032 -66577 0;
#X obj 22 60 cnv 15 478 40 empty empty im.distort 20 22 0 30 -1 -196864
0;
#X text 22 110 Charles Matthews 2020;
#X obj 11 192 cnv 15 500 20 empty empty Arguments: 10 10 0 13 -203904
-66577 0;
#X obj 11 215 cnv 15 500 20 empty empty Inlets: 34 10 0 13 -204800
-66577 0;
#X obj 11 239 cnv 15 500 20 empty empty Outlets: 25 10 0 13 -204786
-66577 0;
#X text 21 171 comment, f 81;
#X obj 11 135 cnv 15 500 50 empty empty empty 25 10 0 13 -262130 -66577
0;
#X obj 12 433 cnv 15 500 40 empty empty empty 25 10 0 13 -262130 -66577
0;
#X text 105 195 none, f 64;
#X text 106 241 1) processed signal;
#X obj 243 332 im.distort;
#X obj 243 366 im.fader, f 12;
#X obj 244 413 im.speaker;
#X obj 44 352 im.fader;
#X obj 43 377 im.speaker;
#X obj 89 328 im.keypress Up;
#X obj 312 339 im.keypress Down;
#X obj 43 298 im.sinewave C 6;
#X obj 243 286 im.sinewave C 6;
#X obj 244 393 im.volume 200%;
#X text 12 264 Use the up and down keys to compare sine waves with
and without distortion., f 79;
#X text 16 437 Note: the distorted signal sometimes sounds a bit quieter
\, but we can add volume further down the chain., f 81;
#X obj 300 305 im.keypress Right;
#X text 16 142 Apply some crude distortion/overdrive to a signal.,
f 81;
#X text 105 217 1) signal to process 2) distortion amount;
#X text 413 288 hold down right to increase distortion, f 16;
#X connect 11 0 12 0;
#X connect 12 0 20 0;
#X connect 14 0 15 0;
#X connect 16 0 14 1;
#X connect 17 0 12 1;
#X connect 18 0 14 0;
#X connect 19 0 11 0;
#X connect 20 0 13 0;
#X connect 23 0 11 1;
