#N canvas 217 150 411 489 10;
#X obj 52 103 t a a, f 10;
#X obj 109 128 list length;
#X obj 50 178 list split;
#X obj 52 79 list fromsymbol;
#X floatatom 78 241 5 0 0 0 - - -;
#X obj 105 152 - 1;
#X obj 49 294 spigot;
#X obj 50 315 list tosymbol;
#X obj 50 338 stof;
#X floatatom 51 364 5 0 0 0 - - -;
#X obj 52 418 outlet;
#X obj 51 32 inlet;
#X text 90 32 takes in a symbol ending in % sign \, divides by 100
;
#X text 92 47 this would also work for note values etc like max;
#X obj 101 336 makefilename %f;
#X floatatom 101 366 5 0 0 0 - - -;
#X obj 78 267 == 186;
#X obj 50 386 / 3600;
#X text 94 389 not correct \, but works for now;
#X connect 0 0 2 0;
#X connect 0 1 1 0;
#X connect 1 0 5 0;
#X connect 2 0 6 0;
#X connect 2 1 4 0;
#X connect 3 0 0 0;
#X connect 4 0 16 0;
#X connect 5 0 2 1;
#X connect 6 0 7 0;
#X connect 7 0 8 0;
#X connect 7 0 14 0;
#X connect 8 0 9 0;
#X connect 9 0 17 0;
#X connect 11 0 3 0;
#X connect 14 0 15 0;
#X connect 16 0 6 1;
#X connect 17 0 10 0;
