#N canvas 94 429 450 300 10;
#X obj 91 250 outlet~;
#X obj 258 19 inlet~;
#X obj 93 210 vd~ wbdel;
#X obj 334 148 *~ 0.5;
#X obj 333 203 lop~ 4000;
#X obj 94 148 +~;
#X obj 106 106 osc~ 0.001;
#X obj 107 128 *~ 2;
#X obj 197 107 *~ 0.5;
#X obj 260 99 delwrite~ wbdel 800;
#X obj 93 59 line~ 1000;
#X obj 382 -6 inlet;
#X msg 100 22 \$1 500;
#X obj 279 56 *~ 0.7;
#X connect 1 0 8 0;
#X connect 1 0 13 0;
#X connect 2 0 0 0;
#X connect 2 0 3 0;
#X connect 3 0 4 0;
#X connect 4 0 9 0;
#X connect 5 0 2 0;
#X connect 6 0 7 0;
#X connect 7 0 5 1;
#X connect 8 0 0 0;
#X connect 10 0 5 0;
#X connect 11 0 12 0;
#X connect 12 0 10 0;
#X connect 13 0 9 0;
