#N canvas 44 34 525 536 10;
#X obj 11 10 cnv 15 500 120 empty empty instrument_maker 10 22 0 40
-4032 -66577 0;
#X obj 22 60 cnv 15 478 40 empty empty im.divide 20 22 0 30 -1 -196864
0;
#X text 22 110 Charles Matthews 2020;
#X obj 11 192 cnv 15 500 20 empty empty Arguments: 10 10 0 13 -203904
-66577 0;
#X obj 11 215 cnv 15 500 20 empty empty Inlets: 34 10 0 13 -204800
-66577 0;
#X obj 11 239 cnv 15 500 20 empty empty Outlets: 25 10 0 13 -204786
-66577 0;
#X text 21 171 comment, f 81;
#X obj 11 135 cnv 15 500 50 empty empty empty 25 10 0 13 -262130 -66577
0;
#X obj 8 465 cnv 15 500 40 empty empty empty 25 10 0 13 -262130 -66577
0;
#X text 106 241 1) processed signal;
#X text 105 217 1) 1 audio signal 2) amount to multiply by;
#X text 16 142 Divide a signal by another signal or number \, either
with an argument or with another signal in the right-hand-side., f
81;
#X text 105 195 1) number to divide by, f 64;
