#N canvas -1156 288 922 770 10;
#X obj 227 114 inlet~;
#X obj 227 135 expr~ 1 - $v1;
#X obj 227 313 outlet~;
#X obj 319 215 sel 0 1;
#X obj 319 298 symbol \$0-canvas;
#X msg 319 331 \; \$1 color 0;
#X msg 424 330 \; \$1 color 16;
#X obj 424 298 symbol \$0-canvas;
#X obj 319 182 im.snapshot;
#X obj 62 203 cnv 13 75 14 empty \$0-canvas im.flip 2 7 0 12 -24198
-1 0;
#X connect 0 0 1 0;
#X connect 1 0 2 0;
#X connect 1 0 8 0;
#X connect 3 0 4 0;
#X connect 3 1 7 0;
#X connect 4 0 5 0;
#X connect 7 0 6 0;
#X connect 8 0 3 0;
#X coords 0 -1 1 1 80 20 1 60 200;
