#N canvas 0 23 450 300;
#X obj 109 90 inlet~;
#X obj 108 214 bob~, f 19;
#X obj 109 250 outlet~;
#X obj 163 73 inlet~ cutoff;
#X obj 219 130 inlet~ resonance;
#X obj 163 177 mtof~;
#X obj 163 129 *~ 127;
#X obj 219 152 *~ 2;
#X obj 163 98 *~ 0.8;
#X obj 163 151 abs~;
#X obj 219 174 abs~;
#X text 247 74 insert argument here;
#X connect 0 0 1 0;
#X connect 1 0 2 0;
#X connect 3 0 8 0;
#X connect 4 0 7 0;
#X connect 5 0 1 1;
#X connect 6 0 9 0;
#X connect 7 0 10 0;
#X connect 8 0 6 0;
#X connect 9 0 5 0;
#X connect 10 0 1 2;
