#N canvas 132 69 525 493 10;
#X obj 11 10 cnv 15 500 120 empty empty instrument_maker 10 22 0 40
-4032 -66577 0;
#X obj 22 60 cnv 15 478 40 empty empty im.flip 20 22 0 30 -1 -196864
0;
#X obj 171 287 im.keypress Space;
#X obj 91 384 im.speaker;
#X text 22 110 Charles Matthews 2020;
#X obj 11 192 cnv 15 500 20 empty empty Arguments: 10 10 0 13 -203904
-66577 0;
#X obj 11 215 cnv 15 500 20 empty empty Inlets: 34 10 0 13 -204800
-66577 0;
#X obj 11 239 cnv 15 500 20 empty empty Outlets: 25 10 0 13 -204786
-66577 0;
#X text 21 171 comment, f 81;
#X obj 11 135 cnv 15 500 50 empty empty empty 25 10 0 13 -262130 -66577
0;
#X text 16 142 Assuming a range of 0-1 \, im.flip inverts its input.
Useful for inverting a fader or setting a button trigger when released
instead of pressed., f 81;
#X text 105 195 none, f 64;
#X text 105 217 1) value to flip;
#X text 106 241 1) flipped value;
#X obj 171 308 im.flip;
#X obj 91 288 im.noise;
#X obj 91 356 im.fader;
#X text 262 316 press the space bar to stop the noise.;
#X connect 2 0 14 0;
#X connect 14 0 16 1;
#X connect 15 0 16 0;
#X connect 16 0 3 0;
