#N canvas 439 59 525 493 10;
#X obj 11 10 cnv 15 500 120 empty empty instrument_maker 10 22 0 40
-4032 -66577 0;
#X obj 22 60 cnv 15 478 40 empty empty im.filter 20 22 0 30 -1 -196864
0;
#X text 22 110 Charles Matthews 2020;
#X obj 11 192 cnv 15 500 20 empty empty Arguments: 10 10 0 13 -203904
-66577 0;
#X obj 11 215 cnv 15 500 20 empty empty Inlets: 34 10 0 13 -204800
-66577 0;
#X obj 11 239 cnv 15 500 20 empty empty Outlets: 25 10 0 13 -204786
-66577 0;
#X text 21 171 comment, f 81;
#X obj 11 135 cnv 15 500 50 empty empty empty 25 10 0 13 -262130 -66577
0;
#X text 16 142 Resonant lowpass filter., f 81;
#X text 105 195 none, f 64;
#X obj 32 445 im.speaker;
#X obj 85 360 im.keypress Space;
#X obj 32 304 im.noise;
#X obj 32 334 im.filter, f 36;
#X obj 106 388 im.sensor 1 0.5;
#X obj 32 418 im.volume;
#X obj 138 301 im.lfo fast sine;
#X obj 245 300 im.lfo slow sawtooth;
#X text 136 283 cutoff;
#X text 243 283 resonance;
#X text 206 387 Press space to hear some filtered white noise.;
#X text 256 317 Replace these LFOs with sensor inputs;
#X text 105 217 1) signal to filter 2) cutoff (0-1) 3) resonance (0-1)
;
#X text 106 241 1) filtered signal;
#X connect 11 0 15 1;
#X connect 12 0 13 0;
#X connect 13 0 15 0;
#X connect 14 0 15 1;
#X connect 15 0 10 0;
#X connect 16 0 13 1;
#X connect 17 0 13 2;
