#N canvas 517 74 631 704;
#X obj 130 539 outlet~;
#X floatatom 124 310 5 0 0 0 - - -;
#X obj 124 284 tabread \$1;
#X obj 144 256 + 29;
#X obj 165 214 r \$1-middle;
#X floatatom 165 235 5 0 0 0 - - -;
#X obj 124 371 poly 3 1;
#X obj 124 434 route 1 2 3, f 40;
#X obj 64 107 spigot;
#X obj 44 4 tgl 15 0 empty empty empty 17 7 0 10 -262144 -1 -1 1 1
;
#X obj 96 47 spigot;
#X obj 50 -76 loadbang;
#X obj 50 -33 select 0;
#X text 139 -59 switch between mtof and table-based scale;
#X obj 64 132 mtof;
#X obj 129 23 tgl 15 0 empty empty empty 17 7 0 10 -262144 -1 -1 0
1;
#N canvas 91 450 450 300 fizz 0;
#X obj 81 150 *~ 0.2;
#X obj 81 197 *~, f 10;
#X obj 221 39 osc~;
#X obj 82 15 inlet;
#X obj 81 246 outlet~;
#X obj 138 174 vline~;
#X obj 81 80 phasor~;
#X obj 81 101 expr~ $v1 > $v2;
#X obj 218 13 * 0.01;
#X obj 221 60 +~ 2;
#X obj 221 81 *~ 0.25;
#X obj 82 46 unpack f f;
#X obj 237 175 t f f;
#X obj 263 199 * 0.5;
#X obj 234 221 pack f f;
#X msg 138 127 \$1 20 \, \$2 100 10 \, 0 2000 110;
#X connect 0 0 1 0;
#X connect 1 0 4 0;
#X connect 2 0 9 0;
#X connect 3 0 11 0;
#X connect 5 0 1 1;
#X connect 6 0 7 0;
#X connect 7 0 0 0;
#X connect 8 0 2 0;
#X connect 9 0 10 0;
#X connect 10 0 7 1;
#X connect 11 0 6 0;
#X connect 11 0 8 0;
#X connect 11 1 12 0;
#X connect 12 0 14 0;
#X connect 12 1 13 0;
#X connect 13 0 14 1;
#X connect 14 0 15 0;
#X connect 15 0 5 0;
#X restore 124 461 pd fizz;
#X text 149 -49 switch between mtof and table-based scale;
#X text 110 -74 determine note onset with brief switch to negative
number;
#X obj 153 61 abs;
#X obj 94 -8 t b;
#X obj 50 -55 list store \$1;
#X obj 125 402 pack f f f;
#X floatatom 263 244 5 0 0 0 - - -;
#X obj 263 218 tabread \$1;
#X obj 361 123 + 29;
#X obj 383 65 r \$1-middle;
#X floatatom 383 89 5 0 0 0 - - -;
#X obj 263 191 spigot;
#X obj 309 26 snapshot~;
#X obj 331 3 bang~;
#X obj 309 121 change;
#X obj 296 169 tgl 15 0 empty empty empty 17 7 0 10 -262144 -1 -1 0
1;
#X obj 296 145 t b;
#X obj 309 -22 inlet~ fwd pitch;
#X obj 474 -17 inlet~ fwd velocity;
#X obj 474 43 snapshot~;
#X obj 496 16 bang~;
#X obj 474 67 change;
#X obj 480 233 > 0;
#X obj 508 165 loadbang;
#X msg 508 189 1;
#X floatatom 396 20 5 0 0 0 - - -;
#X obj 423 217 > 1;
#X obj 423 241 sel 1;
#X obj 330 287 / 1, f 16;
#X msg 423 265 127;
#X obj 507 279 sel 1;
#X obj 480 256 t f f;
#X obj 508 302 tgl 15 0 empty empty empty 17 7 0 10 -262144 -1 -1 1
1;
#X obj 508 322 * 2;
#X obj 508 343 - 1;
#X floatatom 508 364 5 0 0 0 - - -;
#X obj 309 98 *, f 5;
#X obj 308 52 t f b;
#X obj 334 75 f;
#X obj 60 201 spigot;
#X obj 60 222 f;
#N canvas 275 84 450 300 fizz 0;
#X obj 81 150 *~ 0.2;
#X obj 81 197 *~, f 10;
#X obj 221 39 osc~;
#X obj 82 15 inlet;
#X obj 81 246 outlet~;
#X obj 138 174 vline~;
#X obj 81 80 phasor~;
#X obj 81 101 expr~ $v1 > $v2;
#X obj 218 13 * 0.01;
#X obj 221 60 +~ 2;
#X obj 221 81 *~ 0.25;
#X obj 82 46 unpack f f;
#X obj 237 175 t f f;
#X obj 263 199 * 0.5;
#X obj 234 221 pack f f;
#X msg 138 127 \$1 20 \, \$2 100 10 \, 0 2000 110;
#X connect 0 0 1 0;
#X connect 1 0 4 0;
#X connect 2 0 9 0;
#X connect 3 0 11 0;
#X connect 5 0 1 1;
#X connect 6 0 7 0;
#X connect 7 0 0 0;
#X connect 8 0 2 0;
#X connect 9 0 10 0;
#X connect 10 0 7 1;
#X connect 11 0 6 0;
#X connect 11 0 8 0;
#X connect 11 1 12 0;
#X connect 12 0 14 0;
#X connect 12 1 13 0;
#X connect 13 0 14 1;
#X connect 14 0 15 0;
#X connect 15 0 5 0;
#X restore 178 471 pd fizz;
#N canvas 275 84 450 300 fizz 0;
#X obj 81 150 *~ 0.2;
#X obj 81 197 *~, f 10;
#X obj 221 39 osc~;
#X obj 82 15 inlet;
#X obj 81 246 outlet~;
#X obj 138 174 vline~;
#X obj 81 80 phasor~;
#X obj 81 101 expr~ $v1 > $v2;
#X obj 218 13 * 0.01;
#X obj 221 60 +~ 2;
#X obj 221 81 *~ 0.25;
#X obj 82 46 unpack f f;
#X obj 237 175 t f f;
#X obj 263 199 * 0.5;
#X obj 234 221 pack f f;
#X msg 138 127 \$1 20 \, \$2 100 10 \, 0 2000 110;
#X connect 0 0 1 0;
#X connect 1 0 4 0;
#X connect 2 0 9 0;
#X connect 3 0 11 0;
#X connect 5 0 1 1;
#X connect 6 0 7 0;
#X connect 7 0 0 0;
#X connect 8 0 2 0;
#X connect 9 0 10 0;
#X connect 10 0 7 1;
#X connect 11 0 6 0;
#X connect 11 0 8 0;
#X connect 11 1 12 0;
#X connect 12 0 14 0;
#X connect 12 1 13 0;
#X connect 13 0 14 1;
#X connect 14 0 15 0;
#X connect 15 0 5 0;
#X restore 278 472 pd fizz;
#X floatatom 339 339 5 0 0 0 - - -;
#X obj 124 341 makenote 1 2000;
#X connect 1 0 61 0;
#X connect 2 0 1 0;
#X connect 3 0 2 0;
#X connect 4 0 5 0;
#X connect 5 0 3 1;
#X connect 6 0 22 0;
#X connect 6 1 22 1;
#X connect 6 2 22 2;
#X connect 7 0 16 0;
#X connect 7 1 58 0;
#X connect 7 2 59 0;
#X connect 8 0 14 0;
#X connect 9 0 8 1;
#X connect 10 0 2 0;
#X connect 11 0 21 0;
#X connect 12 0 9 0;
#X connect 12 1 20 0;
#X connect 14 0 56 0;
#X connect 15 0 10 1;
#X connect 16 0 0 0;
#X connect 19 0 8 0;
#X connect 19 0 10 0;
#X connect 20 0 15 0;
#X connect 21 0 12 0;
#X connect 22 0 7 0;
#X connect 24 0 23 0;
#X connect 25 0 24 0;
#X connect 26 0 27 0;
#X connect 27 0 25 1;
#X connect 28 0 24 0;
#X connect 29 0 54 0;
#X connect 30 0 29 0;
#X connect 31 0 28 0;
#X connect 31 0 19 0;
#X connect 32 0 28 1;
#X connect 33 0 32 0;
#X connect 34 0 29 0;
#X connect 34 1 42 0;
#X connect 35 0 36 0;
#X connect 36 0 38 0;
#X connect 37 0 36 0;
#X connect 38 0 39 0;
#X connect 38 0 43 0;
#X connect 38 0 45 0;
#X connect 39 0 48 0;
#X connect 40 0 41 0;
#X connect 41 0 39 0;
#X connect 43 0 44 0;
#X connect 44 0 46 0;
#X connect 45 0 60 0;
#X connect 45 0 61 1;
#X connect 46 0 45 1;
#X connect 47 0 49 0;
#X connect 48 0 56 1;
#X connect 48 1 47 0;
#X connect 49 0 50 0;
#X connect 50 0 51 0;
#X connect 51 0 52 0;
#X connect 52 0 55 1;
#X connect 53 0 31 0;
#X connect 54 0 53 0;
#X connect 54 1 55 0;
#X connect 55 0 53 1;
#X connect 56 0 57 0;
#X connect 57 0 1 0;
#X connect 58 0 0 0;
#X connect 59 0 0 0;
#X connect 61 0 6 0;
#X connect 61 1 6 1;
#X coords 0 -1 1 1 15 15 1 0 800;
