#N canvas 0 23 533 563 10;
#X obj 95 78 inlet~;
#X obj 91 456 outlet~;
#X obj 92 426 *~, f 8;
#X obj 218 78 bang~;
#X obj 140 107 snapshot~;
#X text 163 20 cheap "rampsmooth" here;
#X obj 170 172 f;
#X obj 148 220 >;
#X obj 188 222 <;
#X obj 140 125 change;
#X obj 149 249 sel 1;
#X obj 191 249 sel 1;
#X obj 161 344 pack f \$1;
#X obj 225 343 pack f \$2;
#X text 163 33 should we conflate gate with input?! I've switched im.input
to a plain inlet.;
#X obj 161 318 f;
#X obj 224 316 f;
#X obj 140 146 t f f b f f;
#X obj 154 395 line~;
#X obj 141 78 inlet~ mod;
#X connect 0 0 2 0;
#X connect 2 0 1 0;
#X connect 3 0 4 0;
#X connect 4 0 9 0;
#X connect 6 0 8 1;
#X connect 6 0 7 1;
#X connect 7 0 10 0;
#X connect 8 0 11 0;
#X connect 9 0 17 0;
#X connect 10 0 15 0;
#X connect 11 0 16 0;
#X connect 12 0 18 0;
#X connect 13 0 18 0;
#X connect 15 0 12 0;
#X connect 16 0 13 0;
#X connect 17 0 6 1;
#X connect 17 1 7 0;
#X connect 17 1 8 0;
#X connect 17 2 6 0;
#X connect 17 3 15 1;
#X connect 17 4 16 1;
#X connect 18 0 2 1;
#X connect 19 0 4 0;
