#N canvas 625 107 556 610 10;
#X obj 67 289 tabread4~ 0-grains;
#X obj 67 347 *~;
#X obj 67 399 outlet~;
#X obj 82 320 tabread4~ 0-env;
#X obj 168 48 *~ 44.1;
#X obj 168 25 expr~ 1000 / $v1;
#X obj 67 141 *~, f 17;
#X obj 66 262 +~;
#X obj 309 145 noise~;
#X obj 309 172 samphold~;
#X obj 308 234 *~;
#X obj 168 79 +~;
#X obj 225 50 receive~ 0-pitchMod;
#X obj 349 203 receive~ 0-offsetMod;
#X obj 198 176 receive~ 0-envMod;
#X obj 184 200 *~;
#X obj 67 373 *~ 0.2;
#X obj 167 3 inlet~ rate;
#X obj 67 2 inlet~ phase;
#X connect 0 0 1 0;
#X connect 1 0 16 0;
#X connect 3 0 1 1;
#X connect 4 0 11 0;
#X connect 5 0 4 0;
#X connect 6 0 7 0;
#X connect 7 0 0 0;
#X connect 8 0 9 0;
#X connect 9 0 10 0;
#X connect 10 0 7 1;
#X connect 11 0 6 1;
#X connect 12 0 11 1;
#X connect 13 0 10 1;
#X connect 14 0 15 1;
#X connect 15 0 3 0;
#X connect 16 0 2 0;
#X connect 17 0 5 0;
#X connect 18 0 6 0;
#X connect 18 0 9 1;
#X connect 18 0 15 0;
