#N canvas 0 23 450 300;
#X obj 95 158 pdcontrol;
#X msg 55 221 \; pd open \$1 \$2;
#X msg 83 135 dir;
#X obj 57 114 t a b;
#X obj 60 181 pack s s;
#X obj 54 84 makefilename %s-help.pd;
#X obj 131 115 print;
#X obj 52 59 symbol;
#X obj 52 38 inlet imname;
#X connect 0 0 4 1;
#X connect 2 0 0 0;
#X connect 3 0 4 0;
#X connect 3 1 2 0;
#X connect 4 0 1 0;
#X connect 5 0 3 0;
#X connect 5 0 6 0;
#X connect 7 0 5 0;
#X connect 8 0 7 0;
#X coords 0 -1 1 1 15 15 1 0 800;
