#N canvas 0 23 775 638 10;
#X obj 148 420 osc~;
#X obj 150 270 mtof~;
#X obj 148 473 outlet~;
#X obj 148 445 *~ 0.2;
#X obj 405 266 inlet~;
#X obj 161 353 *~;
#X obj 147 384 +~;
#X obj 160 328 osc~;
#X obj 159 302 *~ 1.5;
#X obj 404 291 *~ 1000;
#X obj 150 144 inlet~;
#X obj 566 3 * 12;
#X obj 332 -134 list store \$1, f 15;
#X obj 566 -21 list store \$2;
#X obj 431 29 +, f 23;
#X obj 431 -22 text search \$0-notes;
#X obj 333 -190 loadbang;
#X obj 431 50 sig~;
#X msg 647 -133 read im.nToI.txt;
#X obj 647 -107 text define \$0-notes;
#X obj 332 -159 t b b b, f 53;
#X obj 431 4 text get \$0-notes 1;
#N canvas 0 485 415 582 hz 0;
#X obj 182 141 list length;
#X obj 123 193 list split;
#X obj 125 92 list fromsymbol;
#X floatatom 154 274 5 0 0 0 - - -;
#X obj 124 392 spigot;
#X obj 125 413 list tosymbol;
#X obj 125 436 stof;
#X obj 68 31 route float;
#X obj 178 165 - 2;
#X obj 154 300 == 72;
#X obj 154 242 unpack f f;
#X floatatom 206 277 5 0 0 0 - - -;
#X obj 208 302 == 122;
#X obj 154 327 &&;
#X obj 126 460 outlet strippedOfHz;
#X obj 66 520 outlet float;
#X obj 154 352 t f f, f 25;
#X obj 294 500 outlet noteName;
#X obj 68 5 inlet messageToCheck;
#X obj 125 116 t a a, f 10;
#X obj 126 64 t a a, f 34;
#X obj 300 411 list store;
#X obj 421 352 t b f;
#X obj 421 397 -, f 5;
#X msg 421 376 1;
#X obj 388 435 spigot;
#X obj 301 383 sel 0;
#X connect 0 0 8 0;
#X connect 1 0 4 0;
#X connect 1 1 10 0;
#X connect 2 0 19 0;
#X connect 3 0 9 0;
#X connect 4 0 5 0;
#X connect 5 0 6 0;
#X connect 6 0 14 0;
#X connect 7 0 15 0;
#X connect 7 1 20 0;
#X connect 8 0 1 1;
#X connect 9 0 13 0;
#X connect 10 0 3 0;
#X connect 10 1 11 0;
#X connect 11 0 12 0;
#X connect 12 0 13 1;
#X connect 13 0 16 0;
#X connect 16 0 4 1;
#X connect 16 1 26 0;
#X connect 18 0 7 0;
#X connect 19 0 1 0;
#X connect 19 1 0 0;
#X connect 20 0 2 0;
#X connect 20 1 21 1;
#X connect 21 0 17 0;
#X connect 22 0 24 0;
#X connect 22 1 23 1;
#X connect 23 0 25 1;
#X connect 24 0 23 0;
#X connect 26 0 21 0;
#X restore 331 -110 pd hz;
#X f 18;
#X obj 383 -81 ftom;
#X obj 150 183 abs~;
#X connect 0 0 3 0;
#X connect 1 0 6 0;
#X connect 1 0 8 0;
#X connect 3 0 2 0;
#X connect 4 0 9 0;
#X connect 5 0 6 1;
#X connect 6 0 0 0;
#X connect 7 0 5 0;
#X connect 8 0 7 0;
#X connect 9 0 5 1;
#X connect 10 0 24 0;
#X connect 11 0 14 1;
#X connect 12 0 22 0;
#X connect 13 0 11 0;
#X connect 14 0 17 0;
#X connect 15 0 21 0;
#X connect 16 0 20 0;
#X connect 17 0 1 0;
#X connect 18 0 19 0;
#X connect 20 0 12 0;
#X connect 20 1 13 0;
#X connect 20 2 18 0;
#X connect 21 0 14 0;
#X connect 22 0 17 0;
#X connect 22 1 23 0;
#X connect 22 2 15 0;
#X connect 23 0 17 0;
#X connect 24 0 1 0;
#X coords 0 -1 1 1 15 15 1 0 800;
