#N canvas -1281 23 1175 1005 10;
#X obj 356 -5 keyname;
#X obj 403 20 sel \$1;
#X msg 403 97 1;
#X msg 356 97 0;
#X obj 356 44 t b f;
#X obj 323 130 spigot;
#X obj 356 20 change;
#X obj 323 291 f;
#X obj 363 291 + 1;
#X msg 283 265 0;
#X obj 323 266 metro 1;
#X obj 323 208 tgl 15 0 empty empty empty 17 7 0 10 -262144 -1 -1 0
1;
#X floatatom 323 316 5 0 0 0 - - -;
#X obj 283 231 sel 0;
#X msg 323 184 1;
#X msg 462 187 0;
#X obj 323 337 sel \$2;
#X text 102 47 arguments: \$1 = key \, \$2 = hold time;
#X obj 363 359 s \$0-reset;
#X obj 213 231 r \$0-reset;
#X obj 323 155 sel 1 0;
#X obj 462 390 sig~;
#X obj 462 417 outlet~;
#X msg 323 359 1;
#X text 110 231 reset counter >;
#X connect 0 0 6 0;
#X connect 0 1 1 0;
#X connect 1 0 2 0;
#X connect 2 0 5 1;
#X connect 3 0 5 1;
#X connect 4 0 3 0;
#X connect 4 1 5 0;
#X connect 5 0 20 0;
#X connect 6 0 4 0;
#X connect 7 0 8 0;
#X connect 7 0 12 0;
#X connect 8 0 7 1;
#X connect 9 0 7 1;
#X connect 10 0 7 0;
#X connect 11 0 10 0;
#X connect 11 0 13 0;
#X connect 12 0 16 0;
#X connect 13 0 9 0;
#X connect 14 0 11 0;
#X connect 15 0 11 0;
#X connect 15 0 21 0;
#X connect 16 0 23 0;
#X connect 16 0 18 0;
#X connect 19 0 9 0;
#X connect 20 0 14 0;
#X connect 20 1 15 0;
#X connect 21 0 22 0;
#X connect 23 0 21 0;
