#N canvas -1250 -183 803 675 10;
#X obj 82 159 keyname, f 9;
#X msg 82 259 0;
#X obj 82 218 t b f;
#X obj 49 290 spigot;
#X obj 82 192 change;
#X obj 49 422 sig~;
#X obj 49 443 outlet~;
#X obj 232 197 list store \$1;
#X obj 232 177 loadbang;
#N canvas 0 23 888 658 case 0;
#X obj 106 13 inlet;
#X obj 128 569 outlet;
#X obj 243 13 inlet;
#X obj 128 474 sel \$1;
#X msg 128 539 1;
#X obj 212 203 spigot;
#X obj 245 160 tgl 15 0 empty empty empty 17 7 0 10 -262144 -1 -1 0
1;
#X obj 245 42 sel space up down left right, f 86;
#X obj 319 201 spigot;
#X obj 351 163 tgl 15 0 empty empty empty 17 7 0 10 -262144 -1 -1 0
1;
#X obj 412 203 spigot;
#X obj 444 175 tgl 15 0 empty empty empty 17 7 0 10 -262144 -1 -1 0
1;
#X obj 518 203 spigot;
#X obj 550 169 tgl 15 0 empty empty empty 17 7 0 10 -262144 -1 -1 0
1;
#X obj 625 201 spigot;
#X obj 657 151 tgl 15 0 empty empty empty 17 7 0 10 -262144 -1 -1 0
1;
#X obj 212 226 sel space Space;
#X obj 320 224 sel up Up;
#X obj 412 226 sel down Down;
#X obj 519 226 sel left Left;
#X obj 625 224 sel right Right;
#X connect 0 0 5 0;
#X connect 0 0 8 0;
#X connect 0 0 10 0;
#X connect 0 0 12 0;
#X connect 0 0 14 0;
#X connect 0 0 3 0;
#X connect 2 0 7 0;
#X connect 3 0 4 0;
#X connect 4 0 1 0;
#X connect 5 0 16 0;
#X connect 6 0 5 1;
#X connect 7 0 6 0;
#X connect 7 1 9 0;
#X connect 7 2 11 0;
#X connect 7 3 13 0;
#X connect 7 4 15 0;
#X connect 8 0 17 0;
#X connect 9 0 8 1;
#X connect 10 0 18 0;
#X connect 11 0 10 1;
#X connect 12 0 19 0;
#X connect 13 0 12 1;
#X connect 14 0 20 0;
#X connect 15 0 14 1;
#X connect 16 0 4 0;
#X connect 16 1 4 0;
#X connect 17 0 4 0;
#X connect 17 1 4 0;
#X connect 18 0 4 0;
#X connect 18 1 4 0;
#X connect 19 0 4 0;
#X connect 19 1 4 0;
#X connect 20 0 4 0;
#X connect 20 1 4 0;
#X restore 133 221 pd case sensitive;
#X obj 612 110 pdcontrol;
#X msg 612 88 dir 1;
#X obj 612 67 loadbang;
#X obj 611 157 list.rev;
#X obj 611 133 list fromsymbol;
#X obj 611 178 list split 10;
#X obj 611 222 list tosymbol;
#X obj 611 243 sel im.objects;
#X obj 611 200 list.rev;
#X obj 611 265 tgl 15 0 empty empty empty 17 7 0 10 -262144 -1 -1 1
1;
#X obj 380 287 &&, f 39;
#X obj 49 397 spigot 1, f 56;
#X obj 377 130 r noKey;
#X obj 380 260 tgl 15 0 empty empty empty 17 7 0 10 -262144 -1 -1 0
1;
#X obj 380 321 t b f, f 6;
#X obj 380 342 1;
#X obj 381 365 -, f 5;
#X text 514 15 Check: is the parent patcher in im.objects?;
#X msg 404 222 0;
#X text 515 31 This disables im.makeymakey though;
#X obj 404 201 delay 1100;
#X obj 387 165 t f b;
#X connect 0 0 4 0;
#X connect 0 1 9 0;
#X connect 1 0 3 1;
#X connect 2 0 1 0;
#X connect 2 1 3 0;
#X connect 3 0 21 0;
#X connect 4 0 2 0;
#X connect 5 0 6 0;
#X connect 7 0 9 1;
#X connect 8 0 7 0;
#X connect 9 0 3 1;
#X connect 10 0 14 0;
#X connect 11 0 10 0;
#X connect 12 0 11 0;
#X connect 13 0 15 0;
#X connect 14 0 13 0;
#X connect 15 0 18 0;
#X connect 16 0 17 0;
#X connect 17 0 19 0;
#X connect 18 0 16 0;
#X connect 19 0 20 1;
#X connect 20 0 24 0;
#X connect 21 0 5 0;
#X connect 22 0 31 0;
#X connect 23 0 20 0;
#X connect 24 0 25 0;
#X connect 24 1 26 1;
#X connect 25 0 26 0;
#X connect 26 0 21 1;
#X connect 28 0 23 0;
#X connect 30 0 28 0;
#X connect 31 0 23 0;
#X connect 31 1 30 0;
