#N canvas 1360 -27 450 300;
#X obj 88 30 keyname;
#X obj 160 82 sel \$1;
#X msg 141 121 1;
#X msg 74 149 0;
#X obj 80 96 t b f;
#X obj 65 184 spigot;
#X obj 81 70 change;
#X obj 78 233 sig~;
#X obj 78 254 outlet~;
#X connect 0 0 6 0;
#X connect 0 1 1 0;
#X connect 1 0 2 0;
#X connect 2 0 5 1;
#X connect 3 0 5 1;
#X connect 4 0 3 0;
#X connect 4 1 5 0;
#X connect 5 0 7 0;
#X connect 6 0 4 0;
#X connect 7 0 8 0;
#X coords 0 -1 1 1 15 15 1 0 800;
