#N canvas -1281 23 1175 1005;
#X obj 356 -5 keyname;
#X obj 403 20 sel \$1;
#X msg 403 97 1;
#X msg 356 97 0;
#X obj 356 44 t b f;
#X obj 323 130 spigot;
#X obj 356 20 change;
#X obj 723 -33 sig~;
#X obj 723 -12 outlet~;
#X obj 264 372 f;
#X obj 304 372 + 1;
#X msg 224 341 0;
#X text 110 342 reset counter >;
#X obj 264 342 metro 1;
#X obj 264 279 tgl 15 0 empty empty empty 17 7 0 10 -262144 -1 -1 0
1;
#X floatatom 264 401 5 0 0 0 - - -;
#X obj 224 310 sel 0;
#X msg 388 237 1;
#X msg 422 237 0;
#X obj 264 453 bng 15 250 50 0 empty empty empty 17 7 0 10 -262144
-1 -1;
#X obj 264 427 sel 500;
#X obj 349 289 spigot;
#X obj 388 266 tgl 15 0 empty empty empty 17 7 0 10 -262144 -1 -1 0
1;
#X obj 349 314 bng 15 250 50 0 empty empty empty 17 7 0 10 -262144
-1 -1;
#X obj 323 205 t b b;
#X obj 264 477 s \$0-reset;
#X obj 142 310 r \$0-reset;
#X text 88 534 arguments: \$1 = key \, \$2 = time to double press;
#X obj 422 208 r \$0-reset;
#X msg 349 338 1;
#X obj 323 155 sel 1 0;
#X obj 349 388 outlet~;
#X msg 496 343 0;
#X obj 496 208 bng 15 250 50 0 empty empty empty 17 7 0 10 -262144
-1 -1;
#X text 12 96 arguments: \$1 = key \, \$2 = double press window time
ms;
#X connect 0 0 6 0;
#X connect 0 1 1 0;
#X connect 1 0 2 0;
#X connect 2 0 5 1;
#X connect 3 0 5 1;
#X connect 4 0 3 0;
#X connect 4 1 5 0;
#X connect 5 0 30 0;
#X connect 6 0 4 0;
#X connect 7 0 8 0;
#X connect 9 0 10 0;
#X connect 9 0 15 0;
#X connect 10 0 9 1;
#X connect 11 0 9 1;
#X connect 13 0 9 0;
#X connect 14 0 13 0;
#X connect 14 0 16 0;
#X connect 15 0 20 0;
#X connect 16 0 11 0;
#X connect 17 0 22 0;
#X connect 17 0 14 0;
#X connect 18 0 22 0;
#X connect 18 0 14 0;
#X connect 19 0 25 0;
#X connect 20 0 19 0;
#X connect 21 0 23 0;
#X connect 22 0 21 1;
#X connect 23 0 29 0;
#X connect 24 0 17 0;
#X connect 24 1 21 0;
#X connect 26 0 11 0;
#X connect 28 0 18 0;
#X connect 29 0 31 0;
#X connect 30 0 24 0;
#X connect 30 1 33 0;
#X connect 32 0 31 0;
#X connect 33 0 32 0;
#X coords 0 -1 1 1 15 15 1 0 800;
