#N canvas 0 132 521 646 10;
#X obj 11 10 cnv 15 500 120 empty empty instrument_maker 10 22 0 40
-4032 -66577 0;
#X obj 22 60 cnv 15 478 40 empty empty im.keyrelease 20 22 0 30 -1
-196864 0;
#X obj 11 192 cnv 15 500 20 empty empty Arguments: 10 10 0 13 -203904
-66577 0;
#X obj 11 215 cnv 15 500 20 empty empty Inlets: 34 10 0 13 -204800
-66577 0;
#X obj 11 239 cnv 15 500 20 empty empty Outlets: 25 10 0 13 -204786
-66577 0;
#X text 21 171 comment, f 81;
#X obj 11 135 cnv 15 500 50 empty empty empty 25 10 0 13 -262130 -66577
0;
#X obj 11 547 cnv 15 500 40 empty empty empty 25 10 0 13 -262130 -66577
0;
#X text 105 196 1) letter of the key to monitor, f 64;
#X text 105 217 none;
#X text 106 241 "on/off" signal (1 and 0 respectively);
#X obj 55 331 im.speaker;
#X obj 55 428 im.speaker;
#X obj 307 378 im.speaker;
#X obj 55 310 im.player ../sounds/sn.wav;
#X obj 55 406 im.player ../sounds/string.aif;
#X obj 307 356 im.player ../sounds/rush.aif;
#X obj 55 289 im.keyrelease Up;
#X obj 55 384 im.keyrelease Space;
#X obj 307 335 im.keyrelease Return;
#X text 22 140 Trigger events when a key is released., f 80;
#X text 22 110 Alex Lucas 2020;
#X connect 14 0 11 0;
#X connect 15 0 12 0;
#X connect 16 0 13 0;
#X connect 17 0 14 0;
#X connect 18 0 15 0;
#X connect 19 0 16 0;
