#N canvas 364 107 569 644 10;
#X obj 11 10 cnv 15 500 120 empty empty instrument_maker 10 22 0 40
-4032 -66577 0;
#X obj 22 60 cnv 15 478 40 empty empty im.keypress 20 22 0 30 -1 -196864
0;
#X text 22 110 Charles Matthews 2020;
#X obj 11 192 cnv 15 500 20 empty empty Arguments: 10 10 0 13 -203904
-66577 0;
#X obj 11 215 cnv 15 500 20 empty empty Inlets: 34 10 0 13 -204800
-66577 0;
#X obj 11 239 cnv 15 500 20 empty empty Outlets: 25 10 0 13 -204786
-66577 0;
#X text 21 171 comment, f 81;
#X obj 11 135 cnv 15 500 50 empty empty empty 25 10 0 13 -262130 -66577
0;
#X obj 11 547 cnv 15 500 40 empty empty empty 25 10 0 13 -262130 -66577
0;
#X text 22 140 Hold keys down to play certain sounds. Watch out - on
a computer keyboard \, it doesn't always work to hold more than one
key down together. If you find that certain notes "hang" \, try pressing
the relevant key again., f 80;
#X text 105 196 1) letter of the key to monitor, f 64;
#X text 105 217 none;
#X text 106 241 "on/off" signal (1 and 0 respectively);
#X text 19 549 im.keypress is the same as im.keystroke, f 81;
#X obj 153 354 im.speaker;
#X obj 14 321 im.fader;
#X obj 58 298 im.keypress a;
#X obj 197 298 im.keypress b;
#X obj 328 293 im.keypress c;
#X obj 464 285 im.keypress d;
#X obj 152 321 im.fader;
#X obj 284 318 im.fader;
#X obj 419 315 im.fader;
#X obj 14 278 im.pulsewave A 3;
#X obj 151 278 im.pulsewave B 3;
#X obj 284 273 im.pulsewave C 3;
#X obj 418 263 im.pulsewave D 3;
#X obj 20 414 im.keypress Up;
#X obj 21 456 im.speaker;
#X obj 190 457 im.speaker;
#X obj 190 413 im.keypress Space;
#X obj 383 457 im.speaker;
#X obj 383 414 im.keypress Return;
#X text 18 509 im.player plays its sound to the end when triggered
\, so does not pay attention to when the key is released., f 80;
#X text 18 567 im.makeymakey handles the keys found on the MaKeyMaKey
in a convenient package., f 81;
#X text 19 386 Some quick sample players using im.player:;
#X obj 21 435 im.player sounds/sn.wav;
#X obj 190 435 im.player sounds/string.aif;
#X obj 383 435 im.player sounds/rush.aif;
#X text 18 480 Access the cursor keys (useful for a MaKeyMaKey).,
f 80;
#X connect 15 0 14 0;
#X connect 16 0 15 1;
#X connect 17 0 20 1;
#X connect 18 0 21 1;
#X connect 19 0 22 1;
#X connect 20 0 14 0;
#X connect 21 0 14 0;
#X connect 22 0 14 0;
#X connect 23 0 15 0;
#X connect 24 0 20 0;
#X connect 25 0 21 0;
#X connect 26 0 22 0;
#X connect 27 0 36 0;
#X connect 30 0 37 0;
#X connect 32 0 38 0;
#X connect 36 0 28 0;
#X connect 37 0 29 0;
#X connect 38 0 31 0;
