#N canvas 22 29 572 755;
#X obj 281 1 keyname;
#X msg 282 193 0;
#X obj 282 167 t b f;
#X obj 249 226 spigot;
#X obj 281 26 change;
#X obj 249 387 f;
#X obj 289 387 + 1;
#X msg 209 361 0;
#X obj 249 362 metro 1;
#X obj 249 304 tgl 15 0 empty empty empty 17 7 0 10 -262144 -1 -1 0
1;
#X floatatom 249 412 5 0 0 0 - - -;
#X obj 209 327 sel 0;
#X msg 249 280 1;
#X msg 388 283 0;
#X text 28 143 arguments: \$1 = key \, \$2 = hold time;
#X obj 289 549 s \$0-reset;
#X obj 139 327 r \$0-reset;
#X obj 249 251 sel 1 0;
#X obj 388 597 sig~;
#X obj 388 624 outlet~;
#X msg 249 549 1;
#X text 36 327 reset counter >;
#X obj 421 160 list store \$1;
#X obj 421 140 loadbang;
#N canvas 0 23 888 658 case 0;
#X obj 106 13 inlet;
#X obj 128 569 outlet;
#X obj 243 13 inlet;
#X obj 128 474 sel \$1;
#X msg 128 539 1;
#X obj 212 203 spigot;
#X obj 245 160 tgl 15 0 empty empty empty 17 7 0 10 -262144 -1 -1 0
1;
#X obj 245 42 sel space up down left right, f 86;
#X obj 319 201 spigot;
#X obj 351 163 tgl 15 0 empty empty empty 17 7 0 10 -262144 -1 -1 0
1;
#X obj 412 203 spigot;
#X obj 444 175 tgl 15 0 empty empty empty 17 7 0 10 -262144 -1 -1 0
1;
#X obj 518 203 spigot;
#X obj 550 169 tgl 15 0 empty empty empty 17 7 0 10 -262144 -1 -1 0
1;
#X obj 625 201 spigot;
#X obj 657 151 tgl 15 0 empty empty empty 17 7 0 10 -262144 -1 -1 0
1;
#X obj 212 226 sel space Space;
#X obj 320 224 sel up Up;
#X obj 412 226 sel down Down;
#X obj 519 226 sel left Left;
#X obj 625 224 sel right Right;
#X connect 0 0 5 0;
#X connect 0 0 8 0;
#X connect 0 0 10 0;
#X connect 0 0 12 0;
#X connect 0 0 14 0;
#X connect 0 0 3 0;
#X connect 2 0 7 0;
#X connect 3 0 4 0;
#X connect 4 0 1 0;
#X connect 5 0 16 0;
#X connect 6 0 5 1;
#X connect 7 0 6 0;
#X connect 7 1 9 0;
#X connect 7 2 11 0;
#X connect 7 3 13 0;
#X connect 7 4 15 0;
#X connect 8 0 17 0;
#X connect 9 0 8 1;
#X connect 10 0 18 0;
#X connect 11 0 10 1;
#X connect 12 0 19 0;
#X connect 13 0 12 1;
#X connect 14 0 20 0;
#X connect 15 0 14 1;
#X connect 16 0 4 0;
#X connect 16 1 4 0;
#X connect 17 0 4 0;
#X connect 17 1 4 0;
#X connect 18 0 4 0;
#X connect 18 1 4 0;
#X connect 19 0 4 0;
#X connect 19 1 4 0;
#X connect 20 0 4 0;
#X connect 20 1 4 0;
#X restore 323 194 pd case sensitive;
#X obj 248 521 t b b;
#X obj 249 460 >= \$2;
#X obj 138 356 t b b;
#X msg 180 284 0;
#X obj 249 494 sel 1;
#X obj 322 485 bng 15 250 50 0 empty empty empty 17 7 0 10 -262144
-1 -1;
#N canvas 613 72 450 658 filterMacKeyOff 0;
#X obj 37 9 inlet;
#X obj 59 584 outlet;
#X obj 261 74 timer;
#X obj 281 122 sel 1;
#X obj 281 162 f;
#X floatatom 222 99 5 0 0 0 - - -;
#X obj 281 101 > 100;
#X obj 63 195 t f f;
#X obj 61 231 >= 450;
#X obj 104 231 <= 550;
#X obj 58 284 tgl 15 0 empty empty empty 17 7 0 10 -262144 -1 -1 1
1;
#X obj 59 261 &&;
#X obj 94 316 bng 15 250 50 0 empty empty empty 17 7 0 10 -262144 -1
-1;
#X obj 28 358 t f f;
#X obj 52 428 tgl 15 0 empty empty empty 17 7 0 10 -262144 -1 -1 0
1;
#X obj 59 479 bng 15 250 50 0 empty empty empty 17 7 0 10 -262144 -1
-1;
#X obj 279 46 t b b f f;
#X obj 59 506 delay 100;
#X obj 59 552 0;
#X obj 52 395 <= 90;
#X obj 280 185 sel 1;
#X msg 280 206 1;
#X obj 86 291 sel 1 0;
#X obj 81 481 bng 15 250 50 0 empty empty empty 17 7 0 10 -262144 -1
-1;
#X obj 51 454 sel 1 0;
#X connect 0 0 16 0;
#X connect 2 0 5 0;
#X connect 2 0 6 0;
#X connect 3 0 4 0;
#X connect 4 0 20 0;
#X connect 5 0 7 0;
#X connect 5 0 13 0;
#X connect 6 0 3 0;
#X connect 7 0 8 0;
#X connect 7 1 9 0;
#X connect 8 0 11 0;
#X connect 9 0 11 1;
#X connect 10 0 22 0;
#X connect 11 0 10 0;
#X connect 12 0 15 0;
#X connect 13 1 19 0;
#X connect 14 0 24 0;
#X connect 15 0 17 0;
#X connect 16 0 2 0;
#X connect 16 1 2 1;
#X connect 16 2 4 1;
#X connect 17 0 18 0;
#X connect 18 0 1 0;
#X connect 19 0 14 0;
#X connect 20 0 21 0;
#X connect 21 0 1 0;
#X connect 22 0 12 0;
#X connect 23 0 17 0;
#X connect 24 0 15 0;
#X connect 24 1 23 0;
#X restore 200 76 pd filterMacKeyOff;
#X connect 0 0 4 0;
#X connect 0 1 24 0;
#X connect 1 0 3 1;
#X connect 2 0 1 0;
#X connect 2 1 3 0;
#X connect 3 0 17 0;
#X connect 4 0 31 0;
#X connect 5 0 6 0;
#X connect 5 0 10 0;
#X connect 6 0 5 1;
#X connect 7 0 5 1;
#X connect 8 0 5 0;
#X connect 9 0 8 0;
#X connect 9 0 11 0;
#X connect 10 0 26 0;
#X connect 11 0 7 0;
#X connect 12 0 9 0;
#X connect 13 0 9 0;
#X connect 13 0 18 0;
#X connect 16 0 27 0;
#X connect 17 0 12 0;
#X connect 17 1 13 0;
#X connect 18 0 19 0;
#X connect 20 0 18 0;
#X connect 22 0 24 1;
#X connect 23 0 22 0;
#X connect 24 0 3 1;
#X connect 25 0 20 0;
#X connect 25 1 15 0;
#X connect 26 0 29 0;
#X connect 27 0 7 0;
#X connect 27 1 28 0;
#X connect 28 0 9 0;
#X connect 29 0 25 0;
#X connect 29 0 30 0;
#X connect 31 0 2 0;
#X coords 0 -1 1 1 15 15 1 0 800;
