#N canvas -1065 229 803 675 10;
#X obj 79 32 keyname;
#X obj 126 82 sel \$1;
#X msg 126 147 1;
#X msg 79 149 0;
#X obj 79 107 t b f;
#X obj 46 180 spigot;
#X obj 79 82 change;
#X obj 46 204 sig~;
#X obj 46 225 outlet~;
#X obj 245 18 list store \$1;
#X obj 212 83 spigot;
#X obj 245 -2 loadbang;
#X obj 245 63 tgl 15 0 empty empty empty 17 7 0 10 -262144 -1 -1 0
1;
#X obj 212 106 sel space;
#X obj 245 42 sel space;
#X obj 46 149 != 1;
#X connect 0 0 6 0;
#X connect 0 1 1 0;
#X connect 0 1 10 0;
#X connect 1 0 2 0;
#X connect 2 0 5 1;
#X connect 3 0 5 1;
#X connect 4 0 3 0;
#X connect 4 1 15 0;
#X connect 5 0 7 0;
#X connect 6 0 4 0;
#X connect 7 0 8 0;
#X connect 9 0 14 0;
#X connect 10 0 13 0;
#X connect 11 0 9 0;
#X connect 12 0 10 1;
#X connect 13 0 2 0;
#X connect 14 0 12 0;
#X connect 15 0 5 0;
