#N canvas 0 23 450 300 10;
#X obj 150 121 inlet~;
#X obj 151 175 outlet~;
#X text 213 177 could replace with table reference;
#X obj 256 120 sig~ \$1;
#X obj 229 96 inlet~;
#X obj 150 147 expr~ $v1 < $v2;
#X connect 0 0 5 0;
#X connect 3 0 5 1;
#X connect 4 0 5 1;
#X connect 5 0 1 0;
