#N canvas 132 69 525 493 10;
#X obj 11 10 cnv 15 500 120 empty empty instrument_maker 10 22 0 40
-4032 -66577 0;
#X obj 22 60 cnv 15 478 40 empty empty im.looper 20 22 0 30 -1 -196864
0;
#X text 22 110 Charles Matthews 2020;
#X obj 11 192 cnv 15 500 20 empty empty Arguments: 10 10 0 13 -203904
-66577 0;
#X obj 11 215 cnv 15 500 20 empty empty Inlets: 34 10 0 13 -204800
-66577 0;
#X obj 11 239 cnv 15 500 20 empty empty Outlets: 25 10 0 13 -204786
-66577 0;
#X text 21 171 comment, f 81;
#X obj 11 135 cnv 15 500 50 empty empty empty 25 10 0 13 -262130 -66577
0;
#X obj 7 428 cnv 15 500 40 empty empty empty 25 10 0 13 -262130 -66577
0;
#X obj 30 398 im.speaker;
#X obj 30 282 im.microphone;
#X obj 30 366 im.looper, f 57;
#X obj 138 325 im.keypress q;
#X obj 252 321 im.keypress w;
#X text 135 286 Press q to record \, w to play back;
#X obj 367 269 im.lfo slow sine;
#X obj 367 333 im.add 1;
#X obj 367 311 im.multiply;
#X obj 430 289 im.keypress e;
#X text 108 449, f 81;
#X text 15 430 Want to record and play back a oneshot sample? Try im.oneshot
instead., f 81;
#X text 16 141 Sample and loop an audio signal. im.looper can also
be used to loop control data from a sensor!, f 81;
#X text 105 217 1) signal to loop 2) record 3) play 4) playback pitch
;
#X text 105 195 none, f 64;
#X text 106 241 1) sampled/looped signal;
#X connect 10 0 11 0;
#X connect 11 0 9 0;
#X connect 12 0 11 1;
#X connect 13 0 11 2;
#X connect 15 0 17 0;
#X connect 16 0 11 3;
#X connect 17 0 16 0;
#X connect 18 0 17 1;
