#N canvas 473 146 525 493 10;
#X obj 11 10 cnv 15 500 120 empty empty instrument_maker 10 22 0 40
-4032 -66577 0;
#X obj 22 60 cnv 15 478 40 empty empty im.lessthan 20 22 0 30 -1 -196864
0;
#X obj 20 369 im.speaker;
#X text 22 110 Charles Matthews 2020;
#X obj 11 192 cnv 15 500 20 empty empty Arguments: 10 10 0 13 -203904
-66577 0;
#X obj 11 215 cnv 15 500 20 empty empty Inlets: 34 10 0 13 -204800
-66577 0;
#X obj 11 239 cnv 15 500 20 empty empty Outlets: 25 10 0 13 -204786
-66577 0;
#X text 21 171 comment, f 81;
#X obj 11 135 cnv 15 500 50 empty empty empty 25 10 0 13 -262130 -66577
0;
#X obj 8 392 cnv 15 500 80 empty empty empty 25 10 0 13 -262130 -66577
0;
#X text 16 394 -, f 81;
#X obj 97 282 im.sensor 1;
#X obj 18 309 im.noise;
#X obj 20 347 im.fader, f 13;
#X text 105 194 1) number/signal to match (optional), f 64;
#X text 105 217 1) signal to test 2) signal to match (if argument is
not used), f 64;
#X text 106 241 1) signal: 1 or 0 depending on input;
#X obj 97 313 im.lessthan 0.5;
#X text 16 142 Send a signal if the input is less than the argument
or a signal received in the right-hand inlet., f 81;
#X text 218 315 Is the reading from sensor 1 below half way?;
#X connect 11 0 17 0;
#X connect 12 0 13 0;
#X connect 13 0 2 0;
#X connect 17 0 13 1;
