#N canvas -1449 23 1229 954;
#X obj 26 220 osc~;
#X obj 59 433 *~, f 16;
#X obj 59 460 outlet~;
#X obj 26 34 inlet~ frequency;
#X obj 257 381 inlet~ range;
#X obj 58 272 *~;
#X obj 265 89 t b b;
#X obj 339 89 t b b;
#X obj 411 90 t b b;
#X obj 262 220 phasor~;
#X obj 263 355 *~;
#X obj 73 220 line~;
#X obj 265 -14 loadbang;
#X obj 368 275 line~;
#X obj 125 220 phasor~;
#X obj 123 352 *~;
#X obj 195 221 line~;
#X obj 262 275 expr~ $v1 > 0.5;
#X msg 265 122 1 10;
#X msg 339 122 1 10;
#X msg 411 122 1 10;
#X msg 302 122 0 10;
#X msg 375 122 0 10;
#X msg 447 122 0 10;
#X obj 26 135 +~;
#X obj 131 -16 loadbang;
#X obj 131 13 list store \$1;
#X obj 265 12 list store \$2;
#X obj 257 406 +~ 1;
#X obj 265 34 sel sine square sawtooth saw 0 pulse, f 48;
#X obj 600 78 bang~;
#X obj 564 113 snapshot~;
#X obj 564 135 change;
#X obj 564 33 inlet~ resetPhase;
#X obj 131 34 sel slow fast medium;
#X msg 131 90 0.25;
#X msg 170 90 8;
#X msg 209 90 2;
#X obj 564 157 sel 1;
#X msg 564 178 0;
#X connect 0 0 5 0;
#X connect 1 0 2 0;
#X connect 3 0 24 0;
#X connect 4 0 28 0;
#X connect 5 0 1 0;
#X connect 6 0 18 0;
#X connect 6 1 21 0;
#X connect 7 0 19 0;
#X connect 7 1 22 0;
#X connect 8 0 20 0;
#X connect 8 1 23 0;
#X connect 9 0 17 0;
#X connect 10 0 1 0;
#X connect 11 0 5 1;
#X connect 12 0 27 0;
#X connect 13 0 10 1;
#X connect 14 0 15 0;
#X connect 15 0 1 0;
#X connect 16 0 15 1;
#X connect 17 0 10 0;
#X connect 18 0 11 0;
#X connect 19 0 13 0;
#X connect 20 0 16 0;
#X connect 21 0 16 0;
#X connect 21 0 13 0;
#X connect 22 0 16 0;
#X connect 22 0 11 0;
#X connect 23 0 13 0;
#X connect 23 0 11 0;
#X connect 24 0 0 0;
#X connect 24 0 9 0;
#X connect 24 0 14 0;
#X connect 25 0 26 0;
#X connect 26 0 34 0;
#X connect 27 0 29 0;
#X connect 28 0 1 1;
#X connect 29 0 6 0;
#X connect 29 1 7 0;
#X connect 29 2 8 0;
#X connect 29 3 8 0;
#X connect 29 4 6 0;
#X connect 29 5 7 0;
#X connect 30 0 31 0;
#X connect 31 0 32 0;
#X connect 32 0 38 0;
#X connect 32 0 9 1;
#X connect 32 0 14 1;
#X connect 32 0 0 1;
#X connect 33 0 31 0;
#X connect 34 0 35 0;
#X connect 34 1 36 0;
#X connect 34 2 37 0;
#X connect 35 0 24 1;
#X connect 36 0 24 1;
#X connect 37 0 24 1;
#X connect 38 0 39 0;
