#N canvas 132 69 524 572 10;
#X obj 11 10 cnv 15 500 120 empty empty instrument_maker 10 22 0 40
-4032 -66577 0;
#X obj 22 60 cnv 15 478 40 empty empty im.midinote 20 22 0 30 -1 -196864
0;
#X obj 12 275 im.sensor 1;
#X obj 92 275 im.keypress Space;
#X text 22 110 Charles Matthews 2020;
#X obj 11 192 cnv 15 500 20 empty empty Arguments: 10 10 0 13 -203904
-66577 0;
#X obj 11 215 cnv 15 500 20 empty empty Inlets: 34 10 0 13 -204800
-66577 0;
#X obj 11 239 cnv 15 500 20 empty empty Outlets: 25 10 0 13 -204786
-66577 0;
#X text 21 171 comment, f 81;
#X obj 11 135 cnv 15 500 50 empty empty empty 25 10 0 13 -262130 -66577
0;
#X text 16 142 Experimental/work in progress!, f 81;
#X obj 91 300 im.step 8;
#X obj 89 329 im.sequence 0 1 2 3 4 3 2 7;
#X obj 87 467 noteout;
#X obj 87 380 im.midinote;
#X floatatom 87 401 5 0 0 0 - - -;
#X obj 418 277 im.sensor 1;
#X obj 329 300 im.step 8;
#X obj 327 329 im.sequence 0 1 2 3 4 3 2 7;
#X obj 325 353 im.scale C dorian 6;
#X obj 324 466 noteout;
#X floatatom 325 432 5 0 0 0 - - -;
#X obj 87 353 im.scale C phrygian 6;
#X obj 407 380 im.keypress m;
#X obj 330 275 im.keypress m;
#X floatatom 377 432 5 0 0 0 - - -;
#X floatatom 178 447 5 0 0 0 - - -;
#X obj 86 424 makenote 127 500;
#X obj 325 411 im.midinote 127;
#X obj 435 398 im.sensor 1;
#X text 105 195 1) velocity (optional), f 64;
#X text 16 157 Velocity is set to a static value (127 by default).
, f 81;
#X text 105 217 1) pitch input 2) velocity (on/off) input;
#X text 310 490 Version 2: take on/off from the same sensor triggering
the sequence., f 34;
#X text 74 487 Version 1: use makenote to generate a velocity/note
off. Useful if generating a scale from a continuous sensor., f 29
;
#X text 106 241 1) midi pitch value 2) midi velocity;
#X connect 2 0 11 0;
#X connect 3 0 11 0;
#X connect 11 0 12 0;
#X connect 12 0 22 0;
#X connect 14 0 15 0;
#X connect 15 0 27 0;
#X connect 16 0 17 0;
#X connect 17 0 18 0;
#X connect 18 0 19 0;
#X connect 19 0 28 0;
#X connect 21 0 20 0;
#X connect 22 0 14 0;
#X connect 23 0 28 1;
#X connect 24 0 17 0;
#X connect 25 0 20 1;
#X connect 26 0 13 1;
#X connect 27 0 13 0;
#X connect 27 1 26 0;
#X connect 28 0 21 0;
#X connect 28 1 25 0;
#X connect 29 0 28 1;
