#N canvas 132 69 525 493 10;
#X obj 11 10 cnv 15 500 120 empty empty instrument_maker 10 22 0 40
-4032 -66577 0;
#X obj 22 60 cnv 15 478 40 empty empty im.microphone 20 22 0 30 -1
-196864 0;
#X text 22 110 Charles Matthews 2020;
#X obj 11 192 cnv 15 500 20 empty empty Arguments: 10 10 0 13 -203904
-66577 0;
#X obj 11 215 cnv 15 500 20 empty empty Inlets: 34 10 0 13 -204800
-66577 0;
#X obj 11 239 cnv 15 500 20 empty empty Outlets: 25 10 0 13 -204786
-66577 0;
#X text 21 171 comment, f 81;
#X obj 11 135 cnv 15 500 50 empty empty empty 25 10 0 13 -262130 -66577
0;
#X obj 9 392 cnv 15 500 40 empty empty empty 25 10 0 13 -262130 -66577
0;
#X text 16 142 Access a microphone as an audio input., f 81;
#X text 105 195 none, f 64;
#X text 105 217 none;
#X text 106 241 1) audio signal from the microphone input;
#X obj 23 364 im.speaker;
#X obj 23 343 im.fader;
#X text 183 347 Beware of feedback!;
#X text 181 310 Hold down the space bar on your computer to hear the
mic., f 50;
#X obj 68 315 im.keypress Space;
#X obj 23 277 im.microphone;
#X text 206 369, f 81;
#X text 17 398 Try this object with im.pitchtracker or im.envelopefollower
to control synthesiser parameters., f 78;
#X connect 14 0 13 0;
#X connect 17 0 14 1;
#X connect 18 0 14 0;
