#N canvas 11 146 450 300 10;
#X obj 18 143 send im.source;
#X obj 18 57 metro 1000;
#X msg 18 101 osc;
#X obj 18 13 loadbang;
#X obj 18 36 tgl 15 0 empty empty empty 17 7 0 10 -262144 -1 -1 1 1
;
#N canvas 0 22 730 555 OSC 1;
#X obj 42 53 r fromGUI;
#X obj 51 535 s im-fromOSC;
#X obj 86 165 list fromsymbol;
#X obj 85 214 sel 47;
#X msg 133 294 32;
#X obj 204 308 list;
#X obj 74 367 list store;
#X obj 58 190 list.iter;
#X obj 67 402 list tosymbol;
#X obj 130 339 list prepend;
#X obj 43 75 list split 1, f 50;
#X obj 71 120 t b a b b;
#X msg 196 169 0;
#X obj 85 238 t b b;
#X obj 84 290 spigot;
#X msg 83 263 1;
#X obj 43 96 t b a;
#X obj 162 409 list;
#X obj 48 479 list store;
#X obj 52 510 list append;
#X obj 80 450 list prepend;
#X obj 84 317 t b b;
#X text 10 9 Charles Matthews for instrumentmaker.org 2019;
#X text 6 23 converts the mobmuplat OSC format into something we can
route natively;
#X connect 0 0 10 0;
#X connect 2 0 7 0;
#X connect 3 0 13 0;
#X connect 3 1 9 0;
#X connect 5 0 9 1;
#X connect 6 0 8 0;
#X connect 7 0 3 0;
#X connect 8 0 20 0;
#X connect 9 0 5 0;
#X connect 9 0 6 1;
#X connect 10 0 16 0;
#X connect 10 1 19 1;
#X connect 11 0 6 0;
#X connect 11 1 2 0;
#X connect 11 2 5 1;
#X connect 11 2 9 1;
#X connect 11 3 12 0;
#X connect 11 3 17 1;
#X connect 11 3 20 1;
#X connect 12 0 14 1;
#X connect 13 0 15 0;
#X connect 13 1 14 0;
#X connect 14 0 4 0;
#X connect 14 0 21 0;
#X connect 15 0 14 1;
#X connect 16 0 18 0;
#X connect 16 1 11 0;
#X connect 17 0 20 1;
#X connect 18 0 19 0;
#X connect 19 0 1 0;
#X connect 20 0 17 0;
#X connect 20 0 18 1;
#X connect 21 0 6 0;
#X connect 21 1 5 1;
#X connect 21 1 9 1;
#X restore 162 50 pd OSC;
#X connect 1 0 2 0;
#X connect 2 0 0 0;
#X connect 3 0 4 0;
#X connect 4 0 1 0;
