#N canvas 254 56 792 711 10;
#X obj 65 350 osc~ 100;
#X obj 64 421 *~, f 17;
#X obj 64 273 vline~;
#X msg 65 229 1 10 \, 0.7 20 10 \, 0 500 30;
#X obj 64 83 snapshot~;
#X obj 108 46 bang~;
#X obj 64 44 inlet~;
#X obj 65 112 change;
#X obj 50 594 outlet~;
#X obj 63 139 != 0;
#X obj 63 160 sel 1;
#X obj 63 381 *~ 0.2;
#X obj 65 312 *~ 120;
#X obj 255 272 vline~;
#X msg 273 235 1 10 \, 0.7 20 10 \, 0 500 30;
#X obj 271 387 *~ 0.2;
#X obj 273 356 phasor~ 100;
#X obj 141 116 bng 15 250 50 0 empty empty empty 17 7 0 10 -262144
-1 -1;
#X obj 87 449 *~ 1000;
#X obj 273 318 *~ 200;
#X obj 60 528 bob~;
#X obj 141 465 sig~ 2;
#X obj 226 434 *~;
#X connect 0 0 11 0;
#X connect 1 0 20 0;
#X connect 2 0 1 1;
#X connect 2 0 12 0;
#X connect 2 0 22 1;
#X connect 3 0 2 0;
#X connect 4 0 7 0;
#X connect 5 0 4 0;
#X connect 6 0 4 0;
#X connect 7 0 9 0;
#X connect 9 0 10 0;
#X connect 10 0 3 0;
#X connect 10 0 14 0;
#X connect 11 0 1 0;
#X connect 12 0 0 0;
#X connect 13 0 1 1;
#X connect 13 0 19 0;
#X connect 13 0 18 0;
#X connect 14 0 13 0;
#X connect 15 0 22 0;
#X connect 16 0 15 0;
#X connect 17 0 3 0;
#X connect 17 0 14 0;
#X connect 18 0 20 1;
#X connect 19 0 16 0;
#X connect 20 0 8 0;
#X connect 21 0 20 2;
#X connect 22 0 20 0;
