#N canvas 556 101 657 589 10;
#X obj 72 17 r fromGUI;
#X obj 72 74 route /myMultiTouch;
#X obj 72 96 route touch;
#X msg 74 128 \$3 \$4;
#X obj 72 315 list store, f 16;
#X obj 73 151 t b a, f 16;
#X msg 73 286 get \$1 1;
#X obj 72 194 list store \$1;
#X obj 72 174 bng 15 250 50 0 empty empty empty 17 7 0 10 -262144 -1
-1;
#X obj 72 216 sel x y;
#X msg 72 242 0;
#X msg 103 243 1;
#X obj 72 375 im.map 0 1 0 7, f 23;
#X obj 72 43 list trim;
#X obj 208 258 \$3;
#X msg 27 154 \$2;
#X obj 218 27 loadbang;
#X obj 73 402 change;
#X text 119 426 for demo purposes \; this should be a float or even
a signal;
#X floatatom 23 190 5 0 0 0 - - -;
#X obj 23 213 sel 1;
#X floatatom 129 407 5 0 0 0 - - -;
#X obj 318 204 bng 15 250 50 0 empty empty empty 17 7 0 10 -262144
-1 -1;
#X obj 256 106 bng 15 250 50 0 empty empty empty 17 7 0 10 -262144
-1 -1;
#X obj 255 159 route float;
#X obj 218 48 t b b b;
#X obj 318 257 \$3;
#X obj 175 258 f;
#X obj 255 185 t f b;
#X obj 318 283 * 12;
#X obj 344 310 print range;
#X obj 256 131 list store \$2;
#X obj 378 207 bng 15 250 50 0 empty empty empty 17 7 0 10 -262144
-1 -1;
#X obj 377 247 \$3;
#X obj 374 273 - 1;
#X obj 74 521 sig~;
#X obj 74 542 outlet~;
#X floatatom 301 95 5 0 0 0 - - -;
#X obj 99 449 tgl 15 0 empty empty empty 17 7 0 10 -262144 -1 -1 0
1;
#X obj 101 469 expr if($f1 ==1 \, 1 \, -1);
#X obj 75 500 *;
#X obj 20 62 t a a b;
#X obj 318 181 sel octaves divisions range;
#X obj 430 214 bng 15 250 50 0 empty empty empty 17 7 0 10 -262144
-1 -1;
#X obj 429 254 \$3;
#X obj 426 280 +;
#X obj 6 452 spigot;
#X obj 20 502 spigot;
#X obj 9 421 tgl 15 0 empty empty empty 17 7 0 10 -262144 -1 -1 0 1
;
#X obj 20 477 tgl 15 0 empty empty empty 17 7 0 10 -262144 -1 -1 0
1;
#X obj 73 448 f;
#X connect 0 0 13 0;
#X connect 1 0 2 0;
#X connect 2 0 41 0;
#X connect 3 0 5 0;
#X connect 4 0 12 0;
#X connect 5 0 8 0;
#X connect 5 1 4 1;
#X connect 6 0 4 0;
#X connect 7 0 9 0;
#X connect 8 0 7 0;
#X connect 9 0 10 0;
#X connect 9 1 11 0;
#X connect 10 0 6 0;
#X connect 11 0 6 0;
#X connect 12 0 21 0;
#X connect 12 0 17 0;
#X connect 13 0 1 0;
#X connect 14 0 12 4;
#X connect 15 0 19 0;
#X connect 16 0 25 0;
#X connect 17 0 50 0;
#X connect 19 0 20 0;
#X connect 20 0 50 0;
#X connect 22 0 26 0;
#X connect 23 0 31 0;
#X connect 24 0 28 0;
#X connect 24 1 42 0;
#X connect 25 2 23 0;
#X connect 26 0 29 0;
#X connect 27 0 12 3;
#X connect 28 0 27 0;
#X connect 28 1 14 0;
#X connect 29 0 30 0;
#X connect 29 0 12 4;
#X connect 31 0 24 0;
#X connect 31 0 37 0;
#X connect 32 0 33 0;
#X connect 33 0 34 0;
#X connect 34 0 12 4;
#X connect 35 0 36 0;
#X connect 38 0 39 0;
#X connect 39 0 40 1;
#X connect 40 0 35 0;
#X connect 41 0 15 0;
#X connect 41 1 3 0;
#X connect 41 2 38 0;
#X connect 42 0 22 0;
#X connect 42 1 32 0;
#X connect 42 2 43 0;
#X connect 43 0 44 0;
#X connect 44 0 45 0;
#X connect 45 0 12 4;
#X connect 48 0 46 0;
#X connect 49 0 47 0;
#X connect 50 0 40 0;
