#N canvas 125 82 450 300;
#X floatatom 21 152 5 0 0 0 - - -;
#X floatatom 22 226 5 0 0 0 - - -;
#X floatatom 88 150 5 0 0 0 - - -;
#X floatatom 150 148 5 0 0 0 - - -;
#X floatatom 222 147 5 0 0 0 - - -;
#X floatatom 281 146 5 0 0 0 - - -;
#X obj 88 120 \$1;
#X obj 150 119 \$2;
#X obj 223 117 \$3;
#X obj 281 118 \$4;
#X obj 87 82 inlet;
#X obj 150 83 inlet;
#X obj 223 81 inlet;
#X obj 286 82 inlet;
#X obj 283 14 loadbang;
#X obj 283 36 t b b b b;
#X obj 21 126 inlet;
#X obj 22 249 outlet;
#X obj 22 191 expr ($f1-$f2)*($f4-$f5)/($f2-$f3)+$f4;
#X text 35 209 borrowed from jamoma;
#X connect 0 0 18 0;
#X connect 1 0 17 0;
#X connect 2 0 18 1;
#X connect 3 0 18 2;
#X connect 4 0 18 3;
#X connect 5 0 18 4;
#X connect 6 0 2 0;
#X connect 7 0 3 0;
#X connect 8 0 4 0;
#X connect 9 0 5 0;
#X connect 10 0 6 0;
#X connect 11 0 7 0;
#X connect 12 0 8 0;
#X connect 13 0 9 0;
#X connect 14 0 15 0;
#X connect 15 0 6 0;
#X connect 15 1 7 0;
#X connect 15 2 8 0;
#X connect 15 3 9 0;
#X connect 16 0 0 0;
#X connect 18 0 1 0;
#X coords 0 -1 1 1 15 15 1 0 800;
