#N canvas -1736 -20 1596 881;
#X obj 78 54 symbol \$1;
#X obj 78 23 loadbang;
#X obj 78 79 list fromsymbol;
#X obj 78 286 list length;
#X obj 298 223 unpack 0 0 0;
#X obj 333 264 expr if ($f1 == 35 \, 1 \, if ($f1 == 98 \, -1 \, 0
));
#X text 177 78 << convert first argument to ASCII;
#X text 133 264 get accidental modifier >>;
#X obj 298 322 expr $f1 + $f2 + $f3;
#X obj 367 284 expr ($f1 - 49) * 12;
#X obj 284 438 i;
#X obj 698 233 unpack 0 0;
#X obj 755 294 expr ($f1 - 49) * 12;
#X obj 637 421 i;
#X obj 698 335 expr $f1 + $f2;
#X obj 78 350 sel 3 2;
#X text 151 244 get MIDI note number >>;
#X text 157 282 get octave modifier >>;
#N canvas -1167 21 620 527 getMidiNote 0;
#X obj 40 24 inlet;
#X obj 40 49 sel 65 66 67 68 69 70 71;
#X msg 98 75 24;
#X msg 126 75 26;
#X msg 155 75 28;
#X msg 184 75 29;
#X msg 213 75 31;
#X msg 40 75 33;
#X msg 69 75 35;
#X obj 40 110 outlet;
#X connect 0 0 1 0;
#X connect 1 0 7 0;
#X connect 1 1 8 0;
#X connect 1 2 2 0;
#X connect 1 3 3 0;
#X connect 1 4 4 0;
#X connect 1 5 5 0;
#X connect 1 6 6 0;
#X connect 2 0 9 0;
#X connect 3 0 9 0;
#X connect 4 0 9 0;
#X connect 5 0 9 0;
#X connect 6 0 9 0;
#X connect 7 0 9 0;
#X connect 8 0 9 0;
#X restore 298 244 pd getMidiNote;
#N canvas -1167 483 620 527 getMidiNote 0;
#X obj 40 24 inlet;
#X obj 40 49 sel 65 66 67 68 69 70 71;
#X msg 98 75 24;
#X msg 126 75 26;
#X msg 155 75 28;
#X msg 184 75 29;
#X msg 213 75 31;
#X msg 40 75 33;
#X msg 69 75 35;
#X obj 40 110 outlet;
#X connect 0 0 1 0;
#X connect 1 0 7 0;
#X connect 1 1 8 0;
#X connect 1 2 2 0;
#X connect 1 3 3 0;
#X connect 1 4 4 0;
#X connect 1 5 5 0;
#X connect 1 6 6 0;
#X connect 2 0 9 0;
#X connect 3 0 9 0;
#X connect 4 0 9 0;
#X connect 5 0 9 0;
#X connect 6 0 9 0;
#X connect 7 0 9 0;
#X connect 8 0 9 0;
#X restore 698 254 pd getMidiNote;
#X obj 284 491 sig~;
#X text 378 222 << use when accidental is provided;
#X text 768 231 << no accidental;
#X obj 634 469 inlet~;
#X obj 634 491 *~ \$2;
#X obj 634 519 outlet~;
#X text 336 517 << MIDI note value;
#X text 682 519 << amplitude;
#X text 176 15 arguments: \$1 = note \, \$2 = amplitude;
#X text 176 32 inlet: trigger signal (0-1);
#X text 176 48 outlets: MIDI note value signal \, amplitude signal
;
#X obj 78 101 t a a a, f 74;
#X obj 283 518 outlet~;
#X connect 0 0 2 0;
#X connect 1 0 0 0;
#X connect 2 0 31 0;
#X connect 3 0 15 0;
#X connect 4 0 18 0;
#X connect 4 1 5 0;
#X connect 4 2 9 0;
#X connect 5 0 8 1;
#X connect 8 0 10 1;
#X connect 9 0 8 2;
#X connect 10 0 20 0;
#X connect 11 0 19 0;
#X connect 11 1 12 0;
#X connect 12 0 14 1;
#X connect 13 0 20 0;
#X connect 14 0 13 1;
#X connect 15 0 10 0;
#X connect 15 1 13 0;
#X connect 18 0 8 0;
#X connect 19 0 14 0;
#X connect 20 0 32 0;
#X connect 23 0 24 0;
#X connect 24 0 25 0;
#X connect 31 0 3 0;
#X connect 31 1 4 0;
#X connect 31 2 11 0;
