#N canvas 132 69 525 493 10;
#X obj 11 10 cnv 15 500 120 empty empty instrument_maker 10 22 0 40
-4032 -66577 0;
#X obj 22 60 cnv 15 478 40 empty empty im.note 20 22 0 30 -1 -196864
0;
#X obj 11 192 cnv 15 500 20 empty empty Arguments: 10 10 0 13 -203904
-66577 0;
#X obj 11 215 cnv 15 500 20 empty empty Inlets: 34 10 0 13 -204800
-66577 0;
#X obj 11 239 cnv 15 500 20 empty empty Outlets: 25 10 0 13 -204786
-66577 0;
#X text 21 171 comment, f 81;
#X obj 11 135 cnv 15 500 50 empty empty empty 25 10 0 13 -262130 -66577
0;
#X text 22 110 Alex Lucas 2020;
#X obj 173 345 im.note Cb4;
#X obj 173 366 im.fizzy, f 11;
#X obj 173 387 im.speaker;
#X text 105 195 1) note and octave 2) amplitude (optional), f 64;
#X text 16 142 Play a fixed note on the instrument maker readymade
synthesisers according to an amplitude input., f 81;
#X text 105 217 1) amplitude signal (0-1);
#X text 106 241 1) pitch 2) velocity;
#X connect 8 0 9 0;
#X connect 8 1 9 1;
#X connect 9 0 10 0;
