#N canvas 396 87 525 493 10;
#X obj 11 10 cnv 15 500 120 empty empty instrument_maker 10 22 0 40
-4032 -66577 0;
#X obj 22 60 cnv 15 478 40 empty empty im.output 20 22 0 30 -1 -196864
0;
#X obj 144 272 im.sensor 1;
#X obj 224 272 im.keypress Space;
#X text 22 110 Charles Matthews 2020;
#X obj 11 192 cnv 15 500 20 empty empty Arguments: 10 10 0 13 -203904
-66577 0;
#X obj 11 215 cnv 15 500 20 empty empty Inlets: 34 10 0 13 -204800
-66577 0;
#X obj 11 239 cnv 15 500 20 empty empty Outlets: 25 10 0 13 -204786
-66577 0;
#X text 21 171 comment, f 81;
#X obj 11 135 cnv 15 500 50 empty empty empty 25 10 0 13 -262130 -66577
0;
#X text 105 217 1) audio to send to output;
#X text 106 241 none;
#X obj 24 367 im.output;
#X obj 25 272 im.noise;
#X obj 25 330 im.fader;
#X text 54 440, f 81;
#X obj 190 425 im.output 1;
#X obj 320 428 im.output 2;
#X obj 234 372 im.keypress l;
#X obj 364 373 im.keypress r;
#X obj 190 400 im.fader;
#X obj 320 402 im.fader;
#X obj 188 344 im.sinewave C 4;
#X obj 319 346 im.sinewave D 5;
#X text 105 195 1) output number (optional), f 64;
#X text 189 445 left;
#X text 318 447 right;
#X text 16 137 Connect objects to im.output to send audio through the
computer speaker., f 81;
#X text 16 165 This is similar to im.speaker \, with an additional
option to choose the output., f 81;
#X text 186 324 Optional argument chooses speaker:;
#X connect 2 0 14 1;
#X connect 3 0 14 1;
#X connect 13 0 14 0;
#X connect 14 0 12 0;
#X connect 18 0 20 1;
#X connect 19 0 21 1;
#X connect 20 0 16 0;
#X connect 21 0 17 0;
#X connect 22 0 20 0;
#X connect 23 0 21 0;
