#N canvas 223 227 450 300;
#X obj 63 157 outlet~;
#X obj 116 76 loadbang;
#X obj 116 97 \$1;
#X obj 63 136 +~;
#X obj 62 13 inlet~ signal;
#X obj 116 119 * 12;
#X connect 1 0 2 0;
#X connect 2 0 5 0;
#X connect 3 0 0 0;
#X connect 4 0 3 0;
#X connect 5 0 3 1;
#X coords 0 -1 1 1 15 15 1 0 800;
