#N canvas 0 23 458 439;
#X obj 227 83 loadbang;
#X obj 42 50 inlet~;
#X obj 42 271 outlet~;
#X obj 227 114 t b b;
#X obj 42 84 *~ 8;
#X obj 28 164 expr~ if($v1 % 2 == 0 \, $v2 \, $v2 * -1);
#X text 48 191 not sure if this works yet;
#X obj 228 257 list store \$1 \$2 \$3 \$4 \$5 \$6 \$7 \$8;
#X msg 254 194 8;
#X obj 229 315 array set \$0-sequence;
#X obj 230 341 array define \$0-sequence;
#X obj 254 217 array size \$0-sequence;
#X obj 42 122 tabread~ \$0-sequence;
#X connect 0 0 3 0;
#X connect 1 0 4 0;
#X connect 3 0 7 0;
#X connect 3 1 8 0;
#X connect 4 0 5 0;
#X connect 4 0 12 0;
#X connect 5 0 2 0;
#X connect 7 0 9 0;
#X connect 8 0 11 0;
#X connect 12 0 5 1;
#X coords 0 -1 1 1 15 15 1 0 800;
