#N canvas 0 23 528 664 10;
#X obj 120 389 outlet~;
#X floatatom 114 160 5 0 0 0 - - -;
#X obj 114 134 tabread \$1;
#X obj 114 106 + 29;
#X obj 245 6 r \$1-middle;
#X floatatom 245 27 5 0 0 0 - - -;
#X obj 114 191 makenote 1 10;
#X obj 115 252 pack f f;
#X obj 114 221 poly 3 1;
#X obj 114 284 route 1 2 3, f 40;
#X obj 64 107 spigot;
#X obj 44 4 tgl 15 0 empty empty empty 17 7 0 10 -262144 -1 -1 1 1
;
#X obj 96 47 spigot;
#X obj 50 -76 loadbang;
#X obj 50 -33 select 0;
#X text 139 -59 switch between mtof and table-based scale;
#X obj 64 132 mtof;
#X obj 129 23 tgl 15 0 empty empty empty 17 7 0 10 -262144 -1 -1 0
1;
#X obj 154 11 snapshot~;
#X obj 198 -26 bang~;
#X obj 154 -28 inlet~;
#X text 149 -49 switch between mtof and table-based scale;
#X text 110 -74 determine note onset with brief switch to negative
number;
#X obj 154 36 change;
#X obj 153 61 abs;
#X obj 94 -8 t b;
#X obj 50 -55 list store \$1;
#N canvas 273 231 534 486 fuzz 0;
#X obj 58 355 *~ 0.2;
#X obj 81 393 *~, f 10;
#X obj 82 46 t f b, f 10;
#X obj 82 15 inlet;
#X obj 78 425 outlet~;
#X obj 170 231 vline~;
#X obj 79 244 phasor~;
#X obj 175 126 expr~ $v1 > $v2;
#X obj 198 78 +~ 2;
#X obj 198 99 *~ 0.25;
#X obj 78 182 +~;
#X obj 81 82 sig~;
#X obj 88 132 osc~;
#X obj 88 107 *~ 2;
#X obj 15 302 osc~;
#X obj 15 274 /~ 2;
#X obj 15 323 *~ 0.1;
#X obj 77 218 +~;
#X obj 197 259 *~ 100;
#X obj 88 153 *~ 100;
#X obj 356 192 vline~;
#X msg 356 145 1 200 \, 0.2 100 200 \, 0 500 300;
#X obj 92 313 bob~;
#X msg 168 152 1 20 \, 0.2 100 10 \, 0 500 300;
#X obj 318 222 *~ 1000;
#X obj 192 28 random 10;
#X obj 192 49 + 1;
#X connect 0 0 1 0;
#X connect 1 0 4 0;
#X connect 2 0 11 0;
#X connect 2 1 23 0;
#X connect 2 1 21 0;
#X connect 2 1 25 0;
#X connect 3 0 2 0;
#X connect 5 0 1 1;
#X connect 5 0 18 0;
#X connect 5 0 22 2;
#X connect 6 0 7 0;
#X connect 7 0 22 0;
#X connect 8 0 9 0;
#X connect 9 0 7 1;
#X connect 10 0 17 0;
#X connect 11 0 10 0;
#X connect 11 0 13 0;
#X connect 12 0 8 0;
#X connect 12 0 19 0;
#X connect 13 0 12 0;
#X connect 14 0 16 0;
#X connect 15 0 14 0;
#X connect 16 0 1 0;
#X connect 17 0 15 0;
#X connect 17 0 6 0;
#X connect 18 0 17 1;
#X connect 19 0 10 1;
#X connect 20 0 24 0;
#X connect 21 0 20 0;
#X connect 22 0 0 0;
#X connect 23 0 5 0;
#X connect 24 0 22 1;
#X connect 25 0 26 0;
#X connect 26 0 13 1;
#X restore 114 311 pd fuzz;
#N canvas 273 231 534 486 fuzz 0;
#X obj 58 355 *~ 0.2;
#X obj 81 393 *~, f 10;
#X obj 82 46 t f b, f 10;
#X obj 82 15 inlet;
#X obj 78 425 outlet~;
#X obj 170 231 vline~;
#X obj 79 244 phasor~;
#X obj 175 126 expr~ $v1 > $v2;
#X obj 198 78 +~ 2;
#X obj 198 99 *~ 0.25;
#X obj 78 182 +~;
#X obj 81 82 sig~;
#X obj 88 132 osc~;
#X obj 88 107 *~ 2;
#X obj 15 302 osc~;
#X obj 15 274 /~ 2;
#X obj 15 323 *~ 0.1;
#X obj 77 218 +~;
#X obj 197 259 *~ 100;
#X obj 88 153 *~ 100;
#X obj 356 192 vline~;
#X msg 356 145 1 200 \, 0.2 100 200 \, 0 500 300;
#X obj 92 313 bob~;
#X msg 168 152 1 20 \, 0.2 100 10 \, 0 500 300;
#X obj 318 222 *~ 1000;
#X obj 192 28 random 10;
#X obj 192 49 + 1;
#X connect 0 0 1 0;
#X connect 1 0 4 0;
#X connect 2 0 11 0;
#X connect 2 1 23 0;
#X connect 2 1 21 0;
#X connect 2 1 25 0;
#X connect 3 0 2 0;
#X connect 5 0 1 1;
#X connect 5 0 18 0;
#X connect 5 0 22 2;
#X connect 6 0 7 0;
#X connect 7 0 22 0;
#X connect 8 0 9 0;
#X connect 9 0 7 1;
#X connect 10 0 17 0;
#X connect 11 0 10 0;
#X connect 11 0 13 0;
#X connect 12 0 8 0;
#X connect 12 0 19 0;
#X connect 13 0 12 0;
#X connect 14 0 16 0;
#X connect 15 0 14 0;
#X connect 16 0 1 0;
#X connect 17 0 15 0;
#X connect 17 0 6 0;
#X connect 18 0 17 1;
#X connect 19 0 10 1;
#X connect 20 0 24 0;
#X connect 21 0 20 0;
#X connect 22 0 0 0;
#X connect 23 0 5 0;
#X connect 24 0 22 1;
#X connect 25 0 26 0;
#X connect 26 0 13 1;
#X restore 200 328 pd fuzz;
#N canvas 273 231 534 486 fuzz 0;
#X obj 58 355 *~ 0.2;
#X obj 81 393 *~, f 10;
#X obj 82 46 t f b, f 10;
#X obj 82 15 inlet;
#X obj 78 425 outlet~;
#X obj 170 231 vline~;
#X obj 79 244 phasor~;
#X obj 175 126 expr~ $v1 > $v2;
#X obj 198 78 +~ 2;
#X obj 198 99 *~ 0.25;
#X obj 78 182 +~;
#X obj 81 82 sig~;
#X obj 88 132 osc~;
#X obj 88 107 *~ 2;
#X obj 15 302 osc~;
#X obj 15 274 /~ 2;
#X obj 15 323 *~ 0.1;
#X obj 77 218 +~;
#X obj 197 259 *~ 100;
#X obj 88 153 *~ 100;
#X obj 356 192 vline~;
#X msg 356 145 1 200 \, 0.2 100 200 \, 0 500 300;
#X obj 92 313 bob~;
#X msg 168 152 1 20 \, 0.2 100 10 \, 0 500 300;
#X obj 318 222 *~ 1000;
#X obj 192 28 random 10;
#X obj 192 49 + 1;
#X connect 0 0 1 0;
#X connect 1 0 4 0;
#X connect 2 0 11 0;
#X connect 2 1 23 0;
#X connect 2 1 21 0;
#X connect 2 1 25 0;
#X connect 3 0 2 0;
#X connect 5 0 1 1;
#X connect 5 0 18 0;
#X connect 5 0 22 2;
#X connect 6 0 7 0;
#X connect 7 0 22 0;
#X connect 8 0 9 0;
#X connect 9 0 7 1;
#X connect 10 0 17 0;
#X connect 11 0 10 0;
#X connect 11 0 13 0;
#X connect 12 0 8 0;
#X connect 12 0 19 0;
#X connect 13 0 12 0;
#X connect 14 0 16 0;
#X connect 15 0 14 0;
#X connect 16 0 1 0;
#X connect 17 0 15 0;
#X connect 17 0 6 0;
#X connect 18 0 17 1;
#X connect 19 0 10 1;
#X connect 20 0 24 0;
#X connect 21 0 20 0;
#X connect 22 0 0 0;
#X connect 23 0 5 0;
#X connect 24 0 22 1;
#X connect 25 0 26 0;
#X connect 26 0 13 1;
#X restore 240 357 pd fuzz;
#X connect 1 0 6 0;
#X connect 2 0 1 0;
#X connect 3 0 2 0;
#X connect 4 0 5 0;
#X connect 5 0 3 1;
#X connect 6 0 8 0;
#X connect 6 1 8 1;
#X connect 7 0 9 0;
#X connect 8 0 7 0;
#X connect 8 1 7 1;
#X connect 9 0 27 0;
#X connect 9 1 28 0;
#X connect 9 2 29 0;
#X connect 10 0 16 0;
#X connect 11 0 10 1;
#X connect 12 0 2 0;
#X connect 13 0 26 0;
#X connect 14 0 11 0;
#X connect 14 1 25 0;
#X connect 16 0 6 0;
#X connect 17 0 12 1;
#X connect 18 0 23 0;
#X connect 19 0 18 0;
#X connect 20 0 18 0;
#X connect 23 0 24 0;
#X connect 24 0 10 0;
#X connect 24 0 12 0;
#X connect 25 0 17 0;
#X connect 26 0 14 0;
#X connect 27 0 0 0;
#X connect 28 0 0 0;
#X connect 29 0 0 0;
