#N canvas 0 23 706 661;
#X obj 123 163 list store \$1;
#X obj 123 96 change;
#X obj 124 76 snapshot~;
#X obj 221 16 bang~;
#X obj 123 138 sel 1;
#X obj 125 22 inlet~;
#X obj 123 514 readsf~;
#X msg 124 428 open \$1 \, 1;
#X obj 233 557 outlet~;
#X obj 122 254 +;
#X obj 150 253 i;
#X obj 122 279 % 4;
#X msg 123 221 1;
#X floatatom 122 304 5 0 0 0 - - -;
#X obj 123 353 list trim;
#X obj 122 327 list append, f 21;
#X obj 180 253 loadbang;
#X obj 179 275 f \$2;
#X obj 179 296 + 1;
#X obj 123 376 route 0 1 2 3, f 51;
#X obj 197 515 readsf~;
#X msg 198 429 open \$1 \, 1;
#X obj 273 515 readsf~;
#X msg 274 429 open \$1 \, 1;
#X obj 349 514 readsf~;
#X msg 350 428 open \$1 \, 1;
#X obj 124 407 symbol;
#X obj 197 404 symbol;
#X obj 274 405 symbol;
#X obj 351 403 symbol;
#X obj 123 188 t b a, f 21;
#X msg 442 401 0, f 2;
#X obj 443 353 change;
#X obj 443 330 snapshot~;
#X obj 545 297 bang~;
#X obj 443 376 sel 1;
#X obj 443 297 expr~ $v1 > 0.1;
#X obj 443 268 inlet~ stop;
#X obj 124 43 expr~ $v1 > 0.1 \; ($v1 < -0.1)*-1;
#X obj 123 117 abs;
#X text 210 79 this is a temporary fix for sequencing rather than trigger
;
#X connect 0 0 30 0;
#X connect 1 0 39 0;
#X connect 2 0 1 0;
#X connect 3 0 2 0;
#X connect 4 0 0 0;
#X connect 5 0 38 0;
#X connect 6 0 8 0;
#X connect 7 0 6 0;
#X connect 9 0 10 0;
#X connect 9 0 11 0;
#X connect 10 0 9 1;
#X connect 11 0 13 0;
#X connect 12 0 9 0;
#X connect 13 0 15 0;
#X connect 14 0 19 0;
#X connect 15 0 14 0;
#X connect 16 0 17 0;
#X connect 17 0 18 0;
#X connect 18 0 11 1;
#X connect 19 0 26 0;
#X connect 19 1 27 0;
#X connect 19 2 28 0;
#X connect 19 3 29 0;
#X connect 20 0 8 0;
#X connect 21 0 20 0;
#X connect 22 0 8 0;
#X connect 23 0 22 0;
#X connect 24 0 8 0;
#X connect 25 0 24 0;
#X connect 26 0 7 0;
#X connect 27 0 21 0;
#X connect 28 0 23 0;
#X connect 29 0 25 0;
#X connect 30 0 12 0;
#X connect 30 1 15 1;
#X connect 31 0 6 0;
#X connect 31 0 24 0;
#X connect 31 0 22 0;
#X connect 31 0 20 0;
#X connect 32 0 35 0;
#X connect 33 0 32 0;
#X connect 34 0 33 0;
#X connect 35 0 31 0;
#X connect 36 0 33 0;
#X connect 37 0 36 0;
#X connect 38 0 2 0;
#X connect 38 1 2 0;
#X connect 39 0 4 0;
#X coords 0 -1 1 1 15 15 1 0 800;
