#N canvas -1640 23 1141 741;
#X obj 291 316 outlet~;
#X obj 306 77 inlet~;
#X obj 306 117 im.snapshot;
#X obj 306 137 change;
#X obj 291 277 *~;
#X text 386 73 arguments: \$1 = rate (ms);
#X msg 246 193 0;
#X obj 183 50 loadbang;
#X obj 183 76 f \$1;
#X obj 195 216 phasor~ 1;
#X obj 183 102 / 1000;
#X obj 195 168 /;
#X msg 183 145 1;
#X obj 183 123 t b f;
#X obj 195 244 expr~ $v1 < 0.2;
#X obj 246 170 sel 1;
#X text 11 101 convert rate in ms to Hz >>;
#X text 148 121 >>;
#X text 154 144 >>;
#X text 154 166 >>;
#X connect 1 0 2 0;
#X connect 2 0 3 0;
#X connect 3 0 4 1;
#X connect 3 0 15 0;
#X connect 4 0 0 0;
#X connect 6 0 9 1;
#X connect 7 0 8 0;
#X connect 8 0 10 0;
#X connect 9 0 14 0;
#X connect 10 0 13 0;
#X connect 11 0 9 0;
#X connect 12 0 11 0;
#X connect 13 0 12 0;
#X connect 13 1 11 1;
#X connect 14 0 4 0;
#X connect 15 0 6 0;
