#N canvas 48 122 1077 450 10;
#X obj 56 162 expr~ $v1 > $v2 \; $v1 < $v2 \; $v1 == $v2;
#X floatatom 56 63 5 0 0 0 - - -;
#X obj 56 104 line~;
#X text 212 9 just starting bits for something similar to rampsmooth
;
#X obj 40 252 number~;
#X obj 199 88 fexpr~ $x1[0] \; $x1[-1], f 15;
#X obj 161 141 number~;
#X obj 284 139 number~;
#X msg 340 220 0 \, 1 100;
#X obj 254 189 pack f f;
#X obj 246 251 print lines;
#X obj 247 221 spigot;
#X obj 314 220 tgl 15 0 empty empty empty 17 7 0 10 -262144 -1 -1 0
1;
#X obj 416 131 fexpr~ $x1[0] > $x1[-1] \; $x1[0] < $x1[-1] \; $x1[0]
== $x1[-1];
#X text 405 217 this seems to give us differences in sample;
#X obj 399 191 number~;
#X obj 522 189 number~;
#X obj 415 104 osc~ 2;
#X obj 638 188 number~;
#X text 403 231 now how do we smooth according to these conditions?
;
#X obj 595 145 number~;
#X obj 712 144 number~;
#X obj 595 66 osc~ 0.1;
#X obj 596 93 fexpr~ if($x1[0] > $x1[-1] \, $x1[-1] - 0.01 \, $x1[-1]
+ 0.01) \; $x1[0] < $x1[-1] \; $x1[0] == $x1[-1], f 68;
#X text 669 65 well \, at least I found the if statement :);
#X connect 0 0 4 0;
#X connect 1 0 2 0;
#X connect 2 0 0 0;
#X connect 2 0 5 0;
#X connect 5 0 6 0;
#X connect 5 1 7 0;
#X connect 6 1 9 0;
#X connect 7 1 9 1;
#X connect 8 0 2 0;
#X connect 9 0 11 0;
#X connect 11 0 10 0;
#X connect 12 0 11 1;
#X connect 13 0 15 0;
#X connect 13 1 16 0;
#X connect 13 2 18 0;
#X connect 17 0 13 0;
#X connect 22 0 21 0;
#X connect 22 0 23 0;
#X connect 23 0 20 0;
