#N canvas 132 69 525 493 10;
#X obj 11 10 cnv 15 500 120 empty empty instrument_maker 10 22 0 40
-4032 -66577 0;
#X obj 22 60 cnv 15 478 40 empty empty im.retrigger 20 22 0 30 -1 -196864
0;
#X obj 171 287 im.keypress Space;
#X obj 11 192 cnv 15 500 20 empty empty Arguments: 10 10 0 13 -203904
-66577 0;
#X obj 11 215 cnv 15 500 20 empty empty Inlets: 34 10 0 13 -204800
-66577 0;
#X obj 11 239 cnv 15 500 20 empty empty Outlets: 25 10 0 13 -204786
-66577 0;
#X text 21 171 comment, f 81;
#X obj 11 135 cnv 15 500 50 empty empty empty 25 10 0 13 -262130 -66577
0;
#X text 16 142 -, f 81;
#X text 22 110 Alex Lucas 2020;
#X text 106 241 1) retrigger signal (0-1);
#X text 105 217 1) trigger signal (1);
#X text 105 195 1) retrigger rate in ms, f 64;
#X obj 171 317 im.retrigger 100;
#X obj 171 356 im.snapshot;
#X connect 2 0 13 0;
#X connect 13 0 14 0;
