#N canvas -1623 133 546 538 10;
#X obj 11 10 cnv 15 500 120 empty empty instrument_maker 10 22 0 40
-4032 -66577 0;
#X obj 22 60 cnv 15 478 40 empty empty im.scale 20 22 0 30 -1 -196864
0;
#X text 22 110 Charles Matthews 2020;
#X obj 11 192 cnv 15 500 20 empty empty Arguments: 10 10 0 13 -203904
-66577 0;
#X obj 11 215 cnv 15 500 20 empty empty Inlets: 34 10 0 13 -204800
-66577 0;
#X obj 11 239 cnv 15 500 20 empty empty Outlets: 25 10 0 13 -204786
-66577 0;
#X text 21 171 comment, f 81;
#X obj 11 135 cnv 15 500 50 empty empty empty 25 10 0 13 -262130 -66577
0;
#X text 16 142 Choose a 7 interval scale based on equal temperament.
Input from a sensor determines the degree of the scale played., f
81;
#X text 105 217 just use inlet 1: takes degrees from root as numbers
from 0 upward, f 67;
#X text 106 241 just use outlet 1: the output according to the chosen
scale;
#X text 300 319 Scales/modes available:;
#X text 429 344 major;
#X text 429 433 minor;
#X text 355 345 ionian;
#X text 354 364 dorian;
#X text 354 381 phrygian;
#X text 353 399 lydian;
#X text 353 414 mixolydian;
#X text 353 430 aeolian;
#X text 354 446 locrian;
#X obj 40 308 im.scale C major 5;
#X obj 40 329 im.pulsewave;
#X obj 41 413 im.output;
#X obj 41 390 im.fader;
#X obj 74 361 im.sensor 2;
#X obj 162 362 im.keypress Space;
#X obj 41 279 im.sensor 1 7;
#X text 128 273 Send a full octave of C major by attaching a sensor
to the first input.;
#X obj 14 468 cnv 15 500 40 empty empty empty 25 10 0 13 -262130 -66577
0;
#X text 105 195 1) 1 root note* 2) scale/mode 3) starting octave,
f 64;
#X text 23 469 * Both # and b characters are valid \, e.g. C# \, Db
, f 81;
#X connect 21 0 22 0;
#X connect 22 0 24 0;
#X connect 24 0 23 0;
#X connect 25 0 24 1;
#X connect 26 0 24 1;
#X connect 27 0 21 0;
