#N canvas 82 267 798 511 10;
#X obj 46 411 outlet~;
#X obj 46 388 *~ 0.2;
#X obj 46 363 phasor~;
#X text 376 434 Moving between signal and control makes me tired..
;
#X text 374 451 We need to flip between argument and input rather than
adding - I do this in another abstraction (echo?);
#X text 95 388 add volume attribute;
#X obj 46 330 mtof~;
#X obj 46 263 inlet~;
#X obj 469 147 inlet;
#X obj 470 200 * 12;
#X obj 236 63 list store \$1, f 15;
#X obj 470 176 list store \$2;
#X obj 335 226 +, f 23;
#X obj 335 175 text search \$0-notes;
#X obj 237 7 loadbang;
#X obj 335 247 sig~;
#X msg 551 64 read im.nToI.txt;
#X obj 551 90 text define \$0-notes;
#X obj 236 38 t b b b, f 53;
#X text 684 23 attributes:;
#X text 764 22 note;
#X text 764 41 octave;
#X text 762 57 frequency;
#X text 763 73 amp;
#X obj 335 201 text get \$0-notes 1;
#N canvas 0 485 415 582 hz 0;
#X obj 182 141 list length;
#X obj 123 193 list split;
#X obj 125 92 list fromsymbol;
#X floatatom 154 274 5 0 0 0 - - -;
#X obj 124 392 spigot;
#X obj 125 413 list tosymbol;
#X obj 125 436 stof;
#X obj 68 31 route float;
#X obj 178 165 - 2;
#X obj 154 300 == 72;
#X obj 154 242 unpack f f;
#X floatatom 206 277 5 0 0 0 - - -;
#X obj 208 302 == 122;
#X obj 154 327 &&;
#X obj 126 460 outlet strippedOfHz;
#X obj 66 520 outlet float;
#X obj 154 352 t f f, f 25;
#X obj 294 500 outlet noteName;
#X obj 68 5 inlet messageToCheck;
#X obj 125 116 t a a, f 10;
#X obj 126 64 t a a, f 34;
#X obj 300 411 list store;
#X obj 421 352 t b f;
#X obj 421 397 -, f 5;
#X msg 421 376 1;
#X obj 388 435 spigot;
#X obj 301 383 sel 0;
#X connect 0 0 8 0;
#X connect 1 0 4 0;
#X connect 1 1 10 0;
#X connect 2 0 19 0;
#X connect 3 0 9 0;
#X connect 4 0 5 0;
#X connect 5 0 6 0;
#X connect 6 0 14 0;
#X connect 7 0 15 0;
#X connect 7 1 20 0;
#X connect 8 0 1 1;
#X connect 9 0 13 0;
#X connect 10 0 3 0;
#X connect 10 1 11 0;
#X connect 11 0 12 0;
#X connect 12 0 13 1;
#X connect 13 0 16 0;
#X connect 16 0 4 1;
#X connect 16 1 26 0;
#X connect 18 0 7 0;
#X connect 19 0 1 0;
#X connect 19 1 0 0;
#X connect 20 0 2 0;
#X connect 20 1 21 1;
#X connect 21 0 17 0;
#X connect 22 0 24 0;
#X connect 22 1 23 1;
#X connect 23 0 25 1;
#X connect 24 0 23 0;
#X connect 26 0 21 0;
#X restore 235 87 pd hz;
#X f 18;
#X obj 287 116 ftom;
#X obj 46 297 abs~;
#X connect 1 0 0 0;
#X connect 2 0 1 0;
#X connect 6 0 2 0;
#X connect 7 0 27 0;
#X connect 8 0 11 0;
#X connect 9 0 12 1;
#X connect 10 0 25 0;
#X connect 11 0 9 0;
#X connect 12 0 15 0;
#X connect 13 0 24 0;
#X connect 14 0 18 0;
#X connect 15 0 6 0;
#X connect 16 0 17 0;
#X connect 18 0 10 0;
#X connect 18 1 11 0;
#X connect 18 2 16 0;
#X connect 24 0 12 0;
#X connect 25 0 15 0;
#X connect 25 1 26 0;
#X connect 25 2 13 0;
#X connect 26 0 15 0;
#X connect 27 0 6 0;
