#N canvas 529 231 741 516 10;
#X obj 11 10 cnv 15 500 120 empty empty instrument_maker 10 22 0 40
-4032 -66577 0;
#X obj 22 60 cnv 15 478 40 empty empty im.squarewave 20 22 0 30 -1
-196864 0;
#X text 22 110 Charles Matthews 2020;
#X obj 11 192 cnv 15 500 20 empty empty Arguments: 10 10 0 13 -203904
-66577 0;
#X obj 11 215 cnv 15 500 20 empty empty Inlets: 34 10 0 13 -204800
-66577 0;
#X obj 11 239 cnv 15 500 20 empty empty Outlets: 25 10 0 13 -204786
-66577 0;
#X text 21 171 comment, f 81;
#X obj 11 135 cnv 15 500 50 empty empty empty 25 10 0 13 -262130 -66577
0;
#X obj 9 450 cnv 15 500 40 empty empty empty 25 10 0 13 -262130 -66577
0;
#X text 16 142 Generate a square wave (a kind of buzzing)., f 81;
#X text 105 195 1) Note (optional) 2) Octave (optional), f 64;
#X text 106 241 1) square wave signal;
#X text 105 217 1) pitch from im.scale (range of 0 - 127) 2) octave
offset;
#X obj 30 425 im.speaker;
#X obj 30 404 im.fader;
#X obj 75 321 im.keypress Space;
#X obj 86 354 im.sensor 1;
#X text 144 262 Hold down the space bar on your computer or connect
sensor 1 to hear a pulse wave at pitch A (octave 2)., f 32;
#X obj 30 283 im.squarewave A 2;
#X text 13 458 this object currently accepts pitches \, but does not
yet recognise raw frequences in Hz., f 81;
#X text 16 394 comment, f 81;
#X obj 514 10 cnv 15 200 410 empty empty notes 8 12 0 20 -261682 -66577
0;
#X msg 560 198 im.scale;
#X msg 571 223 im.lfo;
#X obj 533 339 im.help;
#X text 621 209 interactions;
#X text 525 41 related objects;
#X msg 533 66 im.sinewave;
#X msg 546 90 im.sawtooth;
#X msg 575 285 im.filter;
#X msg 588 306 im.envelope;
#X text 596 262 shaping;
#X msg 565 121 im.noise;
#X connect 14 0 13 0;
#X connect 15 0 14 1;
#X connect 16 0 14 1;
#X connect 18 0 14 0;
#X connect 22 0 24 0;
#X connect 23 0 24 0;
#X connect 27 0 24 0;
#X connect 28 0 24 0;
#X connect 29 0 24 0;
#X connect 30 0 24 0;
#X connect 32 0 24 0;
