#N canvas 0 23 871 722 10;
#X declare ../sounds;
#X obj 270 515 writesf~;
#X obj 316 482 im.linein 1;
#X obj 27 502 im.output;
#X obj 27 474 readsf~;
#X msg 359 310 stop;
#X obj 360 167 r fromGUI;
#X obj 360 188 route list;
#X obj 360 232 tgl 15 0 empty empty empty 17 7 0 10 -262144 -1 -1 0
1;
#X obj 115 82 r fromGUI;
#X obj 115 103 route list;
#X obj 115 145 tgl 15 0 empty empty empty 17 7 0 10 -262144 -1 -1 0
1;
#X obj 115 124 route /record;
#X obj 360 410 spigot;
#X obj 360 254 sel 0 1, f 16;
#X obj 274 191 sel 0;
#X msg 274 217 stop;
#X obj 8 327 tgl 15 0 empty empty empty 17 7 0 10 -262144 -1 -1 0 1
;
#X obj 8 348 sel 0 1;
#X msg 311 216 0;
#X obj 115 167 t f f, f 27;
#X obj 27 448 spigot, f 22;
#X obj 115 232 tgl 15 0 empty empty empty 17 7 0 10 -262144 -1 -1 0
1;
#X obj 393 388 tgl 15 0 empty empty empty 17 7 0 10 -262144 -1 -1 0
1;
#X obj 115 196 expr 1 - $f1 \; $f1;
#X msg 28 424 open \$1 \, 1;
#X obj 28 401 makefilename %s.wav;
#X obj 27 376 list store \$2;
#X obj 407 302 makefilename %s.wav;
#X obj 406 277 list store \$2;
#X msg 406 326 open \$1 \, start;
#X obj 519 592 s toGUI;
#X obj 360 209 route \$1;
#X obj 519 536 list store \$2;
#X msg 519 563 list \$1 highlight 0;
#X obj 442 536 print test;
#X obj 444 506 list prepend \$1-lcd;
#X obj 444 478 list append;
#X msg 444 451 clear \, paintrect 0 0 1 1 1 1 1 \$1;
#X obj 444 405 * 0.25;
#X obj 444 426 + 0.25;
#X msg 133 503 1, f 2;
#X msg 96 503 0;
#X obj 444 376 tgl 15 0 empty empty empty 17 7 0 10 -262144 -1 -1 0
1;
#X obj 509 396 print something;
#X obj 103 541 bng 15 250 50 0 empty empty empty 17 7 0 10 -262144
-1 -1;
#X msg 673 452 paintrect 0 0 1 1 1 0 1 1;
#X obj 548 87 declare ../sounds;
#X text 595 426 this is from mobmuplat..remove;
#X connect 1 0 0 0;
#X connect 3 0 2 0;
#X connect 3 1 41 0;
#X connect 3 1 44 0;
#X connect 4 0 12 0;
#X connect 5 0 6 0;
#X connect 6 0 31 0;
#X connect 7 0 13 0;
#X connect 7 0 16 0;
#X connect 8 0 9 0;
#X connect 9 0 11 0;
#X connect 10 0 19 0;
#X connect 11 0 10 0;
#X connect 12 0 0 0;
#X connect 13 0 4 0;
#X connect 13 1 28 0;
#X connect 14 0 15 0;
#X connect 14 0 18 0;
#X connect 15 0 0 0;
#X connect 16 0 17 0;
#X connect 17 1 26 0;
#X connect 17 1 40 0;
#X connect 18 0 3 0;
#X connect 19 0 23 0;
#X connect 19 1 14 0;
#X connect 20 0 3 0;
#X connect 21 0 20 1;
#X connect 22 0 12 1;
#X connect 23 0 21 0;
#X connect 23 1 22 0;
#X connect 24 0 20 0;
#X connect 25 0 24 0;
#X connect 26 0 25 0;
#X connect 27 0 29 0;
#X connect 28 0 27 0;
#X connect 29 0 12 0;
#X connect 31 0 7 0;
#X connect 32 0 33 0;
#X connect 33 0 30 0;
#X connect 35 0 34 0;
#X connect 35 0 30 0;
#X connect 36 0 35 0;
#X connect 37 0 36 0;
#X connect 38 0 39 0;
#X connect 39 0 37 0;
#X connect 40 0 42 0;
#X connect 41 0 42 0;
#X connect 42 0 38 0;
#X connect 42 0 43 0;
#X connect 45 0 36 0;
