#N canvas 380 75 714 597;
#X obj 51 21 ctlin;
#X floatatom 60 69 5 0 0 0 - - -;
#X floatatom 96 70 5 0 0 0 - - -;
#X msg 21 96 \$2 \$1;
#X obj 21 71 pack;
#X obj 20 365 route;
#X obj 86 111 loadbang;
#X floatatom 19 417 5 0 0 0 - - -;
#X obj 19 531 line~;
#X msg 19 508 \$1 10;
#X obj 19 553 outlet~;
#X obj 47 344 - 1;
#X floatatom 93 91 5 0 0 0 - - -;
#X obj 19 483 *;
#X obj 86 141 t b b, f 92;
#X obj 634 171 \$2;
#X obj 634 191 sel 0, f 11;
#X msg 634 213 1;
#X text 173 389 add range;
#X obj 366 420 expr ($f1 - $f2) * ((127 - $f2) / 128);
#X floatatom 368 382 5 0 0 0 - - -;
#X floatatom 367 454 5 0 0 0 - - -;
#X floatatom 591 390 5 0 0 0 - - -;
#X obj 19 391 im.map \$3 127 0 1;
#X obj 20 450 clip 0 1;
#X obj 86 187 route symbol, f 79;
#X obj 86 164 list store \$1;
#X obj 87 217 select A0 A1 A2 A3 A4 A5 A6 A7, f 44;
#X msg 87 243 1;
#X msg 117 243 2;
#X msg 152 244 3;
#X msg 182 244 4;
#X msg 217 244 5;
#X msg 247 244 6;
#X msg 282 245 7;
#X msg 312 245 8;
#X text 136 71 don't need to check channel..for now;
#X connect 0 0 4 0;
#X connect 0 0 12 0;
#X connect 0 1 1 0;
#X connect 0 1 4 1;
#X connect 0 2 2 0;
#X connect 3 0 5 0;
#X connect 4 0 3 0;
#X connect 5 0 23 0;
#X connect 6 0 14 0;
#X connect 7 0 24 0;
#X connect 8 0 10 0;
#X connect 9 0 8 0;
#X connect 11 0 5 1;
#X connect 13 0 9 0;
#X connect 14 0 26 0;
#X connect 14 1 15 0;
#X connect 15 0 16 0;
#X connect 16 0 17 0;
#X connect 16 1 13 1;
#X connect 17 0 13 1;
#X connect 19 0 21 0;
#X connect 20 0 19 0;
#X connect 22 0 19 1;
#X connect 23 0 7 0;
#X connect 24 0 13 0;
#X connect 25 0 27 0;
#X connect 25 1 11 0;
#X connect 26 0 25 0;
#X connect 27 0 28 0;
#X connect 27 1 29 0;
#X connect 27 2 30 0;
#X connect 27 3 31 0;
#X connect 27 4 32 0;
#X connect 27 5 33 0;
#X connect 27 6 34 0;
#X connect 27 7 35 0;
#X connect 28 0 11 0;
#X connect 29 0 11 0;
#X connect 30 0 11 0;
#X connect 31 0 11 0;
#X connect 32 0 11 0;
#X connect 33 0 11 0;
#X connect 34 0 11 0;
#X connect 35 0 11 0;
#X coords 0 -1 1 1 15 15 1 0 800;
