#N canvas 0 23 458 439 10;
#X obj 227 83 loadbang;
#X obj 42 50 inlet~;
#X obj 42 271 outlet~;
#X obj 227 114 t b b;
#X obj 28 164 expr~ if($v1 % 2 == 0 \, $v2 \, $v2 * -1);
#X text 48 191 not sure if this works yet;
#X obj 229 315 array set \$0-sequence;
#X obj 230 341 array define \$0-sequence;
#X obj 254 217 array size \$0-sequence;
#X obj 42 122 tabread~ \$0-sequence;
#X obj 42 84 *~ 4;
#X obj 228 257 list store \$1 \$2 \$3 \$4;
#X msg 254 194 4;
#X obj 339 112 inlet;
#X obj 406 112 inlet;
#X connect 0 0 3 0;
#X connect 1 0 10 0;
#X connect 3 0 11 0;
#X connect 3 1 12 0;
#X connect 4 0 2 0;
#X connect 9 0 4 1;
#X connect 10 0 4 0;
#X connect 10 0 9 0;
#X connect 11 0 6 0;
#X connect 12 0 8 0;
#X connect 13 0 6 0;
#X connect 14 0 6 1;
