#N canvas 18 36 799 720 10;
#X obj 238 215 zl rev;
#X msg 238 149 \$1 -resize read;
#X obj 238 271 soundfiler;
#X obj 238 79 coll soundfiles;
#C restore;
#X obj 351 147 coll params;
#C restore;
#X msg 351 211 \$1;
#X floatatom 238 297 15 0 0 0 - - -;
#X obj 139 547 *~;
#X obj 154 480 tgl 15 0 empty empty empty 17 7 0 10 -262144 -1 -1 0
1;
#X obj 154 522 line~;
#X msg 154 501 \$1 100;
#X obj 139 284 *~;
#X obj 154 262 sig~;
#X obj 139 450 *~ 0.1;
#X obj 373 21 t f f;
#X obj 139 573 outlet~;
#X obj 373 60 > 0;
#X floatatom 238 57 5 0 0 0 - - -;
#X obj 351 240 outlet;
#X obj 139 34 inlet~;
#X floatatom 293 425 5 0 0 0 - - -;
#X obj 443 -89 receive sensors;
#X obj 238 178 prepend sampler\$1;
#X obj 25 250 loadbang;
#X obj 25 272 zl reg sampler\$1;
#X obj 25 296 prepend set;
#X obj 443 -65 route \$1;
#X obj 283 508 delay 100;
#X obj 283 483 sel 0;
#X obj 283 577 send sampler\$1;
#X msg 283 529 sinesum 512 0;
#X obj 283 450 t f f;
#X obj 283 552 spigot;
#X obj 383 527 == 0;
#X obj 25 320 print test;
#X obj 139 419 tabread4~;
#X obj 275 328 r sfMax;
#X obj 139 308 *~ 1;
#X obj 238 345 pack;
#X obj 238 373 zl rev;
#X obj 238 396 /;
#X floatatom 238 428 5 0 0 0 - - -;
#X obj 238 459 i;
#X floatatom 221 499 5 0 0 0 - - -;
#X msg 221 520 1 \$1;
#X obj 221 543 /;
#X obj 139 213 pong~ 0 0 1;
#X msg 83 81 mode \$1;
#X obj 83 59 tgl 15 0 empty empty empty 17 7 0 10 -262144 -1 -1 0 1
;
#X obj 83 34 r rev;
#X obj 139 133 *~ 1;
#X obj 191 34 inlet;
#X obj 443 -42 sel 23;
#X msg 443 -19 0;
#X connect 0 0 2 0;
#X connect 1 0 22 0;
#X connect 2 0 6 0;
#X connect 3 0 1 0;
#X connect 3 0 4 0;
#X connect 4 0 5 0;
#X connect 5 0 18 0;
#X connect 6 0 12 0;
#X connect 6 0 38 0;
#X connect 7 0 15 0;
#X connect 8 0 10 0;
#X connect 8 0 31 0;
#X connect 9 0 7 1;
#X connect 10 0 9 0;
#X connect 11 0 37 0;
#X connect 12 0 11 1;
#X connect 13 0 7 0;
#X connect 14 0 16 0;
#X connect 14 1 17 0;
#X connect 16 0 8 0;
#X connect 17 0 3 0;
#X connect 19 0 50 0;
#X connect 21 0 26 0;
#X connect 22 0 0 0;
#X connect 23 0 24 0;
#X connect 24 0 25 0;
#X connect 25 0 34 0;
#X connect 25 0 35 0;
#X connect 26 0 52 0;
#X connect 27 0 30 0;
#X connect 28 0 27 0;
#X connect 30 0 32 0;
#X connect 31 0 28 0;
#X connect 31 1 33 0;
#X connect 32 0 29 0;
#X connect 33 0 32 1;
#X connect 35 0 13 0;
#X connect 36 0 38 1;
#X connect 37 0 35 0;
#X connect 38 0 39 0;
#X connect 39 0 40 0;
#X connect 40 0 41 0;
#X connect 41 0 42 0;
#X connect 42 0 37 1;
#X connect 42 0 43 0;
#X connect 43 0 44 0;
#X connect 44 0 45 0;
#X connect 45 0 46 2;
#X connect 46 0 11 0;
#X connect 47 0 46 0;
#X connect 48 0 47 0;
#X connect 49 0 48 0;
#X connect 50 0 46 0;
#X connect 51 0 50 1;
#X connect 52 0 53 0;
#X connect 52 1 14 0;
#X connect 53 0 14 0;
