#N canvas 66 24 721 538 10;
#X obj 11 10 cnv 15 500 120 empty empty instrument_maker 10 22 0 40
-4032 -66577 0;
#X obj 22 60 cnv 15 478 40 empty empty im.sawtooth 20 22 0 30 -1 -196864
0;
#X text 22 110 Charles Matthews 2020;
#X obj 11 192 cnv 15 500 20 empty empty Arguments: 10 10 0 13 -203904
-66577 0;
#X obj 11 215 cnv 15 500 20 empty empty Inlets: 34 10 0 13 -204800
-66577 0;
#X obj 11 239 cnv 15 500 20 empty empty Outlets: 25 10 0 13 -204786
-66577 0;
#X text 21 171 comment, f 81;
#X obj 11 135 cnv 15 500 50 empty empty empty 25 10 0 13 -262130 -66577
0;
#X obj 9 470 cnv 15 500 40 empty empty empty 25 10 0 13 -262130 -66577
0;
#X text 16 142 Generate a sawtooth wave (like an audible buzzing or
tingling texture at lower frequencies)., f 81;
#X text 105 195 1) note (optional) 2) octave (optional), f 64;
#X text 12 479 im.sawtooth accepts pitches \, but does not currently
recognise raw frequencies in Hz..see im.scale for more details on selecting
notes and octaves., f 80;
#X text 104 217 1) pitch from im.scale (range of 0 - 127);
#X text 104 242 1) sawtooth wave signal;
#X obj 18 436 im.speaker;
#X obj 18 415 im.fader;
#X obj 63 375 im.keypress Space;
#X obj 97 396 im.sensor 1;
#X obj 18 294 im.sawtooth A 5;
#X text 30 319 Hold down the space bar on your computer or connect
sensor 1 to hear a sawtooth at pitch A (octave 5)., f 32;
#X obj 295 453 im.speaker;
#X obj 295 432 im.fader;
#X obj 295 309 im.scale C major 4;
#X obj 295 264 im.lfo slow sawtooth;
#X obj 295 287 im.multiply 8;
#X obj 420 405 im.sensor 2;
#X obj 326 406 im.keypress Up;
#X obj 295 331 im.sawtooth;
#X text 316 352 hold down the 'Up' key or connect sensor 2 to hear
a sawtooth ascending through the C major scale., f 26;
#X obj 514 10 cnv 15 200 410 empty empty notes 8 12 0 20 -261682 -66577
0;
#X msg 561 188 im.scale;
#X msg 572 213 im.lfo;
#X obj 534 329 im.help;
#X text 622 199 interactions;
#X text 525 41 related objects;
#X msg 533 66 im.sinewave;
#X msg 576 275 im.filter;
#X msg 589 296 im.envelope;
#X text 597 252 shaping;
#X msg 546 90 im.squarewave;
#X msg 558 113 im.noise;
#X connect 15 0 14 0;
#X connect 16 0 15 1;
#X connect 17 0 15 1;
#X connect 18 0 15 0;
#X connect 21 0 20 0;
#X connect 22 0 27 0;
#X connect 23 0 24 0;
#X connect 24 0 22 0;
#X connect 25 0 21 1;
#X connect 26 0 21 1;
#X connect 27 0 21 0;
#X connect 30 0 32 0;
#X connect 31 0 32 0;
#X connect 35 0 32 0;
#X connect 36 0 32 0;
#X connect 37 0 32 0;
#X connect 39 0 32 0;
#X connect 40 0 32 0;
