#N canvas 195 55 1085 723 12;
#X obj 51 21 ctlin;
#X floatatom 60 69 5 0 0 0 - - -;
#X floatatom 96 70 5 0 0 0 - - -;
#X msg 21 96 \$2 \$1;
#X obj 21 71 pack;
#X obj 19 291 route;
#X floatatom 19 417 5 0 0 0 - - -;
#X obj 20 531 line~;
#X obj 17 748 outlet~;
#X obj 50 265 - 1;
#X floatatom 93 91 5 0 0 0 - - -;
#X obj 880 335 sel 0, f 11;
#X msg 880 359 1;
#X obj 20 450 clip 0 1;
#X obj 87 217 select A0 A1 A2 A3 A4 A5 A6 A7, f 44;
#X msg 87 243 1;
#X msg 117 243 2;
#X msg 152 244 3;
#X msg 182 244 4;
#X msg 217 244 5;
#X msg 247 244 6;
#X msg 282 245 7;
#X msg 312 245 8;
#X text 136 71 don't need to check channel..for now;
#X obj 65 816 hsl 103 8 0 127 0 0 \$0-interact \$0-display empty -2
-8 0 10 -204786 -258113 -1 0 0;
#X obj 88 344 s \$0-display;
#X obj 90 365 r \$0-interact;
#X msg 88 323 set \$1;
#X obj 18 332 f;
#N canvas 802 93 450 300 map 0;
#X obj 87 119 expr ($f1 - $f2) * ((127 - $f2) / 128);
#X floatatom 89 81 5 0 0 0 - - -;
#X floatatom 88 153 5 0 0 0 - - -;
#X floatatom 312 89 5 0 0 0 - - -;
#X connect 0 0 2 0;
#X connect 1 0 0 0;
#X connect 3 0 0 1;
#X restore 645 713 pd map;
#X obj 116 562 t b f, f 9;
#X obj 114 647 pack f f, f 9;
#X obj 114 621 \$0;
#X obj 245 782 s \$0-display;
#X msg 245 756 set \$1;
#X msg 287 686 \$2;
#X obj 288 709 t f f, f 9;
#X obj 338 780 s \$0-interact;
#X obj 243 663 route \$0;
#X floatatom 116 539 5 0 0 0 - #0-test -;
#X obj 325 652 bng 15 250 50 0 empty empty empty 17 7 0 10 -262144
-1 -1;
#X obj 62 835 s \$0-test;
#X text 121 20 sensor smoothing parameter!;
#X obj 114 671 s \$1-sensor-sync;
#X obj 242 586 r \$1-sensor-sync;
#X obj 20 506 pack f 10;
#X text 357 19 add information from config here;
#X text 533 530 ..how to offset divisions for centre rather than edge??
;
#X text 536 514 from input notes:;
#X obj 259 490 adc~;
#X msg 259 461 set \$1;
#X obj 260 525 *~;
#X text 345 247 restore to -1 later for arduino;
#X obj 258 438 t f b, f 9;
#X msg 317 461 1;
#X obj 259 406 + 2, f 45;
#X obj 853 147 route float;
#X floatatom 893 294 5 0 0 0 - - -;
#X obj 894 193 utils.check.unit %;
#X obj 894 217 / 100;
#X obj 1015 194 utils.check.unit x;
#X obj 1015 222 utils.check.unit X;
#X obj 985 252 utils.check.variable;
#X obj 853 119 utils.get.args \$0 2 range;
#X obj 161 113 utils.get.args \$0 1 input;
#X obj 626 397 route float;
#X obj 667 443 utils.check.unit ms;
#X obj 788 444 utils.check.unit Ms;
#X floatatom 883 404 5 0 0 0 - - -;
#X obj 1305 -129 cnv 15 600 400 empty empty empty 20 12 0 14 -204800
-66577 0;
#X obj 1314 -73 loadbang;
#X obj 1606 4 text define \$0-args;
#X msg 1606 -21 clear;
#N canvas 116 36 1085 705 args 0;
#X obj 925 203 list fromsymbol;
#X obj 925 234 list split 1;
#X obj 925 179 symbol \$1n;
#X obj 927 260 sel 36;
#X obj 959 335 list store \$1;
#X obj 520 491 list store;
#X obj 825 202 list fromsymbol;
#X obj 825 233 list split 1;
#X obj 825 259 sel 36;
#X obj 859 334 list store \$2;
#X obj 825 178 symbol \$2n;
#X obj 225 680 list store;
#X obj 722 204 list fromsymbol;
#X obj 722 235 list split 1;
#X obj 722 261 sel 36;
#X obj 722 180 symbol \$3n;
#X obj 756 336 list store \$3;
#X obj 452 512 list prepend;
#X obj 612 206 list fromsymbol;
#X obj 612 237 list split 1;
#X obj 612 263 sel 36;
#X obj 505 209 list fromsymbol;
#X obj 505 240 list split 1;
#X obj 505 266 sel 36;
#X obj 404 210 list fromsymbol;
#X obj 404 241 list split 1;
#X obj 404 267 sel 36;
#X obj 453 538 t a a, f 21;
#X obj 453 564 list length;
#X obj 453 590 sel 12;
#X obj 611 182 symbol \$4n;
#X obj 505 185 symbol \$5n;
#X obj 404 186 symbol \$6n;
#X obj 438 342 list store \$6;
#X obj 539 341 list store \$5;
#X obj 646 338 list store \$4;
#X obj 300 212 list fromsymbol;
#X obj 300 243 list split 1;
#X obj 300 269 sel 36;
#X obj 200 211 list fromsymbol;
#X obj 200 242 list split 1;
#X obj 200 268 sel 36;
#X obj 97 213 list fromsymbol;
#X obj 97 244 list split 1;
#X obj 97 270 sel 36;
#X obj -13 215 list fromsymbol;
#X obj -13 246 list split 1;
#X obj -13 272 sel 36;
#X obj -120 218 list fromsymbol;
#X obj -120 249 list split 1;
#X obj -120 275 sel 36;
#X obj -221 219 list fromsymbol;
#X obj -221 250 list split 1;
#X obj -221 276 sel 36;
#X obj -221 195 symbol \$12n;
#X obj -120 194 symbol \$11n;
#X obj -14 191 symbol \$10n;
#X obj 97 189 symbol \$9n;
#X obj 200 187 symbol \$8n;
#X obj 300 188 symbol \$7n;
#X obj -187 364 list store \$12;
#X obj -86 363 list store \$11;
#X obj 20 342 list store \$10;
#X obj 130 349 list store \$9;
#X obj 234 343 list store \$8;
#X obj 334 344 list store \$7;
#X text -217 70 Gather arguments into a list;
#X text -215 87 Charles Matthews 2019 for instrumentmaker.org;
#X text -215 104 This is something of a hack.. not how I'd like to
do it at all \, and for now needs to be included at creation of my
IM objects (which I do via a script in lieu of a functioning abstraction)..aside
from forcing a limit on number of arguments \, the way arguments are
passed in Pd appears that this cannot sit in a separate file/abstraction.
;
#X text 499 592 max number args (since this only affects my own abstractions
at present no need to mess about with generating this dynamically)
;
#X obj 224 648 spigot;
#X msg 1054 304 1;
#X obj 196 587 t b b;
#X msg 196 609 0;
#X obj 958 283 t b b;
#X obj 858 299 t b b;
#X obj 755 284 t b b;
#X obj 645 286 t b b;
#X obj 538 289 t b b;
#X obj 437 289 t b b;
#X obj 333 292 t b b;
#X obj 233 291 t b b;
#X obj 130 293 t b b;
#X obj 20 295 t b b;
#X obj -87 298 t b b;
#X obj -176 302 t b b;
#X obj 226 708 outlet;
#X obj 924 146 t b b, f 22;
#X obj 923 119 inlet;
#X connect 0 0 1 0;
#X connect 1 0 3 0;
#X connect 2 0 0 0;
#X connect 3 0 72 0;
#X connect 3 1 74 0;
#X connect 4 0 17 0;
#X connect 5 0 17 1;
#X connect 6 0 7 0;
#X connect 7 0 8 0;
#X connect 8 0 72 0;
#X connect 8 1 75 0;
#X connect 9 0 17 0;
#X connect 10 0 6 0;
#X connect 11 0 86 0;
#X connect 12 0 13 0;
#X connect 13 0 14 0;
#X connect 14 0 72 0;
#X connect 14 1 76 0;
#X connect 15 0 12 0;
#X connect 16 0 17 0;
#X connect 17 0 5 0;
#X connect 17 0 27 0;
#X connect 18 0 19 0;
#X connect 19 0 20 0;
#X connect 20 0 72 0;
#X connect 20 1 77 0;
#X connect 21 0 22 0;
#X connect 22 0 23 0;
#X connect 23 0 72 0;
#X connect 23 1 78 0;
#X connect 24 0 25 0;
#X connect 25 0 26 0;
#X connect 26 0 72 0;
#X connect 26 1 79 0;
#X connect 27 0 28 0;
#X connect 27 1 11 1;
#X connect 28 0 29 0;
#X connect 29 0 11 0;
#X connect 30 0 18 0;
#X connect 31 0 21 0;
#X connect 32 0 24 0;
#X connect 33 0 17 0;
#X connect 34 0 17 0;
#X connect 35 0 17 0;
#X connect 36 0 37 0;
#X connect 37 0 38 0;
#X connect 38 0 72 0;
#X connect 38 1 80 0;
#X connect 39 0 40 0;
#X connect 40 0 41 0;
#X connect 41 0 72 0;
#X connect 41 1 81 0;
#X connect 42 0 43 0;
#X connect 43 0 44 0;
#X connect 44 0 72 0;
#X connect 44 1 82 0;
#X connect 45 0 46 0;
#X connect 46 0 47 0;
#X connect 47 0 72 0;
#X connect 47 1 83 0;
#X connect 48 0 49 0;
#X connect 49 0 50 0;
#X connect 50 0 72 0;
#X connect 50 1 84 0;
#X connect 51 0 52 0;
#X connect 52 0 53 0;
#X connect 53 0 72 0;
#X connect 53 1 85 0;
#X connect 54 0 51 0;
#X connect 55 0 48 0;
#X connect 56 0 45 0;
#X connect 57 0 42 0;
#X connect 58 0 39 0;
#X connect 59 0 36 0;
#X connect 60 0 17 0;
#X connect 61 0 17 0;
#X connect 62 0 17 0;
#X connect 63 0 17 0;
#X connect 64 0 17 0;
#X connect 65 0 17 0;
#X connect 70 0 11 0;
#X connect 71 0 70 1;
#X connect 72 0 73 0;
#X connect 72 1 70 0;
#X connect 73 0 70 1;
#X connect 74 0 10 0;
#X connect 74 1 4 0;
#X connect 75 0 15 0;
#X connect 75 1 9 0;
#X connect 76 0 30 0;
#X connect 76 1 16 0;
#X connect 77 0 31 0;
#X connect 77 1 35 0;
#X connect 78 0 32 0;
#X connect 78 1 34 0;
#X connect 79 0 59 0;
#X connect 79 1 33 0;
#X connect 80 0 58 0;
#X connect 80 1 65 0;
#X connect 81 0 57 0;
#X connect 81 1 64 0;
#X connect 82 0 56 0;
#X connect 82 1 63 0;
#X connect 83 0 55 0;
#X connect 83 1 62 0;
#X connect 84 0 54 0;
#X connect 84 1 61 0;
#X connect 85 0 72 0;
#X connect 85 1 60 0;
#X connect 87 0 2 0;
#X connect 87 1 71 0;
#X connect 88 0 87 0;
#X restore 1460 -20 pd args;
#N canvas 461 20 450 300 checkArgs 0;
#X obj 122 293 list length;
#X obj 122 232 list fromsymbol;
#X obj 61 108 list;
#X obj 222 450 list store;
#X msg 222 427 get \$1 1;
#X obj 223 473 sel 58;
#X obj 195 597 spigot;
#X obj 315 590 spigot;
#X obj 194 643 list append;
#X obj 256 618 list;
#X obj 315 647 list append;
#X obj 377 622 list;
#X obj 225 530 expr $f1 \; 1 - $f1, f 22;
#X obj 224 505 tgl 15 0 empty empty empty 17 7 0 10 -262144 -1 -1 1
1;
#X msg 295 451 0;
#X obj 225 571 tgl 15 0 empty empty empty 17 7 0 10 -262144 -1 -1 1
1;
#X obj 349 563 tgl 15 0 empty empty empty 17 7 0 10 -262144 -1 -1 0
1;
#X obj 315 668 list tosymbol;
#X obj 61 132 t a b b, f 54;
#X obj 121 325 for --;
#X obj 196 673 list tosymbol;
#X obj 138 702 list store;
#X obj 209 703 list store;
#X obj 121 356 t f f, f 17;
#X obj 123 383 sel 0;
#X obj 139 735 pack s s, f 12;
#X obj 139 762 list trim;
#X obj 62 -12 t a a, f 14;
#X obj 61 12 list length;
#X obj 61 82 list store;
#X msg 60 58 get \$1 1;
#X obj 196 392 t f f;
#X obj 59 167 route float;
#X obj 99 512 tgl 15 0 empty empty empty 17 7 0 10 -262144 -1 -1 1
1;
#X obj 123 407 t b b b;
#X msg 252 291 0;
#X obj 86 533 f;
#X obj 86 562 sel 0;
#X obj 42 622 text insert \$0-args;
#X obj 122 256 t a a b a, f 23;
#X obj 85 588 list store;
#X obj 121 206 t a a;
#X text 7 656 this ends up in reverse order;
#X obj 60 34 for --;
#X obj 140 785 outlet;
#X text 0 673 !!check this - prepend instead?;
#X obj 61 -37 inlet;
#X connect 0 0 19 0;
#X connect 1 0 39 0;
#X connect 2 0 18 0;
#X connect 3 0 5 0;
#X connect 4 0 3 0;
#X connect 5 0 13 0;
#X connect 5 0 33 0;
#X connect 5 1 6 0;
#X connect 5 1 7 0;
#X connect 6 0 8 0;
#X connect 7 0 10 0;
#X connect 8 0 9 0;
#X connect 8 0 20 0;
#X connect 9 0 8 1;
#X connect 10 0 11 0;
#X connect 10 0 17 0;
#X connect 11 0 10 1;
#X connect 12 0 15 0;
#X connect 12 1 16 0;
#X connect 13 0 12 0;
#X connect 14 0 13 0;
#X connect 15 0 6 1;
#X connect 16 0 7 1;
#X connect 17 0 22 1;
#X connect 18 0 32 0;
#X connect 18 1 14 0;
#X connect 18 2 9 0;
#X connect 18 2 11 0;
#X connect 18 2 8 0;
#X connect 18 2 10 0;
#X connect 19 0 23 0;
#X connect 20 0 21 1;
#X connect 21 0 25 0;
#X connect 22 0 25 1;
#X connect 23 0 24 0;
#X connect 23 1 31 0;
#X connect 24 0 34 0;
#X connect 25 0 26 0;
#X connect 26 0 44 0;
#X connect 27 0 28 0;
#X connect 27 1 29 1;
#X connect 28 0 43 0;
#X connect 29 0 2 0;
#X connect 30 0 29 0;
#X connect 31 1 4 0;
#X connect 32 0 38 0;
#X connect 32 1 41 0;
#X connect 33 0 36 1;
#X connect 34 0 21 0;
#X connect 34 1 22 0;
#X connect 34 2 36 0;
#X connect 35 0 33 0;
#X connect 36 0 37 0;
#X connect 37 0 40 0;
#X connect 39 0 0 0;
#X connect 39 1 3 1;
#X connect 39 2 35 0;
#X connect 40 0 38 0;
#X connect 41 0 1 0;
#X connect 41 1 40 1;
#X connect 43 0 30 0;
#X connect 46 0 27 0;
#X restore 1460 4 pd checkArgs;
#X obj 1460 29 s \$0-attributes;
#X obj 1314 -18 s \$0-init;
#X text 1313 -95 Charles Matthews for instrumentmaker.org 2019;
#X obj 1314 30 r \$0-attributes;
#X obj 1314 54 route name;
#N canvas 220 128 450 300 \$0-osc 0;
#X obj 11 99 s \$0-attributes;
#X obj 11 39 r im-fromOSC;
#X obj 11 70 route list;
#X obj 11 70 route delay;
#X connect 1 0 2 0;
#X connect 2 0 3 0;
#X connect 3 0 0 0;
#X restore 1314 197 pd \$0-osc;
#X obj 1314 169 s pd-\$0-osc;
#X msg 1314 111 clear \, obj 11 99 s \\\$0-attributes \, obj 11 39
r im-fromOSC \, obj 11 70 route list \, obj 11 70 route \$1 \, connect
1 0 2 0 \, connect 2 0 3 0 \, connect 3 0 0 0;
#X obj 1314 78 list prepend symbol;
#X text 1312 -117 Vanilla attribute management (compatible with older
Pd versions), f 65;
#X obj 1314 -45 t b b b b, f 63;
#X msg 1752 -19 0;
#X obj 1752 6 v taken\$0;
#X obj 1305 277 text define -k \$0-nToI;
#A set C 0 \; c 0 \; C# 1 \; C♯ 1 \; c# 1 \; c♯ 1 \; Db 1 \; D♭
1 \; D 2 \; db 1 \; d♭ 1 \; d 2 \; D# 3 \; D♯ 3 \; d# 3 \; d♯
3 \; Eb 3 \; E♭ 3 \; eb 3 \; e♭ 3 \; E 4 \; e 4 \; F 5 \; f 5 \;
F# 6 \; F♯ 6 \; f# 6 \; f♯ 6 \; Gb 6 \; G♭ 6 \; G 7 \; gb 6 \;
g♭ 6 \; g 7 \; Ab 8 \; A♭ 8 \; G# 8 \; G♯ 8 \; ab 8 \; a♭ 8
\; g# 8 \; g♯ 8 \; A 9 \; a 9 \; Bb 10 \; B♭ 10 \; bb 10 \; b♭
10 \; A# 10 \; A♯ 10 \; a# 10 \; a♯ 10 \; B 11 \; b 11 \;;
#X obj 626 369 utils.get.args \$0 3 smooth;
#X obj 20 480 * 1;
#X obj 253 551 *~;
#X obj 86 165 route float, f 79;
#X obj 635 196 symbol;
#X obj 19 391 im.map 0 127 0 1;
#X text 60 411 removed minimum which was \$3;
#X floatatom 988 294 5 0 0 0 - - -;
#X obj 36 641 -~;
#X obj 76 586 sig~;
#X obj 1019 167 utils.check.unit -;
#X obj 38 597 *~;
#X obj 37 702 *~;
#X obj -3 687 *~ 1;
#X obj 984 321 t f f;
#X obj 963 360 == 0;
#X obj 995 363 > 0;
#X connect 0 0 4 0;
#X connect 0 0 10 0;
#X connect 0 1 1 0;
#X connect 0 1 4 1;
#X connect 0 2 2 0;
#X connect 3 0 5 0;
#X connect 4 0 3 0;
#X connect 5 0 28 0;
#X connect 6 0 13 0;
#X connect 7 0 100 0;
#X connect 7 0 102 0;
#X connect 9 0 5 1;
#X connect 11 0 12 0;
#X connect 11 1 68 0;
#X connect 11 1 90 1;
#X connect 12 0 68 0;
#X connect 12 0 90 1;
#X connect 13 0 90 0;
#X connect 14 0 15 0;
#X connect 14 1 16 0;
#X connect 14 2 17 0;
#X connect 14 3 18 0;
#X connect 14 4 19 0;
#X connect 14 5 20 0;
#X connect 14 6 21 0;
#X connect 14 7 22 0;
#X connect 15 0 55 0;
#X connect 16 0 55 0;
#X connect 17 0 55 0;
#X connect 18 0 55 0;
#X connect 19 0 55 0;
#X connect 20 0 55 0;
#X connect 21 0 55 0;
#X connect 22 0 55 0;
#X connect 24 0 41 0;
#X connect 26 0 94 0;
#X connect 27 0 25 0;
#X connect 28 0 27 0;
#X connect 28 0 94 0;
#X connect 30 0 32 0;
#X connect 30 1 31 1;
#X connect 31 0 43 0;
#X connect 32 0 31 0;
#X connect 34 0 33 0;
#X connect 35 0 36 0;
#X connect 36 0 34 0;
#X connect 36 1 37 0;
#X connect 38 1 35 0;
#X connect 38 1 40 0;
#X connect 39 0 30 0;
#X connect 44 0 38 0;
#X connect 45 0 7 0;
#X connect 49 0 51 0;
#X connect 50 0 49 0;
#X connect 51 0 91 0;
#X connect 53 0 50 0;
#X connect 53 1 54 0;
#X connect 54 0 51 1;
#X connect 55 0 53 0;
#X connect 56 0 57 0;
#X connect 56 1 58 0;
#X connect 56 1 60 0;
#X connect 56 1 61 0;
#X connect 56 1 62 0;
#X connect 56 1 99 0;
#X connect 57 0 11 0;
#X connect 58 0 59 0;
#X connect 59 0 57 0;
#X connect 60 0 57 0;
#X connect 61 0 57 0;
#X connect 62 0 57 0;
#X connect 63 0 56 0;
#X connect 64 0 92 0;
#X connect 65 0 45 1;
#X connect 65 1 66 0;
#X connect 65 1 67 0;
#X connect 66 0 45 1;
#X connect 67 0 45 1;
#X connect 68 0 91 1;
#X connect 70 0 85 0;
#X connect 72 0 71 0;
#X connect 73 0 74 0;
#X connect 74 0 75 0;
#X connect 78 0 79 0;
#X connect 79 0 83 0;
#X connect 82 0 81 0;
#X connect 83 0 82 0;
#X connect 85 0 76 0;
#X connect 85 1 73 0;
#X connect 85 2 72 0;
#X connect 85 3 86 0;
#X connect 86 0 87 0;
#X connect 89 0 65 0;
#X connect 90 0 45 0;
#X connect 91 0 100 0;
#X connect 91 0 102 0;
#X connect 92 0 9 0;
#X connect 92 1 93 0;
#X connect 93 0 14 0;
#X connect 94 0 6 0;
#X connect 96 0 98 0;
#X connect 96 0 103 0;
#X connect 97 0 101 0;
#X connect 98 0 97 0;
#X connect 98 0 100 1;
#X connect 99 0 96 0;
#X connect 100 0 97 1;
#X connect 101 0 8 0;
#X connect 102 0 8 0;
#X connect 103 0 104 0;
#X connect 103 1 105 0;
#X connect 104 0 102 1;
#X connect 105 0 101 1;
#X coords 0 -1 1 1 112 28 1 60 800;
