#N canvas 132 69 729 493 10;
#X obj 11 10 cnv 15 500 120 empty empty instrument_maker 10 22 0 40
-4032 -66577 0;
#X obj 22 60 cnv 15 478 40 empty empty im.sinewave 20 22 0 30 -1 -196864
0;
#X text 22 110 Charles Matthews 2020;
#X obj 11 192 cnv 15 500 20 empty empty Arguments: 10 10 0 13 -203904
-66577 0;
#X obj 11 215 cnv 15 500 20 empty empty Inlets: 34 10 0 13 -204800
-66577 0;
#X obj 11 239 cnv 15 500 20 empty empty Outlets: 25 10 0 13 -204786
-66577 0;
#X text 21 171 comment, f 81;
#X obj 11 135 cnv 15 500 50 empty empty empty 25 10 0 13 -262130 -66577
0;
#X obj 10 441 cnv 15 500 40 empty empty empty 25 10 0 13 -262130 -66577
0;
#X text 18 443 im.sinewave accepts pitches (MIDI numbers as audio signal)
\, but does not currently recognise raw frequencies in Hz.., f 81
;
#X obj 51 410 im.speaker;
#X obj 51 389 im.fader;
#X obj 96 344 im.keypress Space;
#X obj 107 364 im.sensor 1;
#X obj 50 319 im.sinewave A 5;
#X text 47 266 Hold down the space bar on your computer or connect
sensor 1 to hear a sine wave at pitch A (octave 5)., f 32;
#X obj 306 421 im.speaker;
#X obj 306 400 im.fader;
#X obj 306 356 im.scale C major 4;
#X obj 306 378 im.sinewave;
#X obj 306 311 im.lfo slow sawtooth;
#X obj 306 334 im.multiply 8;
#X obj 384 384 im.sensor 2;
#X obj 384 407 im.keypress Up;
#X text 303 263 Hold down the 'Up' key or connect sensor 2 to hear
a sine wave ascending through the C major scale., f 26;
#X text 105 195 1) Note (optional) 2) Octave (optional), f 64;
#X text 105 217 1) pitch from im.scale (range of 0 - 127);
#X text 106 241 1) sinewave signal;
#X text 16 142 Generate a sine wave (often thought of as a 'pure' tone
\, like an ocarina or smooth rumbling sensation at lower frequencies).
, f 81;
#X obj 514 10 cnv 15 200 410 empty empty notes 8 12 0 20 -261682 -66577
0;
#X msg 560 200 im.scale;
#X msg 571 225 im.lfo;
#X obj 533 341 im.help;
#X text 621 211 interactions;
#X text 525 41 related objects;
#X msg 546 90 im.sawtooth;
#X msg 588 308 im.envelope;
#X text 596 264 shaping;
#X msg 533 66 im.squarewave;
#X msg 571 287 im.fader;
#X msg 556 118 im.noise;
#X connect 11 0 10 0;
#X connect 12 0 11 1;
#X connect 13 0 11 1;
#X connect 14 0 11 0;
#X connect 17 0 16 0;
#X connect 18 0 19 0;
#X connect 19 0 17 0;
#X connect 20 0 21 0;
#X connect 21 0 18 0;
#X connect 22 0 17 1;
#X connect 23 0 17 1;
#X connect 30 0 32 0;
#X connect 31 0 32 0;
#X connect 35 0 32 0;
#X connect 36 0 32 0;
#X connect 38 0 32 0;
#X connect 39 0 32 0;
#X connect 40 0 32 0;
