#N canvas 143 23 906 712 10;
#X obj 162 118 bng 15 250 50 0 empty empty empty 17 7 0 10 -262144
-1 -1;
#X obj 162 140 t b 1, f 34;
#X obj 237 529 t f b, f 15;
#X obj 424 294 + 1, f 4;
#X obj 390 428 sel, f 12;
#X obj 237 404 t f f, f 26;
#X msg 391 449 0;
#X obj 279 295 metro 100;
#X floatatom 237 425 5 0 0 0 - - -;
#X obj 276 269 t 1 a b, f 20;
#X msg 393 294 0;
#X floatatom 412 579 5 0 0 0 - - -;
#X floatatom 459 405 5 0 0 0 - - -;
#X text 454 646 middle note;
#X obj 424 268 *;
#X obj 412 649 outlet;
#X obj 185 119 array define \$1;
#X obj 162 216 im.scala \$2 \$3, f 59;
#X obj 237 485 im.scala2 \$2 \$3;
#X obj 239 595 tabwrite \$1;
#X obj 424 315 array size \$1;
#X floatatom 536 624 5 0 0 0 - - -;
#X obj 536 647 outlet;
#X text 580 645 highest note (size);
#X text 237 682 should start at 1 not 0 for interpolation \, fine for
now.;
#X text 170 189 could automatically determine as cents if over single/double
digit?;
#X obj 260 647 outlet;
#X text 306 650 how many notes;
#X floatatom 259 623 5 0 0 0 - - -;
#X obj 452 611 s \$1-middle;
#X obj 237 464 list store;
#X text 30 26 this was one of the first im abstractions \, could perhaps
use tools like for etc.;
#X text 126 265 why this metro?;
#X msg 237 444 get \$1 1;
#X obj 237 358 f;
#X obj 264 358 + 1;
#X obj 237 507 list.iter;
#X obj 323 555 f;
#X obj 350 555 + 1;
#X obj 163 92 inlet testbang;
#X connect 0 0 1 0;
#X connect 1 0 17 0;
#X connect 1 1 37 1;
#X connect 2 0 19 0;
#X connect 2 1 37 0;
#X connect 3 0 20 0;
#X connect 3 0 21 0;
#X connect 4 0 6 0;
#X connect 5 0 8 0;
#X connect 5 1 4 0;
#X connect 6 0 7 0;
#X connect 7 0 34 0;
#X connect 8 0 33 0;
#X connect 9 0 7 0;
#X connect 9 1 30 1;
#X connect 9 2 10 0;
#X connect 10 0 34 1;
#X connect 11 0 15 0;
#X connect 11 0 29 0;
#X connect 12 0 4 1;
#X connect 14 0 3 0;
#X connect 17 1 28 0;
#X connect 17 2 9 0;
#X connect 17 3 14 0;
#X connect 17 4 12 0;
#X connect 17 4 14 1;
#X connect 17 5 11 0;
#X connect 18 0 36 0;
#X connect 21 0 22 0;
#X connect 28 0 26 0;
#X connect 30 0 18 0;
#X connect 33 0 30 0;
#X connect 34 0 35 0;
#X connect 34 0 5 0;
#X connect 35 0 34 1;
#X connect 36 0 2 0;
#X connect 37 0 38 0;
#X connect 37 0 19 1;
#X connect 38 0 37 1;
#X connect 39 0 0 0;
