#N canvas 137 60 525 493 10;
#X obj 11 10 cnv 15 500 120 empty empty instrument_maker 10 22 0 40
-4032 -66577 0;
#X obj 22 60 cnv 15 478 40 empty empty im.tunedperc 20 22 0 30 -1 -196864
0;
#X text 22 110 Charles Matthews 2020;
#X obj 11 192 cnv 15 500 20 empty empty Arguments: 10 10 0 13 -203904
-66577 0;
#X obj 11 215 cnv 15 500 20 empty empty Inlets: 34 10 0 13 -204800
-66577 0;
#X obj 11 239 cnv 15 500 20 empty empty Outlets: 25 10 0 13 -204786
-66577 0;
#X obj 11 135 cnv 15 500 50 empty empty empty 25 10 0 13 -262130 -66577
0;
#X obj 8 392 cnv 15 500 80 empty empty empty 25 10 0 13 -262130 -66577
0;
#X text 105 195 none, f 64;
#X text 106 241 1) synthesised sound;
#X obj 65 337 im.tunedperc;
#X obj 65 358 im.speaker;
#X obj 65 306 im.scale F lydian 4;
#X obj 64 275 im.sensor 1 7;
#X obj 282 266 im.keypress q;
#X obj 282 349 im.tunedperc;
#X obj 282 369 im.speaker;
#X obj 282 329 im.scale C major 5;
#X obj 282 308 im.sequence 0 1;
#X obj 282 289 im.step 2;
#X text 18 395 im.tunedpercussion is the same as im.tunedperc, f 81
;
#X text 105 217 1) pitches from im.scale 2) velocity (0-1 \, or 0-127)
;
#X text 16 142 Play some small synthesised gongs as a standalone synthesiser.
, f 81;
#X text 22 171 m, f 81;
#X text 15 158 The velocity input takes a range of 0-1 or 0-127 (this
is detected automatically). If no velocity is received \, velocity
defaults to maximum., f 81;
#X connect 10 0 11 0;
#X connect 12 0 10 0;
#X connect 13 0 12 0;
#X connect 14 0 19 0;
#X connect 15 0 16 0;
#X connect 17 0 15 0;
#X connect 18 0 17 0;
#X connect 19 0 18 0;
