#N canvas 492 225 450 300;
#X obj 104 43 inlet~;
#X obj 103 264 outlet~;
#X obj 105 140 snapshot~;
#X obj 166 113 bang~;
#X obj 104 66 expr~ $v1 > 0.1;
#X obj 105 161 change;
#X obj 105 182 sel 1;
#X obj 105 205 tgl 15 0 empty empty empty 17 7 0 10 -262144 -1 -1 0
1;
#X obj 105 225 sig~;
#X connect 0 0 4 0;
#X connect 2 0 5 0;
#X connect 3 0 2 0;
#X connect 4 0 2 0;
#X connect 5 0 6 0;
#X connect 6 0 7 0;
#X connect 7 0 8 0;
#X connect 8 0 1 0;
#X coords 0 -1 1 1 15 15 1 0 800;
