#N canvas 132 69 525 493 10;
#X obj 11 10 cnv 15 500 120 empty empty instrument_maker 10 22 0 40
-4032 -66577 0;
#X obj 22 60 cnv 15 478 40 empty empty im.toggle 20 22 0 30 -1 -196864
0;
#X text 22 110 Charles Matthews 2020;
#X obj 11 192 cnv 15 500 20 empty empty Arguments: 10 10 0 13 -203904
-66577 0;
#X obj 11 215 cnv 15 500 20 empty empty Inlets: 34 10 0 13 -204800
-66577 0;
#X obj 11 239 cnv 15 500 20 empty empty Outlets: 25 10 0 13 -204786
-66577 0;
#X text 21 171 comment, f 81;
#X obj 11 135 cnv 15 500 50 empty empty empty 25 10 0 13 -262130 -66577
0;
#X obj 89 453 im.speaker;
#X obj 85 403 im.fader;
#X obj 282 270 im.keypress Space;
#X obj 282 308 im.toggle;
#X obj 85 266 im.noise;
#X obj 85 361 im.filter;
#X obj 106 319 im.lfo medium sine;
#X text 16 142 Trigger a toggle signal to switch on and off. No visual
representation at present., f 81;
#X text 105 195 none, f 64;
#X text 105 217 1) trigger signal (toggle switches if greater than
0.1);
#X text 106 241 1) toggle signal (0/1);
#X connect 9 0 8 0;
#X connect 10 0 11 0;
#X connect 11 0 9 1;
#X connect 12 0 13 0;
#X connect 13 0 9 0;
#X connect 14 0 13 1;
#X connect 14 0 13 2;
