#N canvas -1698 -450 990 787 10;
#X obj 177 88 snapshot~;
#X obj 187 63 bang~;
#X obj 177 39 expr~ $v1 > 0.1;
#X obj 177 109 change;
#X obj 177 130 sel 1;
#X obj 177 196 tgl 15 0 empty empty empty 17 7 0 10 -262144 -1 -1 1
1;
#X obj 177 238 sig~;
#X obj 240 294 symbol \$0-canvas;
#X obj 3 818 cnv 3 75 4 empty \$0-canvas empty 2 7 0 12 -24198 -1 0
;
#X obj 240 238 * 16;
#X obj 240 262 t b f, f 19;
#X obj 240 315 pack s f, f 19;
#X msg 240 341 \; \$1 color \$2;
#X obj 177 214 t f f, f 11;
#X obj 324 34 route bang;
#X obj 177 12 inlet~ fwd signal or bang;
#X obj 178 375 outlet~ value 0-1;
#X connect 0 0 3 0;
#X connect 1 0 0 0;
#X connect 2 0 0 0;
#X connect 3 0 4 0;
#X connect 4 0 5 0;
#X connect 5 0 13 0;
#X connect 6 0 16 0;
#X connect 7 0 11 0;
#X connect 9 0 10 0;
#X connect 10 0 7 0;
#X connect 10 1 11 1;
#X connect 11 0 12 0;
#X connect 13 0 6 0;
#X connect 13 1 9 0;
#X connect 14 0 5 0;
#X connect 15 0 2 0;
#X connect 15 1 14 0;
#X coords 0 -1 1 1 80 27 1 0 800;
