#N canvas -841 183 803 724 10;
#X obj 176 9 inlet~;
#X obj 177 235 outlet~;
#X obj 177 106 snapshot~;
#X obj 238 79 bang~;
#X obj 176 32 expr~ $v1 > 0.1;
#X obj 177 127 change;
#X obj 177 148 sel 1;
#X obj 177 171 tgl 15 0 empty empty empty 17 7 0 10 -262144 -1 -1 0
1;
#X obj 177 208 sig~;
#X obj 63 203 cnv 14 74 14 empty \$0-canvas im.toggle 2 7 0 12 -262144
-1 0;
#X obj 238 206 sel 0 1;
#X obj 238 289 symbol \$0-canvas;
#X msg 238 322 \; \$1 color 0;
#X msg 343 321 \; \$1 color 16;
#X obj 343 289 symbol \$0-canvas;
#X connect 0 0 4 0;
#X connect 2 0 5 0;
#X connect 3 0 2 0;
#X connect 4 0 2 0;
#X connect 5 0 6 0;
#X connect 6 0 7 0;
#X connect 7 0 8 0;
#X connect 7 0 10 0;
#X connect 8 0 1 0;
#X connect 10 0 11 0;
#X connect 10 1 14 0;
#X connect 11 0 12 0;
#X connect 14 0 13 0;
#X coords 0 -1 1 1 80 20 1 60 200;
