#N canvas 417 97 298 509 10;
#X obj 19 429 outlet;
#X obj 21 35 inlet;
#X obj 21 82 list length;
#X floatatom 21 133 5 0 0 0 - - -;
#X obj 74 317 list store, f 20;
#X obj 20 208 + 1;
#X obj 21 157 until;
#X obj 21 183 f, f 13;
#X obj 21 106 t f f b, f 13;
#X msg 96 140 0;
#X obj 75 372 list prepend;
#X msg 74 296 get \$1 1;
#X obj 144 339 list;
#X obj 21 60 t a a b, f 34;
#X obj 21 230 expr $f2 - $f1;
#X obj 21 343 sel 0;
#X obj 19 398 list store;
#X obj 21 258 t f f, f 9;
#X connect 1 0 13 0;
#X connect 2 0 8 0;
#X connect 3 0 6 0;
#X connect 4 0 10 0;
#X connect 5 0 7 1;
#X connect 5 0 14 0;
#X connect 6 0 7 0;
#X connect 7 0 5 0;
#X connect 8 0 3 0;
#X connect 8 1 14 1;
#X connect 8 2 9 0;
#X connect 9 0 7 1;
#X connect 10 0 12 0;
#X connect 10 0 16 1;
#X connect 11 0 4 0;
#X connect 12 0 10 1;
#X connect 13 0 2 0;
#X connect 13 1 4 1;
#X connect 13 2 12 1;
#X connect 13 2 10 1;
#X connect 14 0 17 0;
#X connect 15 0 16 0;
#X connect 16 0 0 0;
#X connect 17 0 15 0;
#X connect 17 1 11 0;
