#N canvas 459 95 612 547 10;
#X obj 104 128 list length;
#X obj 50 178 list split;
#X obj 52 79 list fromsymbol;
#X obj 105 152 - 1;
#X obj 46 319 spigot;
#X obj 47 340 list tosymbol;
#X obj 47 363 stof;
#X floatatom 47 389 5 0 0 0 - - -;
#X obj 106 475 makefilename %f;
#X floatatom 106 505 5 0 0 0 - - -;
#X obj 228 111 list store \$1;
#X obj 228 159 list fromsymbol;
#X floatatom 255 236 5 0 0 0 - - -;
#X obj 228 89 loadbang;
#X obj 52 100 t a a, f 9;
#X obj 228 184 t a a;
#X obj 255 209 list length;
#X obj 78 273 list.compare;
#X obj 47 423 outlet stripped;
#X text 151 423 only output the stripped value if the unit matches
;
#X obj -11 8 inlet value to check and strip;
#X obj 228 136 symbol;
#X obj -11 52 route float;
#X obj -11 30 symbol;
#X obj 129 312 tgl 15 0 empty empty empty 17 7 0 10 -262144 -1 -1 0
1;
#X connect 0 0 3 0;
#X connect 1 0 4 0;
#X connect 1 1 17 0;
#X connect 2 0 14 0;
#X connect 3 0 1 1;
#X connect 4 0 5 0;
#X connect 5 0 6 0;
#X connect 6 0 7 0;
#X connect 7 0 8 0;
#X connect 7 0 18 0;
#X connect 8 0 9 0;
#X connect 10 0 21 0;
#X connect 11 0 15 0;
#X connect 12 0 3 1;
#X connect 13 0 10 0;
#X connect 14 0 1 0;
#X connect 14 1 0 0;
#X connect 15 0 17 1;
#X connect 15 1 16 0;
#X connect 16 0 12 0;
#X connect 17 0 4 1;
#X connect 17 0 24 0;
#X connect 20 0 23 0;
#X connect 21 0 11 0;
#X connect 22 1 2 0;
#X connect 23 0 22 0;
#X coords 0 -1 1 1 15 15 1 0 800;
