#N canvas 610 137 450 300 10;
#X obj 85 29 notein;
#X floatatom 85 55 5 0 0 0 - - -;
#X obj 85 123 line~;
#X msg 85 100 \$1 10;
#X obj 85 80 im.map 0 127 0 1;
#X obj 86 148 outlet~;
#X connect 0 0 1 0;
#X connect 1 0 4 0;
#X connect 2 0 5 0;
#X connect 3 0 2 0;
#X connect 4 0 3 0;
