#N canvas 265 150 884 419 10;
#X obj 99 122 im.sinewave;
#X obj 112 205 im.output;
#X obj 193 118 im.input 1;
#X obj 112 179 im.volume;
#X obj 279 203 im.output;
#X obj 279 177 im.volume;
#X obj 450 206 im.output;
#X obj 450 180 im.volume;
#X obj 628 122 im.sinewave;
#X obj 626 239 im.output;
#X obj 626 213 im.volume;
#X obj 360 116 im.input 2;
#X obj 532 119 im.input 3;
#X obj 707 121 im.input 4;
#X obj 450 73 im.sawtooth;
#X obj 279 85 im.sawtooth;
#X obj 278 -2 osc~ 2;
#X obj 453 10 phasor~ -1;
#X obj 626 6 expr~ $v1 > 0.2;
#X obj 626 66 +~ 0.1;
#X obj 626 45 /~ 2;
#X obj 103 32 osc~ 1;
#X obj 104 67 *~ 64;
#X obj 279 19 osc~ 2;
#X obj 279 40 *~ 32;
#X obj 472 29 *~ 32;
#X obj 173 354 im.output;
#X obj 519 309 im.output;
#X obj 519 289 im.echo 1000 30%;
#X obj 174 333 im.echo 500 70%;
#X obj 472 50 +~ 60;
#X obj 279 61 +~ 40;
#X obj 104 88 +~ 10;
#X obj 626 -15 phasor~ -10;
#X obj 622 93 *~ 90;
#X connect 0 0 3 0;
#X connect 2 0 3 1;
#X connect 3 0 1 0;
#X connect 3 0 29 0;
#X connect 5 0 4 0;
#X connect 5 0 29 0;
#X connect 7 0 6 0;
#X connect 7 0 28 0;
#X connect 8 0 10 0;
#X connect 10 0 9 0;
#X connect 10 0 28 0;
#X connect 11 0 5 1;
#X connect 12 0 7 1;
#X connect 13 0 10 1;
#X connect 14 0 7 0;
#X connect 15 0 5 0;
#X connect 17 0 25 0;
#X connect 18 0 20 0;
#X connect 19 0 34 0;
#X connect 20 0 19 0;
#X connect 21 0 22 0;
#X connect 22 0 32 0;
#X connect 23 0 24 0;
#X connect 24 0 31 0;
#X connect 25 0 30 0;
#X connect 28 0 27 0;
#X connect 29 0 26 0;
#X connect 30 0 14 0;
#X connect 31 0 15 0;
#X connect 32 0 0 0;
#X connect 33 0 18 0;
#X connect 34 0 8 0;
