#N canvas 104 54 1176 669 10;
#X obj 35 66 im.sinewave;
#X obj 226 198 im.output;
#X obj 162 63 im.sinewave;
#X obj 293 58 im.sinewave;
#X obj 35 114 im.volume;
#X obj 162 115 im.volume;
#X obj 293 112 im.volume;
#X obj 86 88 im.input 1;
#X obj 212 89 im.input 2;
#X obj 344 85 im.input 3;
#X obj 419 56 im.sinewave;
#X obj 419 110 im.volume;
#X obj 470 87 im.input 4;
#X obj 127 201 sig~;
#X obj 129 178 tgl 15 0 empty empty empty 17 7 0 10 -262144 -1 -1 0
1;
#X obj 125 273 im.output;
#X obj 127 236 im.player string.aif;
#X obj 411 276 im.echo 100 50%;
#X obj 440 213 *~ 0.2;
#X obj 35 43 im.set E 5;
#X obj 162 41 im.set G 5;
#X obj 293 36 im.set B 5;
#X obj 419 33 im.set E 6;
#X connect 0 0 4 0;
#X connect 2 0 5 0;
#X connect 3 0 6 0;
#X connect 4 0 1 0;
#X connect 4 0 18 0;
#X connect 5 0 1 0;
#X connect 5 0 18 0;
#X connect 6 0 1 0;
#X connect 6 0 18 0;
#X connect 7 0 4 1;
#X connect 8 0 5 1;
#X connect 9 0 6 1;
#X connect 10 0 11 0;
#X connect 11 0 1 0;
#X connect 11 0 18 0;
#X connect 12 0 11 1;
#X connect 13 0 16 0;
#X connect 14 0 13 0;
#X connect 16 0 15 0;
#X connect 17 0 1 0;
#X connect 18 0 17 0;
#X connect 19 0 0 0;
#X connect 20 0 2 0;
#X connect 21 0 3 0;
#X connect 22 0 10 0;
