#N canvas 204 268 884 419 10;
#X obj 68 64 im.set C 2;
#X obj 68 101 im.sinewave;
#X obj 112 205 im.output;
#X obj 193 118 im.input 1;
#X obj 112 179 im.volume;
#X obj 279 153 im.sinewave;
#X obj 279 203 im.output;
#X obj 279 177 im.volume;
#X obj 450 156 im.sinewave;
#X obj 450 206 im.output;
#X obj 450 180 im.volume;
#X obj 626 158 im.sinewave;
#X obj 626 208 im.output;
#X obj 626 182 im.volume;
#X obj 279 116 im.set Eb 2;
#X obj 450 119 im.set G 2;
#X obj 626 121 im.set Bb 2;
#X obj 360 116 im.input 2;
#X obj 532 119 im.input 3;
#X obj 707 121 im.input 4;
#X connect 0 0 1 0;
#X connect 1 0 4 0;
#X connect 3 0 4 1;
#X connect 4 0 2 0;
#X connect 5 0 7 0;
#X connect 7 0 6 0;
#X connect 8 0 10 0;
#X connect 10 0 9 0;
#X connect 11 0 13 0;
#X connect 13 0 12 0;
#X connect 14 0 5 0;
#X connect 15 0 8 0;
#X connect 16 0 11 0;
#X connect 17 0 7 1;
#X connect 18 0 10 1;
#X connect 19 0 13 1;
