#N canvas 204 268 884 419 10;
#X obj 112 118 im.set C 2;
#X obj 112 178 im.sinewave;
#X obj 112 151 im.volume, f 14;
#X obj 112 205 im.output;
#X obj 193 118 im.input 1;
#X obj 287 180 im.sinewave;
#X obj 287 153 im.volume, f 14;
#X obj 287 207 im.output;
#X obj 368 116 im.input 2;
#X obj 466 182 im.sinewave;
#X obj 466 155 im.volume, f 14;
#X obj 466 209 im.output;
#X obj 643 180 im.sinewave;
#X obj 643 153 im.volume, f 14;
#X obj 643 207 im.output;
#X obj 547 118 im.input 3;
#X obj 724 118 im.input 4;
#X obj 466 118 im.set G 2;
#X obj 643 118 im.set B 2;
#X obj 287 117 im.set E 2;
#X connect 0 0 2 0;
#X connect 1 0 3 0;
#X connect 2 0 1 0;
#X connect 4 0 2 1;
#X connect 5 0 7 0;
#X connect 6 0 5 0;
#X connect 8 0 6 1;
#X connect 9 0 11 0;
#X connect 10 0 9 0;
#X connect 12 0 14 0;
#X connect 13 0 12 0;
#X connect 15 0 10 1;
#X connect 16 0 13 1;
#X connect 17 0 10 0;
#X connect 18 0 13 0;
#X connect 19 0 6 0;
