#N canvas 0 23 787 300 10;
#X obj 16 96 im.player rush.aif;
#X obj 16 190 im.speaker;
#X text 441 59 retriggers sample;
#X text 446 97 save your sample in the main instrument-maker folder
for now;
#X text 451 110 or add your sample folder to the search path in preferences
;
#X obj 16 65 im.keypress a;
#X obj 154 211 im.speaker;
#X obj 153 95 im.player string.aif;
#X obj 153 64 im.keypress s;
#X obj 296 190 im.speaker;
#X obj 296 64 im.keypress d;
#X obj 296 95 im.player sn.wav;
#X obj 46 148 im.echo 400 50%;
#X obj 175 148 im.echo 1000 70%;
#X obj 319 142 im.echo 100 50%;
#X connect 0 0 1 0;
#X connect 0 0 12 0;
#X connect 5 0 0 0;
#X connect 7 0 6 0;
#X connect 7 0 13 0;
#X connect 8 0 7 0;
#X connect 10 0 11 0;
#X connect 11 0 9 0;
#X connect 11 0 14 0;
#X connect 12 0 1 0;
#X connect 13 0 6 0;
#X connect 14 0 9 0;
