#N canvas 0 23 450 300 10;
#X obj 116 107 im.microphone;
#X obj 116 278 im.speaker;
#X obj 116 157 im.fader;
#X obj 161 132 im.sensor 1;
#X obj 229 229 im.echo 1000 50%;
#X obj 229 199 im.fader;
#X obj 275 173 im.sensor 2;
#X text 274 154 post fader send;
#X connect 0 0 2 0;
#X connect 2 0 1 0;
#X connect 2 0 5 0;
#X connect 3 0 2 1;
#X connect 4 0 1 0;
#X connect 5 0 4 0;
#X connect 6 0 5 1;
