#N canvas 189 30 786 665 10;
#X obj 13 39 cnv 15 400 160 empty empty inputs 25 15 0 30 -203904 -66577
0;
#X obj 19 112 im.sensor;
#X obj 19 72 im.microphone;
#X obj 19 92 im.linein;
#X obj 19 134 im.electrode;
#X obj 13 202 cnv 15 400 150 empty empty basic_sound_sources 25 15
0 20 -204786 -66577 0;
#X obj 20 234 im.noise;
#X obj 20 256 im.whitenoise;
#X obj 20 278 im.sinewave;
#X obj 20 300 im.sawtooth;
#X obj 12 446 cnv 15 400 180 empty empty signal_processors 25 15 0
20 -261234 -66577 0;
#X obj 420 467 cnv 15 300 100 empty empty outputs 25 15 0 30 -203904
-66577 0;
#X obj 435 531 im.speaker;
#X obj 435 506 im.output;
#X obj 424 222 cnv 15 350 75 empty empty note_generators 25 15 0 20
-4032 -66577 0;
#X obj 431 258 im.scale;
#X text 431 273 im.triads currently unavailable;
#X obj 419 62 cnv 15 350 100 empty empty audio_triggers 25 15 0 20
-204800 -66577 0;
#X obj 422 95 im.envelopefollower;
#X obj 423 118 im.pitchtracker;
#X obj 423 140 im.audiotrigger;
#X obj 20 479 im.echo;
#X obj 20 500 im.distort;
#X obj 20 525 im.chorus;
#X obj 19 547 im.fader;
#X obj 18 569 im.volume;
#X obj 18 597 im.filter;
#X obj 423 328 cnv 15 350 125 empty empty misc_control 25 15 0 20 -262130
-66577 0;
#X obj 429 358 im.lfo;
#X obj 429 429 im.debounce;
#X obj 430 382 im.sequence;
#X obj 430 404 im.step;
#X obj 11 353 cnv 15 400 90 empty empty samplers 25 15 0 20 -262130
-66577 0;
#X obj 19 383 im.player;
#X obj 19 405 im.oneshot;
#X obj 19 426 im.looper;
#X text 470 13 right-click on these objects to access help files,
f 50;
#X obj 19 156 im.keypress;
#X obj 19 178 im.makeymakey;
#X text 80 93 take audio from a line in;
#X text 98 132 requires a touch board in MIDI mode;
#X text 92 156 read keypresses e.g. on a raspberry pi;
#X text 102 179 a set of keypresses for easy access to makey makey
, f 51;
#X text 486 258 trigger degrees of a scale with a sensor input;
#X obj 20 322 im.pulsewave;
#X text 84 383 play a sound file;
#X text 88 404 record and play a sound file;
#X text 83 426 record and play a loop;
#X text 109 72 take audio from the microphone;
#X text 83 234 white noise generator;
#X text 105 255 same as im.noise;
#X text 95 278 sine wave generator (note input from im.scale);
#X text 94 297 sawtooth wave generator (note input from im.scale);
#X text 103 320 pulse wave generator (note input from im.scale);
#X text 519 118 track pitch and send to an oscillator;
#X text 545 96 mimic the intensity of an audio input;
#X text 521 140 generate triggers from percussive sounds;
#X text 504 429 ignore triggers in rapid succession;
#X text 484 405 generate steps for im.sequence from a sensor;
#X text 505 381 play an 8 step sequence into im.scale;
#X text 475 359 generate a low frequency oscillator for control;
#X text 500 507 a mono output;
#X text 503 531 same as im.output;
#X text 70 479 a feedback echo;
#X text 90 499 simple distortion/overdrive;
#X text 84 524 wobbly chorus effect;
#X text 72 546 change volume or intensity from a sensor;
#X text 161 570 same as im.fader;
#X obj 88 570 im.multiply;
#X text 80 112 read sensor information from the dedicated im board
;
#X text 82 598 a resonant lowpass filter;
#X text 13 11 Objects currently used in the main instrument maker examples
;
#X text 635 638 www.instrumentmaker.org;
