#N canvas -27 37 651 594 10;
#X obj 399 492 writesf~;
#X obj 400 395 im.linein 1;
#X obj 40 491 im.output;
#X obj 42 450 readsf~;
#X msg 483 423 stop;
#X obj 520 280 r fromGUI;
#X text 10 8 this is a demo written on a train \, does not represent
instrument maker!;
#X obj 520 301 route list;
#X obj 519 345 tgl 15 0 empty empty empty 17 7 0 10 -262144 -1 -1 0
1;
#X obj 398 18 r fromGUI;
#X obj 398 39 route list;
#X obj 397 92 tgl 15 0 empty empty empty 17 7 0 10 -262144 -1 -1 0
1;
#X obj 398 60 route /record;
#X obj 413 452 spigot;
#X obj 516 367 sel 0 1;
#X obj 398 162 sel 0;
#X msg 398 188 stop;
#X obj 169 216 tgl 15 0 empty empty empty 17 7 0 10 -262144 -1 -1 0
1;
#X obj 166 238 sel 0 1;
#X msg 435 187 0;
#X msg 150 320 0;
#X obj 334 120 t f f;
#X obj 41 399 spigot;
#X obj 125 404 tgl 15 0 empty empty empty 17 7 0 10 -262144 -1 -1 1
1;
#X obj 482 469 tgl 15 0 empty empty empty 17 7 0 10 -262144 -1 -1 0
1;
#X obj 326 158 expr 1 - $f1 \; $f1;
#X msg 184 318 open \$1 \, 1;
#X obj 186 291 makefilename %s.wav;
#X obj 520 322 route \$1;
#X obj 185 266 list store \$2;
#X msg 237 236 symbol play1;
#X obj 540 423 makefilename %s.wav;
#X obj 539 398 list store \$2;
#X msg 539 447 open \$1 \, start;
#X obj 260 428 s toGUI;
#X msg 260 399 list \$1 0;
#X connect 1 0 0 0;
#X connect 3 0 2 0;
#X connect 4 0 13 0;
#X connect 5 0 7 0;
#X connect 7 0 28 0;
#X connect 8 0 14 0;
#X connect 8 0 17 0;
#X connect 9 0 10 0;
#X connect 10 0 12 0;
#X connect 11 0 21 0;
#X connect 12 0 11 0;
#X connect 13 0 0 0;
#X connect 14 0 4 0;
#X connect 14 1 32 0;
#X connect 15 0 16 0;
#X connect 15 0 19 0;
#X connect 16 0 0 0;
#X connect 17 0 18 0;
#X connect 18 0 20 0;
#X connect 18 1 29 0;
#X connect 19 0 3 0;
#X connect 20 0 22 0;
#X connect 21 0 25 0;
#X connect 21 1 15 0;
#X connect 22 0 3 0;
#X connect 23 0 22 1;
#X connect 24 0 13 1;
#X connect 25 0 23 0;
#X connect 25 1 24 0;
#X connect 26 0 22 0;
#X connect 27 0 26 0;
#X connect 28 0 8 0;
#X connect 29 0 27 0;
#X connect 30 0 29 0;
#X connect 31 0 33 0;
#X connect 32 0 31 0;
#X connect 33 0 13 0;
#X connect 35 0 34 0;
