#N canvas 383 42 750 570 10;
#X obj 46 30 adc~;
#X obj 46 72 im.output;
#X obj 46 51 im.echo 1000 50% name:delay;
#X obj 310 -63 r fromGUI;
#X obj 293 487 s im-fromOSC;
#X obj 328 117 list fromsymbol;
#X obj 327 166 sel 47;
#X msg 375 246 32;
#X obj 446 260 list;
#X obj 316 319 list store;
#X obj 300 142 list.iter;
#X obj 309 354 list tosymbol;
#X obj 372 291 list prepend;
#X obj 307 -6 list split 1, f 50;
#X obj 532 320 r im-fromOSC;
#X obj 313 72 t b a b b;
#X msg 438 121 0;
#X obj 327 190 t b b;
#X obj 326 242 spigot;
#X msg 325 215 1;
#X obj 532 368 route delay;
#X floatatom 530 446 5 0 0 0 - - -;
#X obj 285 48 t b a;
#X obj 404 361 list;
#X obj 290 431 list store;
#X obj 294 462 list append;
#X obj 532 346 route list;
#X obj 322 402 list prepend;
#X obj 326 269 t b b;
#X obj 534 395 route feedback delayTime;
#X floatatom 602 447 5 0 0 0 - - -;
#X connect 0 0 2 0;
#X connect 2 0 1 0;
#X connect 3 0 13 0;
#X connect 5 0 10 0;
#X connect 6 0 17 0;
#X connect 6 1 12 0;
#X connect 8 0 12 1;
#X connect 9 0 11 0;
#X connect 10 0 6 0;
#X connect 11 0 27 0;
#X connect 12 0 8 0;
#X connect 12 0 9 1;
#X connect 13 0 22 0;
#X connect 13 1 25 1;
#X connect 14 0 26 0;
#X connect 15 0 9 0;
#X connect 15 1 5 0;
#X connect 15 2 8 1;
#X connect 15 2 12 1;
#X connect 15 3 16 0;
#X connect 15 3 23 1;
#X connect 15 3 27 1;
#X connect 16 0 18 1;
#X connect 17 0 19 0;
#X connect 17 1 18 0;
#X connect 18 0 7 0;
#X connect 18 0 28 0;
#X connect 19 0 18 1;
#X connect 20 0 29 0;
#X connect 22 0 24 0;
#X connect 22 1 15 0;
#X connect 23 0 27 1;
#X connect 24 0 25 0;
#X connect 25 0 4 0;
#X connect 26 0 20 0;
#X connect 27 0 23 0;
#X connect 27 0 24 1;
#X connect 28 0 9 0;
#X connect 28 1 8 1;
#X connect 28 1 12 1;
#X connect 29 0 21 0;
#X connect 29 1 30 0;
