#N canvas 507 40 500 505 10;
#X msg 76 80 delay feedback;
#X obj 87 439 print;
#X obj 65 167 until;
#X obj 78 250 list store;
#X obj 65 192 f;
#X obj 103 193 + 1;
#X msg 117 167 0, f 2;
#X msg 64 221 get \$1 1;
#X obj 88 294 makefilename /%s;
#X obj 156 327 list fromsymbol;
#X obj 191 367 list;
#X obj 142 447 list tosymbol;
#X obj 142 468 print joined;
#X obj 91 134 t b b a b;
#X obj 128 393 list prepend;
#N canvas 0 22 450 300 test 1;
#X obj 128 134 route /delay/feedback;
#X obj 127 38 r fromGUI;
#X obj 122 192 print doneeeeeeee;
#X floatatom 243 181 5 0 0 0 - - -;
#X floatatom 318 205 5 0 0 0 - - -;
#X obj 309 168 route /delay;
#X obj 132 94 route list;
#X connect 0 0 2 0;
#X connect 0 0 3 0;
#X connect 1 0 6 0;
#X connect 5 0 4 0;
#X connect 6 0 5 0;
#X restore 311 328 pd test;
#X obj 267 245 s pd-test;
#X msg 265 198 obj 100 100 route \$1;
#X connect 0 0 13 0;
#X connect 2 0 4 0;
#X connect 3 0 8 0;
#X connect 3 1 2 1;
#X connect 4 0 5 0;
#X connect 4 0 7 0;
#X connect 5 0 4 1;
#X connect 6 0 4 1;
#X connect 7 0 3 0;
#X connect 8 0 1 0;
#X connect 8 0 9 0;
#X connect 9 0 14 0;
#X connect 10 0 14 1;
#X connect 11 0 12 0;
#X connect 11 0 17 0;
#X connect 13 0 2 0;
#X connect 13 1 6 0;
#X connect 13 2 3 1;
#X connect 13 3 10 1;
#X connect 13 3 14 1;
#X connect 14 0 10 0;
#X connect 14 0 11 0;
#X connect 17 0 16 0;
