#N canvas 197 41 1176 669 10;
#X obj 117 202 im.input 1;
#X obj 254 204 im.input 2;
#X obj 125 379 im.output;
#X obj 254 234 im.player people.wav;
#X obj 117 232 im.player what.wav;
#X obj 255 335 im.echo 1000 50%;
#X obj 255 380 im.output;
#X connect 0 0 4 0;
#X connect 1 0 3 0;
#X connect 3 0 5 0;
#X connect 3 0 2 0;
#X connect 4 0 5 0;
#X connect 4 0 2 0;
#X connect 5 0 6 0;
