#N canvas 104 54 1176 669 10;
#X obj 117 202 im.input 1;
#X obj 254 204 im.input 2;
#X obj 125 379 im.output;
#X obj 255 335 im.echo 1000 50%;
#X obj 255 380 im.output;
#X obj 390 312 im.output;
#X obj 572 377 im.output;
#X obj 382 135 im.input 3;
#X obj 571 201 im.input 4;
#X obj 382 165 im.player anger-management.wav;
#X obj 572 332 im.echo 500 50%;
#X obj 27 617 im.output;
#X obj 399 550 im.output;
#X obj 581 615 im.output;
#X obj 580 469 im.player fitzroy.wav;
#X obj 16 499 *~;
#X obj 66 471 im.scale C major 4;
#X obj 66 492 im.sinewave;
#X obj 92 410 im.input 5 octaves 2;
#X obj 2 410 im.input 5;
#X obj 581 570 im.echo 400 50%;
#X obj 71 532 *~ 2;
#X obj 145 36 sig~ 1;
#X obj 183 98 im.volume;
#X obj 283 3 im.input 8;
#X obj 580 439 im.input 7;
#X obj 391 373 im.input 6;
#X obj 567 519 im.volume;
#X obj 627 491 im.input 7;
#X obj 205 161 im.volume 20%;
#X obj 143 61 im.player YS8.wav;
#X obj 117 232 im.player YS4.wav;
#X obj 254 234 im.player YS5.wav;
#X obj 571 231 im.player YS6.wav;
#X obj 417 426 im.player YS3.wav;
#X obj 2 440 im.player YS7.wav;
#X obj 294 40 im.blip;
#X obj 168 263 im.blip;
#X obj 288 272 im.blip;
#X obj 115 434 im.blip;
#X obj 421 400 im.blip;
#X obj 663 202 im.blip;
#X obj 664 422 im.blip;
#X obj 463 130 im.blip;
#X connect 0 0 31 0;
#X connect 0 0 37 0;
#X connect 1 0 32 0;
#X connect 1 0 38 0;
#X connect 3 0 4 0;
#X connect 7 0 9 0;
#X connect 7 0 43 0;
#X connect 8 0 33 0;
#X connect 8 0 41 0;
#X connect 9 0 5 0;
#X connect 9 0 10 0;
#X connect 10 0 6 0;
#X connect 15 0 11 0;
#X connect 16 0 17 0;
#X connect 17 0 21 0;
#X connect 18 0 16 0;
#X connect 19 0 35 0;
#X connect 19 0 39 0;
#X connect 20 0 13 0;
#X connect 21 0 15 1;
#X connect 22 0 30 0;
#X connect 23 0 29 0;
#X connect 24 0 23 1;
#X connect 24 0 36 0;
#X connect 25 0 14 0;
#X connect 25 0 42 0;
#X connect 26 0 34 0;
#X connect 26 0 40 0;
#X connect 27 0 20 0;
#X connect 28 0 27 1;
#X connect 29 0 3 0;
#X connect 30 0 23 0;
#X connect 31 0 3 0;
#X connect 31 0 2 0;
#X connect 32 0 3 0;
#X connect 32 0 2 0;
#X connect 33 0 5 0;
#X connect 33 0 10 0;
#X connect 34 0 12 0;
#X connect 34 0 27 0;
#X connect 35 0 15 0;
