#N canvas 371 226 1176 669 10;
#X obj 226 198 im.output;
#X obj 293 58 im.sinewave;
#X obj 293 36 im.set G 5;
#X obj 35 114 im.volume;
#X obj 162 115 im.volume;
#X obj 268 131 im.volume;
#X obj 86 88 im.input 1;
#X obj 212 89 im.input 2;
#X obj 344 85 im.input 3;
#X obj 419 56 im.sinewave;
#X obj 465 189 im.volume;
#X obj 470 87 im.input 4;
#X obj 419 33 im.set C 6;
#X obj 100 358 im.output;
#X obj 254 234 im.player people.wav;
#X obj 260 375 im.output;
#X obj 117 232 im.player what.wav;
#X obj 473 342 im.echo 1000 50%;
#X obj 471 387 im.output;
#X obj 116 289 *~ 2;
#X obj 252 297 *~ 2;
#X obj 399 234 im.player anger-management.wav;
#X obj 708 237 im.loop fitzroy.wav;
#X obj 594 347 im.echo 500 50%;
#X obj 592 223 *~ 2;
#X connect 1 0 5 0;
#X connect 2 0 1 0;
#X connect 3 0 0 0;
#X connect 4 0 0 0;
#X connect 5 0 0 0;
#X connect 6 0 3 1;
#X connect 6 0 16 0;
#X connect 7 0 4 1;
#X connect 7 0 14 0;
#X connect 8 0 21 0;
#X connect 10 0 23 0;
#X connect 10 0 24 0;
#X connect 11 0 10 1;
#X connect 12 0 9 0;
#X connect 14 0 17 0;
#X connect 14 0 20 0;
#X connect 16 0 17 0;
#X connect 16 0 19 0;
#X connect 17 0 18 0;
#X connect 19 0 13 0;
#X connect 20 0 15 0;
#X connect 21 0 17 0;
#X connect 21 0 20 0;
#X connect 22 0 10 0;
#X connect 23 0 18 0;
#X connect 24 0 18 0;
