#N canvas 150 98 712 599 10;
#X obj 377 225 im.looper, f 20;
#X obj 366 116 im.linein 1;
#X obj 483 136 im.input 4;
#X obj 564 155 im.input 5;
#X obj 573 190 im.input 6;
#X obj 375 432 im.output;
#X obj 421 294 im.volume;
#X obj 472 266 im.input 7;
#X obj 421 317 im.echo 100 50%;
#X obj 44 128 im.scale A minor 4;
#X obj 44 97 im.input 1 octaves 2;
#X obj 44 156 im.sinewave;
#X obj 45 252 im.output;
#X obj 43 216 im.volume;
#X obj 129 154 im.input 2;
#X obj 212 250 im.output;
#X obj 134 407 im.sinewave;
#X obj 135 503 im.output;
#X obj 133 467 im.volume;
#X obj 134 348 im.input 1 octaves 1;
#X obj 134 379 im.scale A minor 2;
#X obj 219 405 im.input 8;
#X obj 564 315 im.chorus;
#X obj 564 286 im.volume;
#X obj 615 258 im.input 8;
#X obj 215 173 im.fizzy;
#X obj 211 95 im.input 3 octaves 3;
#X obj 211 127 im.scale A minor 2;
#X connect 0 0 5 0;
#X connect 0 0 6 0;
#X connect 1 0 0 0;
#X connect 1 0 23 0;
#X connect 2 0 0 1;
#X connect 3 0 0 2;
#X connect 4 0 0 3;
#X connect 6 0 8 0;
#X connect 7 0 6 1;
#X connect 8 0 5 0;
#X connect 9 0 11 0;
#X connect 10 0 9 0;
#X connect 11 0 13 0;
#X connect 13 0 12 0;
#X connect 14 0 13 1;
#X connect 16 0 18 0;
#X connect 18 0 17 0;
#X connect 19 0 20 0;
#X connect 20 0 16 0;
#X connect 21 0 18 1;
#X connect 22 0 5 0;
#X connect 23 0 22 0;
#X connect 24 0 23 1;
#X connect 25 0 15 0;
#X connect 26 0 27 0;
#X connect 27 0 25 0;
