#N canvas 159 17 1078 761 10;
#X obj 192 117 textfile;
#X obj 190 154 print;
#X obj 162 85 bng 15 250 50 0 empty empty empty 17 7 0 10 -262144 -1
-1;
#X msg 194 13 read atest.json cr \, rewind;
#X obj 310 244 bng 15 250 50 0 empty empty empty 17 7 0 10 -262144
-1 -1;
#X obj 230 155 list length;
#X floatatom 230 179 5 0 0 0 - - -;
#X obj 312 222 sel 123 125;
#X obj 341 244 bng 15 250 50 0 empty empty empty 17 7 0 10 -262144
-1 -1;
#X obj 739 302 text;
#X msg 771 253 read -c atest.json;
#X obj 734 261 bng 15 250 50 0 empty empty empty 17 7 0 10 -262144
-1 -1;
#X obj 739 324 print;
#X obj 352 82 text define temp;
#X obj 401 725 text set temp;
#X obj 446 275 bng 15 250 50 0 empty empty empty 17 7 0 10 -262144
-1 -1;
#X obj 311 156 t a a, f 33;
#X obj 311 200 list fromsymbol;
#X obj 311 179 prepend symbol;
#X obj 465 697 + 1;
#X obj 400 666 t a b;
#X obj 427 697 f;
#X msg 444 14 symbol "high";
#X obj 495 535 bng 15 250 50 0 empty empty empty 17 7 0 10 -262144
-1 -1;
#X obj 495 511 sel 123 125;
#X obj 526 536 bng 15 250 50 0 empty empty empty 17 7 0 10 -262144
-1 -1;
#X obj 558 535 bng 15 250 50 0 empty empty empty 17 7 0 10 -262144
-1 -1;
#X obj 495 469 list fromsymbol;
#X obj 446 325 list store;
#X obj 446 399 route symbol float;
#X msg 482 374 \$3;
#X obj 446 302 t a a, f 8;
#X obj 400 639 list store;
#X obj 296 676 f;
#X floatatom 281 702 5 0 0 0 - - -;
#X msg 273 60 -1;
#X obj 299 648 t b f;
#X msg 346 266 -1;
#X msg 310 266 1;
#X obj 324 676 +;
#X msg 495 558 1;
#X msg 527 559 -1;
#X msg 445 374 \$1;
#X msg 352 58 clear;
#X obj 495 490 ../im.utils/list.iter;
#X msg 784 426 0;
#X obj 559 563 f;
#X obj 633 444 bng 15 250 50 0 empty empty empty 17 7 0 10 -262144
-1 -1;
#X obj 494 422 t a b, f 26;
#X text 811 426 order is messed up here?!;
#X text 686 551 since I can't trust the trigger a b above;
#X msg 644 582 0;
#X obj 646 555 t b f;
#X obj 203 80 until 4;
#X obj 202 58 bng 15 250 50 0 empty empty empty 17 7 0 10 -262144 -1
-1;
#N canvas -30 95 774 707 writetest 1;
#X obj 45 113 list tosymbol;
#X obj 22 264 print;
#X obj 46 138 list prepend add;
#X obj 46 171 list trim;
#X obj 111 249 textfile;
#X obj 135 292 print;
#X msg 111 217 write mytest.json cr;
#X msg 45 71 123;
#X obj 531 117 text size temp;
#X obj 532 64 bng 15 250 50 0 empty empty empty 17 7 0 10 -262144 -1
-1;
#X floatatom 568 62 5 0 0 0 - - -;
#X floatatom 225 148 5 0 0 0 - - -;
#X obj 308 157 bng 15 250 50 0 empty empty empty 17 7 0 10 -262144
-1 -1;
#X obj 251 229 print;
#X floatatom 344 155 5 0 0 0 - - -;
#X floatatom 400 192 5 0 0 0 - - -;
#X obj 309 191 text get temp;
#X obj 583 388 ../im.utils/list.iter;
#X obj 407 339 list store;
#X msg 441 307 get \$1 1;
#X floatatom 441 250 5 0 0 0 - - -;
#X obj 407 363 sel :;
#X obj 408 393 bng 15 250 50 0 empty empty empty 17 7 0 10 -262144
-1 -1;
#X obj 412 210 until;
#X obj 275 259 bng 15 250 50 0 empty empty empty 17 7 0 10 -262144
-1 -1;
#X obj 412 230 f;
#X obj 440 230 + 1;
#X obj 375 282 bng 15 250 50 0 empty empty empty 17 7 0 10 -262144
-1 -1;
#X obj 289 364 print numbs;
#X obj 287 294 print num;
#X obj 309 249 t b b;
#X msg 334 271 -1;
#X obj 407 452 f;
#X obj 441 277 t f f, f 12;
#X floatatom 407 473 5 0 0 0 - - -;
#X obj 657 622 bucket;
#X text 562 455 change / bucket?:;
#X floatatom 407 522 5 0 0 0 - - -;
#X text 562 474 if levelflag == 0;
#X text 753 492 open curly bracket;
#X obj 456 421 - 1;
#X text 585 492 create line: indices[level];
#X obj 450 450 f;
#X text 295 423 cheap bucket;
#X floatatom 450 474 5 0 0 0 - - -;
#X obj 407 544 expr $f1 > $f2 \; $f1 < $f2 \; $f1 == $f 2;
#X obj 405 596 tgl 15 0 empty empty empty 17 7 0 10 -262144 -1 -1 0
1;
#X obj 490 596 tgl 15 0 empty empty empty 17 7 0 10 -262144 -1 -1 1
1;
#X obj 452 597 tgl 15 0 empty empty empty 17 7 0 10 -262144 -1 -1 0
1;
#X obj 408 418 t b b;
#X obj 405 622 sel 1;
#X obj 453 623 sel 1;
#X obj 493 622 sel 1;
#X obj 405 655 print openbracket;
#X obj 309 223 t b a a, f 10;
#X obj 222 632 list append : [;
#X obj 222 479 list split, f 19;
#X obj 222 384 list store;
#X obj 225 419 t a a;
#X obj 221 590 list store;
#X msg 221 562 get \$1 1;
#X obj 224 503 t b;
#X obj 223 530 f;
#X obj 224 657 t b a;
#X obj 221 747 list store, f 20;
#X floatatom 252 531 5 0 0 0 - - -;
#X obj 253 506 - 1;
#X obj 443 686 t b b;
#X obj 396 766 list split, f 19;
#X obj 397 733 list store;
#X msg 467 722 ];
#X obj 122 831 list prepend add;
#X obj 122 864 list trim;
#X obj 123 901 textfile;
#X msg 124 611 [;
#X obj 588 210 until;
#X obj 589 234 f;
#X obj 590 255 + 1;
#X msg 636 215 -1;
#X obj 588 183 t f b f, f 15;
#X obj 589 280 t f f, f 9;
#X obj 531 142 sel 0;
#X text 115 17 nearly there: sustituting square brackets since I can't
open the textfile having added curly ones.;
#X text 130 69 json: need to compare the indices \; checking the length
won't cut it. furthermore \, we need to make sure the text object has
arranged everything in (alphabetical?) order - so that the branches
are grouped together.;
#X text 114 43 no support for arrays just yet. need to tidy up and
abstract first.;
#X msg 643 117 clear;
#X obj 589 335 sel;
#X floatatom 668 275 5 0 0 0 - - -;
#X obj 360 779 f;
#X obj 407 497 t f f f f f;
#X obj 605 362 print done;
#X obj 356 837 ../im.utils/for;
#X obj 356 813 + 1;
#X obj 356 863 t b;
#X msg 356 886 ];
#X obj 532 86 t b b b b, f 19;
#X msg 685 113 0;
#X obj 668 293 - 1;
#X connect 0 0 2 0;
#X connect 2 0 1 0;
#X connect 2 0 3 0;
#X connect 3 0 4 0;
#X connect 4 0 5 0;
#X connect 6 0 4 0;
#X connect 7 0 0 0;
#X connect 8 0 11 0;
#X connect 8 0 81 0;
#X connect 9 0 95 0;
#X connect 10 0 8 0;
#X connect 12 0 16 0;
#X connect 14 0 16 0;
#X connect 16 0 13 0;
#X connect 16 0 15 0;
#X connect 16 0 54 0;
#X connect 18 0 21 0;
#X connect 19 0 18 0;
#X connect 20 0 33 0;
#X connect 21 0 22 0;
#X connect 22 0 23 1;
#X connect 22 0 49 0;
#X connect 23 0 25 0;
#X connect 25 0 26 0;
#X connect 25 0 28 0;
#X connect 26 0 25 1;
#X connect 26 0 20 0;
#X connect 27 0 25 0;
#X connect 30 0 23 0;
#X connect 30 1 31 0;
#X connect 31 0 25 0;
#X connect 32 0 34 0;
#X connect 33 0 19 0;
#X connect 33 1 40 0;
#X connect 34 0 89 0;
#X connect 37 0 45 0;
#X connect 40 0 32 1;
#X connect 42 0 44 0;
#X connect 44 0 45 1;
#X connect 45 0 46 0;
#X connect 45 1 48 0;
#X connect 45 2 47 0;
#X connect 46 0 50 0;
#X connect 47 0 52 0;
#X connect 48 0 51 0;
#X connect 49 0 32 0;
#X connect 49 1 42 0;
#X connect 50 0 53 0;
#X connect 50 0 57 0;
#X connect 51 0 67 0;
#X connect 52 0 69 0;
#X connect 54 0 30 0;
#X connect 54 1 18 1;
#X connect 54 2 57 1;
#X connect 54 2 69 1;
#X connect 55 0 63 0;
#X connect 56 0 61 0;
#X connect 56 1 64 1;
#X connect 57 0 58 0;
#X connect 58 0 56 0;
#X connect 58 1 59 1;
#X connect 59 0 55 0;
#X connect 60 0 59 0;
#X connect 61 0 62 0;
#X connect 62 0 60 0;
#X connect 63 0 64 0;
#X connect 63 1 71 0;
#X connect 64 0 71 0;
#X connect 66 0 65 0;
#X connect 66 0 62 1;
#X connect 67 0 69 0;
#X connect 67 1 70 0;
#X connect 68 1 71 0;
#X connect 69 0 68 0;
#X connect 70 0 71 0;
#X connect 71 0 72 0;
#X connect 72 0 73 0;
#X connect 74 0 71 0;
#X connect 75 0 76 0;
#X connect 76 0 77 0;
#X connect 77 0 76 1;
#X connect 77 0 80 0;
#X connect 78 0 76 1;
#X connect 79 0 75 0;
#X connect 79 1 78 0;
#X connect 79 2 87 0;
#X connect 80 0 86 0;
#X connect 80 1 14 0;
#X connect 81 1 79 0;
#X connect 85 0 73 0;
#X connect 86 0 90 0;
#X connect 86 0 88 0;
#X connect 87 0 97 0;
#X connect 88 0 92 0;
#X connect 89 0 37 0;
#X connect 89 1 42 1;
#X connect 89 2 56 1;
#X connect 89 2 68 1;
#X connect 89 3 66 0;
#X connect 89 4 88 1;
#X connect 91 0 93 0;
#X connect 92 0 91 0;
#X connect 93 0 94 0;
#X connect 94 0 71 0;
#X connect 95 0 8 0;
#X connect 95 1 74 0;
#X connect 95 2 85 0;
#X connect 95 3 96 0;
#X connect 96 0 42 0;
#X connect 97 0 86 1;
#X restore 523 134 pd writetest;
#X obj 523 58 text get temp;
#X obj 523 103 print;
#X text 783 280 doesn't seem to work directly..;
#X obj 673 583 sel 0 1, f 14;
#X symbolatom 791 616 10 0 0 0 - - -;
#X obj 713 606 list store;
#X msg 769 583 \$1;
#X obj 316 702 value level;
#X floatatom 713 670 5 0 0 0 - - -;
#X obj 490 589 list prepend;
#X obj 713 691 sel 0;
#X obj 670 670 list;
#X obj 740 732 change;
#X obj 575 755 list split;
#X obj 576 780 print append;
#X obj 808 595 bng 15 250 50 0 empty empty empty 17 7 0 10 -262144
-1 -1;
#X obj 740 753 t b f;
#X obj 543 726 list store;
#X floatatom 809 739 5 0 0 0 - - -;
#X obj 473 760 print or;
#X obj 194 37 t a b b b, f 40;
#X obj 601 692 list prepend;
#X obj 673 602 t b b;
#X obj 432 107 t b b b b;
#X obj 260 731 print level;
#X obj 788 716 print s;
#X obj 712 651 f;
#X obj 800 638 t b s;
#X text 753 692 expand this how? third level proving tricky;
#X msg 523 81 \$4;
#X msg 646 13 list "scale" "high";
#X obj 674 71 list length;
#X obj 647 49 t a a;
#X obj 523 36 text search temp;
#X msg 543 12 symbol "notes";
#X msg 674 115 set \, adddollar \$1;
#X obj 674 93 + 2;
#X msg 777 14 list "scale" "low";
#X msg 901 15 symbol "notes";
#X obj 281 762 sel -1;
#X obj 281 786 print done;
#X obj 743 487 print done;
#X obj 446 350 t a a a a a, f 30;
#X obj 635 484 spigot;
#X obj 634 508 t b b;
#X msg 682 484 0;
#X obj 668 423 t b;
#X msg 668 450 1;
#X obj 731 448 print bangs;
#X text 509 376 lost track here;
#X obj 495 445 list prepend symbol;
#X connect 0 0 1 0;
#X connect 0 0 5 0;
#X connect 0 0 16 0;
#X connect 2 0 0 0;
#X connect 3 0 76 0;
#X connect 4 0 38 0;
#X connect 5 0 6 0;
#X connect 7 0 4 0;
#X connect 7 1 8 0;
#X connect 7 2 15 0;
#X connect 8 0 37 0;
#X connect 9 0 12 0;
#X connect 10 0 9 0;
#X connect 11 0 9 0;
#X connect 15 0 31 0;
#X connect 16 0 18 0;
#X connect 16 1 28 1;
#X connect 17 0 7 0;
#X connect 18 0 17 0;
#X connect 19 0 21 1;
#X connect 20 0 14 0;
#X connect 20 1 21 0;
#X connect 21 0 19 0;
#X connect 21 0 14 1;
#X connect 22 0 89 0;
#X connect 23 0 40 0;
#X connect 24 0 23 0;
#X connect 24 1 25 0;
#X connect 24 2 26 0;
#X connect 25 0 41 0;
#X connect 27 0 44 0;
#X connect 28 0 98 0;
#X connect 29 2 48 0;
#X connect 30 0 29 0;
#X connect 31 0 28 0;
#X connect 32 0 20 0;
#X connect 33 0 39 0;
#X connect 34 0 80 0;
#X connect 34 0 82 1;
#X connect 34 0 95 0;
#X connect 35 0 33 1;
#X connect 36 0 33 0;
#X connect 36 1 39 1;
#X connect 37 0 36 0;
#X connect 38 0 36 0;
#X connect 39 0 33 1;
#X connect 39 0 34 0;
#X connect 39 0 63 0;
#X connect 40 0 36 0;
#X connect 40 0 46 1;
#X connect 41 0 36 0;
#X connect 41 0 46 1;
#X connect 42 0 29 0;
#X connect 43 0 13 0;
#X connect 44 0 24 0;
#X connect 44 1 47 0;
#X connect 46 0 52 0;
#X connect 47 0 97 0;
#X connect 47 0 99 0;
#X connect 48 0 106 0;
#X connect 48 1 45 0;
#X connect 51 0 46 1;
#X connect 52 0 51 0;
#X connect 52 1 59 0;
#X connect 53 0 0 0;
#X connect 54 0 53 0;
#X connect 56 0 85 0;
#X connect 59 0 78 0;
#X connect 59 1 61 0;
#X connect 60 0 65 1;
#X connect 60 0 81 0;
#X connect 60 0 83 0;
#X connect 61 0 60 0;
#X connect 62 0 61 1;
#X connect 64 0 66 0;
#X connect 65 0 32 1;
#X connect 66 0 65 1;
#X connect 66 0 73 1;
#X connect 66 0 77 1;
#X connect 66 1 68 0;
#X connect 67 0 77 1;
#X connect 68 0 72 0;
#X connect 69 0 70 0;
#X connect 71 0 60 0;
#X connect 72 0 73 0;
#X connect 72 1 69 1;
#X connect 72 1 74 0;
#X connect 73 0 69 0;
#X connect 73 0 75 0;
#X connect 76 0 0 0;
#X connect 76 1 35 0;
#X connect 76 2 43 0;
#X connect 76 3 79 0;
#X connect 77 0 67 0;
#X connect 77 0 73 1;
#X connect 78 0 32 0;
#X connect 79 0 73 1;
#X connect 79 1 77 1;
#X connect 79 2 67 1;
#X connect 79 3 65 1;
#X connect 82 0 64 0;
#X connect 83 0 82 0;
#X connect 83 1 77 0;
#X connect 85 0 57 0;
#X connect 86 0 88 0;
#X connect 87 0 92 0;
#X connect 88 0 89 0;
#X connect 88 1 87 0;
#X connect 89 0 56 0;
#X connect 90 0 89 0;
#X connect 91 0 85 0;
#X connect 92 0 91 0;
#X connect 93 0 88 0;
#X connect 94 0 88 0;
#X connect 95 0 96 0;
#X connect 98 0 42 0;
#X connect 98 1 30 0;
#X connect 98 2 102 0;
#X connect 98 3 65 0;
#X connect 98 4 62 0;
#X connect 99 0 100 0;
#X connect 100 0 46 0;
#X connect 100 1 101 0;
#X connect 101 0 99 1;
#X connect 102 0 103 0;
#X connect 102 0 104 0;
#X connect 103 0 99 1;
#X connect 106 0 27 0;
