#N canvas 189 23 1078 761 10;
#X obj 192 117 textfile;
#X obj 190 154 print;
#X obj 162 85 bng 15 250 50 0 empty empty empty 17 7 0 10 -262144 -1
-1;
#X msg 194 13 read atest.json cr \, rewind;
#X obj 310 244 bng 15 250 50 0 empty empty empty 17 7 0 10 -262144
-1 -1;
#X obj 230 155 list length;
#X floatatom 230 179 5 0 0 0 - - -;
#X obj 312 222 sel 123 125;
#X obj 341 244 bng 15 250 50 0 empty empty empty 17 7 0 10 -262144
-1 -1;
#X obj 739 302 text;
#X msg 771 253 read -c atest.json;
#X obj 734 261 bng 15 250 50 0 empty empty empty 17 7 0 10 -262144
-1 -1;
#X obj 739 324 print;
#X obj 347 82 text define temp;
#X obj 437 694 text set temp;
#X obj 446 275 bng 15 250 50 0 empty empty empty 17 7 0 10 -262144
-1 -1;
#X obj 311 156 t a a, f 33;
#X obj 311 200 list fromsymbol;
#X obj 311 179 prepend symbol;
#X obj 495 666 + 1;
#X obj 436 635 t a b;
#X obj 463 666 f;
#X msg 444 14 symbol "high";
#X obj 551 532 bng 15 250 50 0 empty empty empty 17 7 0 10 -262144
-1 -1;
#X obj 551 508 sel 123 125;
#X obj 582 533 bng 15 250 50 0 empty empty empty 17 7 0 10 -262144
-1 -1;
#X obj 614 532 bng 15 250 50 0 empty empty empty 17 7 0 10 -262144
-1 -1;
#X obj 551 466 list fromsymbol;
#X obj 551 442 prepend symbol;
#X obj 446 325 list store;
#X obj 446 399 route symbol float;
#X msg 482 374 \$3;
#X obj 446 302 t a a, f 8;
#X obj 436 608 list store;
#X obj 310 361 f;
#X floatatom 295 387 5 0 0 0 - - -;
#X msg 270 80 -1;
#X obj 311 290 t b f;
#X msg 346 266 -1;
#X msg 310 266 1;
#X obj 338 361 +;
#X msg 551 555 1;
#X msg 583 556 -1;
#X msg 446 373 \$1;
#X msg 347 58 clear;
#X obj 551 487 ../im.utils/list.iter;
#X msg 704 486 0;
#X obj 619 555 f;
#X obj 674 511 bng 15 250 50 0 empty empty empty 17 7 0 10 -262144
-1 -1;
#X obj 551 421 t a b, f 26;
#X text 731 486 order is messed up here?!;
#X text 686 551 since I can't trust the trigger a b above;
#X msg 644 582 0;
#X obj 646 555 t b f;
#X obj 203 80 until 4;
#X obj 202 58 bng 15 250 50 0 empty empty empty 17 7 0 10 -262144 -1
-1;
#N canvas 0 22 450 300 writetest 0;
#X obj 46 54 list tosymbol;
#X obj 23 205 print;
#X obj 47 79 list prepend add;
#X obj 47 112 list trim;
#X obj 112 190 textfile;
#X obj 136 233 print;
#X msg 119 163 write mytest.json cr;
#X msg 45 30 123;
#X connect 0 0 2 0;
#X connect 2 0 1 0;
#X connect 2 0 3 0;
#X connect 3 0 4 0;
#X connect 4 0 5 0;
#X connect 6 0 4 0;
#X connect 7 0 0 0;
#X restore 523 134 pd writetest;
#X obj 523 58 text get temp;
#X obj 523 103 print;
#X text 783 280 doesn't seem to work directly..;
#X obj 673 583 sel 0 1, f 14;
#X symbolatom 791 654 10 0 0 0 - - -;
#X obj 713 606 list store;
#X obj 446 350 t a a a a, f 12;
#X msg 769 583 \$1;
#X obj 330 387 value level;
#X floatatom 713 670 5 0 0 0 - - -;
#X obj 493 583 list prepend;
#X obj 713 691 sel 0;
#X obj 890 636 change;
#X obj 871 596 list;
#X obj 651 628 list;
#X obj 740 732 change;
#X obj 575 755 list split;
#X obj 576 780 print append;
#X obj 808 633 bng 15 250 50 0 empty empty empty 17 7 0 10 -262144
-1 -1;
#X obj 740 753 t b f;
#X obj 543 726 list store;
#X floatatom 809 739 5 0 0 0 - - -;
#X obj 473 760 print or;
#X obj 194 37 t a b b b, f 40;
#X obj 601 692 list prepend;
#X obj 673 602 t b b;
#X obj 366 523 t b b b b;
#X obj 274 416 print level;
#X obj 788 716 print s;
#X obj 712 651 f;
#X obj 800 676 t b s;
#X text 753 692 expand this how? third level proving tricky;
#X msg 523 81 \$4;
#X msg 646 13 list "scale" "high";
#X obj 674 71 list length;
#X obj 647 49 t a a;
#X obj 523 36 text search temp;
#X msg 543 12 symbol "notes";
#X msg 674 115 set \, adddollar \$1;
#X obj 674 93 + 2;
#X msg 777 14 list "scale" "low";
#X msg 901 15 symbol "notes";
#X connect 0 0 1 0;
#X connect 0 0 5 0;
#X connect 0 0 16 0;
#X connect 2 0 0 0;
#X connect 3 0 80 0;
#X connect 4 0 39 0;
#X connect 5 0 6 0;
#X connect 7 0 4 0;
#X connect 7 1 8 0;
#X connect 7 2 15 0;
#X connect 8 0 38 0;
#X connect 9 0 12 0;
#X connect 10 0 9 0;
#X connect 11 0 9 0;
#X connect 15 0 32 0;
#X connect 16 0 18 0;
#X connect 16 1 29 1;
#X connect 17 0 7 0;
#X connect 18 0 17 0;
#X connect 19 0 21 1;
#X connect 20 0 14 0;
#X connect 20 1 21 0;
#X connect 21 0 19 0;
#X connect 21 0 14 1;
#X connect 22 0 93 0;
#X connect 23 0 41 0;
#X connect 24 0 23 0;
#X connect 24 1 25 0;
#X connect 24 2 26 0;
#X connect 25 0 42 0;
#X connect 27 0 45 0;
#X connect 28 0 27 0;
#X connect 29 0 63 0;
#X connect 30 2 49 0;
#X connect 31 0 30 0;
#X connect 32 0 29 0;
#X connect 33 0 20 0;
#X connect 34 0 40 0;
#X connect 35 0 84 0;
#X connect 35 0 86 1;
#X connect 36 0 34 1;
#X connect 37 0 34 0;
#X connect 37 1 40 1;
#X connect 38 0 37 0;
#X connect 39 0 37 0;
#X connect 40 0 34 1;
#X connect 40 0 35 0;
#X connect 40 0 65 0;
#X connect 41 0 37 0;
#X connect 41 0 47 1;
#X connect 42 0 37 0;
#X connect 42 0 47 1;
#X connect 43 0 30 0;
#X connect 44 0 13 0;
#X connect 45 0 24 0;
#X connect 45 1 48 0;
#X connect 47 0 53 0;
#X connect 48 0 47 0;
#X connect 49 0 28 0;
#X connect 49 1 46 0;
#X connect 52 0 47 1;
#X connect 53 0 52 0;
#X connect 53 1 60 0;
#X connect 54 0 0 0;
#X connect 55 0 54 0;
#X connect 57 0 89 0;
#X connect 60 0 82 0;
#X connect 60 1 62 0;
#X connect 61 0 67 1;
#X connect 61 0 85 0;
#X connect 61 0 87 0;
#X connect 62 0 61 0;
#X connect 63 0 43 0;
#X connect 63 1 31 0;
#X connect 63 2 67 0;
#X connect 63 3 64 0;
#X connect 64 0 62 1;
#X connect 66 0 68 0;
#X connect 67 0 33 1;
#X connect 68 0 67 1;
#X connect 68 0 77 1;
#X connect 68 0 81 1;
#X connect 68 1 72 0;
#X connect 71 0 81 1;
#X connect 72 0 76 0;
#X connect 73 0 74 0;
#X connect 75 0 61 0;
#X connect 76 0 77 0;
#X connect 76 1 73 1;
#X connect 76 1 78 0;
#X connect 77 0 73 0;
#X connect 77 0 79 0;
#X connect 80 0 0 0;
#X connect 80 1 36 0;
#X connect 80 2 44 0;
#X connect 80 3 83 0;
#X connect 81 0 71 0;
#X connect 81 0 77 1;
#X connect 82 0 33 0;
#X connect 83 0 77 1;
#X connect 83 1 81 1;
#X connect 83 2 71 1;
#X connect 83 3 67 1;
#X connect 86 0 66 0;
#X connect 87 0 86 0;
#X connect 87 1 81 0;
#X connect 89 0 58 0;
#X connect 90 0 92 0;
#X connect 91 0 96 0;
#X connect 92 0 93 0;
#X connect 92 1 91 0;
#X connect 93 0 57 0;
#X connect 94 0 93 0;
#X connect 95 0 89 0;
#X connect 96 0 95 0;
#X connect 97 0 92 0;
#X connect 98 0 92 0;
