#N canvas 319 17 869 713 10;
#X obj 163 134 textfile;
#X obj 161 205 print;
#X obj 133 102 bng 15 250 50 0 empty empty empty 17 7 0 10 -262144
-1 -1;
#X msg 165 13 read atest.json cr \, rewind;
#X obj 384 281 bng 15 250 50 0 empty empty empty 17 7 0 10 -262144
-1 -1;
#X obj 201 206 list length;
#X floatatom 201 230 5 0 0 0 - - -;
#X obj 320 251 sel 123 125;
#X obj 415 281 bng 15 250 50 0 empty empty empty 17 7 0 10 -262144
-1 -1;
#X obj 717 65 text;
#X msg 749 16 read -c atest.json;
#X obj 712 24 bng 15 250 50 0 empty empty empty 17 7 0 10 -262144 -1
-1;
#X obj 717 87 print;
#X obj 318 99 text define temp;
#X obj 427 630 text set temp;
#X obj 446 283 bng 15 250 50 0 empty empty empty 17 7 0 10 -262144
-1 -1;
#X obj 313 145 t a a, f 17;
#X obj 309 219 list fromsymbol;
#X obj 311 179 prepend symbol;
#X obj 485 602 + 1;
#X obj 426 571 t a b;
#X obj 453 602 f;
#X obj 523 36 text search temp;
#X msg 444 14 symbol "high";
#X obj 556 815 bng 15 250 50 0 empty empty empty 17 7 0 10 -262144
-1 -1;
#X obj 556 791 sel 123 125;
#X obj 587 816 bng 15 250 50 0 empty empty empty 17 7 0 10 -262144
-1 -1;
#X obj 618 818 bng 15 250 50 0 empty empty empty 17 7 0 10 -262144
-1 -1;
#X obj 622 823 list fromsymbol;
#X obj 624 783 prepend symbol;
#X obj 551 540 bng 15 250 50 0 empty empty empty 17 7 0 10 -262144
-1 -1;
#X obj 551 516 sel 123 125;
#X obj 582 541 bng 15 250 50 0 empty empty empty 17 7 0 10 -262144
-1 -1;
#X obj 614 540 bng 15 250 50 0 empty empty empty 17 7 0 10 -262144
-1 -1;
#X obj 551 474 list fromsymbol;
#X obj 551 450 prepend symbol;
#X obj 446 333 list store;
#X obj 446 407 route symbol float;
#X msg 482 382 \$3;
#X obj 446 310 t a a, f 8;
#X obj 426 544 list store;
#X obj 310 369 f;
#X obj 330 395 value brackets;
#X floatatom 232 405 5 0 0 0 - - -;
#X obj 397 369 - 1;
#X obj 368 369 f;
#X msg 239 101 -1;
#X obj 312 329 t b f;
#X msg 415 311 -1;
#X msg 384 311 1;
#X obj 338 369 +;
#X msg 551 563 1;
#X msg 583 564 -1;
#X msg 446 381 \$1;
#X obj 165 54 t a b b, f 26;
#X msg 318 75 clear;
#X obj 446 358 t a a a, f 12;
#X obj 551 495 ../im.utils/list.iter;
#X msg 704 494 0;
#X obj 640 619 f;
#X obj 674 519 bng 15 250 50 0 empty empty empty 17 7 0 10 -262144
-1 -1;
#X obj 694 647 sel 0;
#X obj 551 429 t a b, f 26;
#X text 731 494 order is messed up here?!;
#X obj 694 666 t b;
#X text 707 615 since I can't trust the trigger a b above;
#X msg 665 646 0;
#X obj 667 619 t b f;
#X obj 365 444 print mylit;
#X obj 376 489 print iter;
#X obj 174 97 until 4;
#X obj 173 75 bng 15 250 50 0 empty empty empty 17 7 0 10 -262144 -1
-1;
#N canvas 0 22 450 300 writetest 0;
#X obj 46 54 list tosymbol;
#X obj 23 205 print;
#X obj 47 79 list prepend add;
#X obj 47 112 list trim;
#X obj 112 190 textfile;
#X obj 136 233 print;
#X msg 119 163 write mytest.json cr;
#X msg 45 30 123;
#X connect 0 0 2 0;
#X connect 2 0 1 0;
#X connect 2 0 3 0;
#X connect 3 0 4 0;
#X connect 4 0 5 0;
#X connect 6 0 4 0;
#X connect 7 0 0 0;
#X restore 523 134 pd writetest;
#X obj 523 58 text get temp;
#X obj 523 103 print;
#X msg 543 12 symbol "low";
#X msg 523 81 \$3;
#X text 523 383 can I skip the first one if I look for \$1 and \$3
here? it seems not;
#X text 761 43 doesn't seem to work directly..;
#X connect 0 0 1 0;
#X connect 0 0 5 0;
#X connect 0 0 16 0;
#X connect 2 0 0 0;
#X connect 3 0 54 0;
#X connect 4 0 49 0;
#X connect 5 0 6 0;
#X connect 7 0 4 0;
#X connect 7 1 8 0;
#X connect 7 2 15 0;
#X connect 8 0 48 0;
#X connect 9 0 12 0;
#X connect 10 0 9 0;
#X connect 11 0 9 0;
#X connect 15 0 39 0;
#X connect 16 0 18 0;
#X connect 16 1 36 1;
#X connect 17 0 7 0;
#X connect 18 0 17 0;
#X connect 19 0 21 1;
#X connect 20 0 14 0;
#X connect 20 1 21 0;
#X connect 21 0 19 0;
#X connect 21 0 14 1;
#X connect 22 0 73 0;
#X connect 23 0 22 0;
#X connect 25 0 24 0;
#X connect 25 1 26 0;
#X connect 25 2 27 0;
#X connect 28 0 25 0;
#X connect 29 0 28 0;
#X connect 30 0 51 0;
#X connect 31 0 30 0;
#X connect 31 1 32 0;
#X connect 31 2 33 0;
#X connect 32 0 52 0;
#X connect 34 0 57 0;
#X connect 34 0 68 0;
#X connect 35 0 34 0;
#X connect 36 0 56 0;
#X connect 37 2 62 0;
#X connect 38 0 37 0;
#X connect 39 0 36 0;
#X connect 40 0 20 0;
#X connect 41 0 50 0;
#X connect 44 0 45 1;
#X connect 45 0 44 0;
#X connect 46 0 41 1;
#X connect 47 0 41 0;
#X connect 47 1 50 1;
#X connect 48 0 47 0;
#X connect 49 0 47 0;
#X connect 50 0 41 1;
#X connect 50 0 42 0;
#X connect 50 0 43 0;
#X connect 51 0 47 0;
#X connect 51 0 59 1;
#X connect 52 0 47 0;
#X connect 52 0 59 1;
#X connect 53 0 37 0;
#X connect 54 0 0 0;
#X connect 54 1 46 0;
#X connect 54 2 55 0;
#X connect 55 0 13 0;
#X connect 56 0 53 0;
#X connect 56 1 38 0;
#X connect 56 2 40 1;
#X connect 57 0 31 0;
#X connect 57 0 69 0;
#X connect 57 1 60 0;
#X connect 59 0 67 0;
#X connect 60 0 59 0;
#X connect 61 0 64 0;
#X connect 62 0 35 0;
#X connect 62 1 58 0;
#X connect 64 0 40 0;
#X connect 66 0 59 1;
#X connect 67 0 66 0;
#X connect 67 1 61 0;
#X connect 70 0 0 0;
#X connect 71 0 70 0;
#X connect 73 0 76 0;
#X connect 75 0 22 0;
#X connect 76 0 74 0;
